<svg width="291" height="174" viewBox="0 0 291 174" fill="none" xmlns="http://www.w3.org/2000/svg">
<rect x="24.5" y="20.5" width="243" height="133" rx="11.5" fill="#E8EBFC" stroke="white"/>
<g clip-path="url(#clip0_264_9040)">
<path d="M187.455 107H226.526C228.999 107 231.001 109.023 231.001 111.523V126.6C231.001 129.099 228.999 131.123 226.526 131.123H212.515L214.438 135.884L205.98 131.123H187.475C185.002 131.123 183.001 129.099 183.001 126.6V111.523C182.981 109.043 184.983 107 187.455 107Z" fill="#7F54B3"/>
<path d="M185.733 111.123C186.007 110.748 186.416 110.55 186.963 110.511C187.958 110.432 188.524 110.906 188.66 111.931C189.265 116.054 189.929 119.545 190.631 122.405L194.904 114.18C195.294 113.43 195.782 113.036 196.368 112.996C197.226 112.937 197.753 113.49 197.968 114.653C198.455 117.277 199.08 119.506 199.821 121.399C200.329 116.389 201.187 112.78 202.397 110.551C202.69 109.998 203.119 109.722 203.685 109.683C204.134 109.643 204.543 109.781 204.914 110.077C205.285 110.373 205.48 110.748 205.519 111.201C205.538 111.556 205.48 111.852 205.324 112.148C204.563 113.568 203.938 115.955 203.431 119.269C202.943 122.484 202.768 124.989 202.885 126.784C202.924 127.277 202.846 127.711 202.651 128.086C202.416 128.52 202.065 128.756 201.617 128.796C201.109 128.835 200.582 128.599 200.075 128.066C198.26 126.192 196.816 123.391 195.763 119.663C194.495 122.188 193.558 124.082 192.953 125.344C191.802 127.573 190.826 128.717 190.007 128.776C189.48 128.816 189.031 128.362 188.641 127.415C187.646 124.831 186.573 119.841 185.421 112.444C185.343 111.931 185.46 111.478 185.734 111.122L185.733 111.123ZM227.666 114.219C226.963 112.977 225.929 112.227 224.544 111.931C224.173 111.852 223.822 111.813 223.49 111.813C221.617 111.813 220.095 112.799 218.905 114.772C217.89 116.448 217.383 118.302 217.383 120.334C217.383 121.853 217.695 123.154 218.32 124.239C219.022 125.482 220.056 126.232 221.442 126.527C221.812 126.606 222.164 126.646 222.495 126.646C224.388 126.646 225.91 125.66 227.081 123.687C228.095 121.991 228.602 120.137 228.602 118.105C228.622 116.567 228.29 115.284 227.666 114.219ZM225.207 119.683C224.934 120.985 224.446 121.951 223.724 122.602C223.159 123.115 222.632 123.332 222.144 123.234C221.676 123.135 221.285 122.721 220.993 121.951C220.759 121.34 220.642 120.729 220.642 120.156C220.642 119.663 220.681 119.17 220.778 118.717C220.954 117.908 221.285 117.119 221.812 116.369C222.456 115.403 223.139 115.008 223.842 115.146C224.31 115.245 224.7 115.659 224.993 116.428C225.227 117.04 225.344 117.651 225.344 118.223C225.344 118.736 225.305 119.229 225.207 119.683ZM215.451 114.219C214.749 112.977 213.695 112.227 212.329 111.931C211.959 111.852 211.607 111.813 211.276 111.813C209.403 111.813 207.881 112.799 206.69 114.772C205.676 116.448 205.168 118.302 205.168 120.334C205.168 121.853 205.481 123.154 206.105 124.239C206.807 125.482 207.842 126.232 209.227 126.527C209.598 126.606 209.949 126.646 210.281 126.646C212.173 126.646 213.695 125.66 214.866 123.687C215.88 121.991 216.388 120.137 216.388 118.105C216.388 116.567 216.076 115.284 215.451 114.219ZM212.973 119.683C212.7 120.985 212.212 121.951 211.49 122.602C210.924 123.115 210.398 123.332 209.91 123.234C209.442 123.135 209.051 122.721 208.759 121.951C208.524 121.34 208.407 120.729 208.407 120.156C208.407 119.663 208.446 119.17 208.544 118.717C208.72 117.908 209.051 117.119 209.578 116.369C210.222 115.403 210.905 115.008 211.607 115.146C212.076 115.245 212.466 115.659 212.759 116.428C212.993 117.04 213.11 117.651 213.11 118.223C213.129 118.736 213.071 119.229 212.973 119.683Z" fill="white"/>
</g>
<g clip-path="url(#clip1_264_9040)">
<path d="M133.531 61.6551C133.531 61.4778 133.351 61.4069 133.189 61.4069H132.883V62.2936H133.045V61.9389H133.171L133.369 62.2936H133.568L133.333 61.9034C133.389 61.8949 133.44 61.8669 133.476 61.8245C133.512 61.7822 133.532 61.7283 133.531 61.6729V61.6551ZM133.045 61.797V61.5487H133.189C133.279 61.5487 133.369 61.5665 133.369 61.6729C133.369 61.7793 133.261 61.797 133.171 61.797H133.045ZM133.189 61.0876C133.032 61.0912 132.88 61.1404 132.752 61.2291C132.624 61.3177 132.525 61.4418 132.468 61.5857C132.411 61.7296 132.399 61.8867 132.433 62.0374C132.468 62.188 132.546 62.3253 132.66 62.4319C132.773 62.5385 132.916 62.6096 133.07 62.6363C133.225 62.663 133.384 62.644 133.527 62.5817C133.671 62.5194 133.792 62.4167 133.876 62.2865C133.96 62.1563 134.004 62.0045 134 61.8502C134 61.7462 133.979 61.6433 133.938 61.5475C133.897 61.4516 133.837 61.3648 133.761 61.2921C133.686 61.2194 133.596 61.1623 133.498 61.1241C133.4 61.086 133.295 61.0676 133.189 61.0699V61.0876ZM133.189 62.5064C133.053 62.5063 132.92 62.4663 132.807 62.3914C132.694 62.3166 132.606 62.2103 132.555 62.0861C132.504 61.9619 132.491 61.8255 132.519 61.6943C132.547 61.5632 132.614 61.4432 132.712 61.3497C132.809 61.2562 132.933 61.1934 133.067 61.1694C133.201 61.1455 133.339 61.1614 133.464 61.2151C133.589 61.2689 133.694 61.358 133.767 61.4711C133.84 61.5842 133.877 61.7162 133.874 61.8502C133.874 62.0289 133.802 62.2003 133.673 62.3267C133.545 62.4531 133.371 62.5241 133.189 62.5241V62.5064ZM81.6527 61.2118C80.4814 61.2118 79.8868 60.1655 79.8868 59.1724C79.8868 58.1793 80.5355 57.1862 81.5986 57.1862C82.1032 57.1862 82.7339 57.4344 82.9862 57.7891L84.2115 56.5655C83.8654 56.2367 83.4559 55.9795 83.0071 55.8089C82.5584 55.6383 82.0795 55.5579 81.5986 55.5724C79.4363 55.5724 77.8686 57.0975 77.8686 59.1901C77.8686 61.3182 79.4183 62.8256 81.6527 62.8256C82.6978 62.8256 83.6709 62.5241 84.2475 61.9034L83.0402 60.6266C82.8608 60.8109 82.6455 60.9578 82.4071 61.0584C82.1687 61.1589 81.9121 61.2111 81.6527 61.2118ZM74.7151 62.6305H76.6612V55.7675H74.7331L74.7151 62.6305ZM71.2013 59.5271C71.2013 60.3251 70.6607 61.1941 69.6876 61.1941C68.9128 61.1941 68.4983 60.662 68.4983 59.5448V55.7852H66.5702V60.0413C66.5702 61.4601 67.291 62.8433 69.2191 62.8433C70.1201 62.8433 70.8769 62.134 71.2553 61.6019H71.2914V62.6482H73.1294V55.7675H71.2013V59.5271ZM63.0924 56.6364H63.0563C62.786 56.3349 62.0472 55.5724 60.8579 55.5724C58.8938 55.5724 57.3801 57.0798 57.3801 59.1724C57.3801 61.3005 58.7857 62.8256 60.7678 62.8256C61.1918 62.8128 61.6086 62.7149 61.9928 62.5381C62.377 62.3612 62.7205 62.109 63.0023 61.797H63.0383V66H64.9484V55.7675H63.1104L63.0924 56.6364ZM61.2363 61.2118C60.047 61.2118 59.3623 60.1832 59.3623 59.1724C59.3623 58.197 59.975 57.1684 61.2363 57.1684C62.3716 57.1684 63.0744 58.2325 63.0744 59.1901C63.0744 60.1477 62.3896 61.2118 61.2363 61.2118ZM105.078 55.5724C102.898 55.5724 101.294 57.0798 101.294 59.1724C101.294 61.3359 102.916 62.8433 105.078 62.8433C107.241 62.8433 108.862 61.3182 108.862 59.1724C108.862 57.0798 107.277 55.5724 105.078 55.5724ZM105.078 61.2118C103.817 61.2118 103.258 60.1477 103.258 59.1724C103.258 58.197 103.835 57.1684 105.078 57.1684C106.322 57.1684 106.934 58.197 106.934 59.1724C106.934 60.1477 106.358 61.2118 105.096 61.2118H105.078ZM129.153 58.4098C128.162 58.1793 127.801 58.0551 127.801 57.6473C127.801 57.1152 128.522 56.9911 128.828 56.9911C129.423 56.9911 130.09 57.3458 130.36 57.665L131.495 56.6009C130.955 55.9625 129.928 55.5901 128.846 55.5901C127.441 55.5901 125.981 56.2817 125.981 57.8069C125.981 59.1369 127.044 59.5271 128.072 59.7753C129.153 60.0236 129.549 60.201 129.549 60.6443C129.549 61.265 128.828 61.3714 128.558 61.3714C128.226 61.3563 127.901 61.2763 127.601 61.1363C127.301 60.9962 127.032 60.7989 126.81 60.5556L125.639 61.7261C126.27 62.4354 127.369 62.8433 128.486 62.8433C130.378 62.8433 131.495 61.9566 131.495 60.5024C131.495 59.1192 130.126 58.6404 129.153 58.4098ZM125.495 55.7675H123.008L120.521 58.6049H120.485V51.9901H118.557V62.6305H120.485V59.261H120.521L123.098 62.6305H125.621L122.63 58.8886L125.495 55.7675ZM96.9514 55.5901C96.0505 55.5901 95.4198 55.9448 94.7891 56.5123H94.7711V51.9901H92.8429V62.6305H94.681V61.6551H94.717C94.9541 62.0108 95.2778 62.3025 95.6585 62.5038C96.0393 62.7051 96.4652 62.8096 96.8974 62.8078C98.8796 62.8078 100.393 61.2827 100.393 59.1724C100.393 57.0798 98.9156 55.5724 96.9514 55.5724V55.5901ZM96.573 61.2118C95.4018 61.2118 94.717 60.1832 94.717 59.1901C94.717 58.197 95.4378 57.1684 96.573 57.1684C97.8164 57.1684 98.4291 58.197 98.4291 59.1724C98.4291 60.1832 97.7623 61.2118 96.573 61.2118ZM92.1222 55.7675H89.6354L87.1487 58.6049H87.1127V51.9901H85.1846V62.6305H87.1127V59.261H87.1487L89.7255 62.6305H92.2483L89.275 58.8886L92.1222 55.7675ZM113.53 55.5901C111.331 55.5901 109.745 57.0975 109.745 59.1724C109.745 61.3359 111.367 62.8433 113.53 62.8433C115.692 62.8433 117.314 61.3182 117.314 59.1724C117.314 57.0798 115.71 55.5724 113.53 55.5724V55.5901ZM113.53 61.2118C112.268 61.2118 111.692 60.1477 111.692 59.1724C111.692 58.197 112.268 57.1684 113.53 57.1684C114.791 57.1684 115.35 58.197 115.35 59.1724C115.35 60.1477 114.773 61.2118 113.53 61.2118Z" fill="black"/>
<path d="M47.1089 63.9606C51.5873 63.9606 55.2178 60.3877 55.2178 55.9803C55.2178 51.5729 51.5873 48 47.1089 48C42.6305 48 39 51.5729 39 55.9803C39 60.3877 42.6305 63.9606 47.1089 63.9606Z" fill="#2CA01C"/>
<path d="M41.2524 55.9803C41.2524 56.8034 41.5847 57.5928 42.1761 58.1748C42.7675 58.7568 43.5695 59.0838 44.4059 59.0838H44.8564V57.931H44.4059C43.8802 57.931 43.376 57.7255 43.0043 57.3597C42.6326 56.9939 42.4237 56.4977 42.4237 55.9803C42.4237 55.4629 42.6326 54.9668 43.0043 54.6009C43.376 54.2351 43.8802 54.0296 44.4059 54.0296H45.4871V60.0591C45.4871 60.2105 45.5174 60.3604 45.5762 60.5002C45.6351 60.6401 45.7214 60.7672 45.8301 60.8742C45.9389 60.9813 46.068 61.0662 46.2101 61.1241C46.3522 61.182 46.5045 61.2118 46.6584 61.2118V52.8769H44.4059C43.5695 52.8769 42.7675 53.2038 42.1761 53.7858C41.5847 54.3678 41.2524 55.1572 41.2524 55.9803ZM49.8118 52.8769H49.3613V54.0296H49.8118C50.3375 54.0296 50.8417 54.2351 51.2134 54.6009C51.5851 54.9668 51.794 55.4629 51.794 55.9803C51.794 56.4977 51.5851 56.9939 51.2134 57.3597C50.8417 57.7255 50.3375 57.931 49.8118 57.931H48.7306V51.9015C48.7306 51.5958 48.6072 51.3026 48.3876 51.0864C48.1679 50.8702 47.87 50.7488 47.5593 50.7488V59.0838H49.8118C50.2259 59.0838 50.636 59.0035 51.0186 58.8475C51.4012 58.6916 51.7488 58.463 52.0416 58.1748C52.3345 57.8866 52.5667 57.5445 52.7252 57.1679C52.8837 56.7914 52.9653 56.3879 52.9653 55.9803C52.9653 55.5728 52.8837 55.1692 52.7252 54.7927C52.5667 54.4161 52.3345 54.074 52.0416 53.7858C51.7488 53.4977 51.4012 53.2691 51.0186 53.1131C50.636 52.9571 50.2259 52.8769 49.8118 52.8769Z" fill="white"/>
<path d="M65.3087 49.8266C65.4156 49.8266 65.5201 49.7954 65.609 49.737C65.6979 49.6785 65.7672 49.5954 65.8081 49.4982C65.849 49.401 65.8598 49.294 65.8389 49.1908C65.818 49.0876 65.7665 48.9928 65.6909 48.9184C65.6153 48.844 65.519 48.7934 65.4142 48.7728C65.3093 48.7523 65.2006 48.7628 65.1018 48.8031C65.003 48.8434 64.9186 48.9116 64.8592 48.9991C64.7998 49.0865 64.7681 49.1894 64.7681 49.2946C64.7681 49.4357 64.8251 49.571 64.9264 49.6708C65.0278 49.7706 65.1653 49.8266 65.3087 49.8266ZM62.1192 50.1813C61.8948 50.181 61.6748 50.2423 61.4838 50.3582C61.2929 50.4741 61.1385 50.64 61.038 50.8375H61.002V50.27H60.1731V53.7636H61.056V51.8483C61.056 51.3872 61.3263 50.9084 61.8849 50.9084C62.4436 50.9084 62.5517 51.4227 62.5517 51.8306V53.7813H63.4346V51.5646C63.4346 50.8552 63.0562 50.1459 62.1192 50.1459V50.1813ZM58.3711 53.7636H59.2721V50.27H58.3711V53.7636ZM74.4987 49.8089C74.6057 49.8089 74.7102 49.7777 74.7991 49.7193C74.888 49.6608 74.9573 49.5777 74.9982 49.4805C75.0391 49.3833 75.0498 49.2763 75.029 49.1731C75.0081 49.0699 74.9566 48.9751 74.881 48.9007C74.8054 48.8263 74.7091 48.7756 74.6042 48.7551C74.4993 48.7346 74.3907 48.7451 74.2919 48.7854C74.1931 48.8256 74.1087 48.8938 74.0493 48.9813C73.9899 49.0688 73.9582 49.1717 73.9582 49.2769C73.9582 49.418 74.0151 49.5533 74.1165 49.6531C74.2179 49.7529 74.3554 49.8089 74.4987 49.8089ZM73.0572 50.27V51.0503H74.0483V53.7636H74.9492V51.0503H75.9403V50.27H73.0572ZM71.5435 53.7636H72.4445V50.27H71.5435V53.7636ZM63.8851 51.0503H64.8762V53.7636H65.7772V51.0503H66.7683V50.27H63.8851V51.0503ZM69.7596 52.203C69.7596 52.6641 69.4893 53.1429 68.9307 53.1429C68.372 53.1429 68.2639 52.6109 68.2639 52.203V50.27H67.3629V52.4513C67.3629 53.1606 67.7594 53.87 68.6784 53.87C68.9058 53.8736 69.1296 53.814 69.3241 53.6979C69.5186 53.5818 69.6758 53.414 69.7776 53.2138H69.7956V53.7813H70.6425V50.27H69.7415V52.1853L69.7596 52.203Z" fill="black"/>
</g>
<line x1="146.5" y1="20" x2="146.5" y2="154" stroke="white"/>
<line x1="268" y1="87.5" x2="24" y2="87.5" stroke="white"/>
<g clip-path="url(#clip2_264_9040)">
<path d="M60.5503 111.621C60.5337 111.5 60.4278 111.433 60.3399 111.426C60.2527 111.418 58.5442 111.392 58.5442 111.392C58.5442 111.392 57.1152 110.005 56.9741 109.864C56.833 109.722 56.5573 109.765 56.4501 109.797C56.4488 109.798 56.1818 109.88 55.7323 110.019C55.6571 109.776 55.5465 109.476 55.3887 109.175C54.88 108.204 54.135 107.691 53.2347 107.69C53.2334 107.69 53.2327 107.69 53.2314 107.69C53.1688 107.69 53.1069 107.696 53.0443 107.701C53.0177 107.669 52.991 107.638 52.9631 107.607C52.5709 107.188 52.0682 106.983 51.4656 107.001C50.303 107.034 49.1452 107.874 48.2063 109.365C47.5458 110.415 47.0431 111.733 46.9006 112.754C45.5656 113.167 44.6321 113.456 44.6114 113.463C43.9376 113.675 43.9163 113.695 43.8284 114.331C43.7631 114.811 42 128.445 42 128.445L56.7757 131L63.1797 129.408C63.1797 129.408 60.567 111.743 60.5503 111.621ZM54.9926 110.248C54.6523 110.354 54.2654 110.473 53.846 110.603C53.8373 110.015 53.7674 109.196 53.4931 108.488C54.3753 108.655 54.8094 109.653 54.9926 110.248ZM53.0729 110.843C52.2986 111.083 51.4536 111.344 50.606 111.607C50.8444 110.694 51.2965 109.785 51.8518 109.189C52.0582 108.967 52.3472 108.72 52.6894 108.579C53.011 109.25 53.0809 110.2 53.0729 110.843ZM51.4889 107.775C51.7619 107.769 51.9916 107.829 52.188 107.958C51.8738 108.121 51.5701 108.355 51.2852 108.661C50.5467 109.453 49.9808 110.683 49.755 111.87C49.0512 112.087 48.3628 112.301 47.7289 112.497C48.1291 110.629 49.6944 107.827 51.4889 107.775Z" fill="#95BF47"/>
<path d="M60.3406 111.426C60.2534 111.419 58.5448 111.393 58.5448 111.393C58.5448 111.393 57.116 110.005 56.9748 109.864C56.9222 109.812 56.851 109.784 56.7764 109.773L56.777 130.999L63.1804 129.408C63.1804 129.408 60.5677 111.743 60.551 111.622C60.5344 111.501 60.4278 111.434 60.3406 111.426Z" fill="#5E8E3E"/>
<path d="M53.2268 114.719L52.4831 117.501C52.4831 117.501 51.6534 117.124 50.67 117.186C49.2278 117.277 49.2124 118.187 49.2271 118.415C49.3057 119.659 52.5796 119.931 52.7634 122.846C52.9079 125.139 51.5469 126.708 49.586 126.832C47.2322 126.98 45.9365 125.592 45.9365 125.592L46.4352 123.471C46.4352 123.471 47.7396 124.455 48.7836 124.389C49.4655 124.346 49.7092 123.791 49.6845 123.399C49.582 121.775 46.916 121.871 46.7475 119.204C46.6057 116.959 48.0799 114.685 51.3325 114.48C52.5856 114.399 53.2268 114.719 53.2268 114.719Z" fill="white"/>
<path d="M71.6129 120.545C70.8766 120.146 70.4981 119.809 70.4981 119.346C70.4981 118.757 71.0238 118.379 71.8447 118.379C72.8003 118.379 73.6536 118.778 73.6536 118.778L74.3265 116.716C74.3265 116.716 73.7077 116.232 71.8863 116.232C69.3517 116.232 67.595 117.684 67.595 119.725C67.595 120.882 68.4152 121.765 69.5095 122.396C70.3931 122.9 70.7088 123.258 70.7088 123.784C70.7088 124.331 70.267 124.773 69.4468 124.773C68.2243 124.773 67.0699 124.141 67.0699 124.141L66.3547 126.203C66.3547 126.203 67.4213 126.918 69.2156 126.918C71.8243 126.918 73.6965 125.635 73.6965 123.321C73.6959 122.081 72.7495 121.197 71.6129 120.545Z" fill="black"/>
<path d="M82.0052 116.212C80.722 116.212 79.7122 116.822 78.9342 117.747L78.892 117.726L80.0067 111.899H77.1036L74.2849 126.73H77.1881L78.1556 121.66C78.534 119.746 79.5226 118.568 80.4486 118.568C81.1004 118.568 81.3533 119.01 81.3533 119.641C81.3533 120.041 81.311 120.525 81.2272 120.925L80.1335 126.73H83.0368L84.1724 120.735C84.2988 120.104 84.3832 119.347 84.3832 118.842C84.382 117.201 83.5196 116.212 82.0052 116.212Z" fill="black"/>
<path d="M90.9452 116.212C87.4528 116.212 85.1396 119.367 85.1396 122.88C85.1396 125.131 86.5277 126.94 89.1364 126.94C92.5652 126.94 94.8792 123.869 94.8792 120.271C94.8792 118.189 93.6588 116.212 90.9452 116.212ZM89.5148 124.711C88.526 124.711 88.1052 123.869 88.1052 122.817C88.1052 121.156 88.968 118.442 90.5456 118.442C91.5764 118.442 91.9124 119.326 91.9124 120.188C91.9124 121.976 91.0508 124.711 89.5148 124.711Z" fill="black"/>
<path d="M102.305 116.212C100.345 116.212 99.2333 117.937 99.2333 117.937H99.1917L99.3601 116.38H96.7937C96.6677 117.432 96.4357 119.03 96.2049 120.23L94.1853 130.852H97.0885L97.8873 126.561H97.9509C97.9509 126.561 98.5465 126.94 99.6549 126.94C103.063 126.94 105.292 123.448 105.292 119.913C105.292 117.958 104.429 116.212 102.305 116.212ZM99.5281 124.752C98.7745 124.752 98.3285 124.332 98.3285 124.332L98.8125 121.618C99.1493 119.809 100.096 118.61 101.106 118.61C101.989 118.61 102.263 119.43 102.263 120.209C102.263 122.081 101.148 124.752 99.5281 124.752Z" fill="black"/>
<path d="M109.436 112.047C108.511 112.047 107.774 112.783 107.774 113.729C107.774 114.592 108.321 115.181 109.142 115.181H109.184C110.088 115.181 110.866 114.571 110.888 113.498C110.888 112.657 110.32 112.047 109.436 112.047Z" fill="black"/>
<path d="M105.376 126.73H108.279L110.257 116.444H107.332L105.376 126.73Z" fill="black"/>
<path d="M117.641 116.422H115.621L115.726 115.938C115.894 114.95 116.483 114.066 117.451 114.066C117.967 114.066 118.376 114.213 118.376 114.213L118.944 111.942C118.944 111.942 118.439 111.689 117.366 111.689C116.335 111.689 115.305 111.984 114.527 112.657C113.538 113.498 113.075 114.718 112.844 115.938L112.76 116.422H111.413L110.993 118.61H112.339L110.804 126.73H113.707L115.243 118.61H117.241L117.641 116.422Z" fill="black"/>
<path d="M124.624 116.444C124.624 116.444 122.809 121.016 121.994 123.511H121.952C121.897 122.708 121.237 116.444 121.237 116.444H118.186L119.933 125.888C119.976 126.098 119.954 126.225 119.87 126.372C119.533 127.024 118.965 127.655 118.292 128.118C117.745 128.518 117.135 128.77 116.652 128.939L117.451 131.4C118.04 131.274 119.26 130.79 120.29 129.822C121.616 128.581 122.836 126.667 124.098 124.058L127.653 116.443H124.624V116.444Z" fill="black"/>
</g>
<g clip-path="url(#clip3_264_9040)">
<path d="M210.624 46.3991C209.524 46.9198 209.048 47.8917 209.048 50.5297C209.048 50.5297 209.597 50.009 210.477 49.6966C211.119 49.471 211.577 49.176 211.907 48.9504C212.86 48.2735 213.006 47.4578 213.006 46.0346C212.988 46.0346 211.485 45.9479 210.624 46.3991Z" fill="#FBBD71"/>
<path d="M203.897 47.0069C202.944 47.7532 202.706 49.0375 202.706 49.0375L199.627 60.2144L197.098 51.0681C196.859 50.0962 196.383 48.8987 195.668 48.0656C194.788 47.0069 192.956 46.9375 192.736 46.9375C192.571 46.9375 190.756 47.0069 189.803 48.0656C189.088 48.8987 188.612 50.0962 188.374 51.0681L185.991 60.2144L182.912 49.0375C182.912 49.0375 182.674 47.84 181.721 47.0069C180.218 45.7227 178 46.035 178 46.035L183.865 66.9483C183.865 66.9483 185.771 67.1045 186.724 66.6532C187.989 66.0458 188.63 65.6119 189.345 62.7483C190.06 60.197 191.966 52.7689 192.113 52.2483C192.186 52.0227 192.351 51.3458 192.827 51.3458C193.304 51.3458 193.469 51.9532 193.542 52.2483C193.707 52.7689 195.595 60.197 196.31 62.7483C197.098 65.5946 197.648 66.0458 198.931 66.6532C199.884 67.1045 201.79 66.9483 201.79 66.9483L207.618 46.035C207.618 46.035 205.4 45.74 203.897 47.0069Z" fill="black"/>
<path d="M212.988 49.4016C212.988 49.4016 212.585 49.9223 211.797 50.3735C211.247 50.6686 210.77 50.8248 210.221 51.1198C209.268 51.571 209.029 52.0223 209.029 52.6991V52.9248V54.0529V54.2785V66.8785C209.029 66.8785 210.532 67.0347 211.485 66.5834C212.75 65.976 212.988 65.3859 212.988 62.8347V50.2347V49.4016Z" fill="black"/>
<path d="M227.559 56.5347L235 46.1042C235 46.1042 231.921 45.5835 230.326 46.9372C229.3 47.7703 228.274 49.3323 228.274 49.3323L225.579 53.081C225.415 53.3066 225.268 53.4628 225.03 53.4628C224.791 53.4628 224.553 53.2372 224.48 53.081L221.786 49.3323C221.786 49.3323 220.686 47.8397 219.733 46.9372C218.157 45.5835 215.059 46.1042 215.059 46.1042L222.262 56.5174L214.894 66.9306C214.894 66.9306 218.138 67.3124 219.733 65.9587C220.759 65.1256 221.712 63.7025 221.712 63.7025L224.407 59.9537C224.571 59.7281 224.718 59.5719 224.956 59.5719C225.195 59.5719 225.433 59.7976 225.506 59.9537L228.2 63.7025C228.2 63.7025 229.227 65.1256 230.18 65.9587C231.756 67.3124 234.927 66.9306 234.927 66.9306L227.559 56.5347Z" fill="black"/>
</g>
<defs>
<clipPath id="clip0_264_9040">
<rect width="48" height="29" fill="white" transform="translate(183 107)"/>
</clipPath>
<clipPath id="clip1_264_9040">
<rect width="95" height="18" fill="white" transform="translate(39 48)"/>
</clipPath>
<clipPath id="clip2_264_9040">
<rect width="86" height="24.4" fill="white" transform="translate(42 107)"/>
</clipPath>
<clipPath id="clip3_264_9040">
<rect width="57" height="21" fill="white" transform="translate(178 46)"/>
</clipPath>
</defs>
</svg>
