<svg width="291" height="174" viewBox="0 0 291 174" fill="none" xmlns="http://www.w3.org/2000/svg">
<path d="M21 0H270V145C270 151.627 264.627 157 258 157H33C26.3726 157 21 151.627 21 145V0Z" fill="white"/>
<path d="M41 116H254" stroke="#BCC3D1" stroke-width="0.758985" stroke-dasharray="2 2"/>
<path d="M42.4088 29.1764C42.9656 29.1764 43.4516 29.0847 43.8667 28.9014C44.2818 28.7146 44.6034 28.4518 44.8317 28.1128C45.06 27.7738 45.1742 27.3709 45.1742 26.9039V26.8987C45.1742 26.539 45.0998 26.2277 44.9511 25.9648C44.8058 25.6985 44.574 25.4736 44.2558 25.2903C43.9376 25.107 43.5173 24.9583 42.995 24.8441L42.1649 24.6573C41.6564 24.5466 41.2915 24.3893 41.0702 24.1852C40.8488 23.9811 40.7381 23.7303 40.7381 23.4329V23.4277C40.7381 23.1648 40.8107 22.9434 40.956 22.7636C41.1048 22.5803 41.3036 22.4402 41.5527 22.3433C41.8017 22.2465 42.0819 22.198 42.3932 22.198C42.7183 22.1946 43.002 22.243 43.2441 22.3433C43.4862 22.4436 43.6799 22.5803 43.8252 22.7532C43.9705 22.9227 44.0604 23.1181 44.095 23.3395L44.1054 23.4069H45.0393L45.0341 23.3343C45.0099 22.9607 44.8836 22.6235 44.6553 22.3226C44.4305 22.0216 44.1261 21.783 43.7422 21.6066C43.3582 21.4267 42.9172 21.3368 42.4191 21.3368C41.9038 21.3368 41.4472 21.4267 41.0494 21.6066C40.6551 21.7864 40.3455 22.0355 40.1207 22.3537C39.8993 22.6719 39.7869 23.0386 39.7834 23.4536V23.4588C39.7834 24.0019 39.9529 24.4481 40.2919 24.7974C40.6343 25.1433 41.1808 25.3993 41.9314 25.5653L42.7616 25.7469C43.277 25.861 43.6488 26.0253 43.8771 26.2398C44.1054 26.4508 44.2195 26.7119 44.2195 27.0232V27.0284C44.2195 27.2809 44.1434 27.504 43.9912 27.6977C43.839 27.8914 43.6298 28.0436 43.3634 28.1543C43.1005 28.2615 42.7996 28.3151 42.4606 28.3151C42.1009 28.3151 41.7792 28.265 41.4956 28.1647C41.2154 28.0644 40.9906 27.9243 40.8211 27.7444C40.6551 27.5611 40.56 27.3449 40.5358 27.0959L40.5306 27.0388H39.5967L39.6019 27.0959C39.6399 27.5006 39.7765 27.8603 40.0117 28.175C40.2504 28.4864 40.5721 28.7319 40.9768 28.9118C41.3849 29.0882 41.8623 29.1764 42.4088 29.1764ZM48.4895 29.0986C48.7628 29.0986 49.0066 29.0623 49.2211 28.9896C49.439 28.917 49.6258 28.8115 49.7814 28.6731C49.9371 28.5313 50.0599 28.3618 50.1498 28.1647H50.2328V29H51.1356V23.4069H50.2328V26.7171C50.2328 26.9627 50.2 27.1841 50.1343 27.3812C50.072 27.5749 49.9769 27.741 49.8489 27.8793C49.7209 28.0142 49.5618 28.118 49.3716 28.1906C49.1848 28.2633 48.9686 28.2996 48.723 28.2996C48.2768 28.2996 47.9551 28.1768 47.758 27.9312C47.5643 27.6856 47.4674 27.312 47.4674 26.8105V23.4069H46.5647V27.0284C46.5647 27.4677 46.6356 27.843 46.7774 28.1543C46.9226 28.4621 47.1388 28.6973 47.4259 28.8599C47.713 29.019 48.0676 29.0986 48.4895 29.0986ZM55.6028 29.0986C56.0767 29.0986 56.4883 28.9792 56.8376 28.7406C57.1904 28.5019 57.4637 28.1664 57.6574 27.734C57.8511 27.2982 57.9479 26.7898 57.9479 26.2087V26.1983C57.9479 25.6137 57.8511 25.1053 57.6574 24.6729C57.4637 24.2405 57.1904 23.905 56.8376 23.6664C56.4883 23.4277 56.0767 23.3084 55.6028 23.3084C55.3468 23.3084 55.1047 23.3499 54.8764 23.4329C54.6516 23.5124 54.451 23.6248 54.2746 23.7701C54.1016 23.9154 53.9633 24.0883 53.8595 24.289H53.7765V21.1863H52.8737V29H53.7765V28.1076H53.8595C53.9737 28.3151 54.1172 28.4933 54.2901 28.642C54.4631 28.7873 54.6602 28.8997 54.8816 28.9792C55.103 29.0588 55.3434 29.0986 55.6028 29.0986ZM55.3953 28.2996C55.0563 28.2996 54.764 28.2148 54.5184 28.0453C54.2728 27.8759 54.0843 27.6355 53.9529 27.3242C53.8215 27.0094 53.7557 26.6376 53.7557 26.2087V26.1983C53.7557 25.7659 53.8215 25.3941 53.9529 25.0828C54.0843 24.7715 54.2728 24.5311 54.5184 24.3616C54.764 24.1921 55.0563 24.1074 55.3953 24.1074C55.7377 24.1074 56.03 24.1921 56.2721 24.3616C56.5142 24.5276 56.6993 24.7663 56.8273 25.0776C56.9587 25.3889 57.0244 25.7625 57.0244 26.1983V26.2087C57.0244 26.641 56.9587 27.0146 56.8273 27.3293C56.6993 27.6406 56.5142 27.881 56.2721 28.0505C56.03 28.2166 55.7377 28.2996 55.3953 28.2996ZM64.3971 29H65.331V22.3537H67.7436V21.5132H61.9845V22.3537H64.3971V29ZM70.3326 29.0986C70.8653 29.0986 71.3236 28.9827 71.7075 28.751C72.0915 28.5158 72.3872 28.182 72.5947 27.7496C72.8057 27.3172 72.9112 26.8036 72.9112 26.2087V26.1983C72.9112 25.5999 72.8057 25.0845 72.5947 24.6521C72.3872 24.2198 72.0915 23.8877 71.7075 23.656C71.3236 23.4242 70.8653 23.3084 70.3326 23.3084C69.8034 23.3084 69.3451 23.4242 68.9577 23.656C68.5737 23.8877 68.2763 24.2198 68.0653 24.6521C67.8577 25.0845 67.754 25.5999 67.754 26.1983V26.2087C67.754 26.8036 67.8577 27.3172 68.0653 27.7496C68.2763 28.182 68.5737 28.5158 68.9577 28.751C69.3451 28.9827 69.8034 29.0986 70.3326 29.0986ZM70.3326 28.2996C69.9798 28.2996 69.6806 28.2166 69.435 28.0505C69.1894 27.8845 69.0009 27.6458 68.8695 27.3345C68.7415 27.0232 68.6775 26.6479 68.6775 26.2087V26.1983C68.6775 25.7555 68.7415 25.3785 68.8695 25.0672C69.0009 24.7559 69.1894 24.519 69.435 24.3564C69.6806 24.1904 69.9798 24.1074 70.3326 24.1074C70.6854 24.1074 70.9846 24.1904 71.2302 24.3564C71.4758 24.519 71.6626 24.7559 71.7905 25.0672C71.922 25.3785 71.9877 25.7555 71.9877 26.1983V26.2087C71.9877 26.6479 71.922 27.0232 71.7905 27.3345C71.6626 27.6458 71.4758 27.8845 71.2302 28.0505C70.9846 28.2166 70.6854 28.2996 70.3326 28.2996ZM76.2992 29.0415C76.3892 29.0415 76.4774 29.0363 76.5638 29.0259C76.6503 29.0156 76.7368 29.0035 76.8233 28.9896V28.2217C76.7402 28.2287 76.6693 28.2338 76.6105 28.2373C76.5552 28.2408 76.4877 28.2425 76.4082 28.2425C76.1176 28.2425 75.9101 28.1716 75.7856 28.0298C75.6611 27.8845 75.5988 27.6476 75.5988 27.319V24.1541H76.8233V23.4069H75.5988V21.9594H74.6649V23.4069H73.7829V24.1541H74.6649V27.5473C74.6649 28.0799 74.7929 28.4621 75.0488 28.6939C75.3083 28.9256 75.725 29.0415 76.2992 29.0415ZM79.708 29.0986C79.9605 29.0986 80.1922 29.064 80.4032 28.9948C80.6142 28.9222 80.8027 28.8167 80.9688 28.6783C81.1383 28.54 81.2818 28.3722 81.3994 28.175H81.4824V29H82.3852V25.171C82.3852 24.7836 82.3022 24.4515 82.1362 24.1748C81.9736 23.8946 81.7332 23.6802 81.415 23.5315C81.1002 23.3827 80.7145 23.3084 80.258 23.3084C79.8602 23.3084 79.5056 23.3706 79.1943 23.4951C78.883 23.6162 78.6288 23.7874 78.4317 24.0088C78.238 24.2267 78.1169 24.4827 78.0685 24.7767L78.0633 24.8078H78.9661L78.9712 24.7922C79.0439 24.5743 79.1874 24.4066 79.4019 24.289C79.6163 24.1679 79.8913 24.1074 80.2268 24.1074C80.6454 24.1074 80.9584 24.199 81.1659 24.3823C81.3769 24.5622 81.4824 24.8251 81.4824 25.171V26.9143C81.4824 27.1806 81.4132 27.4193 81.2749 27.6303C81.14 27.8413 80.9532 28.009 80.7145 28.1335C80.4759 28.2546 80.2026 28.3151 79.8948 28.3151C79.5696 28.3151 79.2998 28.2373 79.0854 28.0817C78.8709 27.9225 78.7637 27.7012 78.7637 27.4175V27.4072C78.7637 27.1305 78.8606 26.916 79.0543 26.7638C79.2514 26.6116 79.5627 26.5234 79.9882 26.4992L81.9338 26.3747V25.6535L79.8792 25.778C79.4468 25.8022 79.0785 25.8818 78.7741 26.0167C78.4697 26.1516 78.238 26.3384 78.0788 26.577C77.9197 26.8122 77.8402 27.0959 77.8402 27.4279V27.4383C77.8402 27.7773 77.9215 28.0713 78.084 28.3203C78.2501 28.5694 78.4732 28.7613 78.7533 28.8962C79.037 29.0311 79.3552 29.0986 79.708 29.0986ZM84.087 29H84.9898V21.1863H84.087V29Z" fill="#13171F"/>
<path d="M89.0359 26H198.964" stroke="white" stroke-width="0.758985" stroke-dasharray="3.79 3.79"/>
<path d="M205.317 21.3368C204.816 21.3368 204.366 21.4475 203.968 21.6688C203.574 21.8902 203.263 22.1963 203.035 22.5872C202.81 22.9746 202.697 23.4173 202.697 23.9154V23.9258C202.697 24.4031 202.805 24.832 203.019 25.2125C203.233 25.5895 203.526 25.887 203.896 26.1049C204.266 26.3228 204.684 26.4318 205.151 26.4318C205.49 26.4318 205.791 26.3781 206.054 26.2709C206.321 26.1637 206.545 26.0219 206.729 25.8455C206.915 25.6691 207.054 25.4788 207.144 25.2747H207.325V23.9258H207.019V23.931C207.019 24.2561 206.943 24.5466 206.791 24.8026C206.642 25.0551 206.44 25.254 206.184 25.3993C205.928 25.5445 205.637 25.6172 205.312 25.6172C204.991 25.6172 204.704 25.5445 204.451 25.3993C204.199 25.2505 204 25.0482 203.854 24.7922C203.709 24.5328 203.636 24.2371 203.636 23.905V23.8946C203.636 23.5695 203.713 23.2772 203.865 23.0178C204.017 22.7549 204.221 22.5474 204.477 22.3952C204.733 22.2395 205.017 22.1617 205.328 22.1617C205.646 22.1617 205.931 22.2413 206.184 22.4004C206.44 22.556 206.642 22.767 206.791 23.0334C206.943 23.2997 207.019 23.5972 207.019 23.9258L207.242 25.171C207.242 25.2159 207.242 25.2626 207.242 25.3111C207.242 25.356 207.241 25.4027 207.237 25.4512C207.22 25.97 207.142 26.449 207.004 26.8883C206.865 27.3276 206.654 27.6804 206.371 27.9468C206.087 28.2096 205.719 28.3411 205.266 28.3411C205.013 28.3411 204.787 28.2996 204.586 28.2166C204.389 28.1335 204.219 28.0159 204.077 27.8637C203.939 27.7116 203.832 27.5317 203.756 27.3242L203.735 27.2671H202.796L202.811 27.3345C202.898 27.7012 203.054 28.0229 203.278 28.2996C203.503 28.5763 203.783 28.7925 204.119 28.9481C204.458 29.1003 204.837 29.1764 205.255 29.1764C205.861 29.1764 206.378 29.0173 206.807 28.6991C207.235 28.3774 207.564 27.9156 207.792 27.3138C208.021 26.7085 208.135 25.9804 208.135 25.1295V25.1191C208.135 24.4135 208.053 23.8203 207.891 23.3395C207.728 22.8552 207.51 22.4661 207.237 22.1721C206.967 21.8781 206.665 21.6654 206.329 21.5339C205.997 21.4025 205.66 21.3368 205.317 21.3368ZM212.083 21.3368C211.582 21.3368 211.132 21.4475 210.734 21.6688C210.34 21.8902 210.029 22.1963 209.8 22.5872C209.575 22.9746 209.463 23.4173 209.463 23.9154V23.9258C209.463 24.4031 209.57 24.832 209.785 25.2125C209.999 25.5895 210.291 25.887 210.662 26.1049C211.032 26.3228 211.45 26.4318 211.917 26.4318C212.256 26.4318 212.557 26.3781 212.82 26.2709C213.086 26.1637 213.311 26.0219 213.494 25.8455C213.681 25.6691 213.819 25.4788 213.909 25.2747H214.091V23.9258H213.785V23.931C213.785 24.2561 213.709 24.5466 213.557 24.8026C213.408 25.0551 213.206 25.254 212.95 25.3993C212.694 25.5445 212.403 25.6172 212.078 25.6172C211.756 25.6172 211.469 25.5445 211.217 25.3993C210.964 25.2505 210.765 25.0482 210.62 24.7922C210.475 24.5328 210.402 24.2371 210.402 23.905V23.8946C210.402 23.5695 210.478 23.2772 210.63 23.0178C210.783 22.7549 210.987 22.5474 211.243 22.3952C211.499 22.2395 211.782 22.1617 212.093 22.1617C212.412 22.1617 212.697 22.2413 212.95 22.4004C213.206 22.556 213.408 22.767 213.557 23.0334C213.709 23.2997 213.785 23.5972 213.785 23.9258L214.008 25.171C214.008 25.2159 214.008 25.2626 214.008 25.3111C214.008 25.356 214.006 25.4027 214.003 25.4512C213.986 25.97 213.908 26.449 213.769 26.8883C213.631 27.3276 213.42 27.6804 213.136 27.9468C212.853 28.2096 212.484 28.3411 212.031 28.3411C211.779 28.3411 211.552 28.2996 211.352 28.2166C211.154 28.1335 210.985 28.0159 210.843 27.8637C210.705 27.7116 210.598 27.5317 210.521 27.3242L210.501 27.2671H209.562L209.577 27.3345C209.664 27.7012 209.819 28.0229 210.044 28.2996C210.269 28.5763 210.549 28.7925 210.885 28.9481C211.224 29.1003 211.602 29.1764 212.021 29.1764C212.626 29.1764 213.143 29.0173 213.572 28.6991C214.001 28.3774 214.33 27.9156 214.558 27.3138C214.786 26.7085 214.9 25.9804 214.9 25.1295V25.1191C214.9 24.4135 214.819 23.8203 214.657 23.3395C214.494 22.8552 214.276 22.4661 214.003 22.1721C213.733 21.8781 213.43 21.6654 213.095 21.5339C212.763 21.4025 212.426 21.3368 212.083 21.3368ZM218.906 29.1764C219.459 29.1764 219.933 29.0173 220.327 28.6991C220.722 28.3809 221.024 27.9295 221.235 27.3449C221.45 26.7569 221.557 26.0617 221.557 25.2592V25.2488C221.557 24.4463 221.45 23.7528 221.235 23.1683C221.024 22.5837 220.722 22.1323 220.327 21.8141C219.933 21.4959 219.459 21.3368 218.906 21.3368C218.352 21.3368 217.879 21.4959 217.484 21.8141C217.093 22.1323 216.792 22.5837 216.581 23.1683C216.37 23.7528 216.265 24.4463 216.265 25.2488V25.2592C216.265 26.0617 216.37 26.7569 216.581 27.3449C216.792 27.9295 217.093 28.3809 217.484 28.6991C217.879 29.0173 218.352 29.1764 218.906 29.1764ZM218.906 28.3618C218.55 28.3618 218.243 28.2356 217.987 27.9831C217.735 27.7306 217.541 27.3726 217.406 26.9091C217.271 26.4456 217.204 25.8956 217.204 25.2592V25.2488C217.204 24.6124 217.271 24.0641 217.406 23.6041C217.541 23.1406 217.735 22.7843 217.987 22.5353C218.243 22.2828 218.55 22.1565 218.906 22.1565C219.266 22.1565 219.572 22.2828 219.824 22.5353C220.08 22.7843 220.276 23.1406 220.41 23.6041C220.549 24.0641 220.618 24.6124 220.618 25.2488V25.2592C220.618 25.8956 220.549 26.4456 220.41 26.9091C220.276 27.3726 220.08 27.7306 219.824 27.9831C219.572 28.2356 219.266 28.3618 218.906 28.3618ZM229.168 29.1764C229.788 29.1764 230.319 29.0605 230.761 28.8288C231.204 28.597 231.543 28.2754 231.778 27.8637C232.017 27.4487 232.136 26.9696 232.136 26.4266V21.5132H231.202V26.3643C231.202 26.7482 231.123 27.0872 230.964 27.3812C230.805 27.6718 230.573 27.9001 230.268 28.0661C229.967 28.2321 229.601 28.3151 229.168 28.3151C228.736 28.3151 228.368 28.2321 228.063 28.0661C227.759 27.9001 227.525 27.6718 227.363 27.3812C227.204 27.0872 227.124 26.7482 227.124 26.3643V21.5132H226.19V26.4266C226.19 26.9696 226.31 27.4487 226.548 27.8637C226.787 28.2754 227.128 28.597 227.57 28.8288C228.017 29.0605 228.549 29.1764 229.168 29.1764ZM236.489 29.1764C237.046 29.1764 237.532 29.0847 237.947 28.9014C238.362 28.7146 238.684 28.4518 238.912 28.1128C239.14 27.7738 239.255 27.3709 239.255 26.9039V26.8987C239.255 26.539 239.18 26.2277 239.032 25.9648C238.886 25.6985 238.655 25.4736 238.336 25.2903C238.018 25.107 237.598 24.9583 237.076 24.8441L236.245 24.6573C235.737 24.5466 235.372 24.3893 235.151 24.1852C234.929 23.9811 234.819 23.7303 234.819 23.4329V23.4277C234.819 23.1648 234.891 22.9434 235.036 22.7636C235.185 22.5803 235.384 22.4402 235.633 22.3433C235.882 22.2465 236.162 22.198 236.474 22.198C236.799 22.1946 237.082 22.243 237.325 22.3433C237.567 22.4436 237.76 22.5803 237.906 22.7532C238.051 22.9227 238.141 23.1181 238.175 23.3395L238.186 23.4069H239.12L239.115 23.3343C239.09 22.9607 238.964 22.6235 238.736 22.3226C238.511 22.0216 238.207 21.783 237.823 21.6066C237.439 21.4267 236.998 21.3368 236.5 21.3368C235.984 21.3368 235.528 21.4267 235.13 21.6066C234.736 21.7864 234.426 22.0355 234.201 22.3537C233.98 22.6719 233.867 23.0386 233.864 23.4536V23.4588C233.864 24.0019 234.033 24.4481 234.372 24.7974C234.715 25.1433 235.261 25.3993 236.012 25.5653L236.842 25.7469C237.357 25.861 237.729 26.0253 237.958 26.2398C238.186 26.4508 238.3 26.7119 238.3 27.0232V27.0284C238.3 27.2809 238.224 27.504 238.072 27.6977C237.919 27.8914 237.71 28.0436 237.444 28.1543C237.181 28.2615 236.88 28.3151 236.541 28.3151C236.181 28.3151 235.86 28.265 235.576 28.1647C235.296 28.0644 235.071 27.9243 234.902 27.7444C234.736 27.5611 234.64 27.3449 234.616 27.0959L234.611 27.0388H233.677L233.682 27.0959C233.72 27.5006 233.857 27.8603 234.092 28.175C234.331 28.4864 234.653 28.7319 235.057 28.9118C235.465 29.0882 235.943 29.1764 236.489 29.1764ZM240.811 29H243.379C244.123 29 244.758 28.853 245.284 28.559C245.809 28.2615 246.212 27.8343 246.492 27.2775C246.773 26.7171 246.913 26.0444 246.913 25.2592V25.2488C246.913 24.4636 246.773 23.7926 246.492 23.2357C246.212 22.6788 245.808 22.2534 245.278 21.9594C244.753 21.6619 244.12 21.5132 243.379 21.5132H240.811V29ZM241.745 28.1595V22.3537H243.317C243.871 22.3537 244.344 22.4696 244.739 22.7013C245.133 22.9296 245.434 23.2617 245.642 23.6975C245.853 24.1298 245.958 24.6504 245.958 25.2592V25.2696C245.958 25.8749 245.854 26.3937 245.647 26.8261C245.439 27.2584 245.138 27.5888 244.744 27.8171C244.35 28.0453 243.874 28.1595 243.317 28.1595H241.745ZM250.166 29H251.1V22.3537H253.512V21.5132H247.753V22.3537H250.166V29Z" fill="#464F60"/>
<path d="M42.4088 51.1764C42.9656 51.1764 43.4516 51.0847 43.8667 50.9014C44.2818 50.7146 44.6034 50.4518 44.8317 50.1128C45.06 49.7738 45.1742 49.3709 45.1742 48.9039V48.8987C45.1742 48.539 45.0998 48.2277 44.9511 47.9648C44.8058 47.6985 44.574 47.4736 44.2558 47.2903C43.9376 47.107 43.5173 46.9583 42.995 46.8441L42.1649 46.6573C41.6564 46.5466 41.2915 46.3893 41.0702 46.1852C40.8488 45.9811 40.7381 45.7303 40.7381 45.4329V45.4277C40.7381 45.1648 40.8107 44.9434 40.956 44.7636C41.1048 44.5803 41.3036 44.4402 41.5527 44.3433C41.8017 44.2465 42.0819 44.198 42.3932 44.198C42.7183 44.1946 43.002 44.243 43.2441 44.3433C43.4862 44.4436 43.6799 44.5803 43.8252 44.7532C43.9705 44.9227 44.0604 45.1181 44.095 45.3395L44.1054 45.4069H45.0393L45.0341 45.3343C45.0099 44.9607 44.8836 44.6235 44.6553 44.3226C44.4305 44.0216 44.1261 43.783 43.7422 43.6066C43.3582 43.4267 42.9172 43.3368 42.4191 43.3368C41.9038 43.3368 41.4472 43.4267 41.0494 43.6066C40.6551 43.7864 40.3455 44.0355 40.1207 44.3537C39.8993 44.6719 39.7869 45.0386 39.7834 45.4536V45.4588C39.7834 46.0019 39.9529 46.4481 40.2919 46.7974C40.6343 47.1433 41.1808 47.3993 41.9314 47.5653L42.7616 47.7469C43.277 47.861 43.6488 48.0253 43.8771 48.2398C44.1054 48.4508 44.2195 48.7119 44.2195 49.0232V49.0284C44.2195 49.2809 44.1434 49.504 43.9912 49.6977C43.839 49.8914 43.6298 50.0436 43.3634 50.1543C43.1005 50.2615 42.7996 50.3151 42.4606 50.3151C42.1009 50.3151 41.7792 50.265 41.4956 50.1647C41.2154 50.0644 40.9906 49.9243 40.8211 49.7444C40.6551 49.5611 40.56 49.3449 40.5358 49.0959L40.5306 49.0388H39.5967L39.6019 49.0959C39.6399 49.5006 39.7765 49.8603 40.0117 50.175C40.2504 50.4864 40.5721 50.7319 40.9768 50.9118C41.3849 51.0882 41.8623 51.1764 42.4088 51.1764ZM48.8994 51.0986C49.228 51.0986 49.5238 51.0571 49.7866 50.9741C50.053 50.8876 50.283 50.7734 50.4767 50.6316C50.6704 50.4864 50.8278 50.3255 50.9488 50.1491C51.0733 49.9692 51.1598 49.7842 51.2082 49.594L51.2186 49.5524H50.3158L50.2951 49.5991C50.2467 49.7098 50.1619 49.8188 50.0409 49.926C49.9198 50.0332 49.7659 50.1214 49.5791 50.1906C49.3923 50.2598 49.1727 50.2944 48.9202 50.2944C48.5812 50.2944 48.2872 50.22 48.0381 50.0713C47.7891 49.9191 47.5971 49.7029 47.4622 49.4227C47.3273 49.1391 47.2599 48.7984 47.2599 48.4006V48.0426C47.2599 47.6241 47.3291 47.2713 47.4674 46.9842C47.6058 46.6971 47.7926 46.4809 48.0278 46.3357C48.2664 46.1869 48.5362 46.1126 48.8372 46.1126C49.1381 46.1126 49.4044 46.1835 49.6362 46.3253C49.8679 46.4636 50.0495 46.6746 50.1809 46.9583C50.3124 47.2419 50.3781 47.6033 50.3781 48.0426V48.4006L50.8243 47.7417H46.8033V48.4629H51.2861V48.1101C51.2861 47.5532 51.1875 47.0655 50.9903 46.647C50.7966 46.225 50.5165 45.8964 50.1498 45.6612C49.7866 45.426 49.3508 45.3084 48.8423 45.3084C48.3373 45.3084 47.8963 45.4311 47.5193 45.6767C47.1423 45.9223 46.85 46.263 46.6425 46.6988C46.4384 47.1347 46.3364 47.6414 46.3364 48.219V48.2242C46.3364 48.8088 46.4384 49.3172 46.6425 49.7496C46.85 50.1785 47.144 50.5106 47.5245 50.7458C47.9084 50.981 48.3667 51.0986 48.8994 51.0986ZM52.6869 51H53.5897V47.5342C53.5897 47.2609 53.652 47.0222 53.7765 46.8182C53.9045 46.6141 54.0791 46.455 54.3005 46.3408C54.5219 46.2267 54.7761 46.1696 55.0632 46.1696C55.1635 46.1696 55.2569 46.1748 55.3434 46.1852C55.4333 46.1921 55.525 46.2042 55.6184 46.2215V45.3447C55.5734 45.3378 55.5077 45.3308 55.4212 45.3239C55.3382 45.3135 55.2534 45.3084 55.167 45.3084C54.79 45.3084 54.4735 45.3896 54.2175 45.5522C53.9615 45.7148 53.78 45.9431 53.6727 46.2371H53.5897V45.4069H52.6869V51ZM58.3682 51H59.2814L61.3515 45.4069H60.3969L58.8663 50.0142H58.7833L57.2527 45.4069H56.298L58.3682 51ZM62.5656 51H63.4684V45.4069H62.5656V51ZM63.0222 44.3277C63.1951 44.3277 63.3421 44.2672 63.4632 44.1462C63.5843 44.0216 63.6448 43.8746 63.6448 43.7051C63.6448 43.5322 63.5843 43.3852 63.4632 43.2641C63.3421 43.1431 63.1951 43.0825 63.0222 43.0825C62.8527 43.0825 62.7057 43.1431 62.5812 43.2641C62.4601 43.3852 62.3996 43.5322 62.3996 43.7051C62.3996 43.8746 62.4601 44.0216 62.5812 44.1462C62.7057 44.2672 62.8527 44.3277 63.0222 44.3277ZM67.4582 51.0986C67.9079 51.0986 68.2918 51.0242 68.6101 50.8755C68.9283 50.7267 69.1842 50.5227 69.3779 50.2633C69.5716 50.0004 69.7065 49.7012 69.7826 49.3657L69.793 49.3086L68.9006 49.3138L68.8902 49.3449C68.7865 49.6562 68.6152 49.8931 68.3766 50.0557C68.1379 50.2183 67.8301 50.2996 67.453 50.2996C67.121 50.2996 66.8322 50.2131 66.5866 50.0402C66.341 49.8672 66.1508 49.6234 66.0159 49.3086C65.881 48.9904 65.8135 48.6168 65.8135 48.1879V48.1775C65.8135 47.7555 65.8792 47.3906 66.0107 47.0828C66.1456 46.7715 66.3358 46.5311 66.5814 46.3616C66.827 46.1921 67.1175 46.1074 67.453 46.1074C67.8543 46.1074 68.1777 46.2042 68.4233 46.3979C68.6689 46.5916 68.8262 46.8268 68.8954 47.1035L68.9006 47.1191H69.7982L69.793 47.088C69.7377 46.7559 69.6114 46.4567 69.4143 46.1904C69.2171 45.9206 68.9542 45.7061 68.6256 45.547C68.297 45.3879 67.9062 45.3084 67.453 45.3084C66.9308 45.3084 66.4776 45.4277 66.0937 45.6664C65.7098 45.9016 65.4123 46.2336 65.2013 46.6625C64.9938 47.0914 64.89 47.5964 64.89 48.1775V48.1879C64.89 48.7794 64.9955 49.293 65.2065 49.7288C65.4175 50.1647 65.7149 50.5019 66.0989 50.7406C66.4828 50.9792 66.9359 51.0986 67.4582 51.0986ZM73.3989 51.0986C73.7275 51.0986 74.0233 51.0571 74.2861 50.9741C74.5525 50.8876 74.7825 50.7734 74.9762 50.6316C75.1699 50.4864 75.3273 50.3255 75.4483 50.1491C75.5729 49.9692 75.6593 49.7842 75.7078 49.594L75.7181 49.5524H74.8154L74.7946 49.5991C74.7462 49.7098 74.6614 49.8188 74.5404 49.926C74.4193 50.0332 74.2654 50.1214 74.0786 50.1906C73.8918 50.2598 73.6722 50.2944 73.4197 50.2944C73.0807 50.2944 72.7867 50.22 72.5377 50.0713C72.2886 49.9191 72.0966 49.7029 71.9617 49.4227C71.8269 49.1391 71.7594 48.7984 71.7594 48.4006V48.0426C71.7594 47.6241 71.8286 47.2713 71.9669 46.9842C72.1053 46.6971 72.2921 46.4809 72.5273 46.3357C72.7659 46.1869 73.0357 46.1126 73.3367 46.1126C73.6376 46.1126 73.9039 46.1835 74.1357 46.3253C74.3674 46.4636 74.549 46.6746 74.6805 46.9583C74.8119 47.2419 74.8776 47.6033 74.8776 48.0426V48.4006L75.3238 47.7417H71.3028V48.4629H75.7856V48.1101C75.7856 47.5532 75.687 47.0655 75.4898 46.647C75.2961 46.225 75.016 45.8964 74.6493 45.6612C74.2861 45.426 73.8503 45.3084 73.3419 45.3084C72.8369 45.3084 72.3958 45.4311 72.0188 45.6767C71.6418 45.9223 71.3495 46.263 71.142 46.6988C70.9379 47.1347 70.8359 47.6414 70.8359 48.219V48.2242C70.8359 48.8088 70.9379 49.3172 71.142 49.7496C71.3495 50.1785 71.6435 50.5106 72.024 50.7458C72.4079 50.981 72.8663 51.0986 73.3989 51.0986ZM79.1061 51.0986C79.5316 51.0986 79.9121 51.0277 80.2476 50.8859C80.5866 50.744 80.8546 50.5469 81.0518 50.2944C81.2489 50.0384 81.3475 49.7444 81.3475 49.4124V49.402C81.3475 49.0007 81.2178 48.6808 80.9584 48.4421C80.7024 48.2035 80.3116 48.0201 79.7858 47.8922L78.9245 47.6846C78.7066 47.6293 78.5285 47.5653 78.3901 47.4927C78.2518 47.42 78.1497 47.3353 78.084 47.2384C78.0183 47.1416 77.9855 47.0309 77.9855 46.9064V46.896C77.9855 46.73 78.0356 46.5847 78.1359 46.4602C78.2362 46.3357 78.3728 46.2388 78.5458 46.1696C78.7187 46.097 78.9159 46.0607 79.1373 46.0607C79.4762 46.0607 79.7512 46.1298 79.9622 46.2682C80.1732 46.4066 80.3081 46.5864 80.3669 46.8078H81.2541C81.2126 46.5034 81.0985 46.2388 80.9117 46.014C80.7284 45.7891 80.4845 45.6162 80.1801 45.4951C79.8792 45.3706 79.5333 45.3084 79.1425 45.3084C78.7481 45.3084 78.3936 45.3793 78.0788 45.5211C77.7641 45.6629 77.515 45.8566 77.3317 46.1022C77.1519 46.3478 77.0619 46.6262 77.0619 46.9375V46.9427C77.0619 47.209 77.1155 47.4408 77.2228 47.6379C77.33 47.8316 77.496 47.9959 77.7208 48.1308C77.9457 48.2623 78.2328 48.3695 78.5821 48.4525L79.4486 48.66C79.7945 48.7431 80.0435 48.852 80.1957 48.9869C80.3479 49.1183 80.424 49.2792 80.424 49.4694V49.4798C80.424 49.6493 80.3686 49.7998 80.258 49.9312C80.1473 50.0592 79.9951 50.1612 79.8014 50.2373C79.6111 50.3099 79.3898 50.3463 79.1373 50.3463C78.781 50.3463 78.4922 50.2754 78.2708 50.1335C78.0494 49.9917 77.9007 49.8049 77.8246 49.5732H76.9011C76.9357 49.881 77.0481 50.1491 77.2383 50.3774C77.432 50.6057 77.688 50.7838 78.0062 50.9118C78.3244 51.0363 78.6911 51.0986 79.1061 51.0986ZM88.8655 51.1764C89.3981 51.1764 89.8755 51.083 90.2975 50.8962C90.7229 50.7095 91.074 50.4483 91.3507 50.1128C91.6274 49.7738 91.8073 49.376 91.8903 48.9195V48.9091H90.946L90.9356 48.9195C90.8595 49.2066 90.7246 49.4556 90.5309 49.6666C90.3372 49.8741 90.0986 50.035 89.8149 50.1491C89.5313 50.2598 89.2148 50.3151 88.8655 50.3151C88.3847 50.3151 87.9679 50.1906 87.6151 49.9416C87.2657 49.6925 86.9959 49.3397 86.8057 48.8831C86.6154 48.4266 86.5203 47.887 86.5203 47.2644V47.254C86.5203 46.6279 86.6154 46.0866 86.8057 45.63C86.9959 45.1735 87.2657 44.8206 87.6151 44.5716C87.9679 44.3226 88.383 44.198 88.8603 44.198C89.2062 44.198 89.5192 44.262 89.7994 44.39C90.083 44.518 90.3234 44.6996 90.5206 44.9348C90.7177 45.1665 90.8578 45.4433 90.9408 45.7649L90.946 45.7753H91.8851L91.8903 45.7649C91.8177 45.2876 91.6413 44.8673 91.3611 44.5042C91.0809 44.1375 90.7246 43.8521 90.2923 43.6481C89.8634 43.4405 89.386 43.3368 88.8603 43.3368C88.1823 43.3368 87.5961 43.4959 87.1014 43.8141C86.6103 44.1323 86.2298 44.5837 85.96 45.1683C85.6936 45.7528 85.5605 46.4481 85.5605 47.254V47.2644C85.5605 48.0668 85.6936 48.7604 85.96 49.3449C86.2298 49.9295 86.612 50.3809 87.1066 50.6991C87.6012 51.0173 88.1875 51.1764 88.8655 51.1764ZM93.3949 51H94.2977V47.6898C94.2977 47.3612 94.3565 47.0793 94.4741 46.8441C94.5952 46.6089 94.7647 46.4273 94.9826 46.2993C95.2005 46.1714 95.4582 46.1074 95.7556 46.1074C96.2018 46.1074 96.5304 46.2302 96.7414 46.4757C96.9559 46.7179 97.0631 47.0914 97.0631 47.5964V51H97.9659V47.3785C97.9659 46.9358 97.8898 46.5605 97.7376 46.2526C97.5854 45.9448 97.364 45.7113 97.0735 45.5522C96.7829 45.3896 96.4284 45.3084 96.0099 45.3084C95.5983 45.3084 95.2593 45.3914 94.9929 45.5574C94.7266 45.72 94.5225 45.95 94.3807 46.2474H94.2977V43.1863H93.3949V51ZM101.136 51.0986C101.388 51.0986 101.62 51.064 101.831 50.9948C102.042 50.9222 102.231 50.8167 102.397 50.6783C102.566 50.54 102.71 50.3722 102.827 50.175H102.91V51H103.813V47.171C103.813 46.7836 103.73 46.4515 103.564 46.1748C103.402 45.8946 103.161 45.6802 102.843 45.5315C102.528 45.3827 102.143 45.3084 101.686 45.3084C101.288 45.3084 100.934 45.3706 100.622 45.4951C100.311 45.6162 100.057 45.7874 99.8596 46.0088C99.6659 46.2267 99.5449 46.4827 99.4965 46.7767L99.4913 46.8078H100.394L100.399 46.7922C100.472 46.5743 100.615 46.4066 100.83 46.289C101.044 46.1679 101.319 46.1074 101.655 46.1074C102.073 46.1074 102.386 46.199 102.594 46.3823C102.805 46.5622 102.91 46.8251 102.91 47.171V48.9143C102.91 49.1806 102.841 49.4193 102.703 49.6303C102.568 49.8413 102.381 50.009 102.143 50.1335C101.904 50.2546 101.631 50.3151 101.323 50.3151C100.998 50.3151 100.728 50.2373 100.513 50.0817C100.299 49.9225 100.192 49.7012 100.192 49.4175V49.4072C100.192 49.1305 100.289 48.916 100.482 48.7638C100.679 48.6116 100.991 48.5234 101.416 48.4992L103.362 48.3747V47.6535L101.307 47.778C100.875 47.8022 100.506 47.8818 100.202 48.0167C99.8977 48.1516 99.6659 48.3384 99.5068 48.577C99.3477 48.8122 99.2682 49.0959 99.2682 49.4279V49.4383C99.2682 49.7773 99.3494 50.0713 99.512 50.3203C99.678 50.5694 99.9011 50.7613 100.181 50.8962C100.465 51.0311 100.783 51.0986 101.136 51.0986ZM105.463 51H106.366V47.5342C106.366 47.2609 106.428 47.0222 106.553 46.8182C106.681 46.6141 106.855 46.455 107.077 46.3408C107.298 46.2267 107.552 46.1696 107.839 46.1696C107.94 46.1696 108.033 46.1748 108.12 46.1852C108.209 46.1921 108.301 46.2042 108.395 46.2215V45.3447C108.35 45.3378 108.284 45.3308 108.197 45.3239C108.114 45.3135 108.03 45.3084 107.943 45.3084C107.566 45.3084 107.25 45.3896 106.994 45.5522C106.738 45.7148 106.556 45.9431 106.449 46.2371H106.366V45.4069H105.463V51ZM111.658 52.9716C112.166 52.9716 112.607 52.8868 112.981 52.7174C113.355 52.5513 113.642 52.3144 113.842 52.0065C114.046 51.6987 114.148 51.3372 114.148 50.9222V45.4069H113.246V46.3305H113.183C113.069 46.1195 112.926 45.9379 112.753 45.7857C112.583 45.6335 112.388 45.5159 112.166 45.4329C111.945 45.3499 111.703 45.3084 111.44 45.3084C110.952 45.3084 110.532 45.426 110.179 45.6612C109.827 45.8929 109.553 46.2129 109.36 46.621C109.169 47.0257 109.074 47.4892 109.074 48.0115V48.0219C109.074 48.5442 109.169 49.0077 109.36 49.4124C109.55 49.8171 109.82 50.1353 110.169 50.367C110.522 50.5953 110.939 50.7095 111.419 50.7095C111.675 50.7095 111.914 50.6731 112.135 50.6005C112.357 50.5244 112.556 50.4137 112.732 50.2684C112.908 50.1232 113.055 49.9485 113.173 49.7444H113.256V50.8755C113.256 51.2871 113.114 51.6053 112.831 51.8301C112.55 52.0584 112.16 52.1726 111.658 52.1726C111.257 52.1726 110.935 52.1034 110.693 51.965C110.451 51.8301 110.306 51.6572 110.257 51.4462L110.252 51.441H109.318L109.308 51.4462C109.356 51.7506 109.479 52.0169 109.676 52.2452C109.877 52.477 110.145 52.6551 110.48 52.7796C110.816 52.9076 111.208 52.9716 111.658 52.9716ZM111.617 49.9104C111.271 49.9104 110.977 49.8309 110.734 49.6718C110.496 49.5092 110.312 49.2861 110.185 49.0025C110.06 48.7188 109.998 48.392 109.998 48.0219V48.0115C109.998 47.6414 110.06 47.3128 110.185 47.0257C110.312 46.7386 110.496 46.5138 110.734 46.3512C110.977 46.1886 111.271 46.1074 111.617 46.1074C111.962 46.1074 112.258 46.1886 112.504 46.3512C112.753 46.5138 112.943 46.7386 113.074 47.0257C113.209 47.3128 113.277 47.6414 113.277 48.0115V48.0219C113.277 48.392 113.209 48.7188 113.074 49.0025C112.943 49.2861 112.753 49.5092 112.504 49.6718C112.258 49.8309 111.962 49.9104 111.617 49.9104ZM118.112 51.0986C118.441 51.0986 118.737 51.0571 119 50.9741C119.266 50.8876 119.496 50.7734 119.69 50.6316C119.883 50.4864 120.041 50.3255 120.162 50.1491C120.286 49.9692 120.373 49.7842 120.421 49.594L120.432 49.5524H119.529L119.508 49.5991C119.46 49.7098 119.375 49.8188 119.254 49.926C119.133 50.0332 118.979 50.1214 118.792 50.1906C118.605 50.2598 118.386 50.2944 118.133 50.2944C117.794 50.2944 117.5 50.22 117.251 50.0713C117.002 49.9191 116.81 49.7029 116.675 49.4227C116.54 49.1391 116.473 48.7984 116.473 48.4006V48.0426C116.473 47.6241 116.542 47.2713 116.68 46.9842C116.819 46.6971 117.005 46.4809 117.241 46.3357C117.479 46.1869 117.749 46.1126 118.05 46.1126C118.351 46.1126 118.617 46.1835 118.849 46.3253C119.081 46.4636 119.262 46.6746 119.394 46.9583C119.525 47.2419 119.591 47.6033 119.591 48.0426V48.4006L120.037 47.7417H116.016V48.4629H120.499V48.1101C120.499 47.5532 120.4 47.0655 120.203 46.647C120.01 46.225 119.729 45.8964 119.363 45.6612C119 45.426 118.564 45.3084 118.055 45.3084C117.55 45.3084 117.109 45.4311 116.732 45.6767C116.355 45.9223 116.063 46.263 115.855 46.6988C115.651 47.1347 115.549 47.6414 115.549 48.219V48.2242C115.549 48.8088 115.651 49.3172 115.855 49.7496C116.063 50.1785 116.357 50.5106 116.737 50.7458C117.121 50.981 117.58 51.0986 118.112 51.0986ZM123.82 51.0986C124.245 51.0986 124.625 51.0277 124.961 50.8859C125.3 50.744 125.568 50.5469 125.765 50.2944C125.962 50.0384 126.061 49.7444 126.061 49.4124V49.402C126.061 49.0007 125.931 48.6808 125.672 48.4421C125.416 48.2035 125.025 48.0201 124.499 47.8922L123.638 47.6846C123.42 47.6293 123.242 47.5653 123.104 47.4927C122.965 47.42 122.863 47.3353 122.797 47.2384C122.732 47.1416 122.699 47.0309 122.699 46.9064V46.896C122.699 46.73 122.749 46.5847 122.849 46.4602C122.95 46.3357 123.086 46.2388 123.259 46.1696C123.432 46.097 123.629 46.0607 123.851 46.0607C124.19 46.0607 124.465 46.1298 124.676 46.2682C124.887 46.4066 125.022 46.5864 125.08 46.8078H125.968C125.926 46.5034 125.812 46.2388 125.625 46.014C125.442 45.7891 125.198 45.6162 124.894 45.4951C124.593 45.3706 124.247 45.3084 123.856 45.3084C123.462 45.3084 123.107 45.3793 122.792 45.5211C122.477 45.6629 122.228 45.8566 122.045 46.1022C121.865 46.3478 121.775 46.6262 121.775 46.9375V46.9427C121.775 47.209 121.829 47.4408 121.936 47.6379C122.043 47.8316 122.209 47.9959 122.434 48.1308C122.659 48.2623 122.946 48.3695 123.296 48.4525L124.162 48.66C124.508 48.7431 124.757 48.852 124.909 48.9869C125.061 49.1183 125.137 49.2792 125.137 49.4694V49.4798C125.137 49.6493 125.082 49.7998 124.971 49.9312C124.861 50.0592 124.708 50.1612 124.515 50.2373C124.325 50.3099 124.103 50.3463 123.851 50.3463C123.494 50.3463 123.206 50.2754 122.984 50.1335C122.763 49.9917 122.614 49.8049 122.538 49.5732H121.614C121.649 49.881 121.762 50.1491 121.952 50.3774C122.145 50.6057 122.401 50.7838 122.72 50.9118C123.038 51.0363 123.404 51.0986 123.82 51.0986Z" fill="#13171F"/>
<path d="M147 48H152" stroke="white" stroke-width="0.758985" stroke-dasharray="3.79 3.79"/>
<path d="M176.434 51H177.347V49.4487H178.411V48.6133H177.347V43.5132H175.993C175.782 43.8245 175.567 44.1462 175.349 44.4782C175.135 44.8103 174.919 45.1475 174.701 45.4899C174.483 45.8324 174.265 46.1783 174.047 46.5276C173.833 46.8735 173.62 47.2211 173.409 47.5705C173.198 47.9164 172.99 48.2588 172.786 48.5978V49.4487H176.434V51ZM173.741 48.6185V48.5563C173.904 48.2796 174.071 47.9994 174.244 47.7158C174.421 47.4287 174.599 47.1416 174.779 46.8545C174.959 46.5674 175.138 46.282 175.318 45.9984C175.502 45.7148 175.681 45.4381 175.858 45.1683C176.034 44.895 176.207 44.6321 176.377 44.3796H176.439V48.6185H173.741ZM182.302 43.3368C181.8 43.3368 181.351 43.4475 180.953 43.6688C180.559 43.8902 180.247 44.1963 180.019 44.5872C179.794 44.9746 179.682 45.4173 179.682 45.9154V45.9258C179.682 46.4031 179.789 46.832 180.003 47.2125C180.218 47.5895 180.51 47.887 180.88 48.1049C181.25 48.3228 181.669 48.4318 182.136 48.4318C182.475 48.4318 182.776 48.3781 183.039 48.2709C183.305 48.1637 183.53 48.0219 183.713 47.8455C183.9 47.6691 184.038 47.4788 184.128 47.2747H184.31V45.9258H184.004V45.931C184.004 46.2561 183.928 46.5466 183.775 46.8026C183.627 47.0551 183.424 47.254 183.168 47.3993C182.912 47.5445 182.622 47.6172 182.297 47.6172C181.975 47.6172 181.688 47.5445 181.435 47.3993C181.183 47.2505 180.984 47.0482 180.839 46.7922C180.693 46.5328 180.621 46.2371 180.621 45.905V45.8946C180.621 45.5695 180.697 45.2772 180.849 45.0178C181.001 44.7549 181.205 44.5474 181.461 44.3952C181.717 44.2395 182.001 44.1617 182.312 44.1617C182.63 44.1617 182.916 44.2413 183.168 44.4004C183.424 44.556 183.627 44.767 183.775 45.0334C183.928 45.2997 184.004 45.5972 184.004 45.9258L184.227 47.171C184.227 47.2159 184.227 47.2626 184.227 47.3111C184.227 47.356 184.225 47.4027 184.222 47.4512C184.204 47.97 184.126 48.449 183.988 48.8883C183.85 49.3276 183.639 49.6804 183.355 49.9468C183.071 50.2096 182.703 50.3411 182.25 50.3411C181.997 50.3411 181.771 50.2996 181.57 50.2166C181.373 50.1335 181.204 50.0159 181.062 49.8637C180.923 49.7116 180.816 49.5317 180.74 49.3242L180.719 49.2671H179.78L179.796 49.3345C179.882 49.7012 180.038 50.0229 180.263 50.2996C180.488 50.5763 180.768 50.7925 181.103 50.9481C181.442 51.1003 181.821 51.1764 182.24 51.1764C182.845 51.1764 183.362 51.0173 183.791 50.6991C184.22 50.3774 184.548 49.9156 184.777 49.3138C185.005 48.7085 185.119 47.9804 185.119 47.1295V47.1191C185.119 46.4135 185.038 45.8203 184.875 45.3395C184.713 44.8552 184.495 44.4661 184.222 44.1721C183.952 43.8781 183.649 43.6654 183.314 43.5339C182.982 43.4025 182.644 43.3368 182.302 43.3368ZM186.945 51.0519C187.132 51.0519 187.291 50.9862 187.423 50.8547C187.554 50.7198 187.62 50.5607 187.62 50.3774C187.62 50.1906 187.554 50.0315 187.423 49.9001C187.291 49.7686 187.132 49.7029 186.945 49.7029C186.762 49.7029 186.603 49.7686 186.468 49.9001C186.337 50.0315 186.271 50.1906 186.271 50.3774C186.271 50.5607 186.337 50.7198 186.468 50.8547C186.603 50.9862 186.762 51.0519 186.945 51.0519ZM191.475 51.1764C191.983 51.1764 192.433 51.0674 192.824 50.8495C193.215 50.6316 193.521 50.3307 193.742 49.9468C193.967 49.5594 194.079 49.1149 194.079 48.6133V48.603C194.079 48.1187 193.976 47.6898 193.768 47.3163C193.561 46.9392 193.275 46.6435 192.912 46.429C192.549 46.2111 192.132 46.1022 191.662 46.1022C191.437 46.1022 191.222 46.1333 191.018 46.1956C190.818 46.2544 190.636 46.3408 190.474 46.455C190.311 46.5691 190.174 46.7109 190.064 46.8804H189.981L190.235 44.3485H193.664V43.5132H189.498L189.104 47.8143H189.913C189.962 47.7244 190.013 47.6431 190.069 47.5705C190.128 47.4978 190.19 47.4304 190.256 47.3681C190.418 47.2159 190.603 47.1018 190.811 47.0257C191.022 46.9496 191.252 46.9116 191.501 46.9116C191.826 46.9116 192.113 46.9842 192.362 47.1295C192.611 47.2747 192.807 47.4771 192.948 47.7365C193.094 47.9925 193.166 48.2865 193.166 48.6185V48.6289C193.166 48.9644 193.095 49.2619 192.954 49.5213C192.812 49.7807 192.615 49.9848 192.362 50.1335C192.11 50.2788 191.817 50.3515 191.485 50.3515C191.195 50.3515 190.932 50.2944 190.697 50.1802C190.465 50.0661 190.276 49.9122 190.131 49.7185C189.989 49.5213 189.903 49.3034 189.872 49.0647L189.866 49.0232H188.969L188.974 49.0803C189.012 49.4781 189.14 49.8361 189.358 50.1543C189.579 50.4691 189.872 50.7181 190.235 50.9014C190.598 51.0847 191.011 51.1764 191.475 51.1764ZM201.66 51.1764C202.279 51.1764 202.81 51.0605 203.252 50.8288C203.695 50.597 204.034 50.2754 204.269 49.8637C204.508 49.4487 204.627 48.9696 204.627 48.4266V43.5132H203.694V48.3643C203.694 48.7482 203.614 49.0872 203.455 49.3812C203.296 49.6718 203.064 49.9001 202.76 50.0661C202.459 50.2321 202.092 50.3151 201.66 50.3151C201.227 50.3151 200.859 50.2321 200.555 50.0661C200.25 49.9001 200.017 49.6718 199.854 49.3812C199.695 49.0872 199.615 48.7482 199.615 48.3643V43.5132H198.682V48.4266C198.682 48.9696 198.801 49.4487 199.04 49.8637C199.278 50.2754 199.619 50.597 200.062 50.8288C200.508 51.0605 201.041 51.1764 201.66 51.1764ZM208.98 51.1764C209.537 51.1764 210.023 51.0847 210.438 50.9014C210.853 50.7146 211.175 50.4518 211.403 50.1128C211.632 49.7738 211.746 49.3709 211.746 48.9039V48.8987C211.746 48.539 211.672 48.2277 211.523 47.9648C211.377 47.6985 211.146 47.4736 210.828 47.2903C210.509 47.107 210.089 46.9583 209.567 46.8441L208.737 46.6573C208.228 46.5466 207.863 46.3893 207.642 46.1852C207.42 45.9811 207.31 45.7303 207.31 45.4329V45.4277C207.31 45.1648 207.382 44.9434 207.528 44.7636C207.676 44.5803 207.875 44.4402 208.124 44.3433C208.373 44.2465 208.654 44.198 208.965 44.198C209.29 44.1946 209.574 44.243 209.816 44.3433C210.058 44.4436 210.252 44.5803 210.397 44.7532C210.542 44.9227 210.632 45.1181 210.667 45.3395L210.677 45.4069H211.611L211.606 45.3343C211.582 44.9607 211.455 44.6235 211.227 44.3226C211.002 44.0216 210.698 43.783 210.314 43.6066C209.93 43.4267 209.489 43.3368 208.991 43.3368C208.475 43.3368 208.019 43.4267 207.621 43.6066C207.227 43.7864 206.917 44.0355 206.692 44.3537C206.471 44.6719 206.359 45.0386 206.355 45.4536V45.4588C206.355 46.0019 206.525 46.4481 206.864 46.7974C207.206 47.1433 207.753 47.3993 208.503 47.5653L209.333 47.7469C209.849 47.861 210.22 48.0253 210.449 48.2398C210.677 48.4508 210.791 48.7119 210.791 49.0232V49.0284C210.791 49.2809 210.715 49.504 210.563 49.6977C210.411 49.8914 210.201 50.0436 209.935 50.1543C209.672 50.2615 209.371 50.3151 209.032 50.3151C208.673 50.3151 208.351 50.265 208.067 50.1647C207.787 50.0644 207.562 49.9243 207.393 49.7444C207.227 49.5611 207.132 49.3449 207.107 49.0959L207.102 49.0388H206.168L206.174 49.0959C206.212 49.5006 206.348 49.8603 206.583 50.175C206.822 50.4864 207.144 50.7319 207.548 50.9118C207.957 51.0882 208.434 51.1764 208.98 51.1764ZM213.302 51H215.871C216.614 51 217.249 50.853 217.775 50.559C218.301 50.2615 218.703 49.8343 218.984 49.2775C219.264 48.7171 219.404 48.0444 219.404 47.2592V47.2488C219.404 46.4636 219.264 45.7926 218.984 45.2357C218.703 44.6788 218.299 44.2534 217.77 43.9594C217.244 43.6619 216.611 43.5132 215.871 43.5132H213.302V51ZM214.236 50.1595V44.3537H215.808C216.362 44.3537 216.836 44.4696 217.23 44.7013C217.624 44.9296 217.925 45.2617 218.133 45.6975C218.344 46.1298 218.449 46.6504 218.449 47.2592V47.2696C218.449 47.8749 218.345 48.3937 218.138 48.8261C217.93 49.2584 217.629 49.5888 217.235 49.8171C216.841 50.0453 216.365 50.1595 215.808 50.1595H214.236ZM222.657 51H223.591V44.3537H226.004V43.5132H220.244V44.3537H222.657V51ZM232.209 52.8678H232.966C232.78 52.6291 232.605 52.3282 232.442 51.965C232.283 51.6053 232.145 51.2075 232.027 50.7717C231.91 50.3324 231.818 49.8793 231.752 49.4124C231.687 48.9419 231.654 48.4802 231.654 48.0271C231.654 47.5774 231.687 47.1191 231.752 46.6521C231.818 46.1817 231.91 45.7286 232.027 45.2928C232.145 44.8535 232.283 44.4523 232.442 44.0891C232.605 43.7259 232.78 43.425 232.966 43.1863H232.209C231.87 43.6325 231.591 44.1081 231.373 44.6131C231.156 45.1147 230.995 45.6491 230.891 46.2163C230.787 46.7801 230.735 47.3837 230.735 48.0271C230.735 48.6704 230.787 49.2757 230.891 49.843C230.998 50.4103 231.161 50.9447 231.379 51.4462C231.597 51.9477 231.873 52.4216 232.209 52.8678ZM236.832 51.1764C237.34 51.1764 237.79 51.0674 238.181 50.8495C238.572 50.6316 238.878 50.3307 239.099 49.9468C239.324 49.5594 239.436 49.1149 239.436 48.6133V48.603C239.436 48.1187 239.332 47.6898 239.125 47.3163C238.917 46.9392 238.632 46.6435 238.269 46.429C237.906 46.2111 237.489 46.1022 237.018 46.1022C236.794 46.1022 236.579 46.1333 236.375 46.1956C236.174 46.2544 235.993 46.3408 235.83 46.455C235.668 46.5691 235.531 46.7109 235.42 46.8804H235.337L235.592 44.3485H239.021V43.5132H234.855L234.461 47.8143H235.27C235.318 47.7244 235.37 47.6431 235.426 47.5705C235.484 47.4978 235.547 47.4304 235.612 47.3681C235.775 47.2159 235.96 47.1018 236.168 47.0257C236.379 46.9496 236.609 46.9116 236.858 46.9116C237.183 46.9116 237.47 46.9842 237.719 47.1295C237.968 47.2747 238.163 47.4771 238.305 47.7365C238.45 47.9925 238.523 48.2865 238.523 48.6185V48.6289C238.523 48.9644 238.452 49.2619 238.31 49.5213C238.169 49.7807 237.971 49.9848 237.719 50.1335C237.466 50.2788 237.174 50.3515 236.842 50.3515C236.551 50.3515 236.289 50.2944 236.053 50.1802C235.822 50.0661 235.633 49.9122 235.488 49.7185C235.346 49.5213 235.26 49.3034 235.228 49.0647L235.223 49.0232H234.326L234.331 49.0803C234.369 49.4781 234.497 49.8361 234.715 50.1543C234.936 50.4691 235.228 50.7181 235.592 50.9014C235.955 51.0847 236.368 51.1764 236.832 51.1764ZM242.337 47.4512C242.655 47.4512 242.928 47.3699 243.156 47.2073C243.388 47.0413 243.564 46.8078 243.686 46.5069C243.81 46.2025 243.872 45.8445 243.872 45.4329V45.4277C243.872 45.0126 243.81 44.6546 243.686 44.3537C243.564 44.0528 243.388 43.821 243.156 43.6584C242.928 43.4959 242.655 43.4146 242.337 43.4146C242.018 43.4146 241.745 43.4959 241.517 43.6584C241.288 43.821 241.112 44.0528 240.988 44.3537C240.866 44.6546 240.806 45.0126 240.806 45.4277V45.4329C240.806 45.8445 240.866 46.2025 240.988 46.5069C241.112 46.8078 241.288 47.0413 241.517 47.2073C241.745 47.3699 242.018 47.4512 242.337 47.4512ZM242.337 46.8337C242.081 46.8337 241.882 46.7109 241.74 46.4654C241.598 46.2163 241.527 45.8722 241.527 45.4329V45.4277C241.527 44.9884 241.598 44.646 241.74 44.4004C241.882 44.1548 242.081 44.032 242.337 44.032C242.592 44.032 242.791 44.1548 242.933 44.4004C243.078 44.646 243.151 44.9884 243.151 45.4277V45.4329C243.151 45.8722 243.078 46.2163 242.933 46.4654C242.791 46.7109 242.592 46.8337 242.337 46.8337ZM242.897 51L247.992 43.5132H247.151L242.056 51H242.897ZM247.701 51.0986C248.02 51.0986 248.293 51.0173 248.521 50.8547C248.753 50.6887 248.929 50.4552 249.05 50.1543C249.175 49.8534 249.237 49.4954 249.237 49.0803V49.0751C249.237 48.66 249.175 48.302 249.05 48.0011C248.929 47.7002 248.753 47.4684 248.521 47.3059C248.293 47.1433 248.02 47.062 247.701 47.062C247.383 47.062 247.11 47.1433 246.882 47.3059C246.653 47.4684 246.477 47.7002 246.352 48.0011C246.231 48.302 246.171 48.66 246.171 49.0751V49.0803C246.171 49.4954 246.231 49.8534 246.352 50.1543C246.477 50.4552 246.653 50.6887 246.882 50.8547C247.11 51.0173 247.383 51.0986 247.701 51.0986ZM247.701 50.4812C247.445 50.4812 247.246 50.3584 247.105 50.1128C246.963 49.8637 246.892 49.5196 246.892 49.0803V49.0751C246.892 48.6358 246.963 48.2934 247.105 48.0478C247.246 47.8022 247.445 47.6794 247.701 47.6794C247.957 47.6794 248.156 47.8022 248.298 48.0478C248.443 48.2934 248.516 48.6358 248.516 49.0751V49.0803C248.516 49.5196 248.443 49.8637 248.298 50.1128C248.156 50.3584 247.957 50.4812 247.701 50.4812ZM251.271 52.8678C251.61 52.4216 251.887 51.9477 252.101 51.4462C252.319 50.9447 252.48 50.4103 252.584 49.843C252.691 49.2757 252.744 48.6704 252.744 48.0271C252.744 47.3837 252.693 46.7801 252.589 46.2163C252.485 45.6491 252.324 45.1147 252.106 44.6131C251.888 44.1081 251.61 43.6325 251.271 43.1863H250.513C250.7 43.425 250.873 43.7259 251.032 44.0891C251.195 44.4523 251.335 44.8535 251.453 45.2928C251.57 45.7286 251.662 46.1817 251.727 46.6521C251.793 47.1191 251.826 47.5774 251.826 48.0271C251.826 48.4802 251.793 48.9419 251.727 49.4124C251.662 49.8793 251.57 50.3324 251.453 50.7717C251.335 51.2075 251.195 51.6053 251.032 51.965C250.873 52.3282 250.7 52.6291 250.513 52.8678H251.271Z" fill="#464F60"/>
<path d="M39.9547 73H42.5229C43.2666 73 43.9013 72.853 44.427 72.559C44.9528 72.2615 45.3558 71.8343 45.6359 71.2775C45.9161 70.7171 46.0562 70.0444 46.0562 69.2592V69.2488C46.0562 68.4636 45.9161 67.7926 45.6359 67.2357C45.3558 66.6788 44.9511 66.2534 44.4219 65.9594C43.8961 65.6619 43.2631 65.5132 42.5229 65.5132H39.9547V73ZM40.8886 72.1595V66.3537H42.4606C43.0141 66.3537 43.4879 66.4696 43.8823 66.7013C44.2766 66.9296 44.5775 67.2617 44.785 67.6975C44.996 68.1298 45.1015 68.6504 45.1015 69.2592V69.2696C45.1015 69.8749 44.9978 70.3937 44.7902 70.8261C44.5827 71.2584 44.2818 71.5888 43.8874 71.8171C43.4931 72.0453 43.0175 72.1595 42.4606 72.1595H40.8886ZM47.5816 73H48.4844V67.4069H47.5816V73ZM48.0381 66.3277C48.2111 66.3277 48.3581 66.2672 48.4792 66.1462C48.6002 66.0216 48.6608 65.8746 48.6608 65.7051C48.6608 65.5322 48.6002 65.3852 48.4792 65.2641C48.3581 65.1431 48.2111 65.0825 48.0381 65.0825C47.8687 65.0825 47.7217 65.1431 47.5971 65.2641C47.4761 65.3852 47.4155 65.5322 47.4155 65.7051C47.4155 65.8746 47.4761 66.0216 47.5971 66.1462C47.7217 66.2672 47.8687 66.3277 48.0381 66.3277ZM52.1058 73.0986C52.5313 73.0986 52.9118 73.0277 53.2473 72.8859C53.5863 72.744 53.8543 72.5469 54.0515 72.2944C54.2486 72.0384 54.3472 71.7444 54.3472 71.4124V71.402C54.3472 71.0007 54.2175 70.6808 53.9581 70.4421C53.7021 70.2035 53.3113 70.0201 52.7855 69.8922L51.9242 69.6846C51.7063 69.6293 51.5282 69.5653 51.3898 69.4927C51.2515 69.42 51.1494 69.3353 51.0837 69.2384C51.018 69.1416 50.9851 69.0309 50.9851 68.9064V68.896C50.9851 68.73 51.0353 68.5847 51.1356 68.4602C51.2359 68.3357 51.3725 68.2388 51.5455 68.1696C51.7184 68.097 51.9156 68.0607 52.137 68.0607C52.4759 68.0607 52.7509 68.1298 52.9619 68.2682C53.1729 68.4066 53.3078 68.5864 53.3666 68.8078H54.2538C54.2123 68.5034 54.0982 68.2388 53.9114 68.014C53.7281 67.7891 53.4842 67.6162 53.1798 67.4951C52.8789 67.3706 52.533 67.3084 52.1422 67.3084C51.7478 67.3084 51.3933 67.3793 51.0785 67.5211C50.7638 67.6629 50.5147 67.8566 50.3314 68.1022C50.1515 68.3478 50.0616 68.6262 50.0616 68.9375V68.9427C50.0616 69.209 50.1152 69.4408 50.2225 69.6379C50.3297 69.8316 50.4957 69.9959 50.7205 70.1308C50.9454 70.2623 51.2325 70.3695 51.5818 70.4525L52.4483 70.66C52.7942 70.7431 53.0432 70.852 53.1954 70.9869C53.3476 71.1183 53.4237 71.2792 53.4237 71.4694V71.4798C53.4237 71.6493 53.3683 71.7998 53.2577 71.9312C53.147 72.0592 52.9948 72.1612 52.8011 72.2373C52.6108 72.3099 52.3895 72.3463 52.137 72.3463C51.7807 72.3463 51.4919 72.2754 51.2705 72.1335C51.0491 71.9917 50.9004 71.8049 50.8243 71.5732H49.9008C49.9354 71.881 50.0478 72.1491 50.238 72.3774C50.4317 72.6057 50.6877 72.7838 51.0059 72.9118C51.3241 73.0363 51.6908 73.0986 52.1058 73.0986ZM58.0361 73.0986C58.4858 73.0986 58.8697 73.0242 59.188 72.8755C59.5062 72.7267 59.7621 72.5227 59.9558 72.2633C60.1495 72.0004 60.2844 71.7012 60.3605 71.3657L60.3709 71.3086L59.4785 71.3138L59.4681 71.3449C59.3644 71.6562 59.1932 71.8931 58.9545 72.0557C58.7158 72.2183 58.408 72.2996 58.031 72.2996C57.6989 72.2996 57.4101 72.2131 57.1645 72.0402C56.9189 71.8672 56.7287 71.6234 56.5938 71.3086C56.4589 70.9904 56.3914 70.6168 56.3914 70.1879V70.1775C56.3914 69.7555 56.4572 69.3906 56.5886 69.0828C56.7235 68.7715 56.9137 68.5311 57.1593 68.3616C57.4049 68.1921 57.6954 68.1074 58.031 68.1074C58.4322 68.1074 58.7556 68.2042 59.0012 68.3979C59.2468 68.5916 59.4042 68.8268 59.4733 69.1035L59.4785 69.1191H60.3761L60.3709 69.088C60.3156 68.7559 60.1893 68.4567 59.9922 68.1904C59.795 67.9206 59.5321 67.7061 59.2035 67.547C58.8749 67.3879 58.4841 67.3084 58.031 67.3084C57.5087 67.3084 57.0555 67.4277 56.6716 67.6664C56.2877 67.9016 55.9902 68.2336 55.7792 68.6625C55.5717 69.0914 55.4679 69.5964 55.4679 70.1775V70.1879C55.4679 70.7794 55.5734 71.293 55.7844 71.7288C55.9954 72.1647 56.2929 72.5019 56.6768 72.7406C57.0607 72.9792 57.5139 73.0986 58.0361 73.0986ZM63.9924 73.0986C64.5251 73.0986 64.9834 72.9827 65.3673 72.751C65.7513 72.5158 66.047 72.182 66.2545 71.7496C66.4655 71.3172 66.571 70.8036 66.571 70.2087V70.1983C66.571 69.5999 66.4655 69.0845 66.2545 68.6521C66.047 68.2198 65.7513 67.8877 65.3673 67.656C64.9834 67.4242 64.5251 67.3084 63.9924 67.3084C63.4632 67.3084 63.0049 67.4242 62.6175 67.656C62.2335 67.8877 61.9361 68.2198 61.7251 68.6521C61.5175 69.0845 61.4138 69.5999 61.4138 70.1983V70.2087C61.4138 70.8036 61.5175 71.3172 61.7251 71.7496C61.9361 72.182 62.2335 72.5158 62.6175 72.751C63.0049 72.9827 63.4632 73.0986 63.9924 73.0986ZM63.9924 72.2996C63.6396 72.2996 63.3404 72.2166 63.0948 72.0505C62.8492 71.8845 62.6607 71.6458 62.5293 71.3345C62.4013 71.0232 62.3373 70.6479 62.3373 70.2087V70.1983C62.3373 69.7555 62.4013 69.3785 62.5293 69.0672C62.6607 68.7559 62.8492 68.519 63.0948 68.3564C63.3404 68.1904 63.6396 68.1074 63.9924 68.1074C64.3452 68.1074 64.6444 68.1904 64.89 68.3564C65.1356 68.519 65.3224 68.7559 65.4503 69.0672C65.5818 69.3785 65.6475 69.7555 65.6475 70.1983V70.2087C65.6475 70.6479 65.5818 71.0232 65.4503 71.3345C65.3224 71.6458 65.1356 71.8845 64.89 72.0505C64.6444 72.2166 64.3452 72.2996 63.9924 72.2996ZM69.8449 73.0986C70.1181 73.0986 70.362 73.0623 70.5765 72.9896C70.7944 72.917 70.9811 72.8115 71.1368 72.6731C71.2924 72.5313 71.4152 72.3618 71.5052 72.1647H71.5882V73H72.491V67.4069H71.5882V70.7171C71.5882 70.9627 71.5553 71.1841 71.4896 71.3812C71.4273 71.5749 71.3322 71.741 71.2042 71.8793C71.0763 72.0142 70.9172 72.118 70.7269 72.1906C70.5401 72.2633 70.324 72.2996 70.0784 72.2996C69.6322 72.2996 69.3105 72.1768 69.1133 71.9312C68.9196 71.6856 68.8228 71.312 68.8228 70.8105V67.4069H67.92V71.0284C67.92 71.4677 67.9909 71.843 68.1327 72.1543C68.278 72.4621 68.4942 72.6973 68.7813 72.8599C69.0684 73.019 69.4229 73.0986 69.8449 73.0986ZM74.1772 73H75.08V69.6898C75.08 69.3612 75.1388 69.0793 75.2564 68.8441C75.3774 68.6089 75.5469 68.4273 75.7648 68.2993C75.9827 68.1714 76.2404 68.1074 76.5379 68.1074C76.9841 68.1074 77.3127 68.2302 77.5237 68.4757C77.7381 68.7179 77.8454 69.0914 77.8454 69.5964V73H78.7481V69.3785C78.7481 68.7144 78.5787 68.2042 78.2397 67.8479C77.9042 67.4882 77.4216 67.3084 76.7921 67.3084C76.3805 67.3084 76.0415 67.3914 75.7752 67.5574C75.5089 67.72 75.3048 67.95 75.163 68.2474H75.08V67.4069H74.1772V73ZM82.3696 73.0415C82.4596 73.0415 82.5478 73.0363 82.6342 73.0259C82.7207 73.0156 82.8072 73.0035 82.8937 72.9896V72.2217C82.8106 72.2287 82.7397 72.2338 82.6809 72.2373C82.6256 72.2408 82.5581 72.2425 82.4786 72.2425C82.188 72.2425 81.9805 72.1716 81.856 72.0298C81.7315 71.8845 81.6692 71.6476 81.6692 71.319V68.1541H82.8937V67.4069H81.6692V65.9594H80.7353V67.4069H79.8533V68.1541H80.7353V71.5473C80.7353 72.0799 80.8633 72.4621 81.1192 72.6939C81.3787 72.9256 81.7954 73.0415 82.3696 73.0415Z" fill="#13171F"/>
<path d="M96 70H140" stroke="white" stroke-width="0.758985" stroke-dasharray="3.79 3.79"/>
<path d="M156.101 65.3368C155.599 65.3368 155.149 65.4475 154.752 65.6688C154.357 65.8902 154.046 66.1963 153.818 66.5872C153.593 66.9746 153.48 67.4173 153.48 67.9154V67.9258C153.48 68.4031 153.588 68.832 153.802 69.2125C154.017 69.5895 154.309 69.887 154.679 70.1049C155.049 70.3228 155.468 70.4318 155.935 70.4318C156.273 70.4318 156.574 70.3781 156.837 70.2709C157.104 70.1637 157.328 70.0219 157.512 69.8455C157.699 69.6691 157.837 69.4788 157.927 69.2747H158.108V67.9258H157.802V67.931C157.802 68.2561 157.726 68.5466 157.574 68.8026C157.425 69.0551 157.223 69.254 156.967 69.3993C156.711 69.5445 156.42 69.6172 156.095 69.6172C155.774 69.6172 155.487 69.5445 155.234 69.3993C154.982 69.2505 154.783 69.0482 154.637 68.7922C154.492 68.5328 154.42 68.2371 154.42 67.905V67.8946C154.42 67.5695 154.496 67.2772 154.648 67.0178C154.8 66.7549 155.004 66.5474 155.26 66.3952C155.516 66.2395 155.8 66.1617 156.111 66.1617C156.429 66.1617 156.715 66.2413 156.967 66.4004C157.223 66.556 157.425 66.767 157.574 67.0334C157.726 67.2997 157.802 67.5972 157.802 67.9258L158.025 69.171C158.025 69.2159 158.025 69.2626 158.025 69.3111C158.025 69.356 158.024 69.4027 158.02 69.4512C158.003 69.97 157.925 70.449 157.787 70.8883C157.648 71.3276 157.437 71.6804 157.154 71.9468C156.87 72.2096 156.502 72.3411 156.049 72.3411C155.796 72.3411 155.57 72.2996 155.369 72.2166C155.172 72.1335 155.002 72.0159 154.861 71.8637C154.722 71.7116 154.615 71.5317 154.539 71.3242L154.518 71.2671H153.579L153.595 71.3345C153.681 71.7012 153.837 72.0229 154.062 72.2996C154.286 72.5763 154.567 72.7925 154.902 72.9481C155.241 73.1003 155.62 73.1764 156.038 73.1764C156.644 73.1764 157.161 73.0173 157.59 72.6991C158.019 72.3774 158.347 71.9156 158.575 71.3138C158.804 70.7085 158.918 69.9804 158.918 69.1295V69.1191C158.918 68.4135 158.837 67.8203 158.674 67.3395C158.511 66.8552 158.294 66.4661 158.02 66.1721C157.75 65.8781 157.448 65.6654 157.112 65.5339C156.78 65.4025 156.443 65.3368 156.101 65.3368ZM162.866 65.3368C162.365 65.3368 161.915 65.4475 161.517 65.6688C161.123 65.8902 160.812 66.1963 160.583 66.5872C160.358 66.9746 160.246 67.4173 160.246 67.9154V67.9258C160.246 68.4031 160.353 68.832 160.568 69.2125C160.782 69.5895 161.074 69.887 161.445 70.1049C161.815 70.3228 162.233 70.4318 162.7 70.4318C163.039 70.4318 163.34 70.3781 163.603 70.2709C163.869 70.1637 164.094 70.0219 164.277 69.8455C164.464 69.6691 164.603 69.4788 164.692 69.2747H164.874V67.9258H164.568V67.931C164.568 68.2561 164.492 68.5466 164.34 68.8026C164.191 69.0551 163.989 69.254 163.733 69.3993C163.477 69.5445 163.186 69.6172 162.861 69.6172C162.539 69.6172 162.252 69.5445 162 69.3993C161.747 69.2505 161.548 69.0482 161.403 68.7922C161.258 68.5328 161.185 68.2371 161.185 67.905V67.8946C161.185 67.5695 161.261 67.2772 161.413 67.0178C161.566 66.7549 161.77 66.5474 162.026 66.3952C162.282 66.2395 162.565 66.1617 162.877 66.1617C163.195 66.1617 163.48 66.2413 163.733 66.4004C163.989 66.556 164.191 66.767 164.34 67.0334C164.492 67.2997 164.568 67.5972 164.568 67.9258L164.791 69.171C164.791 69.2159 164.791 69.2626 164.791 69.3111C164.791 69.356 164.789 69.4027 164.786 69.4512C164.769 69.97 164.691 70.449 164.552 70.8883C164.414 71.3276 164.203 71.6804 163.919 71.9468C163.636 72.2096 163.267 72.3411 162.814 72.3411C162.562 72.3411 162.335 72.2996 162.135 72.2166C161.937 72.1335 161.768 72.0159 161.626 71.8637C161.488 71.7116 161.381 71.5317 161.304 71.3242L161.284 71.2671H160.345L160.36 71.3345C160.447 71.7012 160.602 72.0229 160.827 72.2996C161.052 72.5763 161.332 72.7925 161.668 72.9481C162.007 73.1003 162.385 73.1764 162.804 73.1764C163.409 73.1764 163.926 73.0173 164.355 72.6991C164.784 72.3774 165.113 71.9156 165.341 71.3138C165.569 70.7085 165.683 69.9804 165.683 69.1295V69.1191C165.683 68.4135 165.602 67.8203 165.44 67.3395C165.277 66.8552 165.059 66.4661 164.786 66.1721C164.516 65.8781 164.213 65.6654 163.878 65.5339C163.546 65.4025 163.209 65.3368 162.866 65.3368ZM173.259 73.1764C173.878 73.1764 174.409 73.0605 174.851 72.8288C175.294 72.597 175.633 72.2754 175.868 71.8637C176.107 71.4487 176.226 70.9696 176.226 70.4266V65.5132H175.292V70.3643C175.292 70.7482 175.213 71.0872 175.054 71.3812C174.895 71.6718 174.663 71.9001 174.358 72.0661C174.058 72.2321 173.691 72.3151 173.259 72.3151C172.826 72.3151 172.458 72.2321 172.153 72.0661C171.849 71.9001 171.616 71.6718 171.453 71.3812C171.294 71.0872 171.214 70.7482 171.214 70.3643V65.5132H170.28V70.4266C170.28 70.9696 170.4 71.4487 170.638 71.8637C170.877 72.2754 171.218 72.597 171.66 72.8288C172.107 73.0605 172.639 73.1764 173.259 73.1764ZM180.579 73.1764C181.136 73.1764 181.622 73.0847 182.037 72.9014C182.452 72.7146 182.774 72.4518 183.002 72.1128C183.231 71.7738 183.345 71.3709 183.345 70.9039V70.8987C183.345 70.539 183.27 70.2277 183.122 69.9648C182.976 69.6985 182.745 69.4736 182.426 69.2903C182.108 69.107 181.688 68.9583 181.166 68.8441L180.335 68.6573C179.827 68.5466 179.462 68.3893 179.241 68.1852C179.019 67.9811 178.909 67.7303 178.909 67.4329V67.4277C178.909 67.1648 178.981 66.9434 179.127 66.7636C179.275 66.5803 179.474 66.4402 179.723 66.3433C179.972 66.2465 180.252 66.198 180.564 66.198C180.889 66.1946 181.173 66.243 181.415 66.3433C181.657 66.4436 181.85 66.5803 181.996 66.7532C182.141 66.9227 182.231 67.1181 182.266 67.3395L182.276 67.4069H183.21L183.205 67.3343C183.18 66.9607 183.054 66.6235 182.826 66.3226C182.601 66.0216 182.297 65.783 181.913 65.6066C181.529 65.4267 181.088 65.3368 180.59 65.3368C180.074 65.3368 179.618 65.4267 179.22 65.6066C178.826 65.7864 178.516 66.0355 178.291 66.3537C178.07 66.6719 177.957 67.0386 177.954 67.4536V67.4588C177.954 68.0019 178.123 68.4481 178.462 68.7974C178.805 69.1433 179.351 69.3993 180.102 69.5653L180.932 69.7469C181.447 69.861 181.819 70.0253 182.048 70.2398C182.276 70.4508 182.39 70.7119 182.39 71.0232V71.0284C182.39 71.2809 182.314 71.504 182.162 71.6977C182.01 71.8914 181.8 72.0436 181.534 72.1543C181.271 72.2615 180.97 72.3151 180.631 72.3151C180.271 72.3151 179.95 72.265 179.666 72.1647C179.386 72.0644 179.161 71.9243 178.992 71.7444C178.826 71.5611 178.731 71.3449 178.706 71.0959L178.701 71.0388H177.767L177.772 71.0959C177.81 71.5006 177.947 71.8603 178.182 72.175C178.421 72.4864 178.743 72.7319 179.147 72.9118C179.555 73.0882 180.033 73.1764 180.579 73.1764ZM184.901 73H187.469C188.213 73 188.848 72.853 189.374 72.559C189.899 72.2615 190.302 71.8343 190.582 71.2775C190.863 70.7171 191.003 70.0444 191.003 69.2592V69.2488C191.003 68.4636 190.863 67.7926 190.582 67.2357C190.302 66.6788 189.898 66.2534 189.368 65.9594C188.843 65.6619 188.21 65.5132 187.469 65.5132H184.901V73ZM185.835 72.1595V66.3537H187.407C187.961 66.3537 188.435 66.4696 188.829 66.7013C189.223 66.9296 189.524 67.2617 189.732 67.6975C189.943 68.1298 190.048 68.6504 190.048 69.2592V69.2696C190.048 69.8749 189.944 70.3937 189.737 70.8261C189.529 71.2584 189.228 71.5888 188.834 71.8171C188.44 72.0453 187.964 72.1595 187.407 72.1595H185.835ZM194.256 73H195.19V66.3537H197.602V65.5132H191.843V66.3537H194.256V73ZM203.808 74.8678H204.565C204.378 74.6291 204.204 74.3282 204.041 73.965C203.882 73.6053 203.744 73.2075 203.626 72.7717C203.508 72.3324 203.417 71.8793 203.351 71.4124C203.285 70.9419 203.253 70.4802 203.253 70.0271C203.253 69.5774 203.285 69.1191 203.351 68.6521C203.417 68.1817 203.508 67.7286 203.626 67.2928C203.744 66.8535 203.882 66.4523 204.041 66.0891C204.204 65.7259 204.378 65.425 204.565 65.1863H203.808C203.469 65.6325 203.19 66.1081 202.972 66.6131C202.754 67.1147 202.594 67.6491 202.49 68.2163C202.386 68.7801 202.334 69.3837 202.334 70.0271C202.334 70.6704 202.386 71.2757 202.49 71.843C202.597 72.4103 202.76 72.9447 202.978 73.4462C203.195 73.9477 203.472 74.4216 203.808 74.8678ZM207.803 73H208.737V65.5132H207.808L205.816 66.9452V67.931L207.72 66.5508H207.803V73ZM213.406 73.1764C213.96 73.1764 214.433 73.0173 214.828 72.6991C215.222 72.3809 215.525 71.9295 215.736 71.3449C215.95 70.7569 216.057 70.0617 216.057 69.2592V69.2488C216.057 68.4463 215.95 67.7528 215.736 67.1683C215.525 66.5837 215.222 66.1323 214.828 65.8141C214.433 65.4959 213.96 65.3368 213.406 65.3368C212.853 65.3368 212.379 65.4959 211.985 65.8141C211.594 66.1323 211.293 66.5837 211.082 67.1683C210.871 67.7528 210.765 68.4463 210.765 69.2488V69.2592C210.765 70.0617 210.871 70.7569 211.082 71.3449C211.293 71.9295 211.594 72.3809 211.985 72.6991C212.379 73.0173 212.853 73.1764 213.406 73.1764ZM213.406 72.3618C213.05 72.3618 212.744 72.2356 212.488 71.9831C212.235 71.7306 212.042 71.3726 211.907 70.9091C211.772 70.4456 211.704 69.8956 211.704 69.2592V69.2488C211.704 68.6124 211.772 68.0641 211.907 67.6041C212.042 67.1406 212.235 66.7843 212.488 66.5353C212.744 66.2828 213.05 66.1565 213.406 66.1565C213.766 66.1565 214.072 66.2828 214.324 66.5353C214.58 66.7843 214.776 67.1406 214.911 67.6041C215.049 68.0641 215.118 68.6124 215.118 69.2488V69.2592C215.118 69.8956 215.049 70.4456 214.911 70.9091C214.776 71.3726 214.58 71.7306 214.324 71.9831C214.072 72.2356 213.766 72.3618 213.406 72.3618ZM218.989 69.4512C219.307 69.4512 219.58 69.3699 219.809 69.2073C220.04 69.0413 220.217 68.8078 220.338 68.5069C220.462 68.2025 220.525 67.8445 220.525 67.4329V67.4277C220.525 67.0126 220.462 66.6546 220.338 66.3537C220.217 66.0528 220.04 65.821 219.809 65.6584C219.58 65.4959 219.307 65.4146 218.989 65.4146C218.671 65.4146 218.397 65.4959 218.169 65.6584C217.941 65.821 217.764 66.0528 217.64 66.3537C217.519 66.6546 217.458 67.0126 217.458 67.4277V67.4329C217.458 67.8445 217.519 68.2025 217.64 68.5069C217.764 68.8078 217.941 69.0413 218.169 69.2073C218.397 69.3699 218.671 69.4512 218.989 69.4512ZM218.989 68.8337C218.733 68.8337 218.534 68.7109 218.392 68.4654C218.25 68.2163 218.179 67.8722 218.179 67.4329V67.4277C218.179 66.9884 218.25 66.646 218.392 66.4004C218.534 66.1548 218.733 66.032 218.989 66.032C219.245 66.032 219.444 66.1548 219.586 66.4004C219.731 66.646 219.803 66.9884 219.803 67.4277V67.4329C219.803 67.8722 219.731 68.2163 219.586 68.4654C219.444 68.7109 219.245 68.8337 218.989 68.8337ZM219.549 73L224.644 65.5132H223.804L218.709 73H219.549ZM224.354 73.0986C224.672 73.0986 224.945 73.0173 225.173 72.8547C225.405 72.6887 225.582 72.4552 225.703 72.1543C225.827 71.8534 225.889 71.4954 225.889 71.0803V71.0751C225.889 70.66 225.827 70.302 225.703 70.0011C225.582 69.7002 225.405 69.4684 225.173 69.3059C224.945 69.1433 224.672 69.062 224.354 69.062C224.035 69.062 223.762 69.1433 223.534 69.3059C223.306 69.4684 223.129 69.7002 223.005 70.0011C222.884 70.302 222.823 70.66 222.823 71.0751V71.0803C222.823 71.4954 222.884 71.8534 223.005 72.1543C223.129 72.4552 223.306 72.6887 223.534 72.8547C223.762 73.0173 224.035 73.0986 224.354 73.0986ZM224.354 72.4812C224.098 72.4812 223.899 72.3584 223.757 72.1128C223.615 71.8637 223.544 71.5196 223.544 71.0803V71.0751C223.544 70.6358 223.615 70.2934 223.757 70.0478C223.899 69.8022 224.098 69.6794 224.354 69.6794C224.61 69.6794 224.808 69.8022 224.95 70.0478C225.096 70.2934 225.168 70.6358 225.168 71.0751V71.0803C225.168 71.5196 225.096 71.8637 224.95 72.1128C224.808 72.3584 224.61 72.4812 224.354 72.4812ZM233.682 73.1764C234.395 73.1764 235.007 73.0156 235.519 72.6939C236.034 72.3722 236.429 71.9191 236.702 71.3345C236.979 70.7465 237.117 70.0547 237.117 69.2592V69.2488C237.117 68.4498 236.979 67.758 236.702 67.1735C236.425 66.5854 236.029 66.1323 235.514 65.8141C235.002 65.4959 234.391 65.3368 233.682 65.3368C232.977 65.3368 232.366 65.4959 231.851 65.8141C231.339 66.1323 230.943 66.5837 230.663 67.1683C230.386 67.7528 230.248 68.4463 230.248 69.2488V69.2592C230.248 70.0547 230.384 70.7465 230.657 71.3345C230.934 71.9225 231.329 72.3774 231.84 72.6991C232.352 73.0173 232.966 73.1764 233.682 73.1764ZM233.682 72.3151C233.163 72.3151 232.719 72.1889 232.349 71.9364C231.979 71.6839 231.695 71.3293 231.498 70.8728C231.301 70.4127 231.202 69.8749 231.202 69.2592V69.2488C231.202 68.6262 231.303 68.0866 231.503 67.63C231.707 67.1735 231.994 66.8206 232.364 66.5716C232.735 66.3226 233.174 66.198 233.682 66.198C234.194 66.198 234.635 66.3226 235.005 66.5716C235.375 66.8206 235.661 67.1735 235.861 67.63C236.062 68.0866 236.162 68.6262 236.162 69.2488V69.2592C236.162 69.8749 236.062 70.4127 235.861 70.8728C235.661 71.3293 235.375 71.6839 235.005 71.9364C234.635 72.1889 234.194 72.3151 233.682 72.3151ZM238.736 73H239.67V69.7573H242.985V68.9271H239.67V66.3537H243.281V65.5132H238.736V73ZM244.817 73H245.75V69.7573H249.066V68.9271H245.75V66.3537H249.362V65.5132H244.817V73ZM251.271 74.8678C251.61 74.4216 251.887 73.9477 252.101 73.4462C252.319 72.9447 252.48 72.4103 252.584 71.843C252.691 71.2757 252.744 70.6704 252.744 70.0271C252.744 69.3837 252.693 68.7801 252.589 68.2163C252.485 67.6491 252.324 67.1147 252.106 66.6131C251.888 66.1081 251.61 65.6325 251.271 65.1863H250.513C250.7 65.425 250.873 65.7259 251.032 66.0891C251.195 66.4523 251.335 66.8535 251.453 67.2928C251.57 67.7286 251.662 68.1817 251.727 68.6521C251.793 69.1191 251.826 69.5774 251.826 70.0271C251.826 70.4802 251.793 70.9419 251.727 71.4124C251.662 71.8793 251.57 72.3324 251.453 72.7717C251.335 73.2075 251.195 73.6053 251.032 73.965C250.873 74.3282 250.7 74.6291 250.513 74.8678H251.271Z" fill="#464F60"/>
<path d="M41.9003 139H42.8342V132.354H45.2468V131.513H39.4877V132.354H41.9003V139ZM47.8358 139.099C48.3685 139.099 48.8268 138.983 49.2107 138.751C49.5947 138.516 49.8904 138.182 50.0979 137.75C50.3089 137.317 50.4144 136.804 50.4144 136.209V136.198C50.4144 135.6 50.3089 135.085 50.0979 134.652C49.8904 134.22 49.5947 133.888 49.2107 133.656C48.8268 133.424 48.3685 133.308 47.8358 133.308C47.3066 133.308 46.8483 133.424 46.4609 133.656C46.0769 133.888 45.7795 134.22 45.5685 134.652C45.3609 135.085 45.2572 135.6 45.2572 136.198V136.209C45.2572 136.804 45.3609 137.317 45.5685 137.75C45.7795 138.182 46.0769 138.516 46.4609 138.751C46.8483 138.983 47.3066 139.099 47.8358 139.099ZM47.8358 138.3C47.483 138.3 47.1838 138.217 46.9382 138.051C46.6926 137.884 46.5041 137.646 46.3727 137.335C46.2447 137.023 46.1807 136.648 46.1807 136.209V136.198C46.1807 135.756 46.2447 135.379 46.3727 135.067C46.5041 134.756 46.6926 134.519 46.9382 134.356C47.1838 134.19 47.483 134.107 47.8358 134.107C48.1886 134.107 48.4878 134.19 48.7334 134.356C48.979 134.519 49.1658 134.756 49.2937 135.067C49.4252 135.379 49.4909 135.756 49.4909 136.198V136.209C49.4909 136.648 49.4252 137.023 49.2937 137.335C49.1658 137.646 48.979 137.884 48.7334 138.051C48.4878 138.217 48.1886 138.3 47.8358 138.3ZM53.8024 139.042C53.8924 139.042 53.9806 139.036 54.067 139.026C54.1535 139.016 54.24 139.003 54.3265 138.99V138.222C54.2434 138.229 54.1725 138.234 54.1137 138.237C54.0584 138.241 53.9909 138.242 53.9114 138.242C53.6208 138.242 53.4133 138.172 53.2888 138.03C53.1643 137.884 53.102 137.648 53.102 137.319V134.154H54.3265V133.407H53.102V131.959H52.1681V133.407H51.2861V134.154H52.1681V137.547C52.1681 138.08 52.2961 138.462 52.552 138.694C52.8115 138.926 53.2283 139.042 53.8024 139.042ZM57.2112 139.099C57.4637 139.099 57.6954 139.064 57.9064 138.995C58.1174 138.922 58.3059 138.817 58.472 138.678C58.6415 138.54 58.785 138.372 58.9026 138.175H58.9856V139H59.8884V135.171C59.8884 134.784 59.8054 134.452 59.6394 134.175C59.4768 133.895 59.2364 133.68 58.9182 133.531C58.6034 133.383 58.2177 133.308 57.7612 133.308C57.3634 133.308 57.0089 133.371 56.6975 133.495C56.3862 133.616 56.132 133.787 55.9349 134.009C55.7412 134.227 55.6201 134.483 55.5717 134.777L55.5665 134.808H56.4693L56.4744 134.792C56.5471 134.574 56.6906 134.407 56.9051 134.289C57.1195 134.168 57.3945 134.107 57.73 134.107C58.1486 134.107 58.4616 134.199 58.6691 134.382C58.8801 134.562 58.9856 134.825 58.9856 135.171V136.914C58.9856 137.181 58.9164 137.419 58.7781 137.63C58.6432 137.841 58.4564 138.009 58.2177 138.134C57.9791 138.255 57.7058 138.315 57.398 138.315C57.0728 138.315 56.803 138.237 56.5886 138.082C56.3741 137.923 56.2669 137.701 56.2669 137.418V137.407C56.2669 137.13 56.3638 136.916 56.5575 136.764C56.7546 136.612 57.0659 136.523 57.4914 136.499L59.437 136.375V135.653L57.3824 135.778C56.95 135.802 56.5817 135.882 56.2773 136.017C55.9729 136.152 55.7412 136.338 55.582 136.577C55.4229 136.812 55.3434 137.096 55.3434 137.428V137.438C55.3434 137.777 55.4247 138.071 55.5872 138.32C55.7533 138.569 55.9764 138.761 56.2565 138.896C56.5402 139.031 56.8584 139.099 57.2112 139.099ZM61.5902 139H62.493V131.186H61.5902V139Z" fill="#13171F"/>
<path d="M76 136H188" stroke="white" stroke-width="0.758985" stroke-dasharray="3.79 3.79"/>
<path d="M203.372 139H204.306V131.513H203.377L201.385 132.945V133.931L203.289 132.551H203.372V139ZM208.301 139H209.235V131.513H208.306L206.314 132.945V133.931L208.218 132.551H208.301V139ZM213.23 139H214.164V131.513H213.235L211.243 132.945V133.931L213.147 132.551H213.23V139ZM218.776 131.337C218.275 131.337 217.825 131.447 217.427 131.669C217.033 131.89 216.722 132.196 216.493 132.587C216.268 132.975 216.156 133.417 216.156 133.915V133.926C216.156 134.403 216.263 134.832 216.478 135.212C216.692 135.59 216.984 135.887 217.355 136.105C217.725 136.323 218.143 136.432 218.61 136.432C218.949 136.432 219.25 136.378 219.513 136.271C219.779 136.164 220.004 136.022 220.187 135.845C220.374 135.669 220.512 135.479 220.602 135.275H220.784V133.926H220.478V133.931C220.478 134.256 220.402 134.547 220.25 134.803C220.101 135.055 219.899 135.254 219.643 135.399C219.387 135.545 219.096 135.617 218.771 135.617C218.449 135.617 218.162 135.545 217.91 135.399C217.657 135.251 217.458 135.048 217.313 134.792C217.168 134.533 217.095 134.237 217.095 133.905V133.895C217.095 133.57 217.171 133.277 217.323 133.018C217.476 132.755 217.68 132.547 217.936 132.395C218.192 132.24 218.475 132.162 218.786 132.162C219.105 132.162 219.39 132.241 219.643 132.4C219.899 132.556 220.101 132.767 220.25 133.033C220.402 133.3 220.478 133.597 220.478 133.926L220.701 135.171C220.701 135.216 220.701 135.263 220.701 135.311C220.701 135.356 220.699 135.403 220.696 135.451C220.679 135.97 220.601 136.449 220.462 136.888C220.324 137.328 220.113 137.68 219.829 137.947C219.546 138.21 219.177 138.341 218.724 138.341C218.472 138.341 218.245 138.3 218.045 138.217C217.847 138.134 217.678 138.016 217.536 137.864C217.398 137.712 217.291 137.532 217.214 137.324L217.194 137.267H216.255L216.27 137.335C216.357 137.701 216.512 138.023 216.737 138.3C216.962 138.576 217.242 138.792 217.578 138.948C217.917 139.1 218.295 139.176 218.714 139.176C219.319 139.176 219.836 139.017 220.265 138.699C220.694 138.377 221.023 137.916 221.251 137.314C221.479 136.708 221.593 135.98 221.593 135.129V135.119C221.593 134.413 221.512 133.82 221.35 133.339C221.187 132.855 220.969 132.466 220.696 132.172C220.426 131.878 220.123 131.665 219.788 131.534C219.456 131.402 219.119 131.337 218.776 131.337ZM229.168 139.176C229.788 139.176 230.319 139.061 230.761 138.829C231.204 138.597 231.543 138.275 231.778 137.864C232.017 137.449 232.136 136.97 232.136 136.427V131.513H231.202V136.364C231.202 136.748 231.123 137.087 230.964 137.381C230.805 137.672 230.573 137.9 230.268 138.066C229.967 138.232 229.601 138.315 229.168 138.315C228.736 138.315 228.368 138.232 228.063 138.066C227.759 137.9 227.525 137.672 227.363 137.381C227.204 137.087 227.124 136.748 227.124 136.364V131.513H226.19V136.427C226.19 136.97 226.31 137.449 226.548 137.864C226.787 138.275 227.128 138.597 227.57 138.829C228.017 139.061 228.549 139.176 229.168 139.176ZM236.489 139.176C237.046 139.176 237.532 139.085 237.947 138.901C238.362 138.715 238.684 138.452 238.912 138.113C239.14 137.774 239.255 137.371 239.255 136.904V136.899C239.255 136.539 239.18 136.228 239.032 135.965C238.886 135.698 238.655 135.474 238.336 135.29C238.018 135.107 237.598 134.958 237.076 134.844L236.245 134.657C235.737 134.547 235.372 134.389 235.151 134.185C234.929 133.981 234.819 133.73 234.819 133.433V133.428C234.819 133.165 234.891 132.943 235.036 132.764C235.185 132.58 235.384 132.44 235.633 132.343C235.882 132.246 236.162 132.198 236.474 132.198C236.799 132.195 237.082 132.243 237.325 132.343C237.567 132.444 237.76 132.58 237.906 132.753C238.051 132.923 238.141 133.118 238.175 133.339L238.186 133.407H239.12L239.115 133.334C239.09 132.961 238.964 132.623 238.736 132.323C238.511 132.022 238.207 131.783 237.823 131.607C237.439 131.427 236.998 131.337 236.5 131.337C235.984 131.337 235.528 131.427 235.13 131.607C234.736 131.786 234.426 132.035 234.201 132.354C233.98 132.672 233.867 133.039 233.864 133.454V133.459C233.864 134.002 234.033 134.448 234.372 134.797C234.715 135.143 235.261 135.399 236.012 135.565L236.842 135.747C237.357 135.861 237.729 136.025 237.958 136.24C238.186 136.451 238.3 136.712 238.3 137.023V137.028C238.3 137.281 238.224 137.504 238.072 137.698C237.919 137.891 237.71 138.044 237.444 138.154C237.181 138.262 236.88 138.315 236.541 138.315C236.181 138.315 235.86 138.265 235.576 138.165C235.296 138.064 235.071 137.924 234.902 137.744C234.736 137.561 234.64 137.345 234.616 137.096L234.611 137.039H233.677L233.682 137.096C233.72 137.501 233.857 137.86 234.092 138.175C234.331 138.486 234.653 138.732 235.057 138.912C235.465 139.088 235.943 139.176 236.489 139.176ZM240.811 139H243.379C244.123 139 244.758 138.853 245.284 138.559C245.809 138.262 246.212 137.834 246.492 137.277C246.773 136.717 246.913 136.044 246.913 135.259V135.249C246.913 134.464 246.773 133.793 246.492 133.236C246.212 132.679 245.808 132.253 245.278 131.959C244.753 131.662 244.12 131.513 243.379 131.513H240.811V139ZM241.745 138.159V132.354H243.317C243.871 132.354 244.344 132.47 244.739 132.701C245.133 132.93 245.434 133.262 245.642 133.697C245.853 134.13 245.958 134.65 245.958 135.259V135.27C245.958 135.875 245.854 136.394 245.647 136.826C245.439 137.258 245.138 137.589 244.744 137.817C244.35 138.045 243.874 138.159 243.317 138.159H241.745ZM250.166 139H251.1V132.354H253.512V131.513H247.753V132.354H250.166V139Z" fill="#464F60"/>
<path d="M41.9003 95H42.8342V88.3537H45.2468V87.5132H39.4877V88.3537H41.9003V95ZM47.0212 95.0986C47.2737 95.0986 47.5055 95.064 47.7165 94.9948C47.9275 94.9222 48.116 94.8167 48.282 94.6783C48.4515 94.54 48.595 94.3722 48.7126 94.175H48.7957V95H49.6984V91.171C49.6984 90.7836 49.6154 90.4515 49.4494 90.1748C49.2868 89.8946 49.0464 89.6802 48.7282 89.5315C48.4134 89.3827 48.0278 89.3084 47.5712 89.3084C47.1734 89.3084 46.8189 89.3706 46.5076 89.4951C46.1963 89.6162 45.942 89.7874 45.7449 90.0088C45.5512 90.2267 45.4301 90.4827 45.3817 90.7767L45.3765 90.8078H46.2793L46.2845 90.7922C46.3571 90.5743 46.5007 90.4066 46.7151 90.289C46.9296 90.1679 47.2046 90.1074 47.5401 90.1074C47.9586 90.1074 48.2716 90.199 48.4792 90.3823C48.6902 90.5622 48.7957 90.8251 48.7957 91.171V92.9143C48.7957 93.1806 48.7265 93.4193 48.5881 93.6303C48.4532 93.8413 48.2664 94.009 48.0278 94.1335C47.7891 94.2546 47.5159 94.3151 47.208 94.3151C46.8829 94.3151 46.6131 94.2373 46.3986 94.0817C46.1842 93.9225 46.0769 93.7012 46.0769 93.4175V93.4072C46.0769 93.1305 46.1738 92.916 46.3675 92.7638C46.5647 92.6116 46.876 92.5234 47.3014 92.4992L49.247 92.3747V91.6535L47.1924 91.778C46.7601 91.8022 46.3917 91.8818 46.0873 92.0167C45.7829 92.1516 45.5512 92.3384 45.3921 92.577C45.233 92.8122 45.1534 93.0959 45.1534 93.4279V93.4383C45.1534 93.7773 45.2347 94.0713 45.3973 94.3203C45.5633 94.5694 45.7864 94.7613 46.0666 94.8962C46.3502 95.0311 46.6684 95.0986 47.0212 95.0986ZM50.9021 95H51.9139L53.2421 92.8883H53.3251L54.6481 95H55.7066L53.7817 92.1671L55.6806 89.4069H54.6689L53.3562 91.4875H53.2732L51.945 89.4069H50.8814L52.8166 92.2035L50.9021 95Z" fill="#13171F"/>
<path d="M60.0359 92H158.964" stroke="white" stroke-width="0.758985" stroke-dasharray="3.79 3.79"/>
<path d="M165.663 95H166.597V87.5132H165.668L163.676 88.9452V89.931L165.58 88.5508H165.663V95ZM169.071 95H170.052L173.383 88.3796V87.5132H168.428V88.3485H172.434V88.4211L169.071 95ZM177.212 95.1245C177.741 95.1245 178.21 95.0329 178.618 94.8495C179.03 94.6662 179.351 94.4137 179.583 94.092C179.815 93.7669 179.931 93.3951 179.931 92.9765V92.9662C179.931 92.6583 179.863 92.373 179.728 92.1101C179.594 91.8472 179.405 91.6241 179.163 91.4408C178.924 91.254 178.644 91.1243 178.322 91.0516V91.0309C178.734 90.9029 179.059 90.6919 179.298 90.3979C179.54 90.1039 179.661 89.7597 179.661 89.3654V89.355C179.661 88.978 179.555 88.6425 179.344 88.3485C179.133 88.051 178.843 87.8176 178.473 87.6481C178.106 87.4751 177.686 87.3887 177.212 87.3887C176.742 87.3887 176.321 87.4751 175.951 87.6481C175.581 87.8176 175.291 88.051 175.08 88.3485C174.869 88.6425 174.763 88.978 174.763 89.355V89.3654C174.763 89.7597 174.884 90.1039 175.126 90.3979C175.368 90.6919 175.694 90.9029 176.102 91.0309V91.0516C175.784 91.1243 175.503 91.254 175.261 91.4408C175.019 91.6241 174.831 91.8472 174.696 92.1101C174.561 92.373 174.493 92.6583 174.493 92.9662V92.9765C174.493 93.3951 174.609 93.7669 174.841 94.092C175.076 94.4137 175.398 94.6662 175.806 94.8495C176.214 95.0329 176.683 95.1245 177.212 95.1245ZM177.212 94.3099C176.87 94.3099 176.565 94.2511 176.299 94.1335C176.033 94.0125 175.823 93.8482 175.671 93.6406C175.519 93.4297 175.443 93.1893 175.443 92.9195V92.9091C175.443 92.6358 175.517 92.3937 175.666 92.1827C175.818 91.9717 176.027 91.8057 176.294 91.6846C176.56 91.5636 176.866 91.503 177.212 91.503C177.558 91.503 177.864 91.5636 178.13 91.6846C178.397 91.8057 178.604 91.9717 178.753 92.1827C178.905 92.3937 178.981 92.6358 178.981 92.9091V92.9195C178.981 93.1893 178.905 93.4297 178.753 93.6406C178.601 93.8482 178.392 94.0125 178.125 94.1335C177.862 94.2511 177.558 94.3099 177.212 94.3099ZM177.212 90.6833C176.911 90.6833 176.647 90.6314 176.418 90.5276C176.19 90.4204 176.012 90.2734 175.884 90.0866C175.756 89.8998 175.692 89.6854 175.692 89.4433V89.4329C175.692 89.1907 175.756 88.9763 175.884 88.7895C176.012 88.6027 176.19 88.4575 176.418 88.3537C176.647 88.2465 176.911 88.1929 177.212 88.1929C177.513 88.1929 177.778 88.2465 178.006 88.3537C178.234 88.4575 178.412 88.6027 178.54 88.7895C178.668 88.9763 178.732 89.1907 178.732 89.4329V89.4433C178.732 89.6854 178.668 89.8998 178.54 90.0866C178.412 90.2734 178.234 90.4204 178.006 90.5276C177.778 90.6314 177.513 90.6833 177.212 90.6833ZM181.819 95.0519C182.006 95.0519 182.165 94.9862 182.297 94.8547C182.428 94.7198 182.494 94.5607 182.494 94.3774C182.494 94.1906 182.428 94.0315 182.297 93.9001C182.165 93.7686 182.006 93.7029 181.819 93.7029C181.636 93.7029 181.477 93.7686 181.342 93.9001C181.211 94.0315 181.145 94.1906 181.145 94.3774C181.145 94.5607 181.211 94.7198 181.342 94.8547C181.477 94.9862 181.636 95.0519 181.819 95.0519ZM184.024 95H188.87V94.1595H185.093L185.321 94.3151V93.8845L185.088 94.3151L187.023 92.3176C187.476 91.8507 187.827 91.4581 188.077 91.1398C188.326 90.8182 188.498 90.5259 188.595 90.263C188.696 90.0001 188.746 89.7269 188.746 89.4433V89.4329C188.746 89.0282 188.644 88.6685 188.44 88.3537C188.239 88.0389 187.964 87.7916 187.615 87.6118C187.265 87.4284 186.873 87.3368 186.437 87.3368C185.96 87.3368 185.536 87.4353 185.166 87.6325C184.796 87.8262 184.505 88.096 184.294 88.4419C184.083 88.7843 183.976 89.1769 183.972 89.6197L183.983 89.6248L184.875 89.63L184.88 89.6197C184.88 89.3256 184.943 89.0697 185.067 88.8518C185.192 88.6304 185.366 88.4592 185.591 88.3381C185.816 88.2136 186.077 88.1513 186.375 88.1513C186.669 88.1513 186.921 88.2119 187.132 88.3329C187.343 88.454 187.506 88.6183 187.62 88.8258C187.734 89.0334 187.791 89.2686 187.791 89.5315V89.5418C187.791 89.7597 187.755 89.9604 187.682 90.1437C187.61 90.327 187.483 90.5328 187.303 90.7611C187.124 90.9859 186.875 91.2713 186.556 91.6172L184.024 94.3566V95ZM196.513 95.1764C197.132 95.1764 197.663 95.0605 198.106 94.8288C198.548 94.597 198.887 94.2754 199.123 93.8637C199.361 93.4487 199.481 92.9696 199.481 92.4266V87.5132H198.547V92.3643C198.547 92.7482 198.467 93.0872 198.308 93.3812C198.149 93.6718 197.917 93.9001 197.613 94.0661C197.312 94.2321 196.945 94.3151 196.513 94.3151C196.08 94.3151 195.712 94.2321 195.408 94.0661C195.103 93.9001 194.87 93.6718 194.707 93.3812C194.548 93.0872 194.469 92.7482 194.469 92.3643V87.5132H193.535V92.4266C193.535 92.9696 193.654 93.4487 193.893 93.8637C194.131 94.2754 194.472 94.597 194.915 94.8288C195.361 95.0605 195.894 95.1764 196.513 95.1764ZM203.834 95.1764C204.39 95.1764 204.876 95.0847 205.292 94.9014C205.707 94.7146 206.028 94.4518 206.257 94.1128C206.485 93.7738 206.599 93.3709 206.599 92.9039V92.8987C206.599 92.539 206.525 92.2277 206.376 91.9648C206.231 91.6985 205.999 91.4736 205.681 91.2903C205.362 91.107 204.942 90.9583 204.42 90.8441L203.59 90.6573C203.081 90.5466 202.716 90.3893 202.495 90.1852C202.274 89.9811 202.163 89.7303 202.163 89.4329V89.4277C202.163 89.1648 202.236 88.9434 202.381 88.7636C202.53 88.5803 202.728 88.4402 202.978 88.3433C203.227 88.2465 203.507 88.198 203.818 88.198C204.143 88.1946 204.427 88.243 204.669 88.3433C204.911 88.4436 205.105 88.5803 205.25 88.7532C205.395 88.9227 205.485 89.1181 205.52 89.3395L205.53 89.4069H206.464L206.459 89.3343C206.435 88.9607 206.308 88.6235 206.08 88.3226C205.855 88.0216 205.551 87.783 205.167 87.6066C204.783 87.4267 204.342 87.3368 203.844 87.3368C203.329 87.3368 202.872 87.4267 202.474 87.6066C202.08 87.7864 201.77 88.0355 201.546 88.3537C201.324 88.6719 201.212 89.0386 201.208 89.4536V89.4588C201.208 90.0019 201.378 90.4481 201.717 90.7974C202.059 91.1433 202.606 91.3993 203.356 91.5653L204.186 91.7469C204.702 91.861 205.074 92.0253 205.302 92.2398C205.53 92.4508 205.644 92.7119 205.644 93.0232V93.0284C205.644 93.2809 205.568 93.504 205.416 93.6977C205.264 93.8914 205.055 94.0436 204.788 94.1543C204.525 94.2615 204.224 94.3151 203.885 94.3151C203.526 94.3151 203.204 94.265 202.92 94.1647C202.64 94.0644 202.415 93.9243 202.246 93.7444C202.08 93.5611 201.985 93.3449 201.961 93.0959L201.955 93.0388H201.021L201.027 93.0959C201.065 93.5006 201.201 93.8603 201.437 94.175C201.675 94.4864 201.997 94.7319 202.402 94.9118C202.81 95.0882 203.287 95.1764 203.834 95.1764ZM208.156 95H210.724C211.467 95 212.102 94.853 212.628 94.559C213.154 94.2615 213.557 93.8343 213.837 93.2775C214.117 92.7171 214.257 92.0444 214.257 91.2592V91.2488C214.257 90.4636 214.117 89.7926 213.837 89.2357C213.557 88.6788 213.152 88.2534 212.623 87.9594C212.097 87.6619 211.464 87.5132 210.724 87.5132H208.156V95ZM209.089 94.1595V88.3537H210.661C211.215 88.3537 211.689 88.4696 212.083 88.7013C212.477 88.9296 212.778 89.2617 212.986 89.6975C213.197 90.1298 213.302 90.6504 213.302 91.2592V91.2696C213.302 91.8749 213.199 92.3937 212.991 92.8261C212.784 93.2584 212.483 93.5888 212.088 93.8171C211.694 94.0453 211.218 94.1595 210.661 94.1595H209.089ZM217.51 95H218.444V88.3537H220.857V87.5132H215.098V88.3537H217.51V95ZM227.062 96.8678H227.819C227.633 96.6291 227.458 96.3282 227.295 95.965C227.136 95.6053 226.998 95.2075 226.88 94.7717C226.763 94.3324 226.671 93.8793 226.605 93.4124C226.54 92.9419 226.507 92.4802 226.507 92.0271C226.507 91.5774 226.54 91.1191 226.605 90.6521C226.671 90.1817 226.763 89.7286 226.88 89.2928C226.998 88.8535 227.136 88.4523 227.295 88.0891C227.458 87.7259 227.633 87.425 227.819 87.1863H227.062C226.723 87.6325 226.445 88.1081 226.227 88.6131C226.009 89.1147 225.848 89.6491 225.744 90.2163C225.64 90.7801 225.588 91.3837 225.588 92.0271C225.588 92.6704 225.64 93.2757 225.744 93.843C225.851 94.4103 226.014 94.9447 226.232 95.4462C226.45 95.9477 226.726 96.4216 227.062 96.8678ZM231.057 95H231.991V87.5132H231.062L229.07 88.9452V89.931L230.974 88.5508H231.057V95ZM236.712 95.1245C237.242 95.1245 237.71 95.0329 238.118 94.8495C238.53 94.6662 238.852 94.4137 239.083 94.092C239.315 93.7669 239.431 93.3951 239.431 92.9765V92.9662C239.431 92.6583 239.364 92.373 239.229 92.1101C239.094 91.8472 238.905 91.6241 238.663 91.4408C238.424 91.254 238.144 91.1243 237.823 91.0516V91.0309C238.234 90.9029 238.559 90.6919 238.798 90.3979C239.04 90.1039 239.161 89.7597 239.161 89.3654V89.355C239.161 88.978 239.056 88.6425 238.845 88.3485C238.634 88.051 238.343 87.8176 237.973 87.6481C237.606 87.4751 237.186 87.3887 236.712 87.3887C236.242 87.3887 235.822 87.4751 235.452 87.6481C235.081 87.8176 234.791 88.051 234.58 88.3485C234.369 88.6425 234.263 88.978 234.263 89.355V89.3654C234.263 89.7597 234.384 90.1039 234.627 90.3979C234.869 90.6919 235.194 90.9029 235.602 91.0309V91.0516C235.284 91.1243 235.004 91.254 234.762 91.4408C234.519 91.6241 234.331 91.8472 234.196 92.1101C234.061 92.373 233.994 92.6583 233.994 92.9662V92.9765C233.994 93.3951 234.11 93.7669 234.341 94.092C234.576 94.4137 234.898 94.6662 235.306 94.8495C235.714 95.0329 236.183 95.1245 236.712 95.1245ZM236.712 94.3099C236.37 94.3099 236.066 94.2511 235.799 94.1335C235.533 94.0125 235.324 93.8482 235.171 93.6406C235.019 93.4297 234.943 93.1893 234.943 92.9195V92.9091C234.943 92.6358 235.017 92.3937 235.166 92.1827C235.318 91.9717 235.528 91.8057 235.794 91.6846C236.06 91.5636 236.366 91.503 236.712 91.503C237.058 91.503 237.364 91.5636 237.631 91.6846C237.897 91.8057 238.105 91.9717 238.253 92.1827C238.405 92.3937 238.482 92.6358 238.482 92.9091V92.9195C238.482 93.1893 238.405 93.4297 238.253 93.6406C238.101 93.8482 237.892 94.0125 237.625 94.1335C237.363 94.2511 237.058 94.3099 236.712 94.3099ZM236.712 90.6833C236.411 90.6833 236.147 90.6314 235.919 90.5276C235.69 90.4204 235.512 90.2734 235.384 90.0866C235.256 89.8998 235.192 89.6854 235.192 89.4433V89.4329C235.192 89.1907 235.256 88.9763 235.384 88.7895C235.512 88.6027 235.69 88.4575 235.919 88.3537C236.147 88.2465 236.411 88.1929 236.712 88.1929C237.013 88.1929 237.278 88.2465 237.506 88.3537C237.734 88.4575 237.913 88.6027 238.041 88.7895C238.169 88.9763 238.233 89.1907 238.233 89.4329V89.4433C238.233 89.6854 238.169 89.8998 238.041 90.0866C237.913 90.2734 237.734 90.4204 237.506 90.5276C237.278 90.6314 237.013 90.6833 236.712 90.6833ZM242.337 91.4512C242.655 91.4512 242.928 91.3699 243.156 91.2073C243.388 91.0413 243.564 90.8078 243.686 90.5069C243.81 90.2025 243.872 89.8445 243.872 89.4329V89.4277C243.872 89.0126 243.81 88.6546 243.686 88.3537C243.564 88.0528 243.388 87.821 243.156 87.6584C242.928 87.4959 242.655 87.4146 242.337 87.4146C242.018 87.4146 241.745 87.4959 241.517 87.6584C241.288 87.821 241.112 88.0528 240.988 88.3537C240.866 88.6546 240.806 89.0126 240.806 89.4277V89.4329C240.806 89.8445 240.866 90.2025 240.988 90.5069C241.112 90.8078 241.288 91.0413 241.517 91.2073C241.745 91.3699 242.018 91.4512 242.337 91.4512ZM242.337 90.8337C242.081 90.8337 241.882 90.7109 241.74 90.4654C241.598 90.2163 241.527 89.8722 241.527 89.4329V89.4277C241.527 88.9884 241.598 88.646 241.74 88.4004C241.882 88.1548 242.081 88.032 242.337 88.032C242.592 88.032 242.791 88.1548 242.933 88.4004C243.078 88.646 243.151 88.9884 243.151 89.4277V89.4329C243.151 89.8722 243.078 90.2163 242.933 90.4654C242.791 90.7109 242.592 90.8337 242.337 90.8337ZM242.897 95L247.992 87.5132H247.151L242.056 95H242.897ZM247.701 95.0986C248.02 95.0986 248.293 95.0173 248.521 94.8547C248.753 94.6887 248.929 94.4552 249.05 94.1543C249.175 93.8534 249.237 93.4954 249.237 93.0803V93.0751C249.237 92.66 249.175 92.302 249.05 92.0011C248.929 91.7002 248.753 91.4684 248.521 91.3059C248.293 91.1433 248.02 91.062 247.701 91.062C247.383 91.062 247.11 91.1433 246.882 91.3059C246.653 91.4684 246.477 91.7002 246.352 92.0011C246.231 92.302 246.171 92.66 246.171 93.0751V93.0803C246.171 93.4954 246.231 93.8534 246.352 94.1543C246.477 94.4552 246.653 94.6887 246.882 94.8547C247.11 95.0173 247.383 95.0986 247.701 95.0986ZM247.701 94.4812C247.445 94.4812 247.246 94.3584 247.105 94.1128C246.963 93.8637 246.892 93.5196 246.892 93.0803V93.0751C246.892 92.6358 246.963 92.2934 247.105 92.0478C247.246 91.8022 247.445 91.6794 247.701 91.6794C247.957 91.6794 248.156 91.8022 248.298 92.0478C248.443 92.2934 248.516 92.6358 248.516 93.0751V93.0803C248.516 93.5196 248.443 93.8637 248.298 94.1128C248.156 94.3584 247.957 94.4812 247.701 94.4812ZM251.271 96.8678C251.61 96.4216 251.887 95.9477 252.101 95.4462C252.319 94.9447 252.48 94.4103 252.584 93.843C252.691 93.2757 252.744 92.6704 252.744 92.0271C252.744 91.3837 252.693 90.7801 252.589 90.2163C252.485 89.6491 252.324 89.1147 252.106 88.6131C251.888 88.1081 251.61 87.6325 251.271 87.1863H250.513C250.7 87.425 250.873 87.7259 251.032 88.0891C251.195 88.4523 251.335 88.8535 251.453 89.2928C251.57 89.7286 251.662 90.1817 251.727 90.6521C251.793 91.1191 251.826 91.5774 251.826 92.0271C251.826 92.4802 251.793 92.9419 251.727 93.4124C251.662 93.8793 251.57 94.3324 251.453 94.7717C251.335 95.2075 251.195 95.6053 251.032 95.965C250.873 96.3282 250.7 96.6291 250.513 96.8678H251.271Z" fill="#464F60"/>
</svg>
