<svg width="103" height="42" viewBox="0 0 103 42" fill="none" xmlns="http://www.w3.org/2000/svg">
<rect x="-0.332019" y="28.9134" width="35.9932" height="23.0195" rx="2.14136" transform="rotate(-54.3434 -0.332019 28.9134)" fill="#F9F185" stroke="white" stroke-width="0.475859"/>
<rect x="0.478563" y="21.9976" width="35.9932" height="23.0195" rx="2.14136" transform="rotate(-35.1231 0.478563 21.9976)" fill="#FFC214" stroke="white" stroke-width="0.475859"/>
<rect x="6.73345" y="13.1546" width="35.9932" height="23.0195" rx="2.14136" transform="rotate(-14.2369 6.73345 13.1546)" fill="#EF8022" stroke="white" stroke-width="0.475859"/>
<path d="M10.9384 25.2545L14.1746 30.7681C14.422 31.1896 14.9021 31.4169 15.385 31.3411L37.8131 27.8203L14.4476 33.8022C13.8161 33.9638 13.1722 33.5873 13.0034 32.9577L10.9384 25.2545Z" fill="#FFC214"/>
<path d="M52.7167 20.1402C52.5455 19.8777 52.2887 19.6608 51.9464 19.4897C51.604 19.3071 51.2388 19.2158 50.8508 19.2158C50.4286 19.2158 50.052 19.2957 49.721 19.4554C49.4015 19.6152 49.1276 19.832 48.8993 20.1059C48.6711 20.3684 48.4942 20.6765 48.3687 21.0303C48.2546 21.3841 48.1975 21.755 48.1975 22.143C48.1975 22.531 48.2546 22.9019 48.3687 23.2556C48.4942 23.6094 48.6711 23.9233 48.8993 24.1971C49.1276 24.4596 49.4072 24.6707 49.7381 24.8305C50.0691 24.9903 50.4457 25.0702 50.8679 25.0702C51.2788 25.0702 51.6497 24.9903 51.9806 24.8305C52.323 24.6707 52.6026 24.4539 52.8194 24.18L53.8978 25.1558C53.5555 25.5552 53.1275 25.869 52.614 26.0973C52.1004 26.3141 51.5184 26.4225 50.8679 26.4225C50.2403 26.4225 49.6582 26.3198 49.1219 26.1144C48.5969 25.909 48.1404 25.6237 47.7524 25.2585C47.3644 24.8819 47.0563 24.4311 46.8281 23.9061C46.6112 23.3812 46.5028 22.7935 46.5028 22.143C46.5028 21.5039 46.6112 20.9219 46.8281 20.3969C47.0449 19.872 47.3473 19.4212 47.7353 19.0446C48.1233 18.668 48.5798 18.377 49.1048 18.1716C49.6411 17.9662 50.2174 17.8634 50.8337 17.8634C51.4043 17.8634 51.9692 17.9776 52.5284 18.2058C53.099 18.434 53.5498 18.765 53.8807 19.1987L52.7167 20.1402Z" fill="#EF8022"/>
<path d="M59.6006 20.9447C59.6006 20.3399 59.418 19.8948 59.0528 19.6095C58.6876 19.3128 58.2026 19.1644 57.5978 19.1644C57.1413 19.1644 56.7076 19.2557 56.2968 19.4383C55.8974 19.6095 55.5607 19.832 55.2868 20.1059L54.4309 19.0788C54.8303 18.7022 55.3153 18.4055 55.8859 18.1887C56.468 17.9719 57.0899 17.8634 57.7518 17.8634C58.3338 17.8634 58.836 17.949 59.2582 18.1202C59.6919 18.28 60.0456 18.5025 60.3195 18.7878C60.5934 19.0731 60.7988 19.4098 60.9358 19.7978C61.0727 20.1858 61.1412 20.6023 61.1412 21.0474V24.5909C61.1412 24.8648 61.1469 25.1558 61.1583 25.4639C61.1812 25.7606 61.2154 26.006 61.261 26.2H59.806C59.7147 25.812 59.669 25.4239 59.669 25.0359H59.6177C59.321 25.4696 58.9444 25.8062 58.4879 26.0459C58.0428 26.2856 57.5122 26.4054 56.8959 26.4054C56.5764 26.4054 56.2397 26.3597 55.8859 26.2684C55.5436 26.1886 55.2297 26.0516 54.9444 25.8576C54.6591 25.6636 54.4195 25.4068 54.2255 25.0873C54.0429 24.7677 53.9516 24.374 53.9516 23.9061C53.9516 23.2899 54.1171 22.8049 54.448 22.4511C54.779 22.0859 55.2126 21.812 55.749 21.6294C56.2854 21.4354 56.8902 21.3099 57.5635 21.2528C58.2368 21.1958 58.9159 21.1672 59.6006 21.1672V20.9447ZM59.2069 22.3313C58.8074 22.3313 58.3909 22.3484 57.9572 22.3826C57.535 22.4169 57.147 22.4853 56.7932 22.588C56.4508 22.6908 56.1655 22.8448 55.9373 23.0502C55.7091 23.2556 55.5949 23.5295 55.5949 23.8719C55.5949 24.1116 55.6406 24.3113 55.7319 24.471C55.8346 24.6308 55.9658 24.762 56.1256 24.8648C56.2854 24.9675 56.4623 25.0416 56.6563 25.0873C56.8503 25.1215 57.05 25.1386 57.2554 25.1386C58.0086 25.1386 58.5849 24.9161 58.9843 24.471C59.3952 24.0146 59.6006 23.4439 59.6006 22.7592V22.3313H59.2069Z" fill="#EF8022"/>
<path d="M62.8871 19.832C62.8871 19.6152 62.8814 19.3356 62.87 18.9932C62.8586 18.6509 62.8415 18.3485 62.8186 18.086H64.3422C64.365 18.2914 64.3821 18.531 64.3935 18.8049C64.4049 19.0674 64.4106 19.2842 64.4106 19.4554H64.462C64.6902 18.9761 65.0212 18.5938 65.4548 18.3085C65.8999 18.0118 66.3963 17.8634 66.9441 17.8634C67.1952 17.8634 67.4063 17.8863 67.5775 17.9319L67.509 19.4212C67.2808 19.3641 67.0354 19.3356 66.7729 19.3356C66.3849 19.3356 66.0483 19.4098 65.763 19.5581C65.4777 19.6951 65.238 19.8834 65.044 20.123C64.8614 20.3627 64.7245 20.6423 64.6332 20.9618C64.5419 21.2699 64.4962 21.5952 64.4962 21.9376V26.2H62.8871V19.832Z" fill="#EF8022"/>
<path d="M74.3173 24.9161C74.0092 25.4068 73.587 25.7834 73.0506 26.0459C72.5256 26.297 71.9722 26.4225 71.3901 26.4225C70.7625 26.4225 70.1976 26.3141 69.6955 26.0973C69.1933 25.869 68.7654 25.5609 68.4116 25.1729C68.0578 24.7849 67.7839 24.3284 67.5899 23.8034C67.3959 23.2785 67.2989 22.7193 67.2989 22.1259C67.2989 21.5324 67.3959 20.9789 67.5899 20.4654C67.7839 19.9404 68.0578 19.484 68.4116 19.0959C68.7768 18.7079 69.2104 18.4055 69.7126 18.1887C70.2147 17.9719 70.7682 17.8634 71.373 17.8634C72.0349 17.8634 72.6112 18.0061 73.102 18.2914C73.5927 18.5653 73.9807 18.9019 74.266 19.3014H74.3002V13.2587H75.9093V26.2H74.3516V24.9161H74.3173ZM68.9765 22.1259C68.9765 22.5025 69.0336 22.8676 69.1477 23.2214C69.2618 23.5752 69.433 23.889 69.6612 24.1629C69.8895 24.4368 70.1691 24.6593 70.5 24.8305C70.831 24.9903 71.219 25.0702 71.664 25.0702C72.0749 25.0702 72.4458 24.9903 72.7767 24.8305C73.1191 24.6707 73.4101 24.4596 73.6497 24.1971C73.8894 23.9233 74.072 23.6094 74.1975 23.2556C74.3345 22.9019 74.4029 22.531 74.4029 22.143C74.4029 21.755 74.3345 21.3841 74.1975 21.0303C74.072 20.6765 73.8894 20.3627 73.6497 20.0888C73.4101 19.8149 73.1191 19.5981 72.7767 19.4383C72.4458 19.2785 72.0749 19.1987 71.664 19.1987C71.219 19.1987 70.831 19.2785 70.5 19.4383C70.1691 19.5981 69.8895 19.8149 69.6612 20.0888C69.433 20.3627 69.2618 20.6765 69.1477 21.0303C69.0336 21.3841 68.9765 21.7493 68.9765 22.1259Z" fill="#EF8022"/>
<path d="M82.1534 20.1402C81.9708 19.8434 81.7141 19.6038 81.3831 19.4212C81.0522 19.2272 80.6813 19.1302 80.2704 19.1302C80.0878 19.1302 79.9053 19.153 79.7227 19.1987C79.5401 19.2329 79.3746 19.2957 79.2262 19.387C79.0893 19.4668 78.9752 19.5753 78.8839 19.7122C78.804 19.8377 78.764 19.9975 78.764 20.1915C78.764 20.5339 78.9181 20.7906 79.2262 20.9618C79.5344 21.1216 79.9965 21.2699 80.6128 21.4069C81.0008 21.4982 81.3603 21.6066 81.6912 21.7321C82.0222 21.8577 82.3075 22.0174 82.5471 22.2114C82.7982 22.394 82.9922 22.6166 83.1292 22.8791C83.2661 23.1415 83.3346 23.4497 83.3346 23.8034C83.3346 24.2827 83.2433 24.6879 83.0607 25.0188C82.8781 25.3498 82.6327 25.6237 82.3246 25.8405C82.0279 26.0459 81.6855 26.1943 81.2975 26.2856C80.9095 26.3769 80.5101 26.4225 80.0993 26.4225C79.483 26.4225 78.8782 26.3027 78.2847 26.063C77.7027 25.8234 77.2177 25.4582 76.8297 24.9675L77.9766 23.9917C78.1934 24.3113 78.4902 24.5795 78.8668 24.7963C79.2548 25.0131 79.677 25.1215 80.1335 25.1215C80.3389 25.1215 80.5329 25.1044 80.7155 25.0702C80.9095 25.0245 81.0807 24.956 81.2291 24.8648C81.3888 24.7735 81.5144 24.6536 81.6057 24.5053C81.6969 24.3569 81.7426 24.1686 81.7426 23.9404C81.7426 23.5638 81.56 23.2842 81.1948 23.1016C80.841 22.919 80.3161 22.7478 79.6199 22.588C79.3461 22.5196 79.0665 22.4397 78.7812 22.3484C78.5073 22.2457 78.2562 22.1087 78.028 21.9376C77.7997 21.7664 77.6114 21.5552 77.4631 21.3042C77.3261 21.0417 77.2576 20.7222 77.2576 20.3456C77.2576 19.9119 77.3432 19.541 77.5144 19.2329C77.697 18.9134 77.931 18.6566 78.2163 18.4626C78.5016 18.2572 78.8268 18.1088 79.192 18.0175C79.5572 17.9148 79.9338 17.8634 80.3218 17.8634C80.9038 17.8634 81.463 17.9776 81.9994 18.2058C82.5471 18.434 82.9694 18.765 83.2661 19.1987L82.1534 20.1402Z" fill="#EF8022"/>
<path d="M86.4216 25.1729C86.4216 25.4696 86.3132 25.7321 86.0963 25.9603C85.8795 26.1886 85.6056 26.3027 85.2747 26.3027C84.9551 26.3027 84.6813 26.1943 84.453 25.9774C84.2362 25.7492 84.1278 25.4867 84.1278 25.19C84.1278 24.8819 84.2362 24.6194 84.453 24.4026C84.6698 24.1743 84.9437 24.0602 85.2747 24.0602C85.6056 24.0602 85.8795 24.1686 86.0963 24.3854C86.3132 24.6023 86.4216 24.8648 86.4216 25.1729Z" fill="#EF8022"/>
<path d="M93.6243 20.1402C93.4531 19.8777 93.1964 19.6608 92.854 19.4897C92.5116 19.3071 92.1464 19.2158 91.7584 19.2158C91.3362 19.2158 90.9596 19.2957 90.6286 19.4554C90.3091 19.6152 90.0352 19.832 89.807 20.1059C89.5787 20.3684 89.4018 20.6765 89.2763 21.0303C89.1622 21.3841 89.1051 21.755 89.1051 22.143C89.1051 22.531 89.1622 22.9019 89.2763 23.2556C89.4018 23.6094 89.5787 23.9233 89.807 24.1971C90.0352 24.4596 90.3148 24.6707 90.6458 24.8305C90.9767 24.9903 91.3533 25.0702 91.7756 25.0702C92.1864 25.0702 92.5573 24.9903 92.8882 24.8305C93.2306 24.6707 93.5102 24.4539 93.727 24.18L94.8055 25.1558C94.4631 25.5552 94.0351 25.869 93.5216 26.0973C93.0081 26.3141 92.426 26.4225 91.7756 26.4225C91.1479 26.4225 90.5659 26.3198 90.0295 26.1144C89.5045 25.909 89.0481 25.6237 88.6601 25.2585C88.272 24.8819 87.9639 24.4311 87.7357 23.9061C87.5188 23.3812 87.4104 22.7935 87.4104 22.143C87.4104 21.5039 87.5188 20.9219 87.7357 20.3969C87.9525 19.872 88.2549 19.4212 88.6429 19.0446C89.0309 18.668 89.4874 18.377 90.0124 18.1716C90.5488 17.9662 91.1251 17.8634 91.7413 17.8634C92.3119 17.8634 92.8768 17.9776 93.436 18.2058C94.0066 18.434 94.4574 18.765 94.7883 19.1987L93.6243 20.1402Z" fill="#EF8022"/>
<path d="M100.508 20.9447C100.508 20.3399 100.326 19.8948 99.9604 19.6095C99.5952 19.3128 99.1102 19.1644 98.5054 19.1644C98.0489 19.1644 97.6152 19.2557 97.2044 19.4383C96.805 19.6095 96.4683 19.832 96.1944 20.1059L95.3385 19.0788C95.7379 18.7022 96.223 18.4055 96.7936 18.1887C97.3756 17.9719 97.9975 17.8634 98.6594 17.8634C99.2415 17.8634 99.7436 17.949 100.166 18.1202C100.599 18.28 100.953 18.5025 101.227 18.7878C101.501 19.0731 101.706 19.4098 101.843 19.7978C101.98 20.1858 102.049 20.6023 102.049 21.0474V24.5909C102.049 24.8648 102.055 25.1558 102.066 25.4639C102.089 25.7606 102.123 26.006 102.169 26.2H100.714C100.622 25.812 100.577 25.4239 100.577 25.0359H100.525C100.229 25.4696 99.852 25.8062 99.3955 26.0459C98.9505 26.2856 98.4198 26.4054 97.8035 26.4054C97.484 26.4054 97.1473 26.3597 96.7936 26.2684C96.4512 26.1886 96.1374 26.0516 95.8521 25.8576C95.5668 25.6636 95.3271 25.4068 95.1331 25.0873C94.9505 24.7677 94.8592 24.374 94.8592 23.9061C94.8592 23.2899 95.0247 22.8049 95.3556 22.4511C95.6866 22.0859 96.1203 21.812 96.6566 21.6294C97.193 21.4354 97.7978 21.3099 98.4711 21.2528C99.1445 21.1958 99.8235 21.1672 100.508 21.1672V20.9447ZM100.114 22.3313C99.7151 22.3313 99.2985 22.3484 98.8649 22.3826C98.4426 22.4169 98.0546 22.4853 97.7008 22.588C97.3585 22.6908 97.0732 22.8448 96.8449 23.0502C96.6167 23.2556 96.5026 23.5295 96.5026 23.8719C96.5026 24.1116 96.5482 24.3113 96.6395 24.471C96.7422 24.6308 96.8735 24.762 97.0332 24.8648C97.193 24.9675 97.3699 25.0416 97.5639 25.0873C97.7579 25.1215 97.9576 25.1386 98.163 25.1386C98.9162 25.1386 99.4925 24.9161 99.892 24.471C100.303 24.0146 100.508 23.4439 100.508 22.7592V22.3313H100.114Z" fill="#EF8022"/>
<path d="M86.4216 25.1729C86.4216 25.4696 86.3132 25.7321 86.0963 25.9603C85.8795 26.1886 85.6056 26.3027 85.2747 26.3027C84.9551 26.3027 84.6813 26.1943 84.453 25.9774C84.2362 25.7492 84.1278 25.4867 84.1278 25.19C84.1278 24.8819 84.2362 24.6194 84.453 24.4026C84.6698 24.1743 84.9437 24.0602 85.2747 24.0602C85.6056 24.0602 85.8795 24.1686 86.0963 24.3854C86.3132 24.6023 86.4216 24.8648 86.4216 25.1729Z" fill="#EF8022"/>
<path d="M93.6243 20.1402C93.4531 19.8777 93.1964 19.6608 92.854 19.4897C92.5116 19.3071 92.1464 19.2158 91.7584 19.2158C91.3362 19.2158 90.9596 19.2957 90.6286 19.4554C90.3091 19.6152 90.0352 19.832 89.807 20.1059C89.5787 20.3684 89.4018 20.6765 89.2763 21.0303C89.1622 21.3841 89.1051 21.755 89.1051 22.143C89.1051 22.531 89.1622 22.9019 89.2763 23.2556C89.4018 23.6094 89.5787 23.9233 89.807 24.1971C90.0352 24.4596 90.3148 24.6707 90.6458 24.8305C90.9767 24.9903 91.3533 25.0702 91.7756 25.0702C92.1864 25.0702 92.5573 24.9903 92.8882 24.8305C93.2306 24.6707 93.5102 24.4539 93.727 24.18L94.8055 25.1558C94.4631 25.5552 94.0351 25.869 93.5216 26.0973C93.0081 26.3141 92.426 26.4225 91.7756 26.4225C91.1479 26.4225 90.5659 26.3198 90.0295 26.1144C89.5045 25.909 89.0481 25.6237 88.6601 25.2585C88.272 24.8819 87.9639 24.4311 87.7357 23.9061C87.5188 23.3812 87.4104 22.7935 87.4104 22.143C87.4104 21.5039 87.5188 20.9219 87.7357 20.3969C87.9525 19.872 88.2549 19.4212 88.6429 19.0446C89.0309 18.668 89.4874 18.377 90.0124 18.1716C90.5488 17.9662 91.1251 17.8634 91.7413 17.8634C92.3119 17.8634 92.8768 17.9776 93.436 18.2058C94.0066 18.434 94.4574 18.765 94.7883 19.1987L93.6243 20.1402Z" fill="#EF8022"/>
<path d="M100.508 20.9447C100.508 20.3399 100.326 19.8948 99.9604 19.6095C99.5952 19.3128 99.1102 19.1644 98.5054 19.1644C98.0489 19.1644 97.6152 19.2557 97.2044 19.4383C96.805 19.6095 96.4683 19.832 96.1944 20.1059L95.3385 19.0788C95.7379 18.7022 96.223 18.4055 96.7936 18.1887C97.3756 17.9719 97.9975 17.8634 98.6594 17.8634C99.2415 17.8634 99.7436 17.949 100.166 18.1202C100.599 18.28 100.953 18.5025 101.227 18.7878C101.501 19.0731 101.706 19.4098 101.843 19.7978C101.98 20.1858 102.049 20.6023 102.049 21.0474V24.5909C102.049 24.8648 102.055 25.1558 102.066 25.4639C102.089 25.7606 102.123 26.006 102.169 26.2H100.714C100.622 25.812 100.577 25.4239 100.577 25.0359H100.525C100.229 25.4696 99.852 25.8062 99.3955 26.0459C98.9505 26.2856 98.4198 26.4054 97.8035 26.4054C97.484 26.4054 97.1473 26.3597 96.7936 26.2684C96.4512 26.1886 96.1374 26.0516 95.8521 25.8576C95.5668 25.6636 95.3271 25.4068 95.1331 25.0873C94.9505 24.7677 94.8592 24.374 94.8592 23.9061C94.8592 23.2899 95.0247 22.8049 95.3556 22.4511C95.6866 22.0859 96.1203 21.812 96.6566 21.6294C97.193 21.4354 97.7978 21.3099 98.4711 21.2528C99.1445 21.1958 99.8235 21.1672 100.508 21.1672V20.9447ZM100.114 22.3313C99.7151 22.3313 99.2985 22.3484 98.8649 22.3826C98.4426 22.4169 98.0546 22.4853 97.7008 22.588C97.3585 22.6908 97.0732 22.8448 96.8449 23.0502C96.6167 23.2556 96.5026 23.5295 96.5026 23.8719C96.5026 24.1116 96.5482 24.3113 96.6395 24.471C96.7422 24.6308 96.8735 24.762 97.0332 24.8648C97.193 24.9675 97.3699 25.0416 97.5639 25.0873C97.7579 25.1215 97.9576 25.1386 98.163 25.1386C98.9162 25.1386 99.4925 24.9161 99.892 24.471C100.303 24.0146 100.508 23.4439 100.508 22.7592V22.3313H100.114Z" fill="#EF8022"/>
<path d="M86.4216 25.1729C86.4216 25.4696 86.3132 25.7321 86.0963 25.9603C85.8795 26.1886 85.6056 26.3027 85.2747 26.3027C84.9551 26.3027 84.6813 26.1943 84.453 25.9774C84.2362 25.7492 84.1278 25.4867 84.1278 25.19C84.1278 24.8819 84.2362 24.6194 84.453 24.4026C84.6698 24.1743 84.9437 24.0602 85.2747 24.0602C85.6056 24.0602 85.8795 24.1686 86.0963 24.3854C86.3132 24.6023 86.4216 24.8648 86.4216 25.1729Z" fill="#FFC214"/>
<path d="M93.6243 20.1402C93.4531 19.8777 93.1964 19.6608 92.854 19.4897C92.5116 19.3071 92.1464 19.2158 91.7584 19.2158C91.3362 19.2158 90.9596 19.2957 90.6286 19.4554C90.3091 19.6152 90.0352 19.832 89.807 20.1059C89.5787 20.3684 89.4018 20.6765 89.2763 21.0303C89.1622 21.3841 89.1051 21.755 89.1051 22.143C89.1051 22.531 89.1622 22.9019 89.2763 23.2556C89.4018 23.6094 89.5787 23.9233 89.807 24.1971C90.0352 24.4596 90.3148 24.6707 90.6458 24.8305C90.9767 24.9903 91.3533 25.0702 91.7756 25.0702C92.1864 25.0702 92.5573 24.9903 92.8882 24.8305C93.2306 24.6707 93.5102 24.4539 93.727 24.18L94.8055 25.1558C94.4631 25.5552 94.0351 25.869 93.5216 26.0973C93.0081 26.3141 92.426 26.4225 91.7756 26.4225C91.1479 26.4225 90.5659 26.3198 90.0295 26.1144C89.5045 25.909 89.0481 25.6237 88.6601 25.2585C88.272 24.8819 87.9639 24.4311 87.7357 23.9061C87.5188 23.3812 87.4104 22.7935 87.4104 22.143C87.4104 21.5039 87.5188 20.9219 87.7357 20.3969C87.9525 19.872 88.2549 19.4212 88.6429 19.0446C89.0309 18.668 89.4874 18.377 90.0124 18.1716C90.5488 17.9662 91.1251 17.8634 91.7413 17.8634C92.3119 17.8634 92.8768 17.9776 93.436 18.2058C94.0066 18.434 94.4574 18.765 94.7883 19.1987L93.6243 20.1402Z" fill="#FFC214"/>
<path d="M100.508 20.9447C100.508 20.3399 100.326 19.8948 99.9604 19.6095C99.5952 19.3128 99.1102 19.1644 98.5054 19.1644C98.0489 19.1644 97.6152 19.2557 97.2044 19.4383C96.805 19.6095 96.4683 19.832 96.1944 20.1059L95.3385 19.0788C95.7379 18.7022 96.223 18.4055 96.7936 18.1887C97.3756 17.9719 97.9975 17.8634 98.6594 17.8634C99.2415 17.8634 99.7436 17.949 100.166 18.1202C100.599 18.28 100.953 18.5025 101.227 18.7878C101.501 19.0731 101.706 19.4098 101.843 19.7978C101.98 20.1858 102.049 20.6023 102.049 21.0474V24.5909C102.049 24.8648 102.055 25.1558 102.066 25.4639C102.089 25.7606 102.123 26.006 102.169 26.2H100.714C100.622 25.812 100.577 25.4239 100.577 25.0359H100.525C100.229 25.4696 99.852 25.8062 99.3955 26.0459C98.9505 26.2856 98.4198 26.4054 97.8035 26.4054C97.484 26.4054 97.1473 26.3597 96.7936 26.2684C96.4512 26.1886 96.1374 26.0516 95.8521 25.8576C95.5668 25.6636 95.3271 25.4068 95.1331 25.0873C94.9505 24.7677 94.8592 24.374 94.8592 23.9061C94.8592 23.2899 95.0247 22.8049 95.3556 22.4511C95.6866 22.0859 96.1203 21.812 96.6566 21.6294C97.193 21.4354 97.7978 21.3099 98.4711 21.2528C99.1445 21.1958 99.8235 21.1672 100.508 21.1672V20.9447ZM100.114 22.3313C99.7151 22.3313 99.2985 22.3484 98.8649 22.3826C98.4426 22.4169 98.0546 22.4853 97.7008 22.588C97.3585 22.6908 97.0732 22.8448 96.8449 23.0502C96.6167 23.2556 96.5026 23.5295 96.5026 23.8719C96.5026 24.1116 96.5482 24.3113 96.6395 24.471C96.7422 24.6308 96.8735 24.762 97.0332 24.8648C97.193 24.9675 97.3699 25.0416 97.5639 25.0873C97.7579 25.1215 97.9576 25.1386 98.163 25.1386C98.9162 25.1386 99.4925 24.9161 99.892 24.471C100.303 24.0146 100.508 23.4439 100.508 22.7592V22.3313H100.114Z" fill="#FFC214"/>
<path d="M22.1781 24.5223C21.6417 25.1385 20.9798 25.6292 20.1924 25.9944C19.405 26.3482 18.4977 26.5251 17.4706 26.5251C16.5348 26.5251 15.6675 26.371 14.8687 26.0629C14.0812 25.7548 13.3965 25.3211 12.8145 24.7619C12.2325 24.1913 11.776 23.5123 11.445 22.7249C11.1141 21.9374 10.9486 21.0701 10.9486 20.1229C10.9486 19.1529 11.1141 18.2741 11.445 17.4867C11.7874 16.6993 12.2553 16.0317 12.8487 15.4839C13.4421 14.9247 14.1383 14.4967 14.9371 14.2C15.736 13.9033 16.5976 13.755 17.522 13.755C18.3779 13.755 19.2167 13.909 20.0383 14.2171C20.8714 14.5139 21.5447 14.9532 22.0583 15.5352L20.0726 17.5209C19.7987 17.1443 19.4392 16.8648 18.9941 16.6822C18.5491 16.4996 18.0926 16.4083 17.6247 16.4083C17.1111 16.4083 16.6375 16.5053 16.2039 16.6993C15.7816 16.8819 15.4164 17.1386 15.1083 17.4696C14.8002 17.8005 14.5605 18.1943 14.3894 18.6507C14.2182 19.0958 14.1326 19.5865 14.1326 20.1229C14.1326 20.6707 14.2182 21.1728 14.3894 21.6293C14.5605 22.0858 14.7945 22.4795 15.0912 22.8104C15.3993 23.13 15.7645 23.381 16.1868 23.5636C16.609 23.7462 17.0712 23.8375 17.5733 23.8375C18.1553 23.8375 18.6632 23.7234 19.0968 23.4952C19.5305 23.2669 19.8786 22.9702 20.141 22.605L22.1781 24.5223Z" fill="white"/>
<path d="M32.2314 21.9032C32.2314 22.5993 32.1058 23.2327 31.8548 23.8033C31.6037 24.3625 31.2614 24.8418 30.8277 25.2412C30.394 25.6292 29.8919 25.9316 29.3213 26.1485C28.7507 26.3653 28.1401 26.4737 27.4897 26.4737C26.8506 26.4737 26.24 26.3653 25.658 26.1485C25.0874 25.9316 24.5853 25.6292 24.1516 25.2412C23.7294 24.8418 23.3927 24.3625 23.1417 23.8033C22.8906 23.2327 22.7651 22.5993 22.7651 21.9032C22.7651 21.207 22.8906 20.5794 23.1417 20.0202C23.3927 19.461 23.7294 18.9874 24.1516 18.5994C24.5853 18.2114 25.0874 17.9147 25.658 17.7092C26.24 17.5038 26.8506 17.4011 27.4897 17.4011C28.1401 17.4011 28.7507 17.5038 29.3213 17.7092C29.8919 17.9147 30.394 18.2114 30.8277 18.5994C31.2614 18.9874 31.6037 19.461 31.8548 20.0202C32.1058 20.5794 32.2314 21.207 32.2314 21.9032ZM29.5267 21.9032C29.5267 21.6293 29.4811 21.3611 29.3898 21.0986C29.2985 20.8362 29.1672 20.6079 28.9961 20.4139C28.8249 20.2085 28.6137 20.043 28.3627 19.9175C28.1116 19.7919 27.8206 19.7292 27.4897 19.7292C27.1587 19.7292 26.8677 19.7919 26.6166 19.9175C26.3656 20.043 26.1544 20.2085 25.9833 20.4139C25.8235 20.6079 25.698 20.8362 25.6067 21.0986C25.5268 21.3611 25.4868 21.6293 25.4868 21.9032C25.4868 22.1771 25.5268 22.4453 25.6067 22.7077C25.698 22.9702 25.8292 23.2099 26.0004 23.4267C26.1716 23.6321 26.3827 23.7976 26.6338 23.9231C26.8848 24.0487 27.1758 24.1114 27.5068 24.1114C27.8377 24.1114 28.1287 24.0487 28.3798 23.9231C28.6309 23.7976 28.842 23.6321 29.0132 23.4267C29.1844 23.2099 29.3099 22.9702 29.3898 22.7077C29.4811 22.4453 29.5267 22.1771 29.5267 21.9032Z" fill="white"/>
<path d="M36.1144 14.9532C36.1144 15.1701 36.0687 15.3755 35.9774 15.5695C35.8976 15.7521 35.7834 15.9118 35.6351 16.0488C35.4981 16.1857 35.3269 16.2941 35.1215 16.374C34.9275 16.4539 34.7221 16.4939 34.5053 16.4939C34.0488 16.4939 33.6665 16.3455 33.3584 16.0488C33.0502 15.7407 32.8962 15.3755 32.8962 14.9532C32.8962 14.7478 32.9361 14.5538 33.016 14.3712C33.0959 14.1772 33.21 14.0117 33.3584 13.8748C33.5067 13.7378 33.6779 13.6294 33.8719 13.5495C34.0659 13.4582 34.277 13.4126 34.5053 13.4126C34.7221 13.4126 34.9275 13.4525 35.1215 13.5324C35.3269 13.6123 35.4981 13.7207 35.6351 13.8577C35.7834 13.9946 35.8976 14.1601 35.9774 14.3541C36.0687 14.5367 36.1144 14.7364 36.1144 14.9532ZM33.1016 26.1998V17.675H35.909V26.1998H33.1016Z" fill="white"/>
<path d="M42.7887 26.1998V21.5437C42.7887 21.3041 42.7659 21.0758 42.7202 20.859C42.686 20.6421 42.6232 20.4539 42.5319 20.2941C42.4406 20.1229 42.3094 19.9917 42.1382 19.9004C41.9785 19.7977 41.773 19.7463 41.522 19.7463C41.2709 19.7463 41.0484 19.7977 40.8544 19.9004C40.6718 19.9917 40.5177 20.1229 40.3922 20.2941C40.2666 20.4653 40.1696 20.665 40.1012 20.8932C40.0441 21.11 40.0156 21.3383 40.0156 21.5779V26.1998H37.1911V17.675H39.9129V18.8562H39.9471C40.0498 18.6736 40.181 18.4967 40.3408 18.3255C40.512 18.1429 40.706 17.9888 40.9228 17.8633C41.1511 17.7378 41.3964 17.6351 41.6589 17.5552C41.9214 17.4753 42.201 17.4354 42.4977 17.4354C43.0683 17.4354 43.5533 17.5381 43.9527 17.7435C44.3522 17.9489 44.6717 18.2171 44.9114 18.548C45.1624 18.8676 45.3393 19.2385 45.442 19.6607C45.5561 20.083 45.6132 20.5052 45.6132 20.9275V26.1998H42.7887Z" fill="white"/>
<rect x="14.8553" y="12.1552" width="1.62059" height="2.43089" fill="white"/>
<rect x="17.5559" y="12.1552" width="1.62059" height="2.43089" fill="white"/>
<rect x="14.8553" y="25.3892" width="1.62059" height="2.43089" fill="white"/>
<rect x="17.5559" y="25.3892" width="1.62059" height="2.43089" fill="white"/>
</svg>
