<svg width="24" height="24" viewBox="0 0 24 24" fill="none" xmlns="http://www.w3.org/2000/svg">
<g clip-path="url(#clip0_292_8330)">
<path fill-rule="evenodd" clip-rule="evenodd" d="M0 12C0 18.6167 5.38327 24 12 24C18.6167 24 24 18.6167 24 12C24 5.38327 18.6167 0 12 0C5.38327 0 0 5.38327 0 12ZM1.84615 12C1.84615 6.40385 6.40385 1.84615 12 1.84615C17.599 1.84615 22.1538 6.40096 22.1538 12C22.1538 13.7759 21.6953 15.4467 20.8906 16.9005C20.8778 16.8926 20.8649 16.8848 20.8518 16.8769C19.5249 16.085 17.8927 15.6661 16.1304 15.6661C14.4014 15.6661 12.7239 16.1027 11.4062 16.8957C9.92153 17.7893 8.92386 19.0924 8.52174 20.6635C8.46789 20.8731 8.40007 21.1848 8.37836 21.4857C7.88463 21.2964 7.40928 21.0696 6.95582 20.8088C6.9863 20.6117 7.02739 20.4162 7.07897 20.2231C7.47883 18.6641 8.33001 17.3643 9.65062 16.3132C9.71305 16.2629 9.76052 16.1971 9.78809 16.1228C9.81565 16.0484 9.8223 15.9682 9.80734 15.8905C9.79238 15.8127 9.75636 15.7404 9.70303 15.6809C9.6497 15.6214 9.58101 15.577 9.50414 15.5522C8.82545 15.3406 8.05062 15.2273 7.08971 15.2273C5.74252 15.2273 4.3122 15.5837 3.23591 16.2314C3.10689 16.3092 2.97887 16.3667 2.85665 16.412C2.20938 15.0768 1.84615 13.5798 1.84615 12ZM13.453 12.9781C14.1955 13.7523 15.1463 14.179 16.1304 14.179C17.1139 14.179 18.0641 13.7523 18.8072 12.9781C19.5406 12.1993 19.9796 11.199 20.0515 10.1431C20.1346 9.00963 19.7664 7.95079 19.0334 7.18595C18.3005 6.42111 17.2694 6 16.1304 6C14.9828 6 13.9552 6.41226 13.2199 7.17876C12.4847 7.94526 12.1256 8.99803 12.2087 10.142C12.2793 11.1986 12.7184 12.1996 13.453 12.9781ZM3.79074 10.9753C3.92648 12.8443 5.40658 14.3646 7.08971 14.3646C8.77003 14.3646 10.2496 12.8449 10.3876 10.9787C10.4583 10.0292 10.1444 9.1384 9.52506 8.49182C8.90576 7.84524 8.04666 7.48934 7.08915 7.48934C6.13164 7.48934 5.27197 7.83474 4.64871 8.48408C4.02545 9.13342 3.72117 10.0182 3.79074 10.9753Z" fill="#4C63ED"/>
</g>
<defs>
<clipPath id="clip0_292_8330">
<rect width="24" height="24" fill="white"/>
</clipPath>
</defs>
</svg>
