<svg xmlns="http://www.w3.org/2000/svg" xmlns:xlink="http://www.w3.org/1999/xlink" id="Layer_1" x="0px" y="0px" viewBox="0 0 378.02 251.02" style="enable-background:new 0 0 378.02 251.02;" xml:space="preserve"><style type="text/css">	.st0{fill:#2D5A27;}	.st1{clip-path:url(#SVGID_00000139979858813687711530000016996025099441113791_);}	.st2{fill:#B3C633;}	.st3{fill:#00635E;}	.st4{opacity:0.4;fill:#00C3B8;}</style><g>	<g>		<path class="st0" d="M77.39,189.88c0,0.44,0.77,0.88,2.31,1.32c1.54,0.44,3.44,1.05,5.7,1.82c2.26,0.77,4.71,1.79,7.35,3.06   c2.64,1.27,5.09,2.97,7.35,5.12c2.26,2.15,4.16,4.87,5.7,8.18c1.54,3.3,2.31,7.33,2.31,12.06c0,6.28-1.27,11.35-3.8,15.2   c-2.54,3.86-5.89,6.86-10.08,9.01c-4.19,2.15-9.03,3.58-14.54,4.3c-5.51,0.72-11.18,1.07-17.02,1.07H11.3   c-6.83,0-10.25-3.97-10.25-11.9c0-3.74,0.41-7.44,1.24-11.07c0.83-3.63,1.74-7.32,2.73-11.07c0.99-3.74,1.9-7.57,2.73-11.48   c0.83-3.91,1.24-8.01,1.24-12.31c0-4.3-0.41-8.4-1.24-12.31c-0.83-3.91-1.73-7.74-2.73-11.48c-0.99-3.74-1.9-7.44-2.73-11.07   c-0.83-3.64-1.24-7.27-1.24-10.91c0-8.04,3.41-12.06,10.25-12.06h51.88c4.96,0,9.8,0.36,14.54,1.07   c4.73,0.72,9.01,2.07,12.81,4.05c3.8,1.98,6.86,4.77,9.17,8.34c2.31,3.58,3.47,8.18,3.47,13.8c0,3.53-0.63,6.58-1.9,9.17   c-1.27,2.59-2.87,4.82-4.79,6.69c-1.93,1.87-3.99,3.44-6.2,4.71c-2.2,1.27-4.27,2.31-6.2,3.14c-1.93,0.83-3.53,1.52-4.79,2.07   C78.03,188.95,77.39,189.44,77.39,189.88z M33.44,179.97c0,2.64,1.16,4.35,3.47,5.12c2.31,0.77,5.78,1.16,10.41,1.16   c2.31,0,4.65-0.47,7.02-1.4c2.37-0.93,4.54-2.34,6.53-4.21c1.98-1.87,3.58-4.21,4.79-7.02c1.21-2.81,1.82-6.09,1.82-9.83   c0-4.19-0.36-7.57-1.07-10.16c-0.72-2.59-1.68-4.63-2.89-6.11c-1.21-1.49-2.62-2.5-4.21-3.06c-1.6-0.55-3.33-0.83-5.2-0.83   c-4.96,0-8.84,1.24-11.65,3.72c-2.81,2.48-4.87,5.54-6.2,9.17c-1.32,3.64-2.12,7.58-2.4,11.81   C33.58,172.56,33.44,176.44,33.44,179.97z M33.44,200.62c0,1.65,0,3.83,0,6.53c0,2.7,0.14,5.62,0.41,8.76   c0.27,3.14,0.77,6.31,1.49,9.5c0.72,3.2,1.84,6.09,3.39,8.68c1.54,2.59,3.55,4.68,6.03,6.28c2.48,1.6,5.59,2.4,9.34,2.4   c1.87,0,3.88-0.27,6.03-0.83c2.15-0.55,4.13-1.65,5.95-3.3c1.82-1.65,3.33-3.94,4.54-6.86c1.21-2.92,1.82-6.75,1.82-11.48   c0-4.96-0.88-9.09-2.64-12.39c-1.76-3.3-3.91-5.95-6.44-7.93c-2.54-1.98-5.26-3.39-8.18-4.21c-2.92-0.83-5.54-1.24-7.85-1.24   c-4.63,0-8.1,0.39-10.41,1.16C34.6,196.44,33.44,198.09,33.44,200.62z"></path>		<path class="st0" d="M182.32,239.12c0-1.21,0.14-2.53,0.41-3.97c0.27-1.43,0.52-2.95,0.74-4.54c0.22-1.6,0.3-3.22,0.25-4.87   c-0.06-1.65-0.41-3.36-1.07-5.12c-0.66-1.65-1.82-2.95-3.47-3.88c-1.65-0.93-3.58-1.62-5.78-2.07c-2.2-0.44-4.57-0.69-7.11-0.74   c-2.54-0.05-4.96-0.08-7.27-0.08c-2.64,0-5.2,0.06-7.68,0.17c-2.48,0.11-4.71,0.39-6.69,0.83c-1.98,0.44-3.63,1.1-4.96,1.98   c-1.32,0.88-2.15,2.09-2.48,3.64c-0.22,1.65-0.17,3.33,0.16,5.04c0.33,1.71,0.77,3.39,1.32,5.04c0.55,1.65,1.07,3.2,1.57,4.63   c0.5,1.43,0.74,2.76,0.74,3.97c0,3.97-0.94,6.94-2.81,8.92c-1.87,1.98-5.4,2.97-10.58,2.97h-5.62c-3.64,0-6.25-0.93-7.85-2.81   c-1.6-1.87-2.4-4.46-2.4-7.77c0-4.07,0.85-8.18,2.56-12.31c1.71-4.13,3.77-8.26,6.2-12.39c2.42-4.13,4.98-8.26,7.68-12.39   c2.7-4.13,5.04-8.23,7.02-12.31c3.41-6.94,6.44-13.44,9.09-19.5c2.64-6.06,3.97-11.73,3.97-17.02c0-3.52-0.33-6.06-0.99-7.6   c-0.66-1.54-0.99-2.86-0.99-3.97c0-1.87,0.83-3.61,2.48-5.2c1.65-1.6,4.24-2.4,7.77-2.4h16.03c2.86,0,5.18,0.25,6.94,0.74   c1.76,0.5,3.22,1.27,4.38,2.31c1.16,1.05,2.04,2.31,2.64,3.8c0.6,1.49,1.13,3.22,1.57,5.2c1.87,7.82,4.1,15.2,6.69,22.14   c2.59,6.94,5.64,14.1,9.17,21.48c1.98,4.08,4.16,8.18,6.53,12.31c2.37,4.13,4.57,8.26,6.61,12.39c2.04,4.13,3.74,8.26,5.12,12.39   c1.38,4.13,2.07,8.24,2.07,12.31c0,3.3-0.83,5.89-2.48,7.77c-1.65,1.87-4.24,2.81-7.77,2.81h-18.18c-5.29,0-8.87-0.99-10.74-2.97   C183.25,246.06,182.32,243.09,182.32,239.12z M140.18,200.95c-0.33,1.1,0.08,1.96,1.24,2.56c1.16,0.61,2.7,1.07,4.63,1.4   c1.93,0.33,4.07,0.52,6.44,0.58c2.37,0.06,4.54,0.08,6.53,0.08c1.98,0,4.27-0.03,6.86-0.08c2.59-0.05,4.98-0.25,7.19-0.58   c2.2-0.33,3.99-0.88,5.37-1.65c1.38-0.77,1.9-1.93,1.57-3.47c-0.55-2.53-1.76-5.73-3.63-9.58c-1.87-3.85-3.91-7.6-6.11-11.24   c-2.2-3.63-4.3-6.77-6.28-9.42c-1.98-2.64-3.3-3.97-3.97-3.97c-0.66,0-1.87,1.3-3.64,3.88c-1.76,2.59-3.66,5.73-5.7,9.42   c-2.04,3.69-4.05,7.55-6.03,11.57C142.66,194.48,141.18,197.98,140.18,200.95z"></path>		<path class="st0" d="M260.31,193.19c0,2.09,0.03,4.79,0.08,8.1c0.05,3.3,0.25,6.8,0.58,10.49c0.33,3.69,0.88,7.38,1.65,11.07   c0.77,3.69,1.87,7.02,3.3,10c1.43,2.97,3.25,5.4,5.45,7.27c2.2,1.87,4.96,2.81,8.26,2.81c3.08,0,5.51-0.72,7.27-2.15   c1.76-1.43,3.25-3.25,4.46-5.45c1.21-2.2,2.31-4.54,3.3-7.02c0.99-2.48,2.23-4.82,3.72-7.02c1.49-2.2,3.36-4.02,5.62-5.45   c2.26-1.43,5.31-2.15,9.17-2.15c2.97,0,5.56,0.58,7.77,1.73c2.2,1.16,3.99,2.67,5.37,4.54c1.38,1.87,2.4,4.02,3.06,6.44   c0.66,2.42,0.99,4.96,0.99,7.6c0,5.84-1.93,10.14-5.78,12.89c-3.86,2.76-10.08,4.13-18.67,4.13h-68.08   c-6.83,0-10.25-3.97-10.25-11.9c0-3.74,0.41-7.44,1.24-11.07c0.83-3.63,1.74-7.32,2.73-11.07c0.99-3.74,1.9-7.57,2.73-11.48   c0.83-3.91,1.24-8.01,1.24-12.31c0-4.3-0.41-8.4-1.24-12.31c-0.83-3.91-1.73-7.74-2.73-11.48c-0.99-3.74-1.9-7.44-2.73-11.07   c-0.83-3.64-1.24-7.27-1.24-10.91c0-8.04,3.41-12.06,10.25-12.06h19.99c3.64,0,6.25,0.99,7.85,2.97c1.6,1.98,2.4,5.01,2.4,9.09   c0,3.64-0.41,7.27-1.24,10.91c-0.83,3.63-1.71,7.33-2.64,11.07c-0.94,3.75-1.82,7.57-2.64,11.48   C260.73,184.79,260.31,188.89,260.31,193.19z"></path>		<path class="st0" d="M343.26,193.19c0-4.3-0.41-8.4-1.24-12.31c-0.83-3.91-1.73-7.74-2.73-11.48c-0.99-3.74-1.9-7.44-2.73-11.07   c-0.83-3.64-1.24-7.27-1.24-10.91c0-8.04,3.41-12.06,10.25-12.06h19.99c3.64,0,6.25,0.99,7.85,2.97c1.6,1.98,2.4,5.01,2.4,9.09   c0,3.64-0.41,7.27-1.24,10.91c-0.83,3.63-1.71,7.33-2.64,11.07c-0.94,3.75-1.82,7.57-2.64,11.48c-0.83,3.91-1.24,8.01-1.24,12.31   c0,4.3,0.41,8.4,1.24,12.31c0.83,3.91,1.71,7.74,2.64,11.48c0.93,3.75,1.82,7.44,2.64,11.07c0.83,3.64,1.24,7.33,1.24,11.07   c0,3.97-0.8,6.94-2.4,8.92c-1.6,1.98-4.21,2.97-7.85,2.97h-19.99c-6.83,0-10.25-3.97-10.25-11.9c0-3.74,0.41-7.44,1.24-11.07   c0.83-3.63,1.74-7.32,2.73-11.07c0.99-3.74,1.9-7.57,2.73-11.48C342.85,201.59,343.26,197.48,343.26,193.19z"></path>	</g>	<path class="st0" d="M46.14,57.9c2.37,0,4.6-0.68,6.68-2.05c2.08-1.36,4.1-2.91,6.06-4.63c1.96-1.72,3.92-3.27,5.88-4.63  c1.96-1.36,3.95-2.05,5.97-2.05c0.59,0,1.6,0.06,3.03,0.18c1.43,0.12,2.88,0.68,4.36,1.69c1.48,1.01,2.79,2.64,3.92,4.9  c1.13,2.26,1.69,5.52,1.69,9.8c0,4.28-0.53,7.63-1.6,10.06c-1.07,2.44-2.35,4.28-3.83,5.52c-1.49,1.25-2.94,2.05-4.36,2.41  c-1.42,0.36-2.49,0.53-3.21,0.53c-1.9,0-3.8-0.68-5.7-2.05c-1.9-1.36-3.86-2.85-5.88-4.45c-2.02-1.6-4.1-3.06-6.23-4.36  c-2.14-1.31-4.4-1.96-6.77-1.96c-3.09,0-5.64,0.42-7.66,1.25c-2.02,0.83-3.03,2.61-3.03,5.34c0,3.45,0.09,7.6,0.27,12.47  c0.18,4.87,0.89,9.53,2.14,13.98c1.25,4.45,3.27,8.26,6.06,11.4c2.79,3.15,6.86,4.72,12.2,4.72c3.32,0,5.94-0.77,7.84-2.32  c1.9-1.54,3.5-3.5,4.81-5.88c1.31-2.37,2.49-4.9,3.56-7.57c1.07-2.67,2.41-5.19,4.01-7.57c1.6-2.37,3.62-4.33,6.06-5.88  c2.43-1.54,5.73-2.32,9.89-2.32c3.21,0,6,0.62,8.37,1.87c2.37,1.25,4.3,2.88,5.79,4.9c1.48,2.02,2.58,4.34,3.3,6.95  c0.71,2.61,1.07,5.34,1.07,8.19c0,6.3-2.08,10.93-6.24,13.9c-4.16,2.97-10.87,4.45-20.13,4.45h-73.4C3.68,124.7,0,120.43,0,111.87  c0-4.04,0.45-8.02,1.34-11.94c0.89-3.92,1.87-7.9,2.94-11.94c1.07-4.04,2.05-8.16,2.94-12.38c0.89-4.21,1.34-8.64,1.34-13.27  c0-4.63-0.45-9.06-1.34-13.27c-0.89-4.21-1.87-8.34-2.94-12.38c-1.07-4.04-2.05-8.02-2.94-11.94C0.45,20.84,0,16.92,0,13  C0,4.34,3.68,0,11.05,0h73.4c9.26,0,15.97,1.49,20.13,4.45c4.16,2.97,6.24,7.66,6.24,14.07c0,2.73-0.36,5.41-1.07,8.02  c-0.71,2.61-1.81,4.93-3.3,6.95c-1.49,2.02-3.42,3.65-5.79,4.9c-2.38,1.25-5.17,1.87-8.37,1.87c-4.16,0-7.45-0.77-9.89-2.32  c-2.44-1.54-4.45-3.47-6.06-5.79c-1.6-2.32-2.94-4.84-4.01-7.57c-1.07-2.73-2.26-5.26-3.56-7.57c-1.31-2.32-2.91-4.24-4.81-5.79  c-1.9-1.54-4.51-2.32-7.84-2.32c-5.34,0-9.41,1.55-12.2,4.63c-2.79,3.09-4.81,6.86-6.06,11.31c-1.25,4.45-1.96,9.09-2.14,13.89  c-0.18,4.81-0.27,8.94-0.27,12.38c0,2.85,1.01,4.69,3.03,5.52C40.5,57.48,43.05,57.9,46.14,57.9z"></path>	<path class="st0" d="M149.64,0h71.79c11.87,0,20.42,2.17,25.65,6.5c5.22,4.34,7.84,10.13,7.84,17.37c0,2.26-0.45,4.57-1.34,6.95  c-0.89,2.38-2.2,4.54-3.92,6.5c-1.72,1.96-3.86,3.53-6.41,4.72c-2.56,1.19-5.43,1.78-8.64,1.78c-4.75,0-8.37-0.86-10.87-2.58  c-2.49-1.72-4.31-3.89-5.43-6.5c-1.13-2.61-1.81-5.4-2.05-8.37c-0.24-2.97-0.45-5.76-0.62-8.37c-0.18-2.61-0.57-4.78-1.16-6.5  c-0.6-1.72-1.78-2.58-3.56-2.58c-2.14,0-3.98,1.51-5.52,4.54c-1.55,3.03-2.79,6.77-3.74,11.22c-0.95,4.45-1.63,9.29-2.05,14.52  c-0.42,5.23-0.62,9.98-0.62,14.25c0,5.46,0.45,10.84,1.34,16.12c0.89,5.29,1.84,10.39,2.85,15.32c1.01,4.93,1.96,9.65,2.85,14.16  c0.89,4.51,1.34,8.79,1.34,12.83c0,4.28-0.86,7.48-2.58,9.62c-1.72,2.14-4.54,3.21-8.46,3.21h-21.56  c-7.37,0-11.04-4.28-11.04-12.83c0-4.04,0.45-8.31,1.34-12.83c0.89-4.51,1.87-9.23,2.94-14.16c1.07-4.93,2.05-10.03,2.94-15.32  c0.89-5.28,1.34-10.66,1.34-16.12c0-4.28-0.21-9.02-0.62-14.25c-0.42-5.22-1.1-10.07-2.05-14.52c-0.95-4.45-2.2-8.19-3.74-11.22  c-1.55-3.03-3.45-4.54-5.7-4.54c-1.78,0-2.97,0.86-3.56,2.58c-0.6,1.72-0.95,3.89-1.07,6.5c-0.12,2.61-0.3,5.41-0.53,8.37  c-0.24,2.97-0.92,5.76-2.05,8.37c-1.13,2.61-2.94,4.78-5.43,6.5c-2.49,1.72-6.12,2.58-10.87,2.58c-3.21,0-6.09-0.59-8.64-1.78  c-2.56-1.19-4.69-2.76-6.41-4.72c-1.72-1.96-3.03-4.13-3.92-6.5c-0.89-2.37-1.34-4.69-1.34-6.95c0-7.24,2.61-13.03,7.84-17.37  C129.39,2.17,137.88,0,149.64,0z"></path>	<path class="st0" d="M297.68,73.4c0.16,2.85,0.33,5.94,0.98,9.26c0.65,3.33,1.39,6.71,2.23,10.15c0.83,3.45,1.57,6.8,2.23,10.07  c0.65,3.27,0.98,6.27,0.98,9c0,8.55-3.68,12.83-11.04,12.83h-21.56c-3.92,0-6.77-1.07-8.55-3.21c-1.78-2.14-2.67-5.34-2.67-9.62  c0-4.04,0.45-8.02,1.34-11.94c0.89-3.92,1.87-7.9,2.94-11.94c1.07-4.04,2.05-8.16,2.94-12.38c0.89-4.21,1.34-8.64,1.34-13.27  c0-4.63-0.45-9.06-1.34-13.27c-0.89-4.21-1.87-8.34-2.94-12.38c-1.07-4.04-2.05-8.02-2.94-11.94c-0.89-3.92-1.34-7.84-1.34-11.76  c0-4.39,0.89-7.66,2.67-9.8c1.78-2.14,4.63-3.21,8.55-3.21h21.56c7.36,0,11.04,4.34,11.04,13c0,2.61-0.33,5.55-0.98,8.82  c-0.65,3.27-1.4,6.59-2.23,9.98c-0.83,3.38-1.58,6.74-2.23,10.06c-0.65,3.33-0.98,6.41-0.98,9.26  C297.68,51.13,296.96,60.65,297.68,73.4z M340.79,51.13c-0.47-2.81-0.33-5.94-0.98-9.26c-0.65-3.32-1.4-6.68-2.23-10.06  c-0.83-3.38-1.58-6.71-2.23-9.98c-0.65-3.27-0.98-6.2-0.98-8.82c0-4.39,0.86-7.66,2.58-9.8C338.68,1.07,341.5,0,345.42,0h21.56  c3.92,0,6.74,1.07,8.46,3.21c1.72,2.14,2.58,5.41,2.58,9.8c0,3.92-0.45,7.84-1.34,11.76c-0.89,3.92-1.87,7.9-2.94,11.94  c-1.07,4.04-2.05,8.17-2.94,12.38c-0.89,4.22-1.34,8.64-1.34,13.27c0,4.63,0.45,9.06,1.34,13.27c0.89,4.22,1.87,8.34,2.94,12.38  c1.07,4.04,2.05,8.02,2.94,11.94c0.89,3.92,1.34,7.9,1.34,11.94c0,4.28-0.86,7.48-2.58,9.62c-1.72,2.14-4.54,3.21-8.46,3.21h-21.56  c-3.92,0-6.74-1.07-8.46-3.21c-1.72-2.14-2.58-5.34-2.58-9.62c0-2.73,0.33-5.73,0.98-9c0.65-3.27,1.39-6.62,2.23-10.07  c0.83-3.44,1.57-6.83,2.23-10.15c0.65-3.32,0.98-6.41,0.98-9.26C340.79,73.4,342.56,61.82,340.79,51.13z"></path>	<g>		<path class="st0" d="M346.63,77.86L346.63,77.86c0.2,0.42,0.03,0.93-0.39,1.14l-26.08,12.33c-0.42,0.2-0.93,0.03-1.14-0.39l0,0   c-0.2-0.42-0.03-0.93,0.39-1.14l26.08-12.33C345.91,77.26,346.42,77.44,346.63,77.86z"></path>		<path class="st0" d="M292.75,77.86L292.75,77.86c-0.2,0.42-0.03,0.93,0.39,1.14l26.08,12.33c0.42,0.2,0.93,0.03,1.14-0.39l0,0   c0.2-0.42,0.03-0.93-0.39-1.14l-26.08-12.33C293.46,77.26,292.96,77.44,292.75,77.86z"></path>		<path class="st0" d="M346.5,77.59L346.5,77.59c-0.36-0.3-0.9-0.25-1.2,0.11l-26.19,31.62c-0.3,0.36-0.25,0.9,0.11,1.2l0,0   c0.36,0.3,0.9,0.25,1.2-0.11l26.19-31.62C346.91,78.42,346.86,77.89,346.5,77.59z"></path>		<path class="st0" d="M293.01,77.59L293.01,77.59c0.36-0.3,0.9-0.25,1.2,0.11l26.19,31.62c0.3,0.36,0.25,0.9-0.11,1.2l0,0   c-0.36,0.3-0.9,0.25-1.2-0.11L292.9,78.78C292.6,78.42,292.65,77.89,293.01,77.59z"></path>		<path class="st0" d="M291.31,73.36l0.36,0.16c0.33,0.15,0.72,0,0.86-0.34l28.03-63.57c0.15-0.33,0-0.72-0.34-0.86l-0.36-0.16   c-0.33-0.15-0.72,0-0.86,0.34l-28.03,63.57C290.83,72.82,290.98,73.21,291.31,73.36z"></path>		<path class="st0" d="M348.09,73.36l-0.36,0.16c-0.33,0.15-0.72,0-0.86-0.34L318.85,9.61c-0.15-0.33,0-0.72,0.34-0.86l0.36-0.16   c0.33-0.15,0.72,0,0.86,0.34l28.03,63.57C348.57,72.82,348.42,73.21,348.09,73.36z"></path>		<path class="st0" d="M348.39,72.31L348.39,72.31c0.2,0.42,0.03,0.93-0.39,1.14l-27.84,13.37c-0.42,0.2-0.93,0.03-1.14-0.39v0   c-0.2-0.42-0.03-0.93,0.39-1.14l27.84-13.37C347.67,71.72,348.18,71.89,348.39,72.31z"></path>		<path class="st0" d="M291.05,72.31L291.05,72.31c-0.2,0.42-0.03,0.93,0.39,1.14l27.84,13.37c0.42,0.2,0.93,0.03,1.14-0.39v0   c0.2-0.42,0.03-0.93-0.39-1.14l-27.84-13.37C291.77,71.72,291.26,71.89,291.05,72.31z"></path>	</g>	<g>		<defs>			<path id="SVGID_1_" d="M182.32,239.12c0-1.21,0.14-2.53,0.41-3.97c0.27-1.43,0.52-2.95,0.74-4.54c0.22-1.6,0.3-3.22,0.25-4.87    c-0.06-1.65-0.41-3.36-1.07-5.12c-0.66-1.65-1.82-2.95-3.47-3.88c-1.65-0.93-3.58-1.62-5.78-2.07c-2.2-0.44-4.57-0.69-7.11-0.74    c-2.54-0.05-4.96-0.08-7.27-0.08c-2.64,0-5.2,0.06-7.68,0.17c-2.48,0.11-4.71,0.39-6.69,0.83c-1.98,0.44-3.63,1.1-4.96,1.98    c-1.32,0.88-2.15,2.09-2.48,3.64c-0.22,1.65-0.17,3.33,0.16,5.04c0.33,1.71,0.77,3.39,1.32,5.04c0.55,1.65,1.07,3.2,1.57,4.63    c0.5,1.43,0.74,2.76,0.74,3.97c0,3.97-0.94,6.94-2.81,8.92c-1.87,1.98-5.4,2.97-10.58,2.97h-5.62c-3.64,0-6.25-0.93-7.85-2.81    c-1.6-1.87-2.4-4.46-2.4-7.77c0-4.07,0.85-8.18,2.56-12.31c1.71-4.13,3.77-8.26,6.2-12.39c2.42-4.13,4.98-8.26,7.68-12.39    c2.7-4.13,5.04-8.23,7.02-12.31c3.41-6.94,6.44-13.44,9.09-19.5c2.64-6.06,3.97-11.73,3.97-17.02c0-3.52-0.33-6.06-0.99-7.6    c-0.66-1.54-0.99-2.86-0.99-3.97c0-1.87,0.83-3.61,2.48-5.2c1.65-1.6,4.24-2.4,7.77-2.4h16.03c2.86,0,5.18,0.25,6.94,0.74    c1.76,0.5,3.22,1.27,4.38,2.31c1.16,1.05,2.04,2.31,2.64,3.8c0.6,1.49,11.69-10.81,12.13-8.82c1.87,7.82,12.56,13.16,15.15,20.1    c2.59,6.94-13.37,30.17-9.85,37.55c1.98,4.08,4.16,8.18,6.53,12.31c2.37,4.13,4.57,8.26,6.61,12.39    c2.04,4.13,3.74,8.26,5.12,12.39c1.38,4.13,2.07,8.24,2.07,12.31c0,3.3-0.83,5.89-2.48,7.77c-1.65,1.87-4.24,2.81-7.77,2.81    h-18.18c-5.29,0-8.87-0.99-10.74-2.97C183.25,246.06,182.32,243.09,182.32,239.12z M140.18,200.95c-0.33,1.1,0.08,1.96,1.24,2.56    c1.16,0.61,2.7,1.07,4.63,1.4c1.93,0.33,4.07,0.52,6.44,0.58c2.37,0.06,4.54,0.08,6.53,0.08c1.98,0,4.27-0.03,6.86-0.08    c2.59-0.05,4.98-0.25,7.19-0.58c2.2-0.33,3.99-0.88,5.37-1.65c1.38-0.77,1.9-1.93,1.57-3.47c-0.55-2.53-1.76-5.73-3.63-9.58    c-1.87-3.85-3.91-7.6-6.11-11.24c-2.2-3.63-4.3-6.77-6.28-9.42c-1.98-2.64-3.3-3.97-3.97-3.97c-0.66,0-1.87,1.3-3.64,3.88    c-1.76,2.59-3.66,5.73-5.7,9.42c-2.04,3.69-4.05,7.55-6.03,11.57C142.66,194.48,141.18,197.98,140.18,200.95z"></path>		</defs>		<clipPath id="SVGID_00000034067311205809356380000015485224189131323563_">			<use xlink:href="#SVGID_1_" style="overflow:visible;"></use>		</clipPath>		<g style="clip-path:url(#SVGID_00000034067311205809356380000015485224189131323563_);">			<path class="st2" d="M169.76,190.98l-2.93-6.12c0.45-3.22,1.17-6.43,2.2-9.61l4.51,3.47l-3.01-7.56    c0.39-0.96,0.81-1.92,1.26-2.87c1.21-2.55,2.59-4.97,4.11-7.25l3.99,4.29l-2.09-6.96c1.83-2.42,3.83-4.67,5.97-6.73l2.38,3.24    l-0.86-4.65c3.78-3.37,7.97-6.2,12.45-8.43c0.97,4.27,1.44,8.66,1.4,13.09l-4.7,2.93l4.63-0.65c-0.15,3.08-0.56,6.17-1.23,9.23    l-6.63,2.73l5.98-0.05c-0.87,3.24-2.05,6.44-3.53,9.58c-0.1,0.21-0.2,0.42-0.31,0.63l-7.69,2.74l6.19,0.11    c-1.52,2.71-3.23,5.24-5.1,7.6l-6.42,1.68l4.43,0.68c-4.86,5.46-10.67,9.86-17.04,13.04c-1.26-5.55-1.68-11.3-1.22-17.07    L169.76,190.98z"></path>			<polygon class="st3" points="167.7,205.14 171.55,197.27 175.37,189.38 182.92,173.57 190.38,157.71 194.07,149.76 197.72,141.8     193.87,149.67 190.05,157.55 182.5,173.37 175.04,189.23 171.35,197.17    "></polygon>			<polygon class="st3" points="190.23,157.95 191.39,148.1 189.92,157.91    "></polygon>			<polygon class="st3" points="187.42,163.84 193.28,159.45 187.24,163.58    "></polygon>			<polygon class="st3" points="184.75,169.5 185.27,157.94 184.44,169.48    "></polygon>			<polygon class="st3" points="181.61,176.11 189.54,169.8 181.42,175.87    "></polygon>			<polygon class="st3" points="179.15,181.31 178.77,168.89 178.83,181.32    "></polygon>			<polygon class="st3" points="175.36,189.29 183.54,182.44 175.17,189.05    "></polygon>			<polygon class="st3" points="172.61,195.1 172.14,182.88 172.3,195.11    "></polygon>			<polygon class="st3" points="170.08,200.45 177.56,194 169.87,200.21    "></polygon>			<path class="st4" d="M167.7,205.14c6.38-3.19,12.19-7.58,17.04-13.04l-4.43-0.68l6.42-1.68c1.88-2.36,3.59-4.9,5.1-7.6    l-6.19-0.11l7.69-2.74c0.1-0.21,0.21-0.42,0.31-0.63c1.48-3.14,2.66-6.34,3.53-9.58l-5.97,0.06l6.63-2.73    c0.67-3.07,1.08-6.15,1.23-9.23l-4.63,0.65l4.7-2.93c0.04-4.43-0.43-8.82-1.4-13.09l-3.65,7.97l-3.69,7.95l-7.46,15.86    l-7.56,15.81l-3.81,7.89L167.7,205.14z"></path>		</g>	</g></g></svg>