<svg width="291" height="174" viewBox="0 0 291 174" fill="none" xmlns="http://www.w3.org/2000/svg">
<path d="M21 37C21 30.3726 26.3726 25 33 25H258C264.627 25 270 30.3726 270 37V174H21V37Z" fill="white"/>
<path d="M41 107H254" stroke="#BCC3D1" stroke-width="0.758985" stroke-dasharray="2 2"/>
<path d="M116.803 134.199C117.428 134.199 117.963 134.02 118.408 133.66C118.854 133.301 119.195 132.791 119.434 132.131C119.676 131.467 119.797 130.682 119.797 129.775V129.764C119.797 128.857 119.676 128.074 119.434 127.414C119.195 126.754 118.854 126.244 118.408 125.885C117.963 125.525 117.428 125.346 116.803 125.346C116.178 125.346 115.643 125.525 115.197 125.885C114.756 126.244 114.416 126.754 114.178 127.414C113.939 128.074 113.82 128.857 113.82 129.764V129.775C113.82 130.682 113.939 131.467 114.178 132.131C114.416 132.791 114.756 133.301 115.197 133.66C115.643 134.02 116.178 134.199 116.803 134.199ZM116.803 133.279C116.4 133.279 116.055 133.137 115.766 132.852C115.48 132.566 115.262 132.162 115.109 131.639C114.957 131.115 114.881 130.494 114.881 129.775V129.764C114.881 129.045 114.957 128.426 115.109 127.906C115.262 127.383 115.48 126.98 115.766 126.699C116.055 126.414 116.4 126.271 116.803 126.271C117.209 126.271 117.555 126.414 117.84 126.699C118.129 126.98 118.35 127.383 118.502 127.906C118.658 128.426 118.736 129.045 118.736 129.764V129.775C118.736 130.494 118.658 131.115 118.502 131.639C118.35 132.162 118.129 132.566 117.84 132.852C117.555 133.137 117.209 133.279 116.803 133.279ZM120.916 134H122.059L123.559 131.615H123.652L125.146 134H126.342L124.168 130.801L126.312 127.684H125.17L123.688 130.033H123.594L122.094 127.684H120.893L123.078 130.842L120.916 134ZM129.775 134H130.83V125.545H129.781L127.531 127.162V128.275L129.682 126.717H129.775V134ZM137.135 134H138.166V132.248H139.367V131.305H138.166V125.545H136.637C136.398 125.896 136.156 126.26 135.91 126.635C135.668 127.01 135.424 127.391 135.178 127.777C134.932 128.164 134.686 128.555 134.439 128.949C134.197 129.34 133.957 129.732 133.719 130.127C133.48 130.518 133.246 130.904 133.016 131.287V132.248H137.135V134ZM134.094 131.311V131.24C134.277 130.928 134.467 130.611 134.662 130.291C134.861 129.967 135.062 129.643 135.266 129.318C135.469 128.994 135.672 128.672 135.875 128.352C136.082 128.031 136.285 127.719 136.484 127.414C136.684 127.105 136.879 126.809 137.07 126.523H137.141V131.311H134.094ZM141.424 134.059C141.635 134.059 141.814 133.984 141.963 133.836C142.111 133.684 142.186 133.504 142.186 133.297C142.186 133.086 142.111 132.906 141.963 132.758C141.814 132.609 141.635 132.535 141.424 132.535C141.217 132.535 141.037 132.609 140.885 132.758C140.736 132.906 140.662 133.086 140.662 133.297C140.662 133.504 140.736 133.684 140.885 133.836C141.037 133.984 141.217 134.059 141.424 134.059ZM144.986 134.059C145.197 134.059 145.377 133.984 145.525 133.836C145.674 133.684 145.748 133.504 145.748 133.297C145.748 133.086 145.674 132.906 145.525 132.758C145.377 132.609 145.197 132.535 144.986 132.535C144.779 132.535 144.6 132.609 144.447 132.758C144.299 132.906 144.225 133.086 144.225 133.297C144.225 133.504 144.299 133.684 144.447 133.836C144.6 133.984 144.779 134.059 144.986 134.059ZM148.549 134.059C148.76 134.059 148.939 133.984 149.088 133.836C149.236 133.684 149.311 133.504 149.311 133.297C149.311 133.086 149.236 132.906 149.088 132.758C148.939 132.609 148.76 132.535 148.549 132.535C148.342 132.535 148.162 132.609 148.01 132.758C147.861 132.906 147.787 133.086 147.787 133.297C147.787 133.504 147.861 133.684 148.01 133.836C148.162 133.984 148.342 134.059 148.549 134.059ZM151.408 134H154.309C155.148 134 155.865 133.834 156.459 133.502C157.053 133.166 157.508 132.684 157.824 132.055C158.141 131.422 158.299 130.662 158.299 129.775V129.764C158.299 128.877 158.141 128.119 157.824 127.49C157.508 126.861 157.051 126.381 156.453 126.049C155.859 125.713 155.145 125.545 154.309 125.545H151.408V134ZM152.463 133.051V126.494H154.238C154.863 126.494 155.398 126.625 155.844 126.887C156.289 127.145 156.629 127.52 156.863 128.012C157.102 128.5 157.221 129.088 157.221 129.775V129.787C157.221 130.471 157.104 131.057 156.869 131.545C156.635 132.033 156.295 132.406 155.85 132.664C155.404 132.922 154.867 133.051 154.238 133.051H152.463ZM162.822 134.199C163.447 134.199 163.982 134.02 164.428 133.66C164.873 133.301 165.215 132.791 165.453 132.131C165.695 131.467 165.816 130.682 165.816 129.775V129.764C165.816 128.857 165.695 128.074 165.453 127.414C165.215 126.754 164.873 126.244 164.428 125.885C163.982 125.525 163.447 125.346 162.822 125.346C162.197 125.346 161.662 125.525 161.217 125.885C160.775 126.244 160.436 126.754 160.197 127.414C159.959 128.074 159.84 128.857 159.84 129.764V129.775C159.84 130.682 159.959 131.467 160.197 132.131C160.436 132.791 160.775 133.301 161.217 133.66C161.662 134.02 162.197 134.199 162.822 134.199ZM162.822 133.279C162.42 133.279 162.074 133.137 161.785 132.852C161.5 132.566 161.281 132.162 161.129 131.639C160.977 131.115 160.9 130.494 160.9 129.775V129.764C160.9 129.045 160.977 128.426 161.129 127.906C161.281 127.383 161.5 126.98 161.785 126.699C162.074 126.414 162.42 126.271 162.822 126.271C163.229 126.271 163.574 126.414 163.859 126.699C164.148 126.98 164.369 127.383 164.521 127.906C164.678 128.426 164.756 129.045 164.756 129.764V129.775C164.756 130.494 164.678 131.115 164.521 131.639C164.369 132.162 164.148 132.566 163.859 132.852C163.574 133.137 163.229 133.279 162.822 133.279ZM170.316 125.346C169.75 125.346 169.242 125.471 168.793 125.721C168.348 125.971 167.996 126.316 167.738 126.758C167.484 127.195 167.357 127.695 167.357 128.258V128.27C167.357 128.809 167.479 129.293 167.721 129.723C167.963 130.148 168.293 130.484 168.711 130.73C169.129 130.977 169.602 131.1 170.129 131.1C170.512 131.1 170.852 131.039 171.148 130.918C171.449 130.797 171.703 130.637 171.91 130.438C172.121 130.238 172.277 130.023 172.379 129.793H172.584V128.27H172.238V128.275C172.238 128.643 172.152 128.971 171.98 129.26C171.812 129.545 171.584 129.77 171.295 129.934C171.006 130.098 170.678 130.18 170.311 130.18C169.947 130.18 169.623 130.098 169.338 129.934C169.053 129.766 168.828 129.537 168.664 129.248C168.5 128.955 168.418 128.621 168.418 128.246V128.234C168.418 127.867 168.504 127.537 168.676 127.244C168.848 126.947 169.078 126.713 169.367 126.541C169.656 126.365 169.977 126.277 170.328 126.277C170.688 126.277 171.01 126.367 171.295 126.547C171.584 126.723 171.812 126.961 171.98 127.262C172.152 127.562 172.238 127.898 172.238 128.27L172.49 129.676C172.49 129.727 172.49 129.779 172.49 129.834C172.49 129.885 172.488 129.938 172.484 129.992C172.465 130.578 172.377 131.119 172.221 131.615C172.064 132.111 171.826 132.51 171.506 132.811C171.186 133.107 170.77 133.256 170.258 133.256C169.973 133.256 169.717 133.209 169.49 133.115C169.268 133.021 169.076 132.889 168.916 132.717C168.76 132.545 168.639 132.342 168.553 132.107L168.529 132.043H167.469L167.486 132.119C167.584 132.533 167.76 132.896 168.014 133.209C168.268 133.521 168.584 133.766 168.963 133.941C169.346 134.113 169.773 134.199 170.246 134.199C170.93 134.199 171.514 134.02 171.998 133.66C172.482 133.297 172.854 132.775 173.111 132.096C173.369 131.412 173.498 130.59 173.498 129.629V129.617C173.498 128.82 173.406 128.15 173.223 127.607C173.039 127.061 172.793 126.621 172.484 126.289C172.18 125.957 171.838 125.717 171.459 125.568C171.084 125.42 170.703 125.346 170.316 125.346ZM179.053 134H180.084V132.248H181.285V131.305H180.084V125.545H178.555C178.316 125.896 178.074 126.26 177.828 126.635C177.586 127.01 177.342 127.391 177.096 127.777C176.85 128.164 176.604 128.555 176.357 128.949C176.115 129.34 175.875 129.732 175.637 130.127C175.398 130.518 175.164 130.904 174.934 131.287V132.248H179.053V134ZM176.012 131.311V131.24C176.195 130.928 176.385 130.611 176.58 130.291C176.779 129.967 176.98 129.643 177.184 129.318C177.387 128.994 177.59 128.672 177.793 128.352C178 128.031 178.203 127.719 178.402 127.414C178.602 127.105 178.797 126.809 178.988 126.523H179.059V131.311H176.012Z" fill="#2D3442"/>
<path d="M58.127 90H60.2939L62.707 82.1045H63.3086V80.1357H61.5518L58.127 90ZM59.959 87.6074H65.5303L65.0244 86.0625H60.4648L59.959 87.6074ZM65.2363 90H67.4102L63.9785 80.1357H62.8301V82.1045L65.2363 90ZM71.1631 90.1162C71.5186 90.1162 71.8421 90.0661 72.1338 89.9658C72.4255 89.861 72.6784 89.7129 72.8926 89.5215C73.1113 89.3301 73.2845 89.0999 73.4121 88.8311H73.5352V90H75.5312V79.5957H73.5352V83.6768H73.4121C73.2891 83.3988 73.1159 83.1618 72.8926 82.9658C72.6693 82.7699 72.4095 82.6195 72.1133 82.5146C71.8216 82.4053 71.5049 82.3506 71.1631 82.3506C70.5251 82.3506 69.9782 82.5055 69.5225 82.8154C69.0667 83.1253 68.7158 83.5697 68.4697 84.1484C68.2282 84.7272 68.1074 85.4199 68.1074 86.2266V86.2402C68.1074 87.0423 68.2305 87.7327 68.4766 88.3115C68.7272 88.8903 69.0804 89.3369 69.5361 89.6514C69.9964 89.9613 70.5387 90.1162 71.1631 90.1162ZM71.8398 88.4619C71.4889 88.4619 71.1859 88.373 70.9307 88.1953C70.6755 88.0176 70.4795 87.7624 70.3428 87.4297C70.2061 87.097 70.1377 86.7005 70.1377 86.2402V86.2266C70.1377 85.7663 70.2061 85.3721 70.3428 85.0439C70.4795 84.7113 70.6755 84.4561 70.9307 84.2783C71.1904 84.096 71.4935 84.0049 71.8398 84.0049C72.1908 84.0049 72.4938 84.096 72.749 84.2783C73.0088 84.4561 73.207 84.7113 73.3438 85.0439C73.485 85.3721 73.5557 85.7686 73.5557 86.2334V86.2471C73.5557 86.7028 73.485 87.097 73.3438 87.4297C73.207 87.7624 73.0111 88.0176 72.7559 88.1953C72.5007 88.373 72.1953 88.4619 71.8398 88.4619ZM80.2822 90.1162C80.6377 90.1162 80.9613 90.0661 81.2529 89.9658C81.5446 89.861 81.7975 89.7129 82.0117 89.5215C82.2305 89.3301 82.4036 89.0999 82.5312 88.8311H82.6543V90H84.6504V79.5957H82.6543V83.6768H82.5312C82.4082 83.3988 82.235 83.1618 82.0117 82.9658C81.7884 82.7699 81.5286 82.6195 81.2324 82.5146C80.9408 82.4053 80.624 82.3506 80.2822 82.3506C79.6442 82.3506 79.0973 82.5055 78.6416 82.8154C78.1859 83.1253 77.835 83.5697 77.5889 84.1484C77.3473 84.7272 77.2266 85.4199 77.2266 86.2266V86.2402C77.2266 87.0423 77.3496 87.7327 77.5957 88.3115C77.8464 88.8903 78.1995 89.3369 78.6553 89.6514C79.1156 89.9613 79.6579 90.1162 80.2822 90.1162ZM80.959 88.4619C80.6081 88.4619 80.305 88.373 80.0498 88.1953C79.7946 88.0176 79.5986 87.7624 79.4619 87.4297C79.3252 87.097 79.2568 86.7005 79.2568 86.2402V86.2266C79.2568 85.7663 79.3252 85.3721 79.4619 85.0439C79.5986 84.7113 79.7946 84.4561 80.0498 84.2783C80.3096 84.096 80.6126 84.0049 80.959 84.0049C81.3099 84.0049 81.613 84.096 81.8682 84.2783C82.1279 84.4561 82.3262 84.7113 82.4629 85.0439C82.6042 85.3721 82.6748 85.7686 82.6748 86.2334V86.2471C82.6748 86.7028 82.6042 87.097 82.4629 87.4297C82.3262 87.7624 82.1302 88.0176 81.875 88.1953C81.6198 88.373 81.3145 88.4619 80.959 88.4619ZM86.7148 90H88.7109V85.7891C88.7109 85.4336 88.7861 85.1283 88.9365 84.873C89.0869 84.6178 89.3011 84.4219 89.5791 84.2852C89.8571 84.1439 90.1852 84.0732 90.5635 84.0732C90.7184 84.0732 90.8711 84.0846 91.0215 84.1074C91.1764 84.1257 91.3291 84.153 91.4795 84.1895V82.4463C91.3792 82.4189 91.263 82.3962 91.1309 82.3779C91.0033 82.3597 90.8711 82.3506 90.7344 82.3506C90.2467 82.3506 89.8389 82.4645 89.5107 82.6924C89.1826 82.9157 88.957 83.2324 88.834 83.6426H88.7109V82.4736H86.7148V90ZM95.957 90.1572C96.5085 90.1572 96.9847 90.0889 97.3857 89.9521C97.7913 89.8109 98.1286 89.6286 98.3975 89.4053C98.6709 89.182 98.8851 88.9427 99.04 88.6875C99.195 88.4277 99.3021 88.1794 99.3613 87.9424L99.375 87.874H97.5156L97.4951 87.915C97.4495 88.0107 97.363 88.1178 97.2354 88.2363C97.1123 88.3503 96.9482 88.4505 96.7432 88.5371C96.5381 88.6237 96.2897 88.667 95.998 88.667C95.638 88.667 95.3281 88.5872 95.0684 88.4277C94.8086 88.2682 94.6081 88.0381 94.4668 87.7373C94.3255 87.4365 94.2549 87.0742 94.2549 86.6504V85.8438C94.2549 85.4062 94.3255 85.0371 94.4668 84.7363C94.6126 84.431 94.8086 84.2008 95.0547 84.0459C95.3053 83.8864 95.5902 83.8066 95.9092 83.8066C96.2327 83.8066 96.5153 83.8841 96.7568 84.0391C97.0029 84.1895 97.1943 84.415 97.3311 84.7158C97.4723 85.0166 97.543 85.3926 97.543 85.8438V86.6436L98.4795 85.4609H93.2773V86.7119H99.4365V86.0898C99.4365 85.3288 99.293 84.6657 99.0059 84.1006C98.7188 83.5355 98.3086 83.0957 97.7754 82.7812C97.2422 82.4668 96.6087 82.3096 95.875 82.3096C95.1458 82.3096 94.5101 82.4714 93.9678 82.7949C93.43 83.1185 93.013 83.5742 92.7168 84.1621C92.4251 84.75 92.2793 85.4427 92.2793 86.2402V86.2471C92.2793 87.0537 92.4274 87.7487 92.7236 88.332C93.0199 88.9154 93.4414 89.3665 93.9883 89.6855C94.5397 90 95.196 90.1572 95.957 90.1572ZM104.064 90.1572C104.707 90.1572 105.277 90.057 105.773 89.8564C106.27 89.6514 106.66 89.3643 106.942 88.9951C107.225 88.626 107.366 88.193 107.366 87.6963V87.6895C107.366 87.1335 107.186 86.6914 106.826 86.3633C106.466 86.0352 105.91 85.7891 105.158 85.625L103.907 85.3584C103.647 85.2992 103.44 85.2331 103.285 85.1602C103.13 85.0872 103.019 85.0007 102.95 84.9004C102.882 84.8001 102.848 84.6839 102.848 84.5518V84.5449C102.848 84.3763 102.898 84.2305 102.998 84.1074C103.103 83.9844 103.244 83.8887 103.422 83.8203C103.6 83.752 103.802 83.7178 104.03 83.7178C104.404 83.7178 104.7 83.7975 104.919 83.957C105.138 84.112 105.274 84.292 105.329 84.4971L105.336 84.5312H107.188V84.5039C107.161 84.0983 107.022 83.7314 106.771 83.4033C106.525 83.0706 106.172 82.8063 105.712 82.6104C105.252 82.4098 104.693 82.3096 104.037 82.3096C103.413 82.3096 102.864 82.4076 102.39 82.6035C101.92 82.7995 101.553 83.0752 101.289 83.4307C101.029 83.7816 100.899 84.194 100.899 84.668V84.6748C100.899 85.0485 100.977 85.3766 101.132 85.6592C101.291 85.9417 101.531 86.181 101.85 86.377C102.169 86.5684 102.567 86.7142 103.046 86.8145L104.304 87.0811C104.687 87.1676 104.96 87.277 105.124 87.4092C105.288 87.5413 105.37 87.7077 105.37 87.9082V87.9219C105.37 88.0859 105.315 88.2295 105.206 88.3525C105.097 88.4756 104.946 88.5736 104.755 88.6465C104.563 88.7148 104.34 88.749 104.085 88.749C103.693 88.749 103.381 88.6738 103.148 88.5234C102.921 88.373 102.766 88.1816 102.684 87.9492L102.67 87.9219H100.708L100.715 87.9492C100.76 88.3776 100.918 88.7581 101.187 89.0908C101.46 89.4235 101.836 89.6855 102.314 89.877C102.798 90.0638 103.381 90.1572 104.064 90.1572ZM111.857 90.1572C112.5 90.1572 113.07 90.057 113.566 89.8564C114.063 89.6514 114.453 89.3643 114.735 88.9951C115.018 88.626 115.159 88.193 115.159 87.6963V87.6895C115.159 87.1335 114.979 86.6914 114.619 86.3633C114.259 86.0352 113.703 85.7891 112.951 85.625L111.7 85.3584C111.44 85.2992 111.233 85.2331 111.078 85.1602C110.923 85.0872 110.812 85.0007 110.743 84.9004C110.675 84.8001 110.641 84.6839 110.641 84.5518V84.5449C110.641 84.3763 110.691 84.2305 110.791 84.1074C110.896 83.9844 111.037 83.8887 111.215 83.8203C111.393 83.752 111.595 83.7178 111.823 83.7178C112.197 83.7178 112.493 83.7975 112.712 83.957C112.931 84.112 113.067 84.292 113.122 84.4971L113.129 84.5312H114.981V84.5039C114.954 84.0983 114.815 83.7314 114.564 83.4033C114.318 83.0706 113.965 82.8063 113.505 82.6104C113.045 82.4098 112.486 82.3096 111.83 82.3096C111.206 82.3096 110.657 82.4076 110.183 82.6035C109.713 82.7995 109.346 83.0752 109.082 83.4307C108.822 83.7816 108.692 84.194 108.692 84.668V84.6748C108.692 85.0485 108.77 85.3766 108.925 85.6592C109.084 85.9417 109.324 86.181 109.643 86.377C109.962 86.5684 110.36 86.7142 110.839 86.8145L112.097 87.0811C112.479 87.1676 112.753 87.277 112.917 87.4092C113.081 87.5413 113.163 87.7077 113.163 87.9082V87.9219C113.163 88.0859 113.108 88.2295 112.999 88.3525C112.89 88.4756 112.739 88.5736 112.548 88.6465C112.356 88.7148 112.133 88.749 111.878 88.749C111.486 88.749 111.174 88.6738 110.941 88.5234C110.714 88.373 110.559 88.1816 110.477 87.9492L110.463 87.9219H108.501L108.508 87.9492C108.553 88.3776 108.711 88.7581 108.979 89.0908C109.253 89.4235 109.629 89.6855 110.107 89.877C110.59 90.0638 111.174 90.1572 111.857 90.1572ZM120.416 90H122.412V82.4736H120.416V90ZM121.421 81.3184C121.731 81.3184 121.995 81.2113 122.214 80.9971C122.433 80.7783 122.542 80.5163 122.542 80.2109C122.542 79.901 122.433 79.639 122.214 79.4248C121.995 79.2061 121.731 79.0967 121.421 79.0967C121.116 79.0967 120.851 79.2061 120.628 79.4248C120.405 79.639 120.293 79.901 120.293 80.2109C120.293 80.5163 120.405 80.7783 120.628 80.9971C120.851 81.2113 121.116 81.3184 121.421 81.3184ZM127.416 90.1572C128.059 90.1572 128.628 90.057 129.125 89.8564C129.622 89.6514 130.011 89.3643 130.294 88.9951C130.576 88.626 130.718 88.193 130.718 87.6963V87.6895C130.718 87.1335 130.538 86.6914 130.178 86.3633C129.818 86.0352 129.262 85.7891 128.51 85.625L127.259 85.3584C126.999 85.2992 126.792 85.2331 126.637 85.1602C126.482 85.0872 126.37 85.0007 126.302 84.9004C126.233 84.8001 126.199 84.6839 126.199 84.5518V84.5449C126.199 84.3763 126.249 84.2305 126.35 84.1074C126.454 83.9844 126.596 83.8887 126.773 83.8203C126.951 83.752 127.154 83.7178 127.382 83.7178C127.756 83.7178 128.052 83.7975 128.271 83.957C128.489 84.112 128.626 84.292 128.681 84.4971L128.688 84.5312H130.54V84.5039C130.513 84.0983 130.374 83.7314 130.123 83.4033C129.877 83.0706 129.524 82.8063 129.063 82.6104C128.603 82.4098 128.045 82.3096 127.389 82.3096C126.764 82.3096 126.215 82.4076 125.741 82.6035C125.272 82.7995 124.905 83.0752 124.641 83.4307C124.381 83.7816 124.251 84.194 124.251 84.668V84.6748C124.251 85.0485 124.328 85.3766 124.483 85.6592C124.643 85.9417 124.882 86.181 125.201 86.377C125.52 86.5684 125.919 86.7142 126.397 86.8145L127.655 87.0811C128.038 87.1676 128.312 87.277 128.476 87.4092C128.64 87.5413 128.722 87.7077 128.722 87.9082V87.9219C128.722 88.0859 128.667 88.2295 128.558 88.3525C128.448 88.4756 128.298 88.5736 128.106 88.6465C127.915 88.7148 127.692 88.749 127.437 88.749C127.045 88.749 126.732 88.6738 126.5 88.5234C126.272 88.373 126.117 88.1816 126.035 87.9492L126.021 87.9219H124.06L124.066 87.9492C124.112 88.3776 124.269 88.7581 124.538 89.0908C124.812 89.4235 125.188 89.6855 125.666 89.877C126.149 90.0638 126.732 90.1572 127.416 90.1572ZM135.975 90H137.971V82.4736H135.975V90ZM136.979 81.3184C137.289 81.3184 137.554 81.2113 137.772 80.9971C137.991 80.7783 138.101 80.5163 138.101 80.2109C138.101 79.901 137.991 79.639 137.772 79.4248C137.554 79.2061 137.289 79.0967 136.979 79.0967C136.674 79.0967 136.41 79.2061 136.187 79.4248C135.963 79.639 135.852 79.901 135.852 80.2109C135.852 80.5163 135.963 80.7783 136.187 80.9971C136.41 81.2113 136.674 81.3184 136.979 81.3184ZM139.98 90H141.977V85.6455C141.977 85.3037 142.036 85.0075 142.154 84.7568C142.277 84.5062 142.448 84.3125 142.667 84.1758C142.89 84.0345 143.155 83.9639 143.46 83.9639C143.934 83.9639 144.283 84.1006 144.506 84.374C144.729 84.6475 144.841 85.0508 144.841 85.584V90H146.837V85.1328C146.837 84.2305 146.616 83.5355 146.174 83.0479C145.736 82.5557 145.098 82.3096 144.26 82.3096C143.722 82.3096 143.271 82.4281 142.906 82.665C142.542 82.902 142.273 83.2256 142.1 83.6357H141.977V82.4736H139.98V90ZM155.375 90.1572C156.018 90.1572 156.587 90.057 157.084 89.8564C157.581 89.6514 157.97 89.3643 158.253 88.9951C158.535 88.626 158.677 88.193 158.677 87.6963V87.6895C158.677 87.1335 158.497 86.6914 158.137 86.3633C157.777 86.0352 157.221 85.7891 156.469 85.625L155.218 85.3584C154.958 85.2992 154.751 85.2331 154.596 85.1602C154.441 85.0872 154.329 85.0007 154.261 84.9004C154.192 84.8001 154.158 84.6839 154.158 84.5518V84.5449C154.158 84.3763 154.208 84.2305 154.309 84.1074C154.413 83.9844 154.555 83.8887 154.732 83.8203C154.91 83.752 155.113 83.7178 155.341 83.7178C155.715 83.7178 156.011 83.7975 156.229 83.957C156.448 84.112 156.585 84.292 156.64 84.4971L156.646 84.5312H158.499V84.5039C158.472 84.0983 158.333 83.7314 158.082 83.4033C157.836 83.0706 157.483 82.8063 157.022 82.6104C156.562 82.4098 156.004 82.3096 155.348 82.3096C154.723 82.3096 154.174 82.4076 153.7 82.6035C153.231 82.7995 152.864 83.0752 152.6 83.4307C152.34 83.7816 152.21 84.194 152.21 84.668V84.6748C152.21 85.0485 152.287 85.3766 152.442 85.6592C152.602 85.9417 152.841 86.181 153.16 86.377C153.479 86.5684 153.878 86.7142 154.356 86.8145L155.614 87.0811C155.997 87.1676 156.271 87.277 156.435 87.4092C156.599 87.5413 156.681 87.7077 156.681 87.9082V87.9219C156.681 88.0859 156.626 88.2295 156.517 88.3525C156.407 88.4756 156.257 88.5736 156.065 88.6465C155.874 88.7148 155.651 88.749 155.396 88.749C155.004 88.749 154.691 88.6738 154.459 88.5234C154.231 88.373 154.076 88.1816 153.994 87.9492L153.98 87.9219H152.019L152.025 87.9492C152.071 88.3776 152.228 88.7581 152.497 89.0908C152.771 89.4235 153.146 89.6855 153.625 89.877C154.108 90.0638 154.691 90.1572 155.375 90.1572ZM162.361 90.1162C162.689 90.1162 162.993 90.0729 163.271 89.9863C163.553 89.8952 163.799 89.7676 164.009 89.6035C164.223 89.4349 164.394 89.2344 164.521 89.002H164.645V90H166.613V84.8594C166.613 84.3262 166.49 83.8704 166.244 83.4922C166.003 83.1094 165.649 82.8177 165.185 82.6172C164.72 82.4121 164.155 82.3096 163.489 82.3096C162.86 82.3096 162.307 82.4007 161.828 82.583C161.354 82.7653 160.976 83.0205 160.693 83.3486C160.415 83.6768 160.249 84.0618 160.194 84.5039L160.188 84.5654H162.033L162.047 84.5381C162.124 84.3148 162.275 84.1439 162.498 84.0254C162.726 83.9023 163.02 83.8408 163.38 83.8408C163.79 83.8408 164.102 83.9297 164.316 84.1074C164.535 84.2806 164.645 84.5312 164.645 84.8594V87.2588C164.645 87.5231 164.574 87.7624 164.433 87.9766C164.291 88.1862 164.1 88.3525 163.858 88.4756C163.617 88.5986 163.341 88.6602 163.031 88.6602C162.685 88.6602 162.402 88.5781 162.184 88.4141C161.965 88.25 161.855 88.0244 161.855 87.7373V87.7236C161.855 87.4502 161.96 87.2337 162.17 87.0742C162.38 86.9147 162.699 86.8236 163.127 86.8008L165.629 86.6367V85.4199L162.826 85.5908C162.202 85.6273 161.671 85.7389 161.233 85.9258C160.8 86.1081 160.47 86.361 160.242 86.6846C160.019 87.0081 159.907 87.3955 159.907 87.8467V87.8604C159.907 88.3161 160.012 88.7148 160.222 89.0566C160.431 89.3939 160.721 89.6559 161.09 89.8428C161.464 90.0251 161.887 90.1162 162.361 90.1162ZM168.568 90H170.564V85.6455C170.564 85.3037 170.624 85.0075 170.742 84.7568C170.865 84.5062 171.036 84.3125 171.255 84.1758C171.478 84.0345 171.743 83.9639 172.048 83.9639C172.522 83.9639 172.87 84.1006 173.094 84.374C173.317 84.6475 173.429 85.0508 173.429 85.584V90H175.425V85.1328C175.425 84.2305 175.204 83.5355 174.762 83.0479C174.324 82.5557 173.686 82.3096 172.848 82.3096C172.31 82.3096 171.859 82.4281 171.494 82.665C171.13 82.902 170.861 83.2256 170.688 83.6357H170.564V82.4736H168.568V90ZM180.675 90.1572C181.331 90.1572 181.896 90.0479 182.37 89.8291C182.844 89.6058 183.22 89.2913 183.498 88.8857C183.776 88.4801 183.951 88.0062 184.024 87.4639V87.416L182.179 87.4229L182.165 87.4434C182.078 87.8262 181.912 88.1133 181.666 88.3047C181.42 88.4961 181.092 88.5918 180.682 88.5918C180.326 88.5918 180.025 88.5007 179.779 88.3184C179.533 88.1361 179.344 87.8695 179.212 87.5186C179.084 87.1631 179.021 86.7324 179.021 86.2266V86.2129C179.021 85.707 179.084 85.2809 179.212 84.9346C179.34 84.5882 179.526 84.3262 179.772 84.1484C180.023 83.9661 180.326 83.875 180.682 83.875C181.11 83.875 181.447 83.9867 181.693 84.21C181.944 84.4287 182.104 84.7204 182.172 85.085L182.179 85.0986H184.031V85.0781C183.972 84.5176 183.803 84.0299 183.525 83.6152C183.247 83.2005 182.869 82.8792 182.391 82.6514C181.912 82.4235 181.34 82.3096 180.675 82.3096C179.891 82.3096 179.223 82.4645 178.672 82.7744C178.125 83.0798 177.708 83.5218 177.421 84.1006C177.134 84.6794 176.99 85.3835 176.99 86.2129V86.2266C176.99 87.0605 177.134 87.7715 177.421 88.3594C177.708 88.9427 178.125 89.3893 178.672 89.6992C179.223 90.0046 179.891 90.1572 180.675 90.1572ZM188.782 90.0273C188.978 90.0273 189.163 90.0182 189.336 90C189.509 89.9818 189.657 89.9613 189.78 89.9385V88.4551C189.685 88.4642 189.593 88.4733 189.507 88.4824C189.425 88.487 189.32 88.4893 189.192 88.4893C188.855 88.4893 188.609 88.4118 188.454 88.2568C188.304 88.0973 188.229 87.849 188.229 87.5117V83.9775H189.78V82.4736H188.229V80.6758H186.212V82.4736H185.05V83.9775H186.212V87.9697C186.212 88.6989 186.412 89.2253 186.813 89.5488C187.215 89.8678 187.871 90.0273 188.782 90.0273ZM191.455 90H193.451V82.4736H191.455V90ZM192.46 81.3184C192.77 81.3184 193.034 81.2113 193.253 80.9971C193.472 80.7783 193.581 80.5163 193.581 80.2109C193.581 79.901 193.472 79.639 193.253 79.4248C193.034 79.2061 192.77 79.0967 192.46 79.0967C192.155 79.0967 191.89 79.2061 191.667 79.4248C191.444 79.639 191.332 79.901 191.332 80.2109C191.332 80.5163 191.444 80.7783 191.667 80.9971C191.89 81.2113 192.155 81.3184 192.46 81.3184ZM198.804 90.1572C199.578 90.1572 200.242 90.0023 200.793 89.6924C201.349 89.3779 201.775 88.929 202.071 88.3457C202.368 87.7578 202.516 87.056 202.516 86.2402V86.2266C202.516 85.4154 202.365 84.7181 202.064 84.1348C201.764 83.5469 201.335 83.0957 200.779 82.7812C200.228 82.4668 199.569 82.3096 198.804 82.3096C198.038 82.3096 197.377 82.4691 196.821 82.7881C196.27 83.1025 195.844 83.5514 195.543 84.1348C195.242 84.7181 195.092 85.4154 195.092 86.2266V86.2402C195.092 87.056 195.24 87.7578 195.536 88.3457C195.832 88.929 196.258 89.3779 196.814 89.6924C197.37 90.0023 198.034 90.1572 198.804 90.1572ZM198.804 88.5918C198.448 88.5918 198.145 88.5007 197.895 88.3184C197.648 88.1315 197.459 87.8626 197.327 87.5117C197.2 87.1608 197.136 86.737 197.136 86.2402V86.2266C197.136 85.7344 197.202 85.3151 197.334 84.9688C197.466 84.6178 197.655 84.349 197.901 84.1621C198.152 83.9707 198.453 83.875 198.804 83.875C199.155 83.875 199.453 83.9707 199.699 84.1621C199.95 84.349 200.141 84.6178 200.273 84.9688C200.406 85.3151 200.472 85.7344 200.472 86.2266V86.2402C200.472 86.7324 200.406 87.154 200.273 87.5049C200.141 87.8558 199.952 88.1247 199.706 88.3115C199.46 88.4984 199.159 88.5918 198.804 88.5918ZM204.143 90H206.139V85.6455C206.139 85.3037 206.198 85.0075 206.316 84.7568C206.439 84.5062 206.61 84.3125 206.829 84.1758C207.052 84.0345 207.317 83.9639 207.622 83.9639C208.096 83.9639 208.445 84.1006 208.668 84.374C208.891 84.6475 209.003 85.0508 209.003 85.584V90H210.999V85.1328C210.999 84.2305 210.778 83.5355 210.336 83.0479C209.898 82.5557 209.26 82.3096 208.422 82.3096C207.884 82.3096 207.433 82.4281 207.068 82.665C206.704 82.902 206.435 83.2256 206.262 83.6357H206.139V82.4736H204.143V90ZM216.611 90H218.607V79.5957H216.611V90ZM220.686 90H222.682V82.4736H220.686V90ZM221.69 81.3184C222 81.3184 222.265 81.2113 222.483 80.9971C222.702 80.7783 222.812 80.5163 222.812 80.2109C222.812 79.901 222.702 79.639 222.483 79.4248C222.265 79.2061 222 79.0967 221.69 79.0967C221.385 79.0967 221.121 79.2061 220.897 79.4248C220.674 79.639 220.562 79.901 220.562 80.2109C220.562 80.5163 220.674 80.7783 220.897 80.9971C221.121 81.2113 221.385 81.3184 221.69 81.3184ZM227.686 90.1572C228.328 90.1572 228.898 90.057 229.395 89.8564C229.891 89.6514 230.281 89.3643 230.563 88.9951C230.846 88.626 230.987 88.193 230.987 87.6963V87.6895C230.987 87.1335 230.807 86.6914 230.447 86.3633C230.087 86.0352 229.531 85.7891 228.779 85.625L227.528 85.3584C227.269 85.2992 227.061 85.2331 226.906 85.1602C226.751 85.0872 226.64 85.0007 226.571 84.9004C226.503 84.8001 226.469 84.6839 226.469 84.5518V84.5449C226.469 84.3763 226.519 84.2305 226.619 84.1074C226.724 83.9844 226.865 83.8887 227.043 83.8203C227.221 83.752 227.424 83.7178 227.651 83.7178C228.025 83.7178 228.321 83.7975 228.54 83.957C228.759 84.112 228.896 84.292 228.95 84.4971L228.957 84.5312H230.81V84.5039C230.782 84.0983 230.643 83.7314 230.393 83.4033C230.146 83.0706 229.793 82.8063 229.333 82.6104C228.873 82.4098 228.314 82.3096 227.658 82.3096C227.034 82.3096 226.485 82.4076 226.011 82.6035C225.541 82.7995 225.174 83.0752 224.91 83.4307C224.65 83.7816 224.521 84.194 224.521 84.668V84.6748C224.521 85.0485 224.598 85.3766 224.753 85.6592C224.912 85.9417 225.152 86.181 225.471 86.377C225.79 86.5684 226.188 86.7142 226.667 86.8145L227.925 87.0811C228.308 87.1676 228.581 87.277 228.745 87.4092C228.909 87.5413 228.991 87.7077 228.991 87.9082V87.9219C228.991 88.0859 228.937 88.2295 228.827 88.3525C228.718 88.4756 228.567 88.5736 228.376 88.6465C228.185 88.7148 227.961 88.749 227.706 88.749C227.314 88.749 227.002 88.6738 226.77 88.5234C226.542 88.373 226.387 88.1816 226.305 87.9492L226.291 87.9219H224.329L224.336 87.9492C224.382 88.3776 224.539 88.7581 224.808 89.0908C225.081 89.4235 225.457 89.6855 225.936 89.877C226.419 90.0638 227.002 90.1572 227.686 90.1572ZM235.704 90.0273C235.9 90.0273 236.085 90.0182 236.258 90C236.431 89.9818 236.579 89.9613 236.702 89.9385V88.4551C236.606 88.4642 236.515 88.4733 236.429 88.4824C236.347 88.487 236.242 88.4893 236.114 88.4893C235.777 88.4893 235.531 88.4118 235.376 88.2568C235.226 88.0973 235.15 87.849 235.15 87.5117V83.9775H236.702V82.4736H235.15V80.6758H233.134V82.4736H231.972V83.9775H233.134V87.9697C233.134 88.6989 233.334 89.2253 233.735 89.5488C234.136 89.8678 234.793 90.0273 235.704 90.0273Z" fill="#ED406B"/>
<path d="M95.7771 152H98.2312C98.7639 152 99.2187 151.917 99.5957 151.751C99.9728 151.581 100.262 151.341 100.462 151.03C100.666 150.715 100.768 150.34 100.768 149.904V149.894C100.768 149.565 100.699 149.273 100.561 149.017C100.426 148.757 100.234 148.546 99.9849 148.384C99.7358 148.221 99.4401 148.119 99.0976 148.078V147.995C99.3398 147.95 99.5577 147.849 99.7514 147.694C99.9451 147.538 100.099 147.346 100.213 147.118C100.331 146.889 100.39 146.646 100.39 146.386V146.376C100.39 145.995 100.3 145.667 100.12 145.39C99.9434 145.11 99.6891 144.894 99.3571 144.741C99.0285 144.589 98.6342 144.513 98.1741 144.513H95.7771V145.338H97.977C98.4405 145.338 98.8002 145.444 99.0561 145.655C99.3156 145.862 99.4453 146.156 99.4453 146.537V146.547C99.4453 146.941 99.3017 147.239 99.0146 147.439C98.731 147.64 98.3056 147.74 97.7383 147.74H95.7771V148.545H98.0029C98.4007 148.545 98.7327 148.593 98.9991 148.69C99.2689 148.787 99.4712 148.932 99.6061 149.126C99.741 149.319 99.8085 149.56 99.8085 149.847V149.857C99.8085 150.286 99.6632 150.613 99.3726 150.838C99.0821 151.063 98.6549 151.175 98.0911 151.175H95.7771V152ZM95.3101 152H96.244V144.513H95.3101V152ZM103.715 152.099C103.968 152.099 104.2 152.064 104.411 151.995C104.622 151.922 104.81 151.817 104.976 151.678C105.146 151.54 105.289 151.372 105.407 151.175H105.49V152H106.393V148.171C106.393 147.784 106.309 147.452 106.143 147.175C105.981 146.895 105.74 146.68 105.422 146.531C105.108 146.383 104.722 146.308 104.265 146.308C103.867 146.308 103.513 146.371 103.202 146.495C102.89 146.616 102.636 146.787 102.439 147.009C102.245 147.227 102.124 147.483 102.076 147.777L102.071 147.808H102.973L102.979 147.792C103.051 147.574 103.195 147.407 103.409 147.289C103.624 147.168 103.899 147.107 104.234 147.107C104.653 147.107 104.966 147.199 105.173 147.382C105.384 147.562 105.49 147.825 105.49 148.171V149.914C105.49 150.181 105.421 150.419 105.282 150.63C105.147 150.841 104.961 151.009 104.722 151.134C104.483 151.255 104.21 151.315 103.902 151.315C103.577 151.315 103.307 151.237 103.093 151.082C102.878 150.923 102.771 150.701 102.771 150.418V150.407C102.771 150.13 102.868 149.916 103.062 149.764C103.259 149.612 103.57 149.523 103.995 149.499L105.941 149.375V148.653L103.887 148.778C103.454 148.802 103.086 148.882 102.781 149.017C102.477 149.152 102.245 149.338 102.086 149.577C101.927 149.812 101.847 150.096 101.847 150.428V150.438C101.847 150.777 101.929 151.071 102.091 151.32C102.257 151.569 102.48 151.761 102.761 151.896C103.044 152.031 103.362 152.099 103.715 152.099ZM108.094 152H108.997V144.186H108.094V152ZM112.266 152.099C112.518 152.099 112.75 152.064 112.961 151.995C113.172 151.922 113.36 151.817 113.527 151.678C113.696 151.54 113.84 151.372 113.957 151.175H114.04V152H114.943V148.171C114.943 147.784 114.86 147.452 114.694 147.175C114.531 146.895 114.291 146.68 113.973 146.531C113.658 146.383 113.272 146.308 112.816 146.308C112.418 146.308 112.063 146.371 111.752 146.495C111.441 146.616 111.187 146.787 110.989 147.009C110.796 147.227 110.675 147.483 110.626 147.777L110.621 147.808H111.524L111.529 147.792C111.602 147.574 111.745 147.407 111.96 147.289C112.174 147.168 112.449 147.107 112.785 147.107C113.203 147.107 113.516 147.199 113.724 147.382C113.935 147.562 114.04 147.825 114.04 148.171V149.914C114.04 150.181 113.971 150.419 113.833 150.63C113.698 150.841 113.511 151.009 113.272 151.134C113.034 151.255 112.76 151.315 112.453 151.315C112.127 151.315 111.858 151.237 111.643 151.082C111.429 150.923 111.321 150.701 111.321 150.418V150.407C111.321 150.13 111.418 149.916 111.612 149.764C111.809 149.612 112.12 149.523 112.546 149.499L114.492 149.375V148.653L112.437 148.778C112.005 148.802 111.636 148.882 111.332 149.017C111.027 149.152 110.796 149.338 110.637 149.577C110.477 149.812 110.398 150.096 110.398 150.428V150.438C110.398 150.777 110.479 151.071 110.642 151.32C110.808 151.569 111.031 151.761 111.311 151.896C111.595 152.031 111.913 152.099 112.266 152.099ZM116.593 152H117.496V148.69C117.496 148.361 117.554 148.079 117.672 147.844C117.793 147.609 117.963 147.427 118.18 147.299C118.398 147.171 118.656 147.107 118.954 147.107C119.4 147.107 119.728 147.23 119.939 147.476C120.154 147.718 120.261 148.091 120.261 148.596V152H121.164V148.379C121.164 147.714 120.994 147.204 120.655 146.848C120.32 146.488 119.837 146.308 119.208 146.308C118.796 146.308 118.457 146.391 118.191 146.557C117.925 146.72 117.72 146.95 117.579 147.247H117.496V146.407H116.593V152ZM125.086 152.099C125.536 152.099 125.92 152.024 126.238 151.875C126.556 151.727 126.812 151.523 127.006 151.263C127.2 151 127.335 150.701 127.411 150.366L127.421 150.309L126.529 150.314L126.518 150.345C126.414 150.656 126.243 150.893 126.005 151.056C125.766 151.218 125.458 151.3 125.081 151.3C124.749 151.3 124.46 151.213 124.215 151.04C123.969 150.867 123.779 150.623 123.644 150.309C123.509 149.99 123.442 149.617 123.442 149.188V149.178C123.442 148.756 123.507 148.391 123.639 148.083C123.774 147.771 123.964 147.531 124.209 147.362C124.455 147.192 124.746 147.107 125.081 147.107C125.482 147.107 125.806 147.204 126.051 147.398C126.297 147.592 126.454 147.827 126.523 148.104L126.529 148.119H127.426L127.421 148.088C127.366 147.756 127.239 147.457 127.042 147.19C126.845 146.921 126.582 146.706 126.254 146.547C125.925 146.388 125.534 146.308 125.081 146.308C124.559 146.308 124.106 146.428 123.722 146.666C123.338 146.902 123.04 147.234 122.829 147.663C122.622 148.091 122.518 148.596 122.518 149.178V149.188C122.518 149.779 122.623 150.293 122.834 150.729C123.045 151.165 123.343 151.502 123.727 151.741C124.111 151.979 124.564 152.099 125.086 152.099ZM131.027 152.099C131.356 152.099 131.651 152.057 131.914 151.974C132.18 151.888 132.41 151.773 132.604 151.632C132.798 151.486 132.955 151.326 133.076 151.149C133.201 150.969 133.287 150.784 133.336 150.594L133.346 150.552H132.443L132.423 150.599C132.374 150.71 132.289 150.819 132.168 150.926C132.047 151.033 131.893 151.121 131.707 151.191C131.52 151.26 131.3 151.294 131.048 151.294C130.709 151.294 130.415 151.22 130.166 151.071C129.917 150.919 129.725 150.703 129.59 150.423C129.455 150.139 129.387 149.798 129.387 149.401V149.043C129.387 148.624 129.457 148.271 129.595 147.984C129.733 147.697 129.92 147.481 130.155 147.336C130.394 147.187 130.664 147.113 130.965 147.113C131.266 147.113 131.532 147.183 131.764 147.325C131.995 147.464 132.177 147.675 132.308 147.958C132.44 148.242 132.506 148.603 132.506 149.043V149.401L132.952 148.742H128.931V149.463H133.414V149.11C133.414 148.553 133.315 148.065 133.118 147.647C132.924 147.225 132.644 146.896 132.277 146.661C131.914 146.426 131.478 146.308 130.97 146.308C130.465 146.308 130.024 146.431 129.647 146.677C129.27 146.922 128.977 147.263 128.77 147.699C128.566 148.135 128.464 148.641 128.464 149.219V149.224C128.464 149.809 128.566 150.317 128.77 150.75C128.977 151.179 129.272 151.511 129.652 151.746C130.036 151.981 130.494 152.099 131.027 152.099ZM135.551 152.052C135.738 152.052 135.897 151.986 136.029 151.855C136.16 151.72 136.226 151.561 136.226 151.377C136.226 151.191 136.16 151.032 136.029 150.9C135.897 150.769 135.738 150.703 135.551 150.703C135.368 150.703 135.209 150.769 135.074 150.9C134.942 151.032 134.877 151.191 134.877 151.377C134.877 151.561 134.942 151.72 135.074 151.855C135.209 151.986 135.368 152.052 135.551 152.052ZM135.551 148.036C135.738 148.036 135.897 147.97 136.029 147.839C136.16 147.704 136.226 147.545 136.226 147.362C136.226 147.175 136.16 147.016 136.029 146.884C135.897 146.753 135.738 146.687 135.551 146.687C135.368 146.687 135.209 146.753 135.074 146.884C134.942 147.016 134.877 147.175 134.877 147.362C134.877 147.545 134.942 147.704 135.074 147.839C135.209 147.97 135.368 148.036 135.551 148.036ZM143.495 151.891C143.944 151.891 144.361 151.813 144.745 151.658C145.129 151.502 145.438 151.272 145.674 150.968C145.909 150.66 146.027 150.283 146.027 149.836V149.826C146.027 149.283 145.847 148.861 145.487 148.56C145.127 148.259 144.614 148.029 143.946 147.87L143.173 147.683C142.872 147.611 142.633 147.519 142.457 147.408C142.28 147.298 142.153 147.171 142.073 147.03C141.997 146.888 141.959 146.734 141.959 146.568V146.557C141.959 146.367 142.016 146.187 142.13 146.018C142.248 145.845 142.421 145.705 142.649 145.598C142.877 145.487 143.159 145.432 143.495 145.432C143.778 145.432 144.032 145.48 144.257 145.577C144.482 145.674 144.664 145.814 144.802 145.997C144.944 146.18 145.027 146.403 145.051 146.666V146.677L145.954 146.672V146.666C145.94 146.255 145.821 145.897 145.596 145.592C145.371 145.285 145.075 145.046 144.709 144.876C144.345 144.707 143.941 144.622 143.495 144.622C143.028 144.622 142.611 144.705 142.244 144.871C141.878 145.034 141.587 145.265 141.373 145.566C141.162 145.864 141.056 146.215 141.056 146.62V146.63C141.056 146.969 141.132 147.261 141.284 147.507C141.437 147.752 141.66 147.96 141.954 148.129C142.251 148.296 142.614 148.43 143.043 148.534L143.816 148.721C144.332 148.845 144.678 149.003 144.854 149.193C145.034 149.38 145.124 149.615 145.124 149.899V149.909C145.124 150.124 145.07 150.321 144.963 150.501C144.856 150.677 144.683 150.819 144.444 150.926C144.209 151.03 143.896 151.082 143.505 151.082C143.124 151.082 142.811 151.026 142.566 150.916C142.324 150.801 142.139 150.648 142.011 150.454C141.883 150.26 141.801 150.044 141.767 149.805V149.795L140.864 149.8V149.805C140.881 150.241 141.011 150.615 141.253 150.926C141.499 151.237 141.819 151.476 142.213 151.642C142.607 151.808 143.035 151.891 143.495 151.891ZM143.163 152.752H143.785V143.761H143.163V152.752ZM149.477 152H150.411V144.513H149.482L147.49 145.945V146.931L149.394 145.551H149.477V152ZM152.574 152H157.42V151.159H153.643L153.871 151.315V150.884L153.638 151.315L155.573 149.318C156.026 148.851 156.377 148.458 156.626 148.14C156.875 147.818 157.048 147.526 157.145 147.263C157.246 147 157.296 146.727 157.296 146.443V146.433C157.296 146.028 157.194 145.668 156.99 145.354C156.789 145.039 156.514 144.792 156.165 144.612C155.815 144.428 155.423 144.337 154.987 144.337C154.509 144.337 154.086 144.435 153.716 144.633C153.346 144.826 153.055 145.096 152.844 145.442C152.633 145.784 152.526 146.177 152.522 146.62L152.533 146.625L153.425 146.63L153.43 146.62C153.43 146.326 153.493 146.07 153.617 145.852C153.742 145.63 153.916 145.459 154.141 145.338C154.366 145.214 154.627 145.151 154.925 145.151C155.219 145.151 155.471 145.212 155.682 145.333C155.893 145.454 156.056 145.618 156.17 145.826C156.284 146.033 156.341 146.269 156.341 146.531V146.542C156.341 146.76 156.305 146.96 156.232 147.144C156.159 147.327 156.033 147.533 155.853 147.761C155.673 147.986 155.424 148.271 155.106 148.617L152.574 151.357V152ZM161.493 152.176C162.046 152.176 162.52 152.017 162.915 151.699C163.309 151.381 163.612 150.929 163.823 150.345C164.037 149.757 164.144 149.062 164.144 148.259V148.249C164.144 147.446 164.037 146.753 163.823 146.168C163.612 145.584 163.309 145.132 162.915 144.814C162.52 144.496 162.046 144.337 161.493 144.337C160.94 144.337 160.466 144.496 160.071 144.814C159.681 145.132 159.38 145.584 159.169 146.168C158.958 146.753 158.852 147.446 158.852 148.249V148.259C158.852 149.062 158.958 149.757 159.169 150.345C159.38 150.929 159.681 151.381 160.071 151.699C160.466 152.017 160.94 152.176 161.493 152.176ZM161.493 151.362C161.137 151.362 160.831 151.236 160.575 150.983C160.322 150.731 160.129 150.373 159.994 149.909C159.859 149.446 159.791 148.896 159.791 148.259V148.249C159.791 147.612 159.859 147.064 159.994 146.604C160.129 146.141 160.322 145.784 160.575 145.535C160.831 145.283 161.137 145.157 161.493 145.157C161.853 145.157 162.159 145.283 162.411 145.535C162.667 145.784 162.863 146.141 162.998 146.604C163.136 147.064 163.205 147.612 163.205 148.249V148.259C163.205 148.896 163.136 149.446 162.998 149.909C162.863 150.373 162.667 150.731 162.411 150.983C162.159 151.236 161.853 151.362 161.493 151.362ZM165.042 153.904H165.711L166.526 150.952H165.493L165.042 153.904ZM168.212 152H173.058V151.159H169.281L169.509 151.315V150.884L169.276 151.315L171.211 149.318C171.664 148.851 172.015 148.458 172.264 148.14C172.513 147.818 172.686 147.526 172.783 147.263C172.883 147 172.933 146.727 172.933 146.443V146.433C172.933 146.028 172.831 145.668 172.627 145.354C172.427 145.039 172.152 144.792 171.802 144.612C171.453 144.428 171.06 144.337 170.625 144.337C170.147 144.337 169.724 144.435 169.353 144.633C168.983 144.826 168.693 145.096 168.482 145.442C168.271 145.784 168.164 146.177 168.16 146.62L168.17 146.625L169.063 146.63L169.068 146.62C169.068 146.326 169.13 146.07 169.255 145.852C169.379 145.63 169.554 145.459 169.779 145.338C170.004 145.214 170.265 145.151 170.562 145.151C170.856 145.151 171.109 145.212 171.32 145.333C171.531 145.454 171.693 145.618 171.808 145.826C171.922 146.033 171.979 146.269 171.979 146.531V146.542C171.979 146.76 171.942 146.96 171.87 147.144C171.797 147.327 171.671 147.533 171.491 147.761C171.311 147.986 171.062 148.271 170.744 148.617L168.212 151.357V152ZM174.625 152H179.471V151.159H175.694L175.922 151.315V150.884L175.688 151.315L177.624 149.318C178.077 148.851 178.428 148.458 178.677 148.14C178.926 147.818 179.099 147.526 179.196 147.263C179.296 147 179.346 146.727 179.346 146.443V146.433C179.346 146.028 179.244 145.668 179.04 145.354C178.84 145.039 178.565 144.792 178.215 144.612C177.866 144.428 177.473 144.337 177.037 144.337C176.56 144.337 176.136 144.435 175.766 144.633C175.396 144.826 175.106 145.096 174.895 145.442C174.684 145.784 174.576 146.177 174.573 146.62L174.583 146.625L175.476 146.63L175.481 146.62C175.481 146.326 175.543 146.07 175.668 145.852C175.792 145.63 175.967 145.459 176.192 145.338C176.417 145.214 176.678 145.151 176.975 145.151C177.269 145.151 177.522 145.212 177.733 145.333C177.944 145.454 178.106 145.618 178.22 145.826C178.335 146.033 178.392 146.269 178.392 146.531V146.542C178.392 146.76 178.355 146.96 178.283 147.144C178.21 147.327 178.084 147.533 177.904 147.761C177.724 147.986 177.475 148.271 177.157 148.617L174.625 151.357V152ZM182.869 152H183.803V144.513H182.874L180.882 145.945V146.931L182.786 145.551H182.869V152ZM186.449 152.052C186.636 152.052 186.795 151.986 186.926 151.855C187.058 151.72 187.124 151.561 187.124 151.377C187.124 151.191 187.058 151.032 186.926 150.9C186.795 150.769 186.636 150.703 186.449 150.703C186.266 150.703 186.107 150.769 185.972 150.9C185.84 151.032 185.775 151.191 185.775 151.377C185.775 151.561 185.84 151.72 185.972 151.855C186.107 151.986 186.266 152.052 186.449 152.052ZM188.654 152H193.5V151.159H189.723L189.951 151.315V150.884L189.718 151.315L191.653 149.318C192.106 148.851 192.457 148.458 192.706 148.14C192.955 147.818 193.128 147.526 193.225 147.263C193.325 147 193.376 146.727 193.376 146.443V146.433C193.376 146.028 193.274 145.668 193.069 145.354C192.869 145.039 192.594 144.792 192.245 144.612C191.895 144.428 191.503 144.337 191.067 144.337C190.589 144.337 190.166 144.435 189.796 144.633C189.426 144.826 189.135 145.096 188.924 145.442C188.713 145.784 188.606 146.177 188.602 146.62L188.613 146.625L189.505 146.63L189.51 146.62C189.51 146.326 189.573 146.07 189.697 145.852C189.822 145.63 189.996 145.459 190.221 145.338C190.446 145.214 190.707 145.151 191.005 145.151C191.299 145.151 191.551 145.212 191.762 145.333C191.973 145.454 192.136 145.618 192.25 145.826C192.364 146.033 192.421 146.269 192.421 146.531V146.542C192.421 146.76 192.385 146.96 192.312 147.144C192.239 147.327 192.113 147.533 191.933 147.761C191.753 147.986 191.504 148.271 191.186 148.617L188.654 151.357V152ZM195.067 152H199.913V151.159H196.136L196.364 151.315V150.884L196.131 151.315L198.066 149.318C198.519 148.851 198.87 148.458 199.119 148.14C199.368 147.818 199.541 147.526 199.638 147.263C199.738 147 199.788 146.727 199.788 146.443V146.433C199.788 146.028 199.686 145.668 199.482 145.354C199.282 145.039 199.007 144.792 198.657 144.612C198.308 144.428 197.915 144.337 197.48 144.337C197.002 144.337 196.579 144.435 196.208 144.633C195.838 144.826 195.548 145.096 195.337 145.442C195.126 145.784 195.019 146.177 195.015 146.62L195.026 146.625L195.918 146.63L195.923 146.62C195.923 146.326 195.985 146.07 196.11 145.852C196.234 145.63 196.409 145.459 196.634 145.338C196.859 145.214 197.12 145.151 197.417 145.151C197.711 145.151 197.964 145.212 198.175 145.333C198.386 145.454 198.548 145.618 198.663 145.826C198.777 146.033 198.834 146.269 198.834 146.531V146.542C198.834 146.76 198.797 146.96 198.725 147.144C198.652 147.327 198.526 147.533 198.346 147.761C198.166 147.986 197.917 148.271 197.599 148.617L195.067 151.357V152Z" fill="#8891A3"/>
<circle cx="146" cy="56" r="12" fill="#ED406B"/>
<rect x="140" y="55" width="13" height="2" fill="white"/>
</svg>
