<svg width="24" height="24" viewBox="0 0 24 24" fill="none" xmlns="http://www.w3.org/2000/svg">
<g clip-path="url(#clip0_292_8333)">
<path d="M22.8003 17.2243C23.5935 15.5957 24.0038 13.8071 24 11.9954C23.9964 9.35114 23.122 6.78174 21.5122 4.68474C19.9024 2.58774 17.6468 1.08002 15.0944 0.394844H15.0367C13.1651 -0.0982021 11.202 -0.129978 9.31551 0.302237C7.429 0.734452 5.6753 1.61778 4.2046 2.87656L4.05464 3.01507C2.2285 4.62774 0.936711 6.75884 0.351325 9.12454C-0.234062 11.4902 -0.0852632 13.9782 0.777902 16.2572C1.64107 18.5361 3.17763 20.4979 5.18295 21.8811C7.18826 23.2644 9.56715 24.0035 12.0028 24H12.2796C14.458 23.9461 16.5809 23.3013 18.4217 22.1344C20.2624 20.9675 21.7519 19.3223 22.731 17.3744L22.8003 17.2243ZM22.1543 11.9954C22.1521 13.2047 21.9374 14.4042 21.5198 15.5391L16.1672 12.2494C15.9474 12.1085 15.6992 12.0179 15.4404 11.9839L12.8103 11.6376C12.4724 11.5939 12.1291 11.644 11.8178 11.7824C11.5065 11.9209 11.2393 12.1423 11.0453 12.4225H10.0532L9.61488 11.5106C9.49207 11.2588 9.31428 11.0378 9.09464 10.864C8.875 10.6902 8.61913 10.5679 8.34594 10.5064L7.58458 10.3448L7.88451 9.66376C7.95178 9.49569 8.06811 9.35182 8.21834 9.25092C8.36856 9.15003 8.5457 9.09679 8.72662 9.09816H10.5839C10.8946 9.09677 11.2 9.01739 11.4721 8.8673L12.8795 8.08239C13.0037 8.01502 13.1198 7.93369 13.2256 7.83999L16.3287 5.02353C16.5988 4.78655 16.7924 4.47454 16.8848 4.12718C16.9773 3.77982 16.9644 3.4128 16.8478 3.07279C18.4526 3.94493 19.7926 5.23409 20.7265 6.80442C21.6604 8.37474 22.1536 10.1681 22.1543 11.9954ZM1.85131 11.9954C1.84867 10.4026 2.22429 8.83198 2.9472 7.4129L4.14692 10.6334C4.25664 10.9218 4.43642 11.1784 4.67005 11.3799C4.90367 11.5814 5.18378 11.7216 5.48507 11.7876L6.11954 11.9262H6.13108L7.51537 12.2263C7.65239 12.254 7.78106 12.3133 7.8912 12.3995C8.00133 12.4856 8.08988 12.5963 8.14983 12.7226L8.39209 13.2305C8.54472 13.5413 8.78114 13.8033 9.07465 13.9869C9.36817 14.1704 9.70711 14.2683 10.0532 14.2694H10.1917L9.30341 16.2547C9.1563 16.5847 9.10851 16.9504 9.16588 17.3071C9.22324 17.6638 9.38328 17.9961 9.62641 18.2632L11.4837 20.2716C11.5793 20.3786 11.6497 20.5057 11.6896 20.6436C11.7295 20.7815 11.738 20.9265 11.7144 21.0681L11.5067 22.1416C8.90426 22.0114 6.45119 20.8859 4.65429 18.9977C2.8574 17.1095 1.85397 14.6027 1.85131 11.9954Z" fill="#4C63ED"/>
</g>
<defs>
<clipPath id="clip0_292_8333">
<rect width="24" height="24" fill="white"/>
</clipPath>
</defs>
</svg>
