<svg width="24" height="24" viewBox="0 0 24 24" fill="none" xmlns="http://www.w3.org/2000/svg">
<path d="M5.6 24C4.6 24 3.75 23.65 3.05 22.95C2.35 22.25 2 21.4 2 20.4L2 20H5V0L6.4 1.8L8.2 0L10 1.8L11.8 0L13.6 1.8L15.4 0L17.2 1.8L19.3 0L20.6 1.8L22.4 0V20.4C22.4 21.4 22.05 22.25 21.35 22.95C21 23.3 20.3 24 19.3 24H5.6ZM19 21.5C19 21.5 19.4252 21.4848 19.6556 21.2544C19.886 21.024 20.0008 20.7392 20 20.4V3H7V20H18V20.4C18 20.74 18.1152 21.0252 18.3456 21.2556C18.576 21.486 19 21.5 19 21.5Z" fill="#4C63ED"/>
<path d="M13.5 10.5714L13.5 5L9 12.4286H13.5L13.5 18L18 10.5716L13.5 10.5714Z" fill="#4C63ED"/>
</svg>
