<svg width="112" height="36" viewBox="0 0 112 36" fill="none" xmlns="http://www.w3.org/2000/svg">
<path d="M3.36951 27.9934C4.84328 30.0434 6.7338 31.7587 8.91706 33.0268C11.1003 34.2951 13.5271 35.0874 16.038 35.352C14.7462 33.408 12.8683 31.6195 10.524 30.2578C8.17981 28.8962 5.69711 28.1524 3.36951 27.9934Z" fill="url(#paint0_linear_740_8726)"/>
<path d="M13.6744 24.836C9.15784 22.2121 4.26948 21.5434 0.771606 22.7247C1.10927 23.8406 1.55464 24.9212 2.10133 25.9511C5.14031 25.8807 8.45839 26.7061 11.5459 28.4993C14.6333 30.2926 16.9948 32.7675 18.4398 35.4429C19.6058 35.4071 20.7658 35.2586 21.9032 34.9994C21.1962 31.3764 18.1896 27.4606 13.6744 24.836Z" fill="url(#paint1_linear_740_8726)"/>
<path d="M35.1969 14.1853C34.6227 11.8496 33.5837 9.65361 32.1419 7.72837C30.7001 5.80313 28.8852 4.18815 26.8054 2.97988C24.7258 1.77162 22.4239 0.994839 20.0373 0.695919C17.6507 0.396998 15.2283 0.582071 12.9148 1.24009C16.7797 1.71308 21.0698 3.16399 25.2771 5.60819C29.4844 8.05238 32.8728 11.06 35.1969 14.1853Z" fill="url(#paint2_linear_740_8726)"/>
<path d="M29.5735 22.7511C27.5952 19.4656 24.2062 16.3197 20.0315 13.8944C15.8567 11.4691 11.446 10.0838 7.61541 9.99219C4.24531 9.91238 1.71594 10.8921 0.677799 12.6794C0.671839 12.69 0.663558 12.7001 0.657017 12.7107C0.563697 13.046 0.483172 13.3818 0.409912 13.7188C1.8597 13.1465 3.5393 12.8278 5.40714 12.7923C9.56058 12.7143 14.209 14.0428 18.4983 16.5349C22.7878 19.0269 26.2471 22.4082 28.2361 26.0539C29.1277 27.6963 29.6841 29.3134 29.9046 30.8583C30.1612 30.6289 30.4131 30.3918 30.6573 30.1453C30.6638 30.1341 30.6679 30.1222 30.6744 30.1104C31.7126 28.3214 31.3113 25.6394 29.5735 22.7511Z" fill="url(#paint3_linear_740_8726)"/>
<path d="M16.8552 19.361C10.4621 15.6468 3.39729 15.065 0 17.657C0.00668643 18.4683 0.0687551 19.2783 0.185622 20.0811C1.18495 19.7782 2.21495 19.5874 3.25657 19.5123C7.05287 19.2268 11.2383 20.2844 15.0365 22.4921C18.8347 24.7 21.8287 27.8134 23.4617 31.2503C23.913 32.1918 24.2573 33.1811 24.488 34.1993C25.2436 33.9032 25.9782 33.5561 26.6869 33.1606C27.2556 28.9249 23.25 23.0757 16.8552 19.361Z" fill="url(#paint4_linear_740_8726)"/>
<path d="M32.862 17.2524C30.8612 13.9703 27.4427 10.8155 23.2384 8.37422C19.034 5.93297 14.6062 4.52583 10.7631 4.4129C7.83354 4.32835 5.56436 5.03843 4.3877 6.37996C9.27315 5.55222 15.7171 6.94341 21.963 10.5719C28.2088 14.2003 32.6113 19.11 34.3105 23.7636C34.8929 22.0781 34.3862 19.755 32.862 17.2524Z" fill="url(#paint5_linear_740_8726)"/>
<path d="M50.8731 10.2699H53.8558V20.2209C53.8558 21.1407 53.6479 21.9397 53.2351 22.618C52.8267 23.2963 52.2569 23.8189 51.5272 24.1859C50.7989 24.553 49.95 24.7364 48.9849 24.7364C48.1244 24.7364 47.3438 24.5855 46.6432 24.2835C45.9454 23.9769 45.3931 23.5123 44.9846 22.8898C44.5762 22.2627 44.3741 21.4752 44.3785 20.5274H47.3816C47.3903 20.9038 47.4673 21.2266 47.6112 21.4961C47.7595 21.7609 47.9616 21.9653 48.2174 22.1094C48.4776 22.2488 48.7843 22.3184 49.1375 22.3184C49.5096 22.3184 49.8221 22.2395 50.078 22.0815C50.3381 21.9188 50.5358 21.6819 50.671 21.3707C50.8047 21.0594 50.8731 20.6761 50.8731 20.2209V10.2699ZM63.1586 19.9839V13.8377H66.1268V24.5413H63.2764V22.5972H63.1645C62.9232 23.2242 62.522 23.7283 61.9594 24.1093C61.4027 24.4902 60.721 24.6807 59.9172 24.6807C59.202 24.6807 58.5726 24.5181 58.029 24.1929C57.4854 23.8677 57.0609 23.4055 56.7542 22.8062C56.4519 22.2069 56.2992 21.4891 56.2949 20.6529V13.8377H59.2631V20.1233C59.2674 20.7551 59.4375 21.2545 59.7718 21.6215C60.1061 21.9886 60.5538 22.172 61.1164 22.172C61.474 22.172 61.8083 22.0908 62.1193 21.9281C62.4304 21.7609 62.6819 21.5147 62.8723 21.1895C63.0671 20.8642 63.163 20.4625 63.1586 19.9839ZM68.5005 28.5552V13.8377H71.428V15.6356H71.5603C71.6911 15.3476 71.8786 15.0549 72.1243 14.7576C72.3757 14.4556 72.7013 14.2048 73.1011 14.005C73.5052 13.8006 74.0067 13.6984 74.6055 13.6984C75.3861 13.6984 76.1056 13.9028 76.7655 14.3116C77.4255 14.7158 77.9531 15.3267 78.347 16.1443C78.7424 16.9573 78.9401 17.977 78.9401 19.2035C78.9401 20.3973 78.7468 21.4055 78.3616 22.2278C77.9807 23.0455 77.4603 23.6657 76.8004 24.0884C76.1463 24.5064 75.4123 24.7156 74.5983 24.7156C74.0226 24.7156 73.5328 24.6203 73.1287 24.4298C72.729 24.2394 72.4019 24.0002 72.1461 23.7121C71.8903 23.4195 71.6955 23.1244 71.5603 22.8271H71.4702V28.5552H68.5005ZM71.4077 19.1896C71.4077 19.8259 71.4949 20.3812 71.6722 20.8551C71.8481 21.3289 72.1039 21.6981 72.4382 21.963C72.7726 22.2232 73.1796 22.3533 73.6578 22.3533C74.1404 22.3533 74.5503 22.2208 74.8846 21.956C75.2189 21.6865 75.4719 21.315 75.6434 20.8411C75.8207 20.3626 75.9094 19.812 75.9094 19.1896C75.9094 18.5717 75.8222 18.0282 75.6506 17.559C75.4791 17.0897 75.2262 16.7227 74.8919 16.4579C74.5561 16.193 74.1462 16.0608 73.6578 16.0608C73.1752 16.0608 72.7653 16.1885 72.431 16.4439C72.101 16.6995 71.8481 17.0618 71.6722 17.531C71.4949 18.0003 71.4077 18.553 71.4077 19.1896ZM80.9184 24.5413V13.8377H83.888V24.5413H80.9184ZM82.4098 12.458C81.9693 12.458 81.5899 12.3117 81.2745 12.019C80.9634 11.7217 80.8079 11.3663 80.8079 10.9528C80.8079 10.544 80.9634 10.1933 81.2745 9.90057C81.5899 9.60325 81.9693 9.45459 82.4098 9.45459C82.8516 9.45459 83.2281 9.60325 83.5392 9.90057C83.8546 10.1933 84.013 10.544 84.013 10.9528C84.013 11.3663 83.8546 11.7217 83.5392 12.019C83.2281 12.3117 82.8516 12.458 82.4098 12.458ZM91.9583 13.8378V16.0677H85.5131V13.8377L91.9583 13.8378ZM86.9769 11.2734H89.9451V21.2522C89.9451 21.5263 89.9872 21.74 90.0701 21.8934C90.1544 22.0419 90.2707 22.1466 90.4189 22.2069C90.5716 22.2672 90.7489 22.2975 90.948 22.2975C91.0876 22.2975 91.2271 22.2858 91.3666 22.2627C91.5062 22.2348 91.6123 22.2139 91.6864 22.1999L92.1545 24.4089C92.0048 24.4554 91.7969 24.5088 91.5265 24.5692C91.2576 24.6342 90.9291 24.6738 90.5439 24.6877C89.8288 24.7156 89.2023 24.6203 88.663 24.4019C88.1281 24.1836 87.7124 23.8445 87.4159 23.3846C87.1179 22.9247 86.9711 22.344 86.9769 21.6425V11.2734ZM98.6549 24.7504C97.5545 24.7504 96.6068 24.5274 95.8117 24.0814C95.0224 23.6308 94.4133 22.9943 93.986 22.172C93.5586 21.3451 93.345 20.3673 93.345 19.2383C93.345 18.1373 93.5586 17.171 93.986 16.3394C94.4133 15.5078 95.0151 14.8598 95.7913 14.3952C96.5719 13.9307 97.4877 13.6984 98.5371 13.6984C99.2436 13.6984 99.9006 13.8122 100.51 14.0398C101.123 14.2628 101.657 14.5996 102.111 15.0503C102.572 15.5008 102.93 16.0677 103.186 16.7506C103.44 17.4289 103.568 18.2232 103.568 19.1338V19.9491H94.5296V18.1094H100.774C100.774 17.6821 100.681 17.3034 100.495 16.9736C100.309 16.6438 100.052 16.3859 99.7218 16.2C99.3962 16.0096 99.0183 15.9144 98.5866 15.9144C98.1359 15.9144 97.7362 16.0189 97.3874 16.2279C97.0429 16.4323 96.774 16.7088 96.5792 17.0572C96.3844 17.4009 96.2841 17.7843 96.2797 18.207V19.956C96.2797 20.4857 96.3771 20.9433 96.5719 21.3289C96.771 21.7144 97.053 22.0118 97.415 22.2208C97.7769 22.4299 98.2072 22.5344 98.7043 22.5344C99.0342 22.5344 99.3366 22.488 99.6099 22.395C99.8846 22.3021 100.119 22.1627 100.313 21.9769C100.51 21.7912 100.658 21.5635 100.76 21.2941L103.505 21.4752C103.366 22.1349 103.081 22.711 102.648 23.2033C102.22 23.6911 101.668 24.0721 100.989 24.3463C100.316 24.6156 99.5386 24.7504 98.6549 24.7504ZM105.506 24.5413V13.8378H108.384V15.7054H108.496C108.69 15.041 109.017 14.5392 109.478 14.2001C109.937 13.8563 110.467 13.6845 111.067 13.6845C111.215 13.6845 111.375 13.6937 111.547 13.7123C111.72 13.7309 111.871 13.7565 112 13.789V16.4231C111.861 16.3813 111.669 16.3441 111.422 16.3115C111.176 16.2791 110.951 16.2628 110.746 16.2628C110.31 16.2628 109.919 16.358 109.576 16.5484C109.235 16.7343 108.967 16.9945 108.767 17.329C108.571 17.6635 108.474 18.0491 108.474 18.4857V24.5413H105.506Z" fill="#111726"/>
<defs>
<linearGradient id="paint0_linear_740_8726" x1="23.4388" y1="7.6434" x2="7.26784" y2="35.443" gradientUnits="userSpaceOnUse">
<stop offset="0.0001" stop-color="#A4D756"/>
<stop offset="1" stop-color="#00B6E7"/>
</linearGradient>
<linearGradient id="paint1_linear_740_8726" x1="23.439" y1="7.64334" x2="7.26805" y2="35.4429" gradientUnits="userSpaceOnUse">
<stop offset="0.0001" stop-color="#A4D756"/>
<stop offset="1" stop-color="#00B6E7"/>
</linearGradient>
<linearGradient id="paint2_linear_740_8726" x1="23.4391" y1="7.64329" x2="7.26811" y2="35.4429" gradientUnits="userSpaceOnUse">
<stop offset="0.0001" stop-color="#A4D756"/>
<stop offset="1" stop-color="#00B6E7"/>
</linearGradient>
<linearGradient id="paint3_linear_740_8726" x1="23.439" y1="7.64315" x2="7.26801" y2="35.4427" gradientUnits="userSpaceOnUse">
<stop offset="0.0001" stop-color="#A4D756"/>
<stop offset="1" stop-color="#00B6E7"/>
</linearGradient>
<linearGradient id="paint4_linear_740_8726" x1="23.4388" y1="7.64316" x2="7.26785" y2="35.4427" gradientUnits="userSpaceOnUse">
<stop offset="0.0001" stop-color="#A4D756"/>
<stop offset="1" stop-color="#00B6E7"/>
</linearGradient>
<linearGradient id="paint5_linear_740_8726" x1="23.4391" y1="7.64338" x2="7.26809" y2="35.4429" gradientUnits="userSpaceOnUse">
<stop offset="0.0001" stop-color="#A4D756"/>
<stop offset="1" stop-color="#00B6E7"/>
</linearGradient>
</defs>
</svg>
