<svg width="24" height="24" viewBox="0 0 24 24" fill="none" xmlns="http://www.w3.org/2000/svg">
<g clip-path="url(#clip0_292_8334)">
<circle cx="12" cy="12" r="11" stroke="#4C63ED" stroke-width="2"/>
<path fill-rule="evenodd" clip-rule="evenodd" d="M11.9999 15.0932C11.9769 15.062 11.9537 15.0309 11.9303 15H12.0696C12.0462 15.0309 12.023 15.062 11.9999 15.0932ZM11.9999 16.9999L11.1055 17.4471C10.3368 15.9097 9.09017 14.663 7.55273 13.8943L8.44716 12.1055C9.39593 12.5799 10.2562 13.1996 11 13.9368L11 1H13L13 13.9367C13.7437 13.1996 14.604 12.5798 15.5527 12.1055L16.4472 13.8943C14.9097 14.663 13.6631 15.9097 12.8944 17.4471L11.9999 16.9999Z" fill="#4C63ED"/>
</g>
<defs>
<clipPath id="clip0_292_8334">
<rect width="24" height="24" fill="white"/>
</clipPath>
</defs>
</svg>
