<svg width="68" height="68" viewBox="0 0 68 68" fill="none" xmlns="http://www.w3.org/2000/svg">
<rect x="38" y="38" width="30" height="30" rx="5.32406" fill="url(#paint0_linear_180_8413)"/>
<g clip-path="url(#clip0_180_8413)">
<path d="M46.2559 57.1299C46.3766 57.0091 46.5426 56.9387 46.7187 56.9387H62.6855C62.9772 56.9387 63.1231 57.2909 62.9169 57.4971L59.7628 60.6512C59.642 60.772 59.476 60.8424 59.3 60.8424H43.3332C43.0414 60.8424 42.8955 60.4902 43.1018 60.284L46.2559 57.1299Z" fill="white"/>
<path d="M46.2563 45.3532C46.382 45.2325 46.548 45.162 46.7191 45.162H62.6858C62.9776 45.162 63.1235 45.5142 62.9172 45.7204L59.7631 48.8745C59.6424 48.9953 59.4764 49.0657 59.3003 49.0657H43.3335C43.0418 49.0657 42.8959 48.7136 43.1021 48.5073L46.2563 45.3532Z" fill="white"/>
<path d="M59.7628 51.2037C59.642 51.0829 59.476 51.0125 59.3 51.0125H43.3332C43.0414 51.0125 42.8955 51.3646 43.1018 51.5709L46.2559 54.725C46.3766 54.8457 46.5426 54.9162 46.7187 54.9162H62.6855C62.9772 54.9162 63.1231 54.564 62.9169 54.3578L59.7628 51.2037Z" fill="white"/>
</g>
<rect x="38.6655" y="38.6655" width="28.669" height="28.669" rx="4.65855" stroke="white" stroke-opacity="0.24" stroke-width="1.33102"/>
<rect y="38" width="30" height="30" rx="5.32406" fill="#F3BA2F"/>
<path d="M11.1161 51.4036L15.0001 47.5196L18.8861 51.4056L21.1461 49.1456L15.0001 42.9996L8.85612 49.1436L11.1161 51.4036ZM5.00012 52.9996L7.26012 50.7396L9.52012 52.9996L7.26012 55.2596L5.00012 52.9996ZM11.1161 54.5956L15.0001 58.4796L18.8861 54.5936L21.1461 56.8526L15.0001 62.9996L8.85612 56.8556L8.85312 56.8526L11.1161 54.5956ZM20.4801 52.9996L22.7401 50.7396L25.0001 52.9996L22.7401 55.2596L20.4801 52.9996ZM17.2921 52.9976H17.2941V52.9996L15.0001 55.2936L12.7091 53.0036L12.7051 52.9996L12.7091 52.9966L13.1101 52.5946L13.3051 52.3996L15.0001 50.7056L17.2931 52.9986L17.2921 52.9976Z" fill="white"/>
<rect x="0.665508" y="38.6655" width="28.669" height="28.669" rx="4.65855" stroke="black" stroke-opacity="0.12" stroke-width="1.33102"/>
<rect x="38" width="30" height="30" rx="5.32406" fill="#627EEA"/>
<path d="M52.9995 4.99957V12.3928L59.2483 15.1851L52.9995 4.99957Z" fill="white" fill-opacity="0.602"/>
<path d="M52.9997 4.99957L46.7501 15.1851L52.9997 12.3928V4.99957Z" fill="white"/>
<path d="M52.9995 19.9758V24.9995L59.2525 16.3484L52.9995 19.9758Z" fill="white" fill-opacity="0.602"/>
<path d="M52.9997 24.9995V19.9751L46.7501 16.3484L52.9997 24.9995Z" fill="white"/>
<path d="M52.9995 18.8141L59.2483 15.1858L52.9995 12.3952V18.8141Z" fill="white" fill-opacity="0.2"/>
<path d="M46.7501 15.1858L52.9997 18.8141V12.3952L46.7501 15.1858Z" fill="white" fill-opacity="0.602"/>
<rect x="38.6655" y="0.665508" width="28.669" height="28.669" rx="4.65855" stroke="black" stroke-opacity="0.12" stroke-width="1.33102"/>
<rect width="30" height="30" rx="5.32406" fill="#854CE6"/>
<path d="M19.9156 23.6244L20.0431 23.5727L22.1802 22.3301L24.3851 21.0506C24.5027 20.9864 24.6091 20.9041 24.6999 20.8064C24.8612 20.6367 24.9658 20.4226 24.9999 20.1926C24.9999 20.0889 24.9999 15.0149 24.9999 14.9041C24.9592 14.6489 24.8417 14.4119 24.6624 14.2236C24.4947 14.0673 24.3053 13.9353 24.1001 13.8316L20.0881 11.5165C19.9197 11.4411 19.7368 11.4021 19.5518 11.4021C19.3669 11.4021 19.1842 11.4411 19.0157 11.5165C18.9482 11.5165 18.4907 11.8049 17.4783 12.3892L15.0187 13.8168L12.5889 15.2221C11.8391 15.6807 11.1417 16.0653 11.0892 16.0801C10.9197 16.1651 10.7319 16.2081 10.5418 16.2058C10.3535 16.2062 10.1672 16.1686 9.99431 16.0949C9.91183 16.0949 7.6696 14.7709 7.54961 14.6822C7.4322 14.5941 7.32859 14.4894 7.24215 14.3716C7.14619 14.2271 7.0776 14.0667 7.03968 13.8981C7.01289 13.4053 7.01289 12.9116 7.03968 12.4188C6.97936 11.8446 6.99701 11.265 7.09218 10.6955C7.14146 10.5564 7.20956 10.4245 7.29465 10.3034C7.37976 10.1887 7.48366 10.0887 7.60211 10.0076C7.6921 9.9484 9.85183 8.68362 9.91931 8.63185C10.0934 8.55285 10.2827 8.51195 10.4742 8.51195C10.6658 8.51195 10.8552 8.55285 11.0292 8.63185C11.1042 8.66883 13.2789 9.93361 13.4438 10.0298C13.6027 10.1361 13.7338 10.278 13.8263 10.444C13.8866 10.5457 13.9321 10.6552 13.9613 10.7694V10.8804V11.8049C13.9613 12.3153 13.9613 12.7368 13.9613 12.7368L14.9587 12.1673L15.9411 11.5978V10.6733C15.9411 9.64516 15.9411 9.68213 15.8736 9.47502C15.7824 9.22608 15.6212 9.008 15.4087 8.84635C15.3337 8.79457 11.2541 6.4277 11.0592 6.32415L10.9017 6.25018H10.8342H10.0843L9.97181 6.29456C9.88933 6.33153 9.3119 6.657 7.7221 7.57416C6.54475 8.25463 5.55486 8.83155 5.51738 8.86113C5.38205 8.95412 5.26666 9.07253 5.17786 9.20962C5.08908 9.34671 5.02861 9.49973 4.99994 9.65995C4.99994 9.76348 4.99994 9.84486 4.99994 12.3744C4.99994 14.9041 4.99994 14.9928 4.99994 15.0889C5.02878 15.2532 5.09268 15.4094 5.18741 15.5476C5.28508 15.6857 5.404 15.8079 5.53986 15.9099C5.63736 15.9691 9.79934 18.3878 9.90433 18.4396C10.0838 18.5227 10.2797 18.5657 10.478 18.5657C10.6763 18.5657 10.8722 18.5227 11.0517 18.4396L12.5514 17.5593C13.7738 16.8197 14.1562 16.6201 14.9737 16.1688C15.7911 15.7177 16.0161 15.5919 17.4033 14.7561L18.9032 13.8463C19.2176 13.7041 19.5762 13.6908 19.9006 13.8094C19.9531 13.8224 20.0034 13.8423 20.0506 13.8686C20.1406 13.9129 22.3977 15.2738 22.4652 15.3478C22.7214 15.5482 22.8927 15.8357 22.9452 16.1541C22.9452 16.2871 22.9452 19.0461 22.9452 19.1792C22.8919 19.5067 22.7118 19.8011 22.4427 20.0002C22.3677 20.0519 20.1931 21.3389 20.0206 21.4129C19.8494 21.4882 19.6642 21.5271 19.4768 21.5271C19.2896 21.5271 19.1042 21.4882 18.9332 21.4129C18.8732 21.4129 18.4382 21.1319 17.6958 20.6733L16.4886 19.9337C16.2732 19.7714 16.1116 19.5502 16.0236 19.2976C15.9636 19.1126 15.9636 19.1644 15.9561 18.1289V17.1822L14.9737 17.7517L13.9913 18.3212V19.2753C13.9913 20.3108 13.9913 20.3034 14.0438 20.4809C14.0864 20.6108 14.1497 20.7332 14.2312 20.8434C14.3157 20.9562 14.4168 21.0559 14.5312 21.1393C14.5987 21.1911 18.7457 23.6171 18.8432 23.6688C18.9407 23.7207 18.9932 23.7502 19.4057 23.7502H19.7732L19.9156 23.6244Z" fill="white"/>
<rect x="0.665508" y="0.665508" width="28.669" height="28.669" rx="4.65855" stroke="black" stroke-opacity="0.12" stroke-width="1.33102"/>
<defs>
<linearGradient id="paint0_linear_180_8413" x1="61.5758" y1="-31.1964" x2="-6.29996" y2="-5.83127" gradientUnits="userSpaceOnUse">
<stop stop-color="#00FFA3"/>
<stop offset="1" stop-color="#DC1FFF"/>
</linearGradient>
<clipPath id="clip0_180_8413">
<rect width="20.0063" height="15.68" fill="white" transform="translate(43.0061 45.162)"/>
</clipPath>
</defs>
</svg>
