<svg width="182" height="68" viewBox="0 0 182 68" fill="none" xmlns="http://www.w3.org/2000/svg">
<g clip-path="url(#clip0_283_22428)">
<path d="M129 30C137.284 30 144 23.2843 144 15C144 6.71572 137.284 0 129 0C120.716 0 114 6.71572 114 15C114 23.2843 120.716 30 129 30Z" fill="#854CE6"/>
<path d="M143.5 15C143.5 23.0081 137.008 29.5 129 29.5C120.992 29.5 114.5 23.0081 114.5 15C114.5 6.99187 120.992 0.5 129 0.5C137.008 0.5 143.5 6.99187 143.5 15Z" stroke="black" stroke-opacity="0.12"/>
<path d="M133.916 23.6243L134.043 23.5725L136.18 22.3299L138.385 21.0504C138.503 20.9862 138.609 20.9039 138.7 20.8063C138.861 20.6365 138.966 20.4224 139 20.1924C139 20.0887 139 15.0148 139 14.9039C138.959 14.6488 138.842 14.4118 138.662 14.2234C138.495 14.0671 138.305 13.9351 138.1 13.8314L134.088 11.5163C133.92 11.4409 133.737 11.4019 133.552 11.4019C133.367 11.4019 133.184 11.4409 133.016 11.5163C132.948 11.5163 132.491 11.8047 131.478 12.389L129.019 13.8166L126.589 15.2219C125.839 15.6805 125.142 16.0651 125.089 16.0799C124.92 16.1649 124.732 16.2079 124.542 16.2056C124.354 16.206 124.167 16.1684 123.994 16.0948C123.912 16.0948 121.67 14.7708 121.55 14.682C121.432 14.5939 121.329 14.4893 121.242 14.3714C121.146 14.2269 121.078 14.0665 121.04 13.8979C121.013 13.4051 121.013 12.9114 121.04 12.4186C120.979 11.8444 120.997 11.2649 121.092 10.6953C121.142 10.5562 121.21 10.4243 121.295 10.3033C121.38 10.1885 121.484 10.0885 121.602 10.0074C121.692 9.94821 123.852 8.68344 123.919 8.63166C124.093 8.55266 124.283 8.51176 124.474 8.51176C124.666 8.51176 124.855 8.55266 125.029 8.63166C125.104 8.66865 127.279 9.93343 127.444 10.0296C127.603 10.1359 127.734 10.2778 127.826 10.4438C127.887 10.5455 127.932 10.655 127.961 10.7692V10.8802V11.8047C127.961 12.3151 127.961 12.7366 127.961 12.7366L128.959 12.1672L129.941 11.5976V10.6731C129.941 9.64498 129.941 9.68195 129.874 9.47484C129.783 9.2259 129.621 9.00781 129.409 8.84616C129.334 8.79439 125.254 6.42751 125.059 6.32396L124.902 6.25H124.834H124.084L123.972 6.29438C123.889 6.33135 123.312 6.65681 121.722 7.57397C120.545 8.25445 119.555 8.83136 119.517 8.86095C119.382 8.95394 119.267 9.07235 119.178 9.20944C119.089 9.34652 119.029 9.49955 119 9.65976C119 9.7633 119 9.84468 119 12.3743C119 14.9039 119 14.9926 119 15.0887C119.029 15.253 119.093 15.4092 119.187 15.5474C119.285 15.6855 119.404 15.8078 119.54 15.9097C119.637 15.9689 123.799 18.3876 123.904 18.4394C124.084 18.5225 124.28 18.5655 124.478 18.5655C124.676 18.5655 124.872 18.5225 125.052 18.4394L126.551 17.5591C127.774 16.8195 128.156 16.6199 128.974 16.1686C129.791 15.7175 130.016 15.5918 131.403 14.7559L132.903 13.8461C133.218 13.7039 133.576 13.6906 133.901 13.8093C133.953 13.8223 134.004 13.8421 134.051 13.8684C134.141 13.9127 136.398 15.2736 136.465 15.3476C136.722 15.548 136.893 15.8355 136.945 16.1539C136.945 16.2869 136.945 19.0459 136.945 19.179C136.892 19.5065 136.712 19.8009 136.443 20C136.368 20.0518 134.193 21.3387 134.021 21.4127C133.85 21.488 133.664 21.5269 133.477 21.5269C133.29 21.5269 133.104 21.488 132.933 21.4127C132.873 21.4127 132.438 21.1318 131.696 20.6731L130.489 19.9335C130.273 19.7713 130.112 19.55 130.024 19.2974C129.964 19.1124 129.964 19.1643 129.956 18.1287V17.182L128.974 17.7515L127.991 18.321V19.2751C127.991 20.3106 127.991 20.3032 128.044 20.4807C128.087 20.6106 128.15 20.733 128.231 20.8433C128.316 20.956 128.417 21.0558 128.531 21.1391C128.599 21.1909 132.746 23.6169 132.843 23.6686C132.941 23.7205 132.993 23.75 133.406 23.75H133.773L133.916 23.6243Z" fill="white"/>
</g>
<g clip-path="url(#clip1_283_22428)">
<path d="M167 30C175.284 30 182 23.2843 182 15C182 6.71572 175.284 0 167 0C158.716 0 152 6.71572 152 15C152 23.2843 158.716 30 167 30Z" fill="#627EEA"/>
<path d="M181.375 15C181.375 22.9391 174.939 29.375 167 29.375C159.061 29.375 152.625 22.9391 152.625 15C152.625 7.06091 159.061 0.625 167 0.625C174.939 0.625 181.375 7.06091 181.375 15Z" stroke="black" stroke-opacity="0.097"/>
<path d="M167 5V12.3932L173.248 15.1855L167 5Z" fill="white" fill-opacity="0.602"/>
<path d="M167 5L160.75 15.1855L167 12.3932V5Z" fill="white"/>
<path d="M167 19.9763V24.9999L173.253 16.3489L167 19.9763Z" fill="white" fill-opacity="0.602"/>
<path d="M167 24.9999V19.9755L160.75 16.3489L167 24.9999Z" fill="white"/>
<path d="M167 18.8139L173.248 15.1856L167 12.395V18.8139Z" fill="white" fill-opacity="0.2"/>
<path d="M160.75 15.1856L167 18.8139V12.395L160.75 15.1856Z" fill="white" fill-opacity="0.602"/>
</g>
<g clip-path="url(#clip2_283_22428)">
<path d="M14.9998 68C23.2842 68 29.9998 61.2843 29.9998 53C29.9998 44.7157 23.2842 38 14.9998 38C6.7156 38 -0.00012207 44.7157 -0.00012207 53C-0.00012207 61.2843 6.7156 68 14.9998 68Z" fill="#F0B90B"/>
<path d="M15 43L17.4777 45.5373L11.2388 51.7761L8.76123 49.2985L15 43Z" fill="white"/>
<path d="M18.7613 46.761L21.2388 49.2983L11.2388 59.2983L8.76123 56.8206L18.7613 46.761Z" fill="white"/>
<path d="M7.47761 50.522L9.95522 53.0592L7.47761 55.5368L5 53.0592L7.47761 50.522Z" fill="white"/>
<path d="M22.5223 50.522L25 53.0592L15 63.0592L12.5223 60.5816L22.5223 50.522Z" fill="white"/>
<path d="M29.3748 53C29.3748 60.9391 22.939 67.375 14.9998 67.375C7.06078 67.375 0.624878 60.9391 0.624878 53C0.624878 45.0609 7.06078 38.625 14.9998 38.625C22.939 38.625 29.3748 45.0609 29.3748 53Z" stroke="black" stroke-opacity="0.097"/>
</g>
<g clip-path="url(#clip3_283_22428)">
<path d="M166.998 68C175.282 68 181.998 61.2843 181.998 53C181.998 44.7157 175.282 38 166.998 38C158.713 38 151.998 44.7157 151.998 53C151.998 61.2843 158.713 68 166.998 68Z" fill="#F9A606"/>
<path d="M181.373 53C181.373 60.9391 174.937 67.375 166.998 67.375C159.058 67.375 152.623 60.9391 152.623 53C152.623 45.0609 159.058 38.625 166.998 38.625C174.937 38.625 181.373 45.0609 181.373 53Z" stroke="black" stroke-opacity="0.097"/>
<path fill-rule="evenodd" clip-rule="evenodd" d="M160.494 45.5H166.96C170.893 45.5 173.874 47.4835 174.983 50.3696H176.998V52.114H175.408C175.439 52.3897 175.455 52.6705 175.455 52.9559V52.9987C175.455 53.3199 175.434 53.6357 175.395 53.945H176.998V55.6895H174.945C173.807 58.5354 170.849 60.5 166.96 60.5H160.494V55.6895H158.248V53.945H160.494V52.114H158.248V50.3696H160.494V45.5ZM162.302 55.6895V58.9351H166.96C169.835 58.9351 171.97 57.6352 172.965 55.6895H162.302ZM173.518 53.945H162.302V52.114H173.521C173.563 52.4021 173.584 52.6975 173.584 52.9987V53.0416C173.584 53.3497 173.562 53.6513 173.518 53.945ZM166.96 47.0623C169.848 47.0623 171.99 48.3965 172.978 50.3696H162.302V47.0623H166.96Z" fill="white"/>
</g>
<g clip-path="url(#clip4_283_22428)">
<path d="M90.9998 68C99.2842 68 106 61.2843 106 53C106 44.7157 99.2842 38 90.9998 38C82.7156 38 75.9999 44.7157 75.9999 53C75.9999 61.2843 82.7156 68 90.9998 68Z" fill="#F3BA2F"/>
<path d="M87.116 51.404L91 47.52L94.886 51.406L97.146 49.146L91 43L84.856 49.144L87.116 51.404ZM81 53L83.26 50.74L85.52 53L83.26 55.26L81 53ZM87.116 54.596L91 58.48L94.886 54.594L97.146 56.853L91 63L84.856 56.856L84.853 56.853L87.116 54.596ZM96.48 53L98.74 50.74L101 53L98.74 55.26L96.48 53ZM93.292 52.998H93.294V53L91 55.294L88.709 53.004L88.705 53L88.709 52.997L89.11 52.595L89.305 52.4L91 50.706L93.293 52.999L93.292 52.998Z" fill="white"/>
<path d="M105.375 53C105.375 60.9391 98.939 67.375 90.9998 67.375C83.0608 67.375 76.6249 60.9391 76.6249 53C76.6249 45.0609 83.0608 38.625 90.9998 38.625C98.939 38.625 105.375 45.0609 105.375 53Z" stroke="black" stroke-opacity="0.097"/>
</g>
<g clip-path="url(#clip5_283_22428)">
<path fill-rule="evenodd" clip-rule="evenodd" d="M0 15C0 6.71574 6.71574 0 15 0C23.2843 0 30 6.71574 30 15C30 23.2843 23.2843 30 15 30C6.71574 30 0 23.2843 0 15Z" fill="#50AF95"/>
<path d="M29.375 15C29.375 22.9391 22.9391 29.375 15 29.375C7.06091 29.375 0.625 22.9391 0.625 15C0.625 7.06091 7.06091 0.625 15 0.625C22.9391 0.625 29.375 7.06091 29.375 15Z" stroke="black" stroke-opacity="0.097"/>
<path fill-rule="evenodd" clip-rule="evenodd" d="M16.7804 16.1835C16.6809 16.191 16.1671 16.2217 15.0211 16.2217C14.1096 16.2217 13.4625 16.1944 13.2354 16.1835C9.71287 16.0282 7.08361 15.4137 7.08361 14.678C7.08361 13.9422 9.71287 13.3286 13.2354 13.1709V15.5715C13.4657 15.5881 14.1254 15.6271 15.0369 15.6271C16.1306 15.6271 16.6784 15.5815 16.777 15.5724V13.1725C20.2921 13.3294 22.9156 13.9439 22.9156 14.678C22.9156 15.4121 20.2929 16.0266 16.777 16.1827L16.7804 16.1835ZM16.7804 12.9242V10.7759H21.6859V7.5H8.32987V10.7759H13.2346V12.9234C9.24801 13.1069 6.25 13.8982 6.25 14.8466C6.25 15.7949 9.24801 16.5855 13.2346 16.7697V23.6539H16.7795V16.7672C20.757 16.5837 23.75 15.7932 23.75 14.8457C23.75 13.8982 20.7595 13.1077 16.7795 12.9234L16.7804 12.9242Z" fill="white"/>
</g>
<g clip-path="url(#clip6_283_22428)">
<path d="M53 30C61.2843 30 68 23.2843 68 15C68 6.71572 61.2843 0 53 0C44.7157 0 38 6.71572 38 15C38 23.2843 44.7157 30 53 30Z" fill="#2775C9"/>
<path d="M67.375 15C67.375 22.9391 60.9391 29.375 53 29.375C45.0609 29.375 38.625 22.9391 38.625 15C38.625 7.06091 45.0609 0.625 53 0.625C60.9391 0.625 67.375 7.06091 67.375 15Z" stroke="black" stroke-opacity="0.097"/>
<path fill-rule="evenodd" clip-rule="evenodd" d="M52.1 9.43073V8.49398C52.1 7.99692 52.503 7.59398 53 7.59398C53.497 7.59398 53.9 7.99692 53.9 8.49398V9.42748C55.5286 9.67269 56.6451 10.5986 56.9433 11.9179C57.0079 12.2041 56.8282 12.4884 56.5421 12.553C56.5037 12.5618 56.4645 12.5661 56.4251 12.5661H55.9383C55.5443 12.5661 55.1858 12.3386 55.018 11.9821C54.7075 11.322 53.9715 10.9419 52.9914 10.9419C51.7656 10.9419 50.9385 11.5435 50.9385 12.4458C50.9385 13.1678 51.4875 13.5888 52.8184 13.9046L54.0666 14.1904C56.2699 14.6941 57.2023 15.604 57.2023 17.2208C57.2023 19.0123 55.9516 20.2239 53.9 20.5095V21.594C53.9 22.091 53.497 22.494 53 22.494C52.503 22.494 52.1 22.091 52.1 21.594V20.5265C50.2828 20.3071 49.0554 19.3453 48.7671 17.8736C48.7197 17.6315 48.8775 17.3968 49.1196 17.3494C49.1479 17.3438 49.1767 17.341 49.2055 17.341L49.9447 17.3411C50.2792 17.3411 50.5839 17.5336 50.7275 17.8358C51.0679 18.5514 51.9386 18.9954 53.029 18.9954C54.3374 18.9954 55.2472 18.3486 55.2472 17.4464C55.2472 16.6643 54.6908 16.2131 53.3223 15.8898L51.9161 15.5589C49.9159 15.1003 48.9684 14.1378 48.9684 12.5888C48.9684 10.9206 50.2276 9.72117 52.1 9.43073ZM41.75 15.0005C41.75 10.0363 44.9903 5.82602 49.4789 4.35383C49.7624 4.26085 50.0676 4.41529 50.1606 4.69878C50.1784 4.75312 50.1875 4.80993 50.1875 4.86712L50.1875 5.18419C50.1875 5.66752 49.8943 6.10253 49.4463 6.28394C45.9929 7.68241 43.558 11.0582 43.558 15.0005C43.558 18.9409 45.9906 22.3153 49.4413 23.7149C49.8924 23.8979 50.1875 24.336 50.1875 24.8228L50.1875 25.0871C50.1875 25.4041 49.9306 25.661 49.6136 25.661C49.552 25.661 49.4908 25.6511 49.4324 25.6318C44.9679 24.1458 41.75 19.9474 41.75 15.0005ZM64.25 15.0005C64.25 19.9358 61.0474 24.1259 56.5993 25.6211C56.2869 25.7261 55.9486 25.558 55.8436 25.2456C55.823 25.1844 55.8125 25.1201 55.8125 25.0555V24.8436C55.8125 24.3451 56.1143 23.8963 56.5758 23.708C60.0175 22.3041 62.442 18.9343 62.442 15.0005C62.442 11.0703 60.022 7.70316 56.5855 6.29689C56.118 6.10557 55.8125 5.65056 55.8125 5.14539V4.95223C55.8125 4.61998 56.0819 4.35064 56.4141 4.35064C56.4794 4.35064 56.5443 4.36128 56.6061 4.38212C61.0506 5.87934 64.25 10.0677 64.25 15.0005Z" fill="white"/>
</g>
<g filter="url(#filter0_ii_283_22428)">
<circle cx="91" cy="15" r="15" fill="white"/>
<path d="M100.462 6.29598L99.6381 7.11971C101.604 9.26916 102.694 12.0764 102.694 14.989C102.694 17.9017 101.604 20.7089 99.6381 22.8583L100.462 23.682C102.648 21.311 103.861 18.2043 103.861 14.9794C103.861 11.7545 102.648 8.64777 100.462 6.27676V6.29598Z" fill="#5A5564"/>
<path d="M83.139 6.36739C85.2884 4.40185 88.0956 3.31186 91.0083 3.31186C93.9209 3.31186 96.7281 4.40185 98.8776 6.36739L99.7013 5.54367C97.3303 3.35778 94.2235 2.1442 90.9987 2.1442C87.7738 2.1442 84.667 3.35778 82.296 5.54367L83.139 6.36739Z" fill="#5A5564"/>
<path d="M82.3674 22.8666C80.4041 20.7176 79.3156 17.9121 79.3156 15.0014C79.3156 12.0907 80.4041 9.28517 82.3674 7.13619L81.5436 6.31247C79.3577 8.68347 78.1442 11.7902 78.1442 15.0151C78.1442 18.24 79.3577 21.3467 81.5436 23.7177L82.3674 22.8666Z" fill="#5A5564"/>
<path d="M98.8665 23.6271C96.7171 25.5927 93.9099 26.6827 90.9972 26.6827C88.0846 26.6827 85.2774 25.5927 83.1279 23.6271L82.3042 24.4509C84.6752 26.6367 87.782 27.8503 91.0068 27.8503C94.2317 27.8503 97.3385 26.6367 99.7095 24.4509L98.8665 23.6271Z" fill="#5A5564"/>
<path d="M96.2004 12.2515C96.0357 10.5327 94.553 9.95607 92.6776 9.78034V7.41351H91.2279V9.73641C90.8462 9.73641 90.4563 9.73641 90.0692 9.73641V7.41351H88.6304V9.79682H85.6897V11.3482C85.6897 11.3482 86.7605 11.3289 86.7441 11.3482C86.9371 11.3269 87.1309 11.3815 87.2846 11.5003C87.4382 11.6191 87.5398 11.793 87.5678 11.9852V18.5091C87.5637 18.5769 87.546 18.6431 87.5158 18.704C87.4856 18.7648 87.4435 18.819 87.3921 18.8633C87.3415 18.9084 87.2824 18.9429 87.2183 18.9646C87.1541 18.9863 87.0862 18.9948 87.0186 18.9896C87.0379 19.006 85.9643 18.9896 85.9643 18.9896L85.6897 20.7221H88.6029V23.1439H90.0527V20.7578H91.2114V23.1329H92.6639V20.7386C95.1131 20.5903 96.8209 19.9863 97.0351 17.6936C97.2081 15.8484 96.3404 15.0247 94.9538 14.6925C95.7968 14.2779 96.3185 13.5091 96.2004 12.2515ZM94.1686 17.408C94.1686 19.2092 91.0823 19.0033 90.0994 19.0033V15.8073C91.0823 15.81 94.1686 15.5272 94.1686 17.408ZM93.4958 12.905C93.4958 14.5524 90.9203 14.352 90.1021 14.352V11.447C90.9203 11.447 93.4958 11.1889 93.4958 12.905Z" fill="#F09242"/>
<path d="M90.9973 30C88.0308 29.9995 85.1311 29.1193 82.6647 27.4709C80.1984 25.8225 78.2763 23.4798 77.1413 20.739C76.0063 17.9982 75.7095 14.9824 76.2884 12.073C76.8672 9.16352 78.2958 6.49103 80.3934 4.3934C82.491 2.29578 85.1635 0.867227 88.073 0.288362C90.9824 -0.290504 93.9982 0.00631423 96.739 1.14129C99.4798 2.27626 101.822 4.19842 103.471 6.66474C105.119 9.13106 105.999 12.0308 106 14.9973C106 16.9676 105.613 18.9186 104.859 20.739C104.105 22.5594 103 24.2134 101.607 25.6066C100.213 26.9998 98.5594 28.1049 96.739 28.8587C94.9186 29.6126 92.9676 30.0004 90.9973 30ZM90.9973 1.16969C88.2642 1.17187 85.5932 1.98422 83.3217 3.50409C81.0502 5.02396 79.2803 7.1831 78.2357 9.70863C77.191 12.2342 76.9186 15.0127 77.4527 17.693C77.9868 20.3734 79.3036 22.8352 81.2365 24.7674C83.1694 26.6996 85.6318 28.0153 88.3124 28.5484C90.9929 29.0814 93.7713 28.8079 96.2965 27.7622C98.8216 26.7166 100.98 24.9458 102.499 22.6738C104.018 20.4017 104.829 17.7303 104.83 14.9973C104.831 13.1807 104.474 11.3819 103.779 9.70356C103.084 8.02524 102.065 6.50037 100.78 5.21614C99.4953 3.93192 97.97 2.91353 96.2914 2.21921C94.6128 1.52489 92.8138 1.16825 90.9973 1.16969Z" fill="#282138"/>
</g>
<rect x="38" y="38" width="30" height="30" rx="15" fill="black"/>
<g clip-path="url(#clip7_283_22428)">
<path d="M48.307 55.4957C48.3927 55.41 48.5105 55.36 48.6355 55.36H59.9699C60.177 55.36 60.2806 55.61 60.1342 55.7564L57.8952 57.9954C57.8095 58.0811 57.6916 58.1311 57.5666 58.1311H46.2322C46.0251 58.1311 45.9215 57.8811 46.068 57.7347L48.307 55.4957Z" fill="url(#paint0_linear_283_22428)"/>
<path d="M48.3071 47.1357C48.3964 47.05 48.5142 47 48.6356 47H59.97C60.1772 47 60.2807 47.25 60.1343 47.3964L57.8953 49.6354C57.8096 49.7211 57.6917 49.7711 57.5668 49.7711H46.2323C46.0252 49.7711 45.9217 49.5211 46.0681 49.3747L48.3071 47.1357Z" fill="url(#paint1_linear_283_22428)"/>
<path d="M57.8952 51.2888C57.8095 51.2031 57.6916 51.1531 57.5666 51.1531H46.2322C46.0251 51.1531 45.9215 51.403 46.068 51.5495L48.307 53.7885C48.3927 53.8742 48.5105 53.9242 48.6355 53.9242H59.9699C60.177 53.9242 60.2806 53.6742 60.1342 53.5278L57.8952 51.2888Z" fill="url(#paint2_linear_283_22428)"/>
</g>
<rect x="38.6655" y="38.6655" width="28.669" height="28.669" rx="14.3345" stroke="white" stroke-opacity="0.24" stroke-width="1.33102"/>
<path d="M128.931 38.0002C137.212 37.958 143.954 44.6525 143.997 52.9338C144.04 61.2151 137.347 67.9576 129.066 67.9998C120.786 68.042 114.043 61.3475 114 53.0662C113.957 44.7849 120.651 38.0424 128.931 38.0002Z" fill="url(#paint3_linear_283_22428)"/>
<path d="M136.766 53.9606C137.018 52.1126 136.615 50.3702 135.629 48.7941C135.524 48.5595 135.511 48.4248 135.711 48.2418C135.871 48.0763 136.049 47.9499 136.21 47.7844C136.487 47.5665 136.679 47.5748 136.897 47.8526C137.542 48.8773 137.975 49.9502 138.229 51.1495C138.273 51.4581 138.317 51.7666 138.361 52.0752C138.397 52.575 138.394 53.0924 138.391 53.6097C138.251 55.501 137.603 57.1977 136.427 58.6606C135.474 59.884 134.263 60.8471 132.856 61.4759C132.074 61.8252 131.24 62.0572 130.371 62.211C129.676 62.3341 129.006 62.305 128.298 62.2933C127.019 62.161 125.789 61.82 124.683 61.2353C124.139 60.9625 123.6 60.594 123.138 60.1906C122.973 60.0301 122.963 59.7997 123.124 59.6342C123.284 59.4687 123.462 59.3423 123.662 59.1593C123.861 58.9764 124.053 58.9847 124.257 59.1278C125.111 59.7782 126.068 60.2414 127.09 60.5351C128.095 60.7896 129.068 60.8703 130.072 60.7031C130.111 60.6857 130.168 60.7073 130.207 60.6898C132.679 60.2416 134.537 58.9425 135.837 56.8142C136.145 56.3484 136.339 55.8395 136.477 55.3088C136.611 54.8739 136.727 54.3998 136.787 53.9041L136.766 53.9606Z" fill="white"/>
<path d="M119.599 53.0032C119.629 50.5513 120.45 48.4022 122.12 46.5775C123.547 45.0488 125.275 44.0891 127.322 43.7373C130.024 43.2799 132.451 43.8838 134.641 45.5315C134.676 45.6096 134.789 45.6529 134.846 45.6745C135.011 45.835 135.02 46.0654 134.86 46.2309C134.66 46.4139 134.461 46.5969 134.261 46.7798C134.101 46.9453 133.909 46.937 133.613 46.6941C132.503 45.7834 131.202 45.286 129.789 45.1671C127.137 44.8984 124.857 45.7766 123.066 47.7494C121.96 48.947 121.302 50.4133 121.136 52.0351C120.922 53.8657 121.291 55.5299 122.276 57.106C122.438 57.3622 122.451 57.4969 122.173 57.7148C122.052 57.8629 121.874 57.9893 121.735 58.0982C121.514 58.3378 121.266 58.3078 121.087 58.0125C120.407 56.9097 119.939 55.7586 119.706 54.5027C119.614 53.9812 119.578 53.4814 119.581 52.9641L119.599 53.0032Z" fill="white"/>
<path d="M127.6 54.5393C127.753 54.9868 127.967 55.3602 128.202 55.6771C128.969 56.5538 130.238 56.4557 130.875 55.4676C131.1 55.1324 131.352 55.0667 131.748 55.2181C131.861 55.2613 131.974 55.3046 132.105 55.3869C132.292 55.4909 132.362 55.6473 132.297 55.8169C131.691 56.9788 130.779 57.6675 129.362 57.6441C128.215 57.5942 127.357 57.0394 126.708 56.1104C126.42 55.6763 126.21 55.2072 126.079 54.7031C126.026 54.5859 126.009 54.5468 125.874 54.5601L124.648 54.5451C124.648 54.5451 124.4 54.5151 124.348 54.3979C124.296 54.2806 124.3 54.185 124.382 54.0544C124.525 53.8498 124.647 53.7018 124.79 53.4972C124.872 53.3666 124.968 53.3707 125.102 53.3574C125.294 53.3658 125.524 53.3566 125.715 53.3649C125.811 53.3691 125.889 53.3342 125.837 53.2169C125.819 53.1778 125.802 53.1387 125.823 53.0821C125.81 52.9474 125.896 52.7212 125.766 52.6388C125.674 52.539 125.479 52.6264 125.327 52.6006L124.579 52.6064C124.349 52.6155 124.187 52.3593 124.33 52.1547C124.473 51.9502 124.616 51.7456 124.799 51.5235C124.859 51.4495 124.994 51.4362 125.111 51.3838C125.342 51.3746 125.611 51.348 125.859 51.378C125.994 51.3647 126.015 51.3081 126.058 51.195C126.266 50.3991 126.621 49.7246 127.202 49.1366C127.883 48.4571 128.756 48.2076 129.712 48.2492C130.382 48.2783 131.004 48.5162 131.501 48.9978C131.758 49.2581 132.032 49.5575 132.189 49.9093C132.277 50.1048 132.212 50.2744 132.016 50.3618C131.821 50.4491 131.586 50.5539 131.391 50.6412C131.156 50.746 131.043 50.7028 130.938 50.4682C130.742 50.1339 130.503 49.9126 130.146 49.7438C129.602 49.471 129.063 49.5242 128.551 49.8469C128.039 50.1696 127.787 50.6569 127.61 51.205C127.545 51.3747 127.663 51.3223 127.741 51.2874L129.658 51.2749C129.658 51.2749 129.793 51.2616 129.849 51.2833C130.153 51.3348 130.258 51.5694 130.094 51.8305C129.972 51.9786 129.851 52.1266 129.747 52.3137C129.665 52.4443 129.547 52.4967 129.395 52.4709C128.782 52.4634 128.226 52.4775 127.613 52.47C127.478 52.4833 127.439 52.5008 127.413 52.653C127.349 53.2444 127.349 53.2444 127.962 53.2519L129.784 53.2353C129.784 53.2353 130.11 53.2303 130.197 53.4257C130.267 53.5821 130.184 53.7127 130.102 53.8433C130.002 53.9347 129.92 54.0653 129.877 54.1784C129.751 54.4221 129.556 54.5094 129.29 54.4404C128.773 54.437 128.256 54.4337 127.7 54.4478L127.6 54.5393Z" fill="white"/>
<path d="M134.671 40.1338C141.778 43.2593 144.988 51.5655 141.863 58.6729C138.738 65.7803 130.433 68.9915 123.326 65.8659C116.22 62.7404 113.009 54.4342 116.134 47.3268C119.259 40.2194 127.565 37.0082 134.671 40.1338Z" stroke="black" stroke-opacity="0.23"/>
<defs>
<filter id="filter0_ii_283_22428" x="74.9241" y="-2.21519" width="31.0759" height="33.7975" filterUnits="userSpaceOnUse" color-interpolation-filters="sRGB">
<feFlood flood-opacity="0" result="BackgroundImageFix"/>
<feBlend mode="normal" in="SourceGraphic" in2="BackgroundImageFix" result="shape"/>
<feColorMatrix in="SourceAlpha" type="matrix" values="0 0 0 0 0 0 0 0 0 0 0 0 0 0 0 0 0 0 127 0" result="hardAlpha"/>
<feOffset dx="-0.632911" dy="1.70886"/>
<feGaussianBlur stdDeviation="0.791139"/>
<feComposite in2="hardAlpha" operator="arithmetic" k2="-1" k3="1"/>
<feColorMatrix type="matrix" values="0 0 0 0 0 0 0 0 0 0 0 0 0 0 0 0 0 0 0.25 0"/>
<feBlend mode="normal" in2="shape" result="effect1_innerShadow_283_22428"/>
<feColorMatrix in="SourceAlpha" type="matrix" values="0 0 0 0 0 0 0 0 0 0 0 0 0 0 0 0 0 0 127 0" result="hardAlpha"/>
<feOffset dx="-1.07595" dy="-2.21519"/>
<feGaussianBlur stdDeviation="1.51899"/>
<feComposite in2="hardAlpha" operator="arithmetic" k2="-1" k3="1"/>
<feColorMatrix type="matrix" values="0 0 0 0 1 0 0 0 0 1 0 0 0 0 1 0 0 0 1 0"/>
<feBlend mode="normal" in2="effect1_innerShadow_283_22428" result="effect2_innerShadow_283_22428"/>
</filter>
<linearGradient id="paint0_linear_283_22428" x1="58.8872" y1="45.6627" x2="51.0428" y2="60.6877" gradientUnits="userSpaceOnUse">
<stop stop-color="#00FFA3"/>
<stop offset="1" stop-color="#DC1FFF"/>
</linearGradient>
<linearGradient id="paint1_linear_283_22428" x1="55.4573" y1="43.8717" x2="47.613" y2="58.8968" gradientUnits="userSpaceOnUse">
<stop stop-color="#00FFA3"/>
<stop offset="1" stop-color="#DC1FFF"/>
</linearGradient>
<linearGradient id="paint2_linear_283_22428" x1="57.1613" y1="44.7614" x2="49.3169" y2="59.7864" gradientUnits="userSpaceOnUse">
<stop stop-color="#00FFA3"/>
<stop offset="1" stop-color="#DC1FFF"/>
</linearGradient>
<linearGradient id="paint3_linear_283_22428" x1="119.782" y1="41.6372" x2="138.64" y2="64.9723" gradientUnits="userSpaceOnUse">
<stop stop-color="#1AA3FF"/>
<stop offset="1" stop-color="#686BF3"/>
</linearGradient>
<clipPath id="clip0_283_22428">
<rect width="30" height="30" fill="white" transform="translate(114)"/>
</clipPath>
<clipPath id="clip1_283_22428">
<rect width="30" height="30" fill="white" transform="translate(152)"/>
</clipPath>
<clipPath id="clip2_283_22428">
<rect width="30" height="30" fill="white" transform="translate(0 38)"/>
</clipPath>
<clipPath id="clip3_283_22428">
<rect width="30" height="30" fill="white" transform="translate(151.998 38)"/>
</clipPath>
<clipPath id="clip4_283_22428">
<rect width="30" height="30" fill="white" transform="translate(76 38)"/>
</clipPath>
<clipPath id="clip5_283_22428">
<rect width="30" height="30" fill="white"/>
</clipPath>
<clipPath id="clip6_283_22428">
<rect width="30" height="30" fill="white" transform="translate(38)"/>
</clipPath>
<clipPath id="clip7_283_22428">
<rect width="14.2019" height="11.1309" fill="white" transform="translate(46 47)"/>
</clipPath>
</defs>
</svg>
