<svg width="24" height="24" viewBox="0 0 24 24" fill="none" xmlns="http://www.w3.org/2000/svg">
<g clip-path="url(#clip0_292_8332)">
<path d="M11.3813 8.5265L8.9999 6H14.9999V9H16.9999V4H8.9999L11.3813 1.19442L9.9999 0L5.46501 5.1628L9.9999 10L11.3813 8.5265ZM0.999897 11.0002L0.999895 24.0002L22.9999 23.9999L22.9999 11M20.7673 19.7672C20.1752 19.7672 19.6074 20.0024 19.1887 20.4211C18.77 20.8398 18.5348 21.4077 18.5348 21.9998L4.99989 22C4.99989 21.4079 4.76468 20.84 4.34599 20.4213C3.92731 20.0027 3.35945 19.7674 2.76733 19.7674V15.2326C3.35945 15.2326 3.92731 14.9973 4.34599 14.5787C4.76468 14.16 4.99989 13.5921 4.99989 13L18.5348 12.9998C18.5348 13.5919 18.77 14.1597 19.1887 14.5784C19.6074 14.9971 20.1752 15.2323 20.7673 15.2323V19.7672Z" fill="#4C63ED"/>
<circle cx="11.5" cy="17.5" r="2.5" fill="#4C63ED"/>
</g>
<defs>
<clipPath id="clip0_292_8332">
<rect width="24" height="24" fill="white"/>
</clipPath>
</defs>
</svg>
