<svg width="444" height="145" viewBox="0 0 444 145" fill="none" xmlns="http://www.w3.org/2000/svg">
<path d="M70 28L73.5 31.5L77 28" stroke="#2D3442"/>
<path d="M410 86L413.5 89.5L417 86" stroke="#2D3442"/>
<path d="M192 7L195.5 10.5L199 7" stroke="#2D3442"/>
<path d="M192 133L195.5 136.5L199 133" stroke="#2D3442"/>
<path d="M70 105L73.5 108.5L77 105" stroke="#2D3442"/>
<rect x="0.5" y="63.5" width="144" height="34" rx="17" fill="white" fill-opacity="0.01"/>
<path d="M13.2568 75.8403L13.2568 85H14.3804L14.3804 81.7119H16.2783C18.0684 81.7119 19.2427 80.5503 19.2427 78.7793C19.2427 77.002 18.0811 75.8403 16.3037 75.8403H13.2568ZM14.3804 76.8369H16.0244C17.3574 76.8369 18.1064 77.5288 18.1064 78.7793C18.1064 80.0234 17.3574 80.7153 16.0244 80.7153H14.3804L14.3804 76.8369ZM23.356 85.1206C24.3589 85.1206 25.1079 84.708 25.438 83.9717H25.5459L25.5459 85.0063H26.5742L26.5742 80.29C26.5742 78.8555 25.6475 78.0303 24.0288 78.0303C22.6196 78.0303 21.5532 78.7856 21.4263 79.8901H22.4863C22.6641 79.2998 23.2227 78.9634 24.0161 78.9634C24.9746 78.9634 25.5015 79.4395 25.5015 80.3027L25.5015 80.9248L23.6099 81.02C22.042 81.1025 21.166 81.8262 21.166 83.0449C21.166 84.2954 22.042 85.1206 23.356 85.1206ZM23.667 84.1748C22.7974 84.1748 22.2578 83.7305 22.2578 83.0068C22.2578 82.2896 22.7656 81.877 23.7305 81.8325L25.5015 81.75L25.5015 82.5625C25.5015 83.4829 24.708 84.1748 23.667 84.1748ZM30.1606 87.4502C31.4365 87.4502 32.0142 86.9487 32.6172 85.2539L35.2134 78.1128H34.0645L32.1411 83.8765H32.0586L30.1289 78.1128H28.9546L31.4873 85.0444L31.3667 85.4189C31.0811 86.2187 30.7256 86.5107 30.0781 86.5107C29.9766 86.5107 29.7798 86.5044 29.6973 86.4854L29.6973 87.4312C29.7925 87.4438 30.002 87.4502 30.1606 87.4502ZM43.4463 79.9282C43.4463 78.6523 42.9448 77.9858 41.9863 77.9858C41.2944 77.9858 40.7422 78.4048 40.5645 79.0649L40.4502 79.0649C40.3042 78.3857 39.8472 77.9858 39.1997 77.9858C38.5522 77.9858 38.0571 78.3921 37.8857 79.084H37.7715V78.1128H36.8066L36.8066 85H37.7778L37.7778 80.3535C37.7778 79.4966 38.1587 78.9697 38.7681 78.9697C39.3521 78.9697 39.6567 79.4077 39.6567 80.2393L39.6567 85L40.6216 85L40.6216 80.3535C40.6216 79.4966 40.9897 78.9697 41.5928 78.9697C42.1704 78.9697 42.4751 79.4077 42.4751 80.2456L42.4751 85H43.4463L43.4463 79.9282ZM50.0225 83.2227C49.832 83.8257 49.1909 84.1938 48.3213 84.1938C47.147 84.1938 46.3979 83.3813 46.3979 82.1182V81.8389L51.0889 81.8389L51.0889 81.166C51.0889 79.1729 50.0352 77.9858 48.2451 77.9858C46.4932 77.9858 45.3315 79.1792 45.3315 80.9946L45.3315 82.0293C45.3315 83.9907 46.4297 85.127 48.3213 85.127C49.7686 85.127 50.8604 84.3589 51.0698 83.2227H50.0225ZM48.2388 78.9126C49.3496 78.9126 50.0225 79.7061 50.0225 81.02L46.3979 81.02C46.3979 79.6997 47.0898 78.9126 48.2388 78.9126ZM53.3804 85H54.4595L54.4595 80.9438C54.4595 79.7695 55.2212 78.9761 56.3574 78.9761C57.4302 78.9761 57.938 79.5601 57.938 80.8042L57.938 85H59.0171L59.0171 80.5312C59.0171 78.8809 58.2046 77.9858 56.7065 77.9858C55.6592 77.9858 54.8721 78.4683 54.5039 79.3252H54.415V78.1128H53.3804L53.3804 85ZM63.0605 76.2656L63.0605 78.1318H61.2261V79.0522H63.0605L63.0605 82.9497C63.0605 84.3843 63.854 85.0317 65.5615 85.0317C65.8916 85.0317 66.7295 85 66.9009 84.9683V84.0542C66.7168 84.0732 66.0249 84.0923 65.6377 84.0923C64.6665 84.0923 64.1396 83.686 64.1396 82.937L64.1396 79.0522L66.9199 79.0522V78.1318L64.127 78.1318L64.127 76.2656H63.0605ZM77.1714 82.5625C77.2666 84.1875 78.5044 85.1904 80.396 85.1904C82.313 85.1904 83.5508 84.1431 83.5508 82.499C83.5508 81.1216 82.8018 80.3472 81.0244 79.9092L80.2246 79.7061C79.0313 79.4077 78.5234 78.9507 78.5234 78.1572C78.5234 77.2241 79.228 76.6655 80.4023 76.6655C81.4814 76.6655 82.1797 77.2241 82.2939 78.1699L83.3857 78.1699C83.3096 76.6465 82.1226 75.6499 80.396 75.6499C78.5679 75.6499 77.3936 76.6592 77.3936 78.2207C77.3936 79.5474 78.1616 80.3535 79.8628 80.7852L80.6499 80.9819C81.8877 81.2866 82.4209 81.7627 82.4209 82.5562C82.4209 83.54 81.6211 84.1748 80.4023 84.1748C79.1836 84.1748 78.3774 83.5654 78.2632 82.5625H77.1714ZM91.1616 78.1128L90.0825 78.1128V82.1689C90.0825 83.3433 89.3208 84.1367 88.1846 84.1367C87.1118 84.1367 86.604 83.5527 86.604 82.3086V78.1128H85.5249V82.5815C85.5249 84.2319 86.3374 85.127 87.8354 85.127C88.8828 85.127 89.6699 84.6445 90.0381 83.7876H90.127V85L91.1616 85L91.1616 78.1128ZM99.2485 80.2583C99.0708 78.8428 98.0298 77.9795 96.5063 77.9795C94.6338 77.9795 93.542 79.1284 93.542 81.1025V82.0039C93.542 83.978 94.6338 85.127 96.5063 85.127C98.0298 85.127 99.0771 84.27 99.2485 82.8672H98.1821C98.0488 83.6543 97.376 84.1558 96.4873 84.1558C95.2876 84.1558 94.6211 83.3433 94.6211 81.8643V81.2422C94.6211 79.7632 95.2876 78.9443 96.4873 78.9443C97.376 78.9443 98.0488 79.4521 98.1821 80.2583H99.2485ZM107.285 80.2583C107.107 78.8428 106.066 77.9795 104.542 77.9795C102.67 77.9795 101.578 79.1284 101.578 81.1025V82.0039C101.578 83.978 102.67 85.127 104.542 85.127C106.066 85.127 107.113 84.27 107.285 82.8672L106.218 82.8672C106.085 83.6543 105.412 84.1558 104.523 84.1558C103.324 84.1558 102.657 83.3433 102.657 81.8643V81.2422C102.657 79.7632 103.324 78.9443 104.523 78.9443C105.412 78.9443 106.085 79.4521 106.218 80.2583L107.285 80.2583ZM114.312 83.2227C114.121 83.8257 113.48 84.1938 112.61 84.1938C111.436 84.1938 110.687 83.3813 110.687 82.1182V81.8389H115.378V81.166C115.378 79.1729 114.324 77.9858 112.534 77.9858C110.782 77.9858 109.621 79.1792 109.621 80.9946V82.0293C109.621 83.9907 110.719 85.127 112.61 85.127C114.058 85.127 115.149 84.3589 115.359 83.2227H114.312ZM112.528 78.9126C113.639 78.9126 114.312 79.7061 114.312 81.02H110.687C110.687 79.6997 111.379 78.9126 112.528 78.9126ZM117.98 79.9727C117.98 80.9502 118.596 81.5786 119.84 81.8643L120.862 82.0991C121.738 82.2959 122.075 82.5879 122.075 83.1338C122.075 83.7939 121.478 84.2192 120.539 84.2192C119.65 84.2192 119.041 83.8511 118.882 83.2163H117.784C117.904 84.397 118.939 85.127 120.5 85.127C122.132 85.127 123.192 84.3018 123.192 83.0322C123.192 82.0356 122.583 81.4517 121.243 81.147L120.272 80.9248C119.409 80.7344 119.053 80.436 119.053 79.9092C119.053 79.2808 119.618 78.8745 120.494 78.8745C121.3 78.8745 121.878 79.2427 122.005 79.8457H123.046C122.919 78.6968 121.948 77.9795 120.513 77.9795C118.996 77.9795 117.98 78.7793 117.98 79.9727ZM126.017 79.9727C126.017 80.9502 126.632 81.5786 127.876 81.8643L128.898 82.0991C129.774 82.2959 130.111 82.5879 130.111 83.1338C130.111 83.7939 129.514 84.2192 128.575 84.2192C127.686 84.2192 127.077 83.8511 126.918 83.2163H125.82C125.94 84.397 126.975 85.127 128.537 85.127C130.168 85.127 131.228 84.3018 131.228 83.0322C131.228 82.0356 130.619 81.4517 129.279 81.147L128.308 80.9248C127.445 80.7344 127.089 80.436 127.089 79.9092C127.089 79.2808 127.654 78.8745 128.53 78.8745C129.336 78.8745 129.914 79.2427 130.041 79.8457H131.082C130.955 78.6968 129.984 77.9795 128.549 77.9795C127.032 77.9795 126.017 78.7793 126.017 79.9727Z" fill="#A0A8B8"/>
<rect x="0.5" y="63.5" width="144" height="34" rx="17" stroke="#2D3442"/>
<rect x="165.5" y="90.5" width="232" height="34" rx="17" fill="white" fill-opacity="0.01"/>
<path d="M181.228 111.13C179.742 111.13 178.968 110.134 178.968 108.236V106.604C178.968 104.707 179.742 103.71 181.221 103.71C182.396 103.71 183.214 104.542 183.252 105.779H184.389C184.351 103.824 183.157 102.65 181.228 102.65C179.076 102.65 177.825 104.104 177.825 106.604V108.236C177.825 110.737 179.076 112.19 181.228 112.19C183.1 112.19 184.382 110.991 184.382 109.22H183.252C183.221 110.4 182.446 111.13 181.228 111.13ZM186.229 112H187.309V107.95C187.309 106.776 188.077 105.982 189.213 105.982C190.292 105.982 190.8 106.573 190.8 107.811V112H191.879V107.538C191.879 105.894 191.066 104.992 189.568 104.992C188.515 104.992 187.721 105.475 187.359 106.332H187.271V102.409H186.229L186.229 112ZM198.95 110.223C198.76 110.826 198.119 111.194 197.249 111.194C196.075 111.194 195.326 110.381 195.326 109.118V108.839L200.017 108.839V108.166C200.017 106.173 198.963 104.986 197.173 104.986C195.421 104.986 194.259 106.179 194.259 107.995V109.029C194.259 110.991 195.357 112.127 197.249 112.127C198.696 112.127 199.788 111.359 199.998 110.223H198.95ZM197.167 105.913C198.277 105.913 198.95 106.706 198.95 108.02L195.326 108.02C195.326 106.7 196.018 105.913 197.167 105.913ZM207.996 107.258C207.818 105.843 206.777 104.979 205.253 104.979C203.381 104.979 202.289 106.128 202.289 108.103V109.004C202.289 110.978 203.381 112.127 205.253 112.127C206.777 112.127 207.824 111.27 207.996 109.867H206.929C206.796 110.654 206.123 111.156 205.234 111.156C204.035 111.156 203.368 110.343 203.368 108.864V108.242C203.368 106.763 204.035 105.944 205.234 105.944C206.123 105.944 206.796 106.452 206.929 107.258H207.996ZM212.014 108.204H211.931V102.409H210.852L210.852 112H211.931V109.493L212.883 108.579L215.232 112H216.514L213.651 107.842L216.324 105.113H215.016L212.014 108.204ZM221.199 112.127C223.021 112.127 224.182 110.94 224.182 109.08L224.182 108.039C224.182 106.179 223.021 104.992 221.199 104.992C219.377 104.992 218.215 106.179 218.215 108.039L218.215 109.08C218.215 110.94 219.377 112.127 221.199 112.127ZM221.199 105.944C222.379 105.944 223.116 106.782 223.116 108.134L223.116 108.979C223.116 110.337 222.379 111.168 221.199 111.168C220.018 111.168 219.282 110.337 219.282 108.979L219.282 108.134C219.282 106.782 220.018 105.944 221.199 105.944ZM232.053 105.113L230.974 105.113L230.974 109.169C230.974 110.343 230.212 111.137 229.076 111.137C228.003 111.137 227.496 110.553 227.496 109.309L227.496 105.113H226.417L226.417 109.582C226.417 111.232 227.229 112.127 228.727 112.127C229.774 112.127 230.562 111.645 230.93 110.788H231.019V112L232.053 112L232.053 105.113ZM236.097 103.266V105.132H234.262V106.052H236.097L236.097 109.95C236.097 111.384 236.89 112.032 238.598 112.032C238.928 112.032 239.766 112 239.937 111.968V111.054C239.753 111.073 239.061 111.092 238.674 111.092C237.703 111.092 237.176 110.686 237.176 109.937L237.176 106.052L239.956 106.052V105.132L237.163 105.132V103.266H236.097ZM250.208 109.562C250.303 111.187 251.541 112.19 253.432 112.19C255.349 112.19 256.587 111.143 256.587 109.499C256.587 108.122 255.838 107.347 254.061 106.909L253.261 106.706C252.067 106.408 251.56 105.951 251.56 105.157C251.56 104.224 252.264 103.666 253.438 103.666C254.518 103.666 255.216 104.224 255.33 105.17L256.422 105.17C256.346 103.646 255.159 102.65 253.432 102.65C251.604 102.65 250.43 103.659 250.43 105.221C250.43 106.547 251.198 107.354 252.899 107.785L253.686 107.982C254.924 108.287 255.457 108.763 255.457 109.556C255.457 110.54 254.657 111.175 253.438 111.175C252.22 111.175 251.414 110.565 251.299 109.562H250.208ZM263.239 110.223C263.049 110.826 262.408 111.194 261.538 111.194C260.364 111.194 259.615 110.381 259.615 109.118V108.839H264.306V108.166C264.306 106.173 263.252 104.986 261.462 104.986C259.71 104.986 258.548 106.179 258.548 107.995V109.029C258.548 110.991 259.646 112.127 261.538 112.127C262.985 112.127 264.077 111.359 264.287 110.223H263.239ZM261.456 105.913C262.566 105.913 263.239 106.706 263.239 108.02H259.615C259.615 106.7 260.307 105.913 261.456 105.913ZM266.908 106.973C266.908 107.95 267.524 108.579 268.768 108.864L269.79 109.099C270.666 109.296 271.002 109.588 271.002 110.134C271.002 110.794 270.406 111.219 269.466 111.219C268.578 111.219 267.968 110.851 267.81 110.216H266.711C266.832 111.397 267.867 112.127 269.428 112.127C271.06 112.127 272.12 111.302 272.12 110.032C272.12 109.036 271.51 108.452 270.171 108.147L269.2 107.925C268.336 107.734 267.981 107.436 267.981 106.909C267.981 106.281 268.546 105.875 269.422 105.875C270.228 105.875 270.806 106.243 270.933 106.846L271.974 106.846C271.847 105.697 270.875 104.979 269.441 104.979C267.924 104.979 266.908 105.779 266.908 106.973ZM274.944 106.973C274.944 107.95 275.56 108.579 276.804 108.864L277.826 109.099C278.702 109.296 279.039 109.588 279.039 110.134C279.039 110.794 278.442 111.219 277.502 111.219C276.614 111.219 276.004 110.851 275.846 110.216H274.748C274.868 111.397 275.903 112.127 277.464 112.127C279.096 112.127 280.156 111.302 280.156 110.032C280.156 109.036 279.546 108.452 278.207 108.147L277.236 107.925C276.373 107.734 276.017 107.436 276.017 106.909C276.017 106.281 276.582 105.875 277.458 105.875C278.264 105.875 278.842 106.243 278.969 106.846H280.01C279.883 105.697 278.912 104.979 277.477 104.979C275.96 104.979 274.944 105.779 274.944 106.973ZM285.608 103.424C286.116 103.424 286.503 103.043 286.503 102.536C286.503 102.034 286.116 101.653 285.608 101.653C285.101 101.653 284.713 102.034 284.713 102.536C284.713 103.043 285.101 103.424 285.608 103.424ZM288.497 112V111.105L286.218 111.105V105.113H282.809V106.008H285.151V111.105H282.79V112L288.497 112ZM293.524 112.127C295.346 112.127 296.507 110.94 296.507 109.08V108.039C296.507 106.179 295.346 104.992 293.524 104.992C291.702 104.992 290.541 106.179 290.541 108.039V109.08C290.541 110.94 291.702 112.127 293.524 112.127ZM293.524 105.944C294.705 105.944 295.441 106.782 295.441 108.134V108.979C295.441 110.337 294.705 111.168 293.524 111.168C292.343 111.168 291.607 110.337 291.607 108.979V108.134C291.607 106.782 292.343 105.944 293.524 105.944ZM298.742 112H299.821V107.944C299.821 106.77 300.583 105.976 301.719 105.976C302.792 105.976 303.299 106.56 303.299 107.804V112H304.378V107.531C304.378 105.881 303.566 104.986 302.068 104.986C301.021 104.986 300.233 105.468 299.865 106.325H299.776V105.113H298.742V112ZM317.842 111.13C316.356 111.13 315.582 110.134 315.582 108.236V106.604C315.582 104.707 316.356 103.71 317.835 103.71C319.01 103.71 319.829 104.542 319.867 105.779H321.003C320.965 103.824 319.771 102.65 317.842 102.65C315.69 102.65 314.439 104.104 314.439 106.604V108.236C314.439 110.737 315.69 112.19 317.842 112.19C319.714 112.19 320.997 110.991 320.997 109.22H319.867C319.835 110.4 319.061 111.13 317.842 111.13ZM325.668 112.127C327.49 112.127 328.652 110.94 328.652 109.08V108.039C328.652 106.179 327.49 104.992 325.668 104.992C323.847 104.992 322.685 106.179 322.685 108.039V109.08C322.685 110.94 323.847 112.127 325.668 112.127ZM325.668 105.944C326.849 105.944 327.585 106.782 327.585 108.134V108.979C327.585 110.337 326.849 111.168 325.668 111.168C324.488 111.168 323.751 110.337 323.751 108.979V108.134C323.751 106.782 324.488 105.944 325.668 105.944ZM337.024 106.928C337.024 105.652 336.523 104.986 335.564 104.986C334.873 104.986 334.32 105.405 334.143 106.065H334.028C333.882 105.386 333.425 104.986 332.778 104.986C332.13 104.986 331.635 105.392 331.464 106.084H331.35V105.113L330.385 105.113V112L331.356 112V107.354C331.356 106.497 331.737 105.97 332.346 105.97C332.93 105.97 333.235 106.408 333.235 107.239V112H334.2V107.354C334.2 106.497 334.568 105.97 335.171 105.97C335.749 105.97 336.053 106.408 336.053 107.246V112H337.024V106.928ZM342.172 104.999C341.188 104.999 340.471 105.405 340.109 106.167H339.995V105.113H338.929V114.323H340.027V110.934H340.147C340.446 111.689 341.176 112.114 342.172 112.114C343.766 112.114 344.807 110.965 344.807 109.201V107.918C344.807 106.147 343.766 104.999 342.172 104.999ZM341.861 105.989C342.998 105.989 343.721 106.801 343.721 108.071V109.061C343.721 110.331 342.998 111.149 341.861 111.149C340.725 111.149 340.001 110.337 340.001 109.061V108.071C340.001 106.801 340.725 105.989 341.861 105.989ZM352.786 112V111.105H350.513V102.409L347.098 102.409V103.304L349.434 103.304V111.105L347.079 111.105V112L352.786 112ZM359.673 110.223C359.482 110.826 358.841 111.194 357.972 111.194C356.797 111.194 356.048 110.381 356.048 109.118V108.839H360.739V108.166C360.739 106.173 359.686 104.986 357.896 104.986C356.144 104.986 354.982 106.179 354.982 107.995V109.029C354.982 110.991 356.08 112.127 357.972 112.127C359.419 112.127 360.511 111.359 360.72 110.223H359.673ZM357.889 105.913C359 105.913 359.673 106.706 359.673 108.02H356.048C356.048 106.7 356.74 105.913 357.889 105.913ZM364.675 103.266V105.132L362.84 105.132V106.052L364.675 106.052V109.95C364.675 111.384 365.468 112.032 367.176 112.032C367.506 112.032 368.344 112 368.515 111.968V111.054C368.331 111.073 367.639 111.092 367.252 111.092C366.281 111.092 365.754 110.686 365.754 109.937V106.052H368.534V105.132H365.741V103.266H364.675ZM375.745 110.223C375.555 110.826 374.914 111.194 374.044 111.194C372.87 111.194 372.121 110.381 372.121 109.118V108.839H376.812V108.166C376.812 106.173 375.758 104.986 373.968 104.986C372.216 104.986 371.054 106.179 371.054 107.995V109.029C371.054 110.991 372.152 112.127 374.044 112.127C375.491 112.127 376.583 111.359 376.792 110.223H375.745ZM373.961 105.913C375.072 105.913 375.745 106.706 375.745 108.02H372.121C372.121 106.7 372.812 105.913 373.961 105.913ZM381.49 112.114C382.474 112.114 383.197 111.708 383.553 110.946H383.673V112H384.733V102.409H383.635V106.179H383.521C383.223 105.424 382.486 104.999 381.49 104.999C379.896 104.999 378.855 106.147 378.855 107.912V109.194C378.855 110.965 379.896 112.114 381.49 112.114ZM381.807 111.13C380.671 111.13 379.941 110.312 379.941 109.042V108.052C379.941 106.782 380.671 105.97 381.807 105.97C382.937 105.97 383.667 106.782 383.667 108.052V109.042C383.667 110.318 382.937 111.13 381.807 111.13Z" fill="#A0A8B8"/>
<rect x="165.5" y="90.5" width="232" height="34" rx="17" stroke="#2D3442"/>
<rect x="119.5" y="18.5" width="120" height="34" rx="17" fill="white" fill-opacity="0.01"/>
<path d="M138.122 38.959L133.78 38.959L133.78 30.8403H132.669L132.669 40L138.122 40V38.959ZM143.175 31.4243C143.683 31.4243 144.07 31.0435 144.07 30.5356C144.07 30.0342 143.683 29.6533 143.175 29.6533C142.667 29.6533 142.28 30.0342 142.28 30.5356C142.28 31.0435 142.667 31.4243 143.175 31.4243ZM146.063 40V39.105L143.784 39.105L143.784 33.1128L140.375 33.1128V34.0078L142.718 34.0078L142.718 39.105L140.356 39.105V40L146.063 40ZM148.272 40H149.351V35.9438C149.351 34.7695 150.113 33.9761 151.249 33.9761C152.322 33.9761 152.83 34.5601 152.83 35.8042V40L153.909 40V35.5312C153.909 33.8809 153.096 32.9858 151.598 32.9858C150.551 32.9858 149.764 33.4683 149.396 34.3252H149.307V33.1128H148.272L148.272 40ZM157.978 36.2041H157.895L157.895 30.4087L156.816 30.4087L156.816 40H157.895V37.4927L158.847 36.5786L161.196 40L162.478 40L159.615 35.8423L162.288 33.1128L160.98 33.1128L157.978 36.2041ZM175.408 39.1304C173.923 39.1304 173.148 38.1338 173.148 36.2358V34.6045C173.148 32.7065 173.923 31.71 175.402 31.71C176.576 31.71 177.395 32.5415 177.433 33.7793L178.569 33.7793C178.531 31.8242 177.338 30.6499 175.408 30.6499C173.256 30.6499 172.006 32.1035 172.006 34.6045V36.2358C172.006 38.7368 173.256 40.1904 175.408 40.1904C177.281 40.1904 178.563 38.9907 178.563 37.2197L177.433 37.2197C177.401 38.4004 176.627 39.1304 175.408 39.1304ZM182.962 36.915C182.962 35.1631 183.863 34.1094 185.387 34.1094C185.761 34.1094 186.206 34.1855 186.523 34.2998V33.0874C186.294 32.9922 185.92 32.9351 185.526 32.9351C184.2 32.9351 183.343 33.5952 183.089 34.8711H182.949V33.1128H180.378V33.9761H181.908L181.908 39.1367H180.518V40L185.095 40V39.1367L182.962 39.1367V36.915ZM193.131 38.2227C192.94 38.8257 192.299 39.1938 191.43 39.1938C190.255 39.1938 189.506 38.3813 189.506 37.1182V36.8389L194.197 36.8389L194.197 36.166C194.197 34.1729 193.144 32.9858 191.354 32.9858C189.602 32.9858 188.44 34.1792 188.44 35.9946L188.44 37.0293C188.44 38.9907 189.538 40.127 191.43 40.127C192.877 40.127 193.969 39.3589 194.178 38.2227H193.131ZM191.347 33.9126C192.458 33.9126 193.131 34.7061 193.131 36.02L189.506 36.02C189.506 34.6997 190.198 33.9126 191.347 33.9126ZM198.609 40.1206C199.612 40.1206 200.361 39.708 200.691 38.9717H200.799V40.0063H201.827L201.827 35.29C201.827 33.8555 200.9 33.0303 199.282 33.0303C197.873 33.0303 196.806 33.7856 196.679 34.8901H197.739C197.917 34.2998 198.476 33.9634 199.269 33.9634C200.228 33.9634 200.754 34.4395 200.754 35.3027V35.9248L198.863 36.02C197.295 36.1025 196.419 36.8262 196.419 38.0449C196.419 39.2954 197.295 40.1206 198.609 40.1206ZM198.92 39.1748C198.05 39.1748 197.511 38.7305 197.511 38.0068C197.511 37.2896 198.019 36.877 198.983 36.8325L200.754 36.75V37.5625C200.754 38.4829 199.961 39.1748 198.92 39.1748ZM206.169 31.2656V33.1318H204.334V34.0522H206.169V37.9497C206.169 39.3843 206.962 40.0317 208.67 40.0317C209 40.0317 209.838 40 210.009 39.9683V39.0542C209.825 39.0732 209.133 39.0923 208.746 39.0923C207.775 39.0923 207.248 38.686 207.248 37.937V34.0522L210.028 34.0522V33.1318L207.235 33.1318V31.2656L206.169 31.2656ZM217.239 38.2227C217.049 38.8257 216.408 39.1938 215.538 39.1938C214.364 39.1938 213.615 38.3813 213.615 37.1182V36.8389L218.306 36.8389V36.166C218.306 34.1729 217.252 32.9858 215.462 32.9858C213.71 32.9858 212.548 34.1792 212.548 35.9946V37.0293C212.548 38.9907 213.646 40.127 215.538 40.127C216.985 40.127 218.077 39.3589 218.287 38.2227H217.239ZM215.456 33.9126C216.566 33.9126 217.239 34.7061 217.239 36.02L213.615 36.02C213.615 34.6997 214.307 33.9126 215.456 33.9126ZM222.984 40.1143C223.968 40.1143 224.691 39.708 225.047 38.9463H225.167V40H226.228L226.228 30.4087H225.129V34.1792H225.015C224.717 33.4238 223.98 32.9985 222.984 32.9985C221.391 32.9985 220.35 34.1475 220.35 35.9121V37.1943C220.35 38.9653 221.391 40.1143 222.984 40.1143ZM223.301 39.1304C222.165 39.1304 221.435 38.3115 221.435 37.042V36.0518C221.435 34.7822 222.165 33.9697 223.301 33.9697C224.431 33.9697 225.161 34.7822 225.161 36.0518V37.042C225.161 38.3179 224.431 39.1304 223.301 39.1304Z" fill="#A0A8B8"/>
<rect x="119.5" y="18.5" width="120" height="34" rx="17" stroke="#2D3442"/>
<g clip-path="url(#clip0_283_32117)">
<rect x="286.5" y="28.5" width="184" height="34" rx="17" fill="white" fill-opacity="0.01"/>
<path d="M298.882 47.5625C298.978 49.1875 300.215 50.1904 302.107 50.1904C304.024 50.1904 305.262 49.1431 305.262 47.499C305.262 46.1216 304.513 45.3472 302.735 44.9092L301.936 44.7061C300.742 44.4077 300.234 43.9507 300.234 43.1572C300.234 42.2241 300.939 41.6655 302.113 41.6655C303.192 41.6655 303.891 42.2241 304.005 43.1699H305.097C305.021 41.6465 303.833 40.6499 302.107 40.6499C300.279 40.6499 299.104 41.6592 299.104 43.2207C299.104 44.5474 299.873 45.3535 301.574 45.7852L302.361 45.9819C303.599 46.2866 304.132 46.7627 304.132 47.5562C304.132 48.54 303.332 49.1748 302.113 49.1748C300.895 49.1748 300.088 48.5654 299.974 47.5625H298.882ZM312.873 43.1128L311.793 43.1128V47.1689C311.793 48.3433 311.032 49.1367 309.896 49.1367C308.823 49.1367 308.315 48.5527 308.315 47.3086V43.1128H307.236V47.5815C307.236 49.2319 308.048 50.127 309.546 50.127C310.594 50.127 311.381 49.6445 311.749 48.7876H311.838V50L312.873 50V43.1128ZM318.522 50.1143C320.115 50.1143 321.156 48.9653 321.156 47.1943V45.9121C321.156 44.1475 320.115 42.9985 318.522 42.9985C317.525 42.9985 316.795 43.4238 316.491 44.1792H316.376V40.4087H315.278V50H316.338V48.9463H316.459C316.814 49.708 317.538 50.1143 318.522 50.1143ZM318.205 49.1304C317.075 49.1304 316.351 48.3179 316.351 47.042V46.0518C316.351 44.7822 317.075 43.9697 318.205 43.9697C319.347 43.9697 320.071 44.7822 320.071 46.0518V47.042C320.071 48.3115 319.347 49.1304 318.205 49.1304ZM323.619 44.9727C323.619 45.9502 324.235 46.5786 325.479 46.8643L326.501 47.0991C327.377 47.2959 327.713 47.5879 327.713 48.1338C327.713 48.7939 327.117 49.2192 326.177 49.2192C325.289 49.2192 324.679 48.8511 324.521 48.2163H323.422C323.543 49.397 324.578 50.127 326.139 50.127C327.771 50.127 328.831 49.3018 328.831 48.0322C328.831 47.0356 328.221 46.4517 326.882 46.147L325.911 45.9248C325.047 45.7344 324.692 45.436 324.692 44.9092C324.692 44.2808 325.257 43.8745 326.133 43.8745C326.939 43.8745 327.517 44.2427 327.644 44.8457L328.685 44.8457C328.558 43.6968 327.586 42.9795 326.152 42.9795C324.635 42.9795 323.619 43.7793 323.619 44.9727ZM337.032 45.2583C336.854 43.8428 335.813 42.9795 334.29 42.9795C332.417 42.9795 331.325 44.1284 331.325 46.1025V47.0039C331.325 48.978 332.417 50.127 334.29 50.127C335.813 50.127 336.86 49.27 337.032 47.8672L335.965 47.8672C335.832 48.6543 335.159 49.1558 334.271 49.1558C333.071 49.1558 332.404 48.3433 332.404 46.8643V46.2422C332.404 44.7632 333.071 43.9443 334.271 43.9443C335.159 43.9443 335.832 44.4521 335.965 45.2583L337.032 45.2583ZM341.926 46.915C341.926 45.1631 342.827 44.1094 344.351 44.1094C344.725 44.1094 345.169 44.1855 345.487 44.2998V43.0874C345.258 42.9922 344.884 42.9351 344.49 42.9351C343.164 42.9351 342.307 43.5952 342.053 44.8711L341.913 44.8711V43.1128L339.342 43.1128V43.9761H340.872V49.1367H339.482V50L344.059 50V49.1367L341.926 49.1367V46.915ZM350.355 41.4243C350.863 41.4243 351.25 41.0435 351.25 40.5356C351.25 40.0342 350.863 39.6533 350.355 39.6533C349.848 39.6533 349.46 40.0342 349.46 40.5356C349.46 41.0435 349.848 41.4243 350.355 41.4243ZM353.244 50V49.105H350.965V43.1128L347.556 43.1128V44.0078H349.898V49.105H347.537V50L353.244 50ZM358.703 42.9985C357.719 42.9985 357.001 43.4048 356.64 44.1665H356.525V43.1128H355.459V52.3232H356.557V48.9336H356.678C356.976 49.689 357.706 50.1143 358.703 50.1143C360.296 50.1143 361.337 48.9653 361.337 47.2007V45.9185C361.337 44.1475 360.296 42.9985 358.703 42.9985ZM358.392 43.9888C359.528 43.9888 360.251 44.8013 360.251 46.0708V47.061C360.251 48.3306 359.528 49.1494 358.392 49.1494C357.255 49.1494 356.532 48.3369 356.532 47.061V46.0708C356.532 44.8013 357.255 43.9888 358.392 43.9888ZM365.133 41.2656V43.1318H363.298V44.0522H365.133V47.9497C365.133 49.3843 365.926 50.0317 367.634 50.0317C367.964 50.0317 368.802 50 368.973 49.9683V49.0542C368.789 49.0732 368.097 49.0923 367.71 49.0923C366.739 49.0923 366.212 48.686 366.212 47.937V44.0522L368.992 44.0522V43.1318L366.199 43.1318V41.2656H365.133ZM374.464 41.4243C374.972 41.4243 375.359 41.0435 375.359 40.5356C375.359 40.0342 374.972 39.6533 374.464 39.6533C373.956 39.6533 373.569 40.0342 373.569 40.5356C373.569 41.0435 373.956 41.4243 374.464 41.4243ZM377.352 50V49.105L375.073 49.105V43.1128L371.665 43.1128V44.0078H374.007V49.105H371.646V50L377.352 50ZM382.379 50.127C384.201 50.127 385.363 48.9399 385.363 47.0801V46.0391C385.363 44.1792 384.201 42.9922 382.379 42.9922C380.558 42.9922 379.396 44.1792 379.396 46.0391V47.0801C379.396 48.9399 380.558 50.127 382.379 50.127ZM382.379 43.9443C383.56 43.9443 384.296 44.7822 384.296 46.1343V46.9785C384.296 48.3369 383.56 49.1685 382.379 49.1685C381.199 49.1685 380.462 48.3369 380.462 46.9785V46.1343C380.462 44.7822 381.199 43.9443 382.379 43.9443ZM387.597 50H388.676V45.9438C388.676 44.7695 389.438 43.9761 390.574 43.9761C391.647 43.9761 392.155 44.5601 392.155 45.8042V50H393.234V45.5312C393.234 43.8809 392.421 42.9858 390.923 42.9858C389.876 42.9858 389.089 43.4683 388.721 44.3252H388.632V43.1128H387.597V50ZM406.697 49.1304C405.212 49.1304 404.438 48.1338 404.438 46.2358V44.6045C404.438 42.7065 405.212 41.71 406.691 41.71C407.865 41.71 408.684 42.5415 408.722 43.7793H409.858C409.82 41.8242 408.627 40.6499 406.697 40.6499C404.545 40.6499 403.295 42.1035 403.295 44.6045V46.2358C403.295 48.7368 404.545 50.1904 406.697 50.1904C408.57 50.1904 409.852 48.9907 409.852 47.2197H408.722C408.69 48.4004 407.916 49.1304 406.697 49.1304ZM414.251 46.915C414.251 45.1631 415.152 44.1094 416.676 44.1094C417.05 44.1094 417.495 44.1855 417.812 44.2998V43.0874C417.583 42.9922 417.209 42.9351 416.815 42.9351C415.489 42.9351 414.632 43.5952 414.378 44.8711H414.238V43.1128L411.667 43.1128V43.9761L413.197 43.9761V49.1367H411.807V50H416.384V49.1367H414.251V46.915ZM424.42 48.2227C424.229 48.8257 423.588 49.1938 422.719 49.1938C421.544 49.1938 420.795 48.3813 420.795 47.1182V46.8389L425.486 46.8389V46.166C425.486 44.1729 424.433 42.9858 422.643 42.9858C420.891 42.9858 419.729 44.1792 419.729 45.9946V47.0293C419.729 48.9907 420.827 50.127 422.719 50.127C424.166 50.127 425.258 49.3589 425.467 48.2227L424.42 48.2227ZM422.636 43.9126C423.747 43.9126 424.42 44.7061 424.42 46.02H420.795C420.795 44.6997 421.487 43.9126 422.636 43.9126ZM429.898 50.1206C430.901 50.1206 431.65 49.708 431.98 48.9717H432.088V50.0063H433.116V45.29C433.116 43.8555 432.189 43.0303 430.571 43.0303C429.162 43.0303 428.095 43.7856 427.968 44.8901L429.028 44.8901C429.206 44.2998 429.765 43.9634 430.558 43.9634C431.517 43.9634 432.043 44.4395 432.043 45.3027V45.9248L430.152 46.02C428.584 46.1025 427.708 46.8262 427.708 48.0449C427.708 49.2954 428.584 50.1206 429.898 50.1206ZM430.209 49.1748C429.339 49.1748 428.8 48.7305 428.8 48.0068C428.8 47.2896 429.308 46.877 430.272 46.8325L432.043 46.75V47.5625C432.043 48.4829 431.25 49.1748 430.209 49.1748ZM437.458 41.2656V43.1318L435.624 43.1318V44.0522L437.458 44.0522V47.9497C437.458 49.3843 438.251 50.0317 439.959 50.0317C440.289 50.0317 441.127 50 441.298 49.9683V49.0542C441.114 49.0732 440.422 49.0923 440.035 49.0923C439.064 49.0923 438.537 48.686 438.537 47.937V44.0522H441.317V43.1318L438.524 43.1318V41.2656H437.458ZM448.528 48.2227C448.338 48.8257 447.697 49.1938 446.827 49.1938C445.653 49.1938 444.904 48.3813 444.904 47.1182V46.8389H449.595V46.166C449.595 44.1729 448.541 42.9858 446.751 42.9858C444.999 42.9858 443.837 44.1792 443.837 45.9946V47.0293C443.837 48.9907 444.936 50.127 446.827 50.127C448.274 50.127 449.366 49.3589 449.576 48.2227H448.528ZM446.745 43.9126C447.855 43.9126 448.528 44.7061 448.528 46.02H444.904C444.904 44.6997 445.596 43.9126 446.745 43.9126ZM454.273 50.1143C455.257 50.1143 455.98 49.708 456.336 48.9463H456.457V50H457.517V40.4087H456.418V44.1792H456.304C456.006 43.4238 455.27 42.9985 454.273 42.9985C452.68 42.9985 451.639 44.1475 451.639 45.9121V47.1943C451.639 48.9653 452.68 50.1143 454.273 50.1143ZM454.59 49.1304C453.454 49.1304 452.724 48.3115 452.724 47.042V46.0518C452.724 44.7822 453.454 43.9697 454.59 43.9697C455.72 43.9697 456.45 44.7822 456.45 46.0518V47.042C456.45 48.3179 455.72 49.1304 454.59 49.1304Z" fill="#A0A8B8"/>
<rect x="286.5" y="28.5" width="184" height="34" rx="17" stroke="#2D3442"/>
</g>
<line x1="73.5" y1="2.18557e-08" x2="73.5" y2="63" stroke="#2D3442"/>
<line x1="413.5" y1="2.18557e-08" x2="413.5" y2="28" stroke="#2D3442"/>
<line x1="195.5" y1="2.18558e-08" x2="195.5" y2="18" stroke="#2D3442"/>
<line x1="195.5" y1="53" x2="195.5" y2="90" stroke="#2D3442"/>
<line x1="314.5" y1="2.18557e-08" x2="314.5" y2="28" stroke="#2D3442"/>
<line x1="314.5" y1="62" x2="314.5" y2="90" stroke="#2D3442"/>
<line x1="314.5" y1="125" x2="314.5" y2="145" stroke="#2D3442"/>
<line x1="413.5" y1="63" x2="413.5" y2="145" stroke="#2D3442"/>
<line x1="73.5" y1="98" x2="73.5" y2="145" stroke="#2D3442"/>
<line x1="195.5" y1="125" x2="195.5" y2="145" stroke="#2D3442"/>
<defs>
<clipPath id="clip0_283_32117">
<rect width="158" height="35" fill="white" transform="translate(286 28)"/>
</clipPath>
</defs>
</svg>
