<svg width="184" height="70" viewBox="0 0 184 70" fill="none" xmlns="http://www.w3.org/2000/svg">
<rect x="38.5" y="38.5001" width="31" height="31" rx="4.5" fill="#46B1CE" stroke="#2D3442"/>
<path d="M43.2858 54.0182C43.2858 52.5986 45.0635 51.2534 47.789 50.4191C47.16 47.6412 47.4396 45.431 48.6713 44.7235C48.9552 44.5575 49.2872 44.4789 49.6497 44.4789V45.4529C49.4488 45.4529 49.2872 45.4922 49.1518 45.5664C48.5578 45.9071 48.3001 47.2044 48.501 48.8729C48.549 49.2835 48.6276 49.7159 48.7237 50.157C49.5798 49.9474 50.5145 49.7858 51.4973 49.6809C52.087 48.8729 52.6985 48.1391 53.3143 47.497C51.8904 46.1736 50.5539 45.4485 49.6453 45.4485V44.4745C50.8465 44.4745 52.4189 45.3306 54.0088 46.8156C55.5987 45.3393 57.1711 44.492 58.3723 44.492V45.466C57.4681 45.466 56.1272 46.1867 54.7033 47.5014C55.3148 48.1435 55.9263 48.8729 56.5072 49.6809C57.4943 49.7858 58.429 49.9474 59.2851 50.1614C59.3856 49.7246 59.4599 49.3009 59.5123 48.8947C59.7176 47.2262 59.4642 45.929 58.8746 45.5839C58.7435 45.5053 58.5732 45.4704 58.3723 45.4704V44.4963C58.7392 44.4963 59.0711 44.5749 59.3594 44.7409C60.5868 45.4485 60.8619 47.6543 60.2286 50.4235C62.9454 51.2621 64.7144 52.603 64.7144 54.0182C64.7144 55.4377 62.9366 56.783 60.2111 57.6173C60.8401 60.3952 60.5605 62.6053 59.3288 63.3129C59.0449 63.4789 58.713 63.5575 58.3461 63.5575C57.1449 63.5575 55.5725 62.7014 53.9826 61.2164C52.3927 62.6927 50.8203 63.5401 49.6191 63.5401C49.2522 63.5401 48.9203 63.4614 48.632 63.2955C47.4046 62.5879 47.1295 60.3821 47.7628 57.6129C45.0548 56.7787 43.2858 55.4334 43.2858 54.0182ZM48.9727 51.1049C49.1343 51.6683 49.3352 52.2492 49.5624 52.8301C49.7414 52.4807 49.9293 52.1313 50.1345 51.7819C50.3355 51.4324 50.5495 51.0917 50.7635 50.7598C50.1433 50.8515 49.5449 50.9651 48.9727 51.1049ZM50.9732 55.7566C51.3139 56.3462 51.6633 56.9053 52.0258 57.4251C52.6766 57.4819 53.3362 57.5125 54.0001 57.5125C54.6596 57.5125 55.3192 57.4819 55.9656 57.4295C56.3281 56.9097 56.6819 56.355 57.0226 55.7697C57.3546 55.1975 57.6559 54.6166 57.9311 54.0313C57.6603 53.446 57.3546 52.8607 57.027 52.2885C56.6863 51.6989 56.3369 51.1398 55.9743 50.62C55.3235 50.5632 54.664 50.5327 54.0001 50.5327C53.3405 50.5327 52.681 50.5632 52.0345 50.6157C51.672 51.1354 51.3182 51.6901 50.9775 52.2754C50.6456 52.8476 50.3442 53.4285 50.069 54.0138C50.3442 54.5991 50.6456 55.1844 50.9732 55.7566ZM49.5624 55.1888C49.3265 55.7741 49.1256 56.3594 48.9596 56.9272C49.5318 57.0669 50.1345 57.1849 50.7591 57.2766C50.5451 56.9403 50.3311 56.5952 50.1302 56.2414C49.9293 55.892 49.7414 55.5382 49.5624 55.1888ZM53.9913 59.8492C54.3975 59.4299 54.8038 58.9626 55.2056 58.4515C54.8125 58.469 54.4106 58.4821 54.0044 58.4821C53.5939 58.4821 53.1877 58.4734 52.7902 58.4515C53.1833 58.9626 53.5895 59.4299 53.9913 59.8492ZM57.241 57.2766C57.8612 57.1849 58.4596 57.0713 59.0318 56.9315C58.8702 56.3681 58.6693 55.7872 58.4422 55.2062C58.2631 55.5557 58.0753 55.9051 57.87 56.2545C57.6647 56.604 57.455 56.9446 57.241 57.2766ZM54.0132 48.1871C53.607 48.6065 53.2008 49.0738 52.7989 49.5848C53.192 49.5674 53.5939 49.5543 54.0001 49.5543C54.4106 49.5543 54.8169 49.563 55.2143 49.5848C54.8212 49.0738 54.415 48.6065 54.0132 48.1871ZM57.2454 50.7598C57.4594 51.0961 57.6734 51.4412 57.8743 51.795C58.0753 52.1444 58.2631 52.4938 58.4422 52.8432C58.678 52.258 58.8789 51.6727 59.0449 51.1049C58.4727 50.9694 57.87 50.8515 57.2454 50.7598ZM61.1983 56.2283C62.7445 55.5688 63.7447 54.7039 63.7447 54.0182C63.7447 53.3324 62.7445 52.4632 61.1983 51.8081C60.8226 51.6465 60.412 51.5023 59.9884 51.3669C59.7394 52.223 59.4118 53.1141 59.0056 54.0269C59.4074 54.9354 59.7307 55.8221 59.9753 56.6738C60.4077 56.5384 60.8183 56.3899 61.1983 56.2283ZM58.8484 62.4699C59.4424 62.1293 59.7001 60.832 59.4992 59.1635C59.4511 58.7529 59.3725 58.3205 59.2764 57.8794C58.4203 58.089 57.4856 58.2506 56.5028 58.3554C55.9132 59.1635 55.3017 59.8973 54.6858 60.5394C56.1097 61.8628 57.4463 62.5879 58.3548 62.5879C58.5513 62.5835 58.7173 62.5442 58.8484 62.4699ZM48.4879 59.1417C48.2826 60.8102 48.5359 62.1074 49.1256 62.4525C49.2566 62.5311 49.427 62.566 49.6279 62.566C50.532 62.566 51.8729 61.8453 53.2968 60.5306C52.6854 59.8886 52.0739 59.1591 51.4929 58.3511C50.5058 58.2463 49.5711 58.0846 48.715 57.8706C48.6145 58.3118 48.5359 58.7354 48.4879 59.1417ZM46.8063 56.2283C47.1819 56.3899 47.5925 56.5341 48.0161 56.6695C48.2651 55.8134 48.5927 54.9223 48.9989 54.0095C48.5971 53.101 48.2738 52.2143 48.0292 51.3626C47.5968 51.498 47.1863 51.6465 46.8019 51.8081C45.2557 52.4676 44.2554 53.3324 44.2554 54.0182C44.2598 54.7039 45.26 55.5731 46.8063 56.2283Z" fill="white"/>
<path d="M54.0044 56.0143C52.902 56.0143 52.0083 55.1206 52.0083 54.0182C52.0083 52.9158 52.902 52.0221 54.0044 52.0221C55.1068 52.0221 56.0005 52.9158 56.0005 54.0182C56.0005 55.1206 55.1068 56.0143 54.0044 56.0143Z" fill="white"/>
<rect x="38.5" y="38.5001" width="31" height="31" rx="4.5" fill="#46B1CE" stroke="#2D3442"/>
<path d="M43.2858 54.0182C43.2858 52.5986 45.0635 51.2534 47.789 50.4191C47.16 47.6412 47.4396 45.431 48.6713 44.7235C48.9552 44.5575 49.2872 44.4789 49.6497 44.4789V45.4529C49.4488 45.4529 49.2872 45.4922 49.1518 45.5664C48.5578 45.9071 48.3001 47.2044 48.501 48.8729C48.549 49.2835 48.6276 49.7159 48.7237 50.157C49.5798 49.9474 50.5145 49.7858 51.4973 49.6809C52.087 48.8729 52.6985 48.1391 53.3143 47.497C51.8904 46.1736 50.5539 45.4485 49.6453 45.4485V44.4745C50.8465 44.4745 52.4189 45.3306 54.0088 46.8156C55.5987 45.3393 57.1711 44.492 58.3723 44.492V45.466C57.4681 45.466 56.1272 46.1867 54.7033 47.5014C55.3148 48.1435 55.9263 48.8729 56.5072 49.6809C57.4943 49.7858 58.429 49.9474 59.2851 50.1614C59.3856 49.7246 59.4599 49.3009 59.5123 48.8947C59.7176 47.2262 59.4642 45.929 58.8746 45.5839C58.7435 45.5053 58.5732 45.4704 58.3723 45.4704V44.4963C58.7392 44.4963 59.0711 44.5749 59.3594 44.7409C60.5868 45.4485 60.8619 47.6543 60.2286 50.4235C62.9454 51.2621 64.7144 52.603 64.7144 54.0182C64.7144 55.4377 62.9366 56.783 60.2111 57.6173C60.8401 60.3952 60.5605 62.6053 59.3288 63.3129C59.0449 63.4789 58.713 63.5575 58.3461 63.5575C57.1449 63.5575 55.5725 62.7014 53.9826 61.2164C52.3927 62.6927 50.8203 63.5401 49.6191 63.5401C49.2522 63.5401 48.9203 63.4614 48.632 63.2955C47.4046 62.5879 47.1295 60.3821 47.7628 57.6129C45.0548 56.7787 43.2858 55.4334 43.2858 54.0182ZM48.9727 51.1049C49.1343 51.6683 49.3352 52.2492 49.5624 52.8301C49.7414 52.4807 49.9293 52.1313 50.1345 51.7819C50.3355 51.4324 50.5495 51.0917 50.7635 50.7598C50.1433 50.8515 49.5449 50.9651 48.9727 51.1049ZM50.9732 55.7566C51.3139 56.3462 51.6633 56.9053 52.0258 57.4251C52.6766 57.4819 53.3362 57.5125 54.0001 57.5125C54.6596 57.5125 55.3192 57.4819 55.9656 57.4295C56.3281 56.9097 56.6819 56.355 57.0226 55.7697C57.3546 55.1975 57.6559 54.6166 57.9311 54.0313C57.6603 53.446 57.3546 52.8607 57.027 52.2885C56.6863 51.6989 56.3369 51.1398 55.9743 50.62C55.3235 50.5632 54.664 50.5327 54.0001 50.5327C53.3405 50.5327 52.681 50.5632 52.0345 50.6157C51.672 51.1354 51.3182 51.6901 50.9775 52.2754C50.6456 52.8476 50.3442 53.4285 50.069 54.0138C50.3442 54.5991 50.6456 55.1844 50.9732 55.7566ZM49.5624 55.1888C49.3265 55.7741 49.1256 56.3594 48.9596 56.9272C49.5318 57.0669 50.1345 57.1849 50.7591 57.2766C50.5451 56.9403 50.3311 56.5952 50.1302 56.2414C49.9293 55.892 49.7414 55.5382 49.5624 55.1888ZM53.9913 59.8492C54.3975 59.4299 54.8038 58.9626 55.2056 58.4515C54.8125 58.469 54.4106 58.4821 54.0044 58.4821C53.5939 58.4821 53.1877 58.4734 52.7902 58.4515C53.1833 58.9626 53.5895 59.4299 53.9913 59.8492ZM57.241 57.2766C57.8612 57.1849 58.4596 57.0713 59.0318 56.9315C58.8702 56.3681 58.6693 55.7872 58.4422 55.2062C58.2631 55.5557 58.0753 55.9051 57.87 56.2545C57.6647 56.604 57.455 56.9446 57.241 57.2766ZM54.0132 48.1871C53.607 48.6065 53.2008 49.0738 52.7989 49.5848C53.192 49.5674 53.5939 49.5543 54.0001 49.5543C54.4106 49.5543 54.8169 49.563 55.2143 49.5848C54.8212 49.0738 54.415 48.6065 54.0132 48.1871ZM57.2454 50.7598C57.4594 51.0961 57.6734 51.4412 57.8743 51.795C58.0753 52.1444 58.2631 52.4938 58.4422 52.8432C58.678 52.258 58.8789 51.6727 59.0449 51.1049C58.4727 50.9694 57.87 50.8515 57.2454 50.7598ZM61.1983 56.2283C62.7445 55.5688 63.7447 54.7039 63.7447 54.0182C63.7447 53.3324 62.7445 52.4632 61.1983 51.8081C60.8226 51.6465 60.412 51.5023 59.9884 51.3669C59.7394 52.223 59.4118 53.1141 59.0056 54.0269C59.4074 54.9354 59.7307 55.8221 59.9753 56.6738C60.4077 56.5384 60.8183 56.3899 61.1983 56.2283ZM58.8484 62.4699C59.4424 62.1293 59.7001 60.832 59.4992 59.1635C59.4511 58.7529 59.3725 58.3205 59.2764 57.8794C58.4203 58.089 57.4856 58.2506 56.5028 58.3554C55.9132 59.1635 55.3017 59.8973 54.6858 60.5394C56.1097 61.8628 57.4463 62.5879 58.3548 62.5879C58.5513 62.5835 58.7173 62.5442 58.8484 62.4699ZM48.4879 59.1417C48.2826 60.8102 48.5359 62.1074 49.1256 62.4525C49.2566 62.5311 49.427 62.566 49.6279 62.566C50.532 62.566 51.8729 61.8453 53.2968 60.5306C52.6854 59.8886 52.0739 59.1591 51.4929 58.3511C50.5058 58.2463 49.5711 58.0846 48.715 57.8706C48.6145 58.3118 48.5359 58.7354 48.4879 59.1417ZM46.8063 56.2283C47.1819 56.3899 47.5925 56.5341 48.0161 56.6695C48.2651 55.8134 48.5927 54.9223 48.9989 54.0095C48.5971 53.101 48.2738 52.2143 48.0292 51.3626C47.5968 51.498 47.1863 51.6465 46.8019 51.8081C45.2557 52.4676 44.2554 53.3324 44.2554 54.0182C44.2598 54.7039 45.26 55.5731 46.8063 56.2283Z" fill="white"/>
<path d="M54.0044 56.0143C52.902 56.0143 52.0083 55.1206 52.0083 54.0182C52.0083 52.9158 52.902 52.0221 54.0044 52.0221C55.1068 52.0221 56.0005 52.9158 56.0005 54.0182C56.0005 55.1206 55.1068 56.0143 54.0044 56.0143Z" fill="white"/>
<rect x="76.5" y="0.500031" width="31" height="31" rx="4.5" fill="#CDFADA" stroke="#2D3442"/>
<g clip-path="url(#clip0_283_24258)">
<path d="M92.0172 26.4995C97.745 26.4995 102.388 21.8561 102.388 16.1283C102.388 10.4004 97.745 5.75702 92.0172 5.75702C86.2894 5.75702 81.646 10.4004 81.646 16.1283C81.646 21.8561 86.2894 26.4995 92.0172 26.4995Z" fill="#2CA01C"/>
<path fill-rule="evenodd" clip-rule="evenodd" d="M99.5604 16.1112C99.5604 17.1808 99.1354 18.2066 98.3791 18.963C97.6228 19.7193 96.5969 20.1442 95.5273 20.1442V20.1451H92.6441V9.31299C92.8408 9.31293 93.0357 9.35164 93.2174 9.42691C93.3992 9.50218 93.5644 9.61252 93.7035 9.75165C93.8426 9.89077 93.953 10.0559 94.0283 10.2377C94.1035 10.4195 94.1422 10.6143 94.1422 10.8111V18.647H95.5269C96.1993 18.6467 96.8441 18.3796 97.3196 17.9042C97.7951 17.4287 98.0623 16.784 98.0627 16.1116C98.0622 15.4393 97.7949 14.7947 97.3194 14.3193C96.8439 13.844 96.1992 13.5769 95.5269 13.5767H94.9518V12.0781H95.5277C97.756 12.0781 99.5604 13.885 99.5604 16.1112ZM84.5754 16.1112C84.5754 13.885 86.3802 12.0781 88.6085 12.0781H91.4917V22.9098C91.295 22.9099 91.1002 22.8712 90.9184 22.7959C90.7367 22.7207 90.5715 22.6104 90.4324 22.4713C90.2933 22.3322 90.1829 22.1671 90.1077 21.9854C90.0324 21.8036 89.9936 21.6088 89.9936 21.4121V13.5758H88.6089C87.9364 13.576 87.2916 13.8433 86.8161 14.3188C86.3406 14.7943 86.0733 15.4391 86.0731 16.1116C86.0736 16.7839 86.3409 17.4286 86.8164 17.9039C87.2919 18.3792 87.9366 18.6463 88.6089 18.6465H89.1849V20.1442H88.6085C86.3802 20.1442 84.5754 18.3373 84.5754 16.1112Z" fill="white"/>
</g>
<rect x="114.5" y="0.5" width="31" height="31" rx="4.5" fill="#E8EBFC" stroke="#2D3442"/>
<g clip-path="url(#clip1_283_24258)">
<path d="M129.33 20.944C127.668 20.944 125.522 20.2585 123.837 19.3442V23.8608C125.571 24.6082 127.438 24.9958 129.326 25C133.5 25 136.375 23.2075 136.375 19.6015C136.375 13.6195 128.703 14.6912 128.703 12.4345L128.703 12.4338C128.703 11.65 129.357 11.3477 130.406 11.3477C131.933 11.3477 133.872 11.815 135.399 12.6378V7.91725C133.736 7.25275 132.075 7 130.41 7C126.339 7 123.625 9.1225 123.625 12.673C123.625 18.2238 131.255 17.3237 131.255 19.717C131.255 20.6455 130.449 20.944 129.33 20.944Z" fill="#5261FC"/>
</g>
<rect x="152.5" y="38.5001" width="31" height="31" rx="4.5" fill="#F0FCF4" stroke="#2D3442"/>
<g clip-path="url(#clip2_283_24258)">
<path d="M176.466 61.0777C176.466 61.0777 176.638 61.0755 176.754 61.1614C176.754 61.1614 177.097 60.4603 175.863 59.2128C175.863 59.2128 176.034 59.1356 176.258 59.2106C176.258 59.2106 176.223 58.1424 174.943 57.1649C174.943 57.1649 175.131 57.0955 175.225 57.1313C175.225 57.1313 174.728 56.1773 173.434 55.6672C173.568 55.5971 173.718 55.5608 173.869 55.5613C173.869 55.5613 172.904 54.4096 171.228 54.5096C171.228 54.5096 171.316 54.4067 171.496 54.3424C171.496 54.3424 171.226 54.1582 170.58 54.0778C170.237 54.0009 169.802 53.9809 169.802 53.9809C169.942 53.9769 170.236 53.8939 170.407 53.8421C171.115 53.7658 171.8 53.582 172.131 53.1827C172.131 53.1827 171.988 53.2284 171.785 53.0327C171.785 53.0327 173.252 52.8912 174.323 51.4792C174.323 51.4792 173.953 51.6272 173.732 51.4718C173.732 51.4718 175.061 50.9369 175.377 49.9593C175.377 49.9593 175.125 50.1219 174.831 50.0869C174.831 50.0869 175.644 49.5242 175.947 48.5552C175.947 48.5552 175.698 48.6888 175.501 48.6095C175.501 48.6095 176.437 47.9407 176.311 46.9395C176.311 46.9395 176.164 47.1667 175.856 47.0874C175.856 47.0874 176.835 46.0148 176.422 45.0059C176.422 45.0059 175.696 44.9116 175.039 45.5375C175.039 45.5375 175.037 45.364 175.122 45.2483C175.122 45.2483 174.424 44.9033 173.181 46.1423C173.181 46.1423 173.105 45.9707 173.179 45.7457C173.179 45.7457 172.116 45.7806 171.142 47.0668C171.142 47.0668 171.073 46.8775 171.109 46.7832C171.109 46.7832 170.159 47.2826 169.651 48.5816C169.581 48.4466 169.545 48.2966 169.545 48.1444C169.545 48.1444 168.396 49.1127 168.496 50.7961C168.496 50.7961 168.393 50.7076 168.329 50.5274C168.329 50.5274 168.195 50.7262 168.106 51.1891C168.019 51.5959 167.978 52.1651 167.978 52.1651C167.98 51.862 167.821 51.332 167.757 51.1296C167.661 50.5547 167.478 50.0341 167.149 49.759C167.149 49.759 167.194 49.9018 166.999 50.1062C166.999 50.1062 166.858 48.6328 165.452 47.5577C165.452 47.5577 165.6 47.9293 165.445 48.1513C165.445 48.1513 164.912 46.8168 163.938 46.4994C163.938 46.4994 164.1 46.7525 164.066 47.0473C164.066 47.0473 163.505 46.2316 162.54 45.9266C162.54 45.9266 162.673 46.1773 162.594 46.3747C162.594 46.3747 161.928 45.4357 160.931 45.5623C160.931 45.5623 161.157 45.7101 161.078 46.0188C161.078 46.0197 160.01 45.0365 159.005 45.4522C159.005 45.4522 158.911 46.1809 159.534 46.8412C159.534 46.8412 159.362 46.8434 159.246 46.7577C159.246 46.7577 158.903 47.4586 160.137 48.7062C160.137 48.7062 159.966 48.7833 159.742 48.7083C159.742 48.7083 159.777 49.7765 161.057 50.7542C161.057 50.7542 160.869 50.8234 160.775 50.7876C160.775 50.7876 161.272 51.7416 162.566 52.2517C162.431 52.3216 162.282 52.3576 162.13 52.3567C162.13 52.3567 163.095 53.5086 164.772 53.4085C164.772 53.4085 164.684 53.5113 164.504 53.5757C164.504 53.5757 164.632 53.6628 164.921 53.7434C165.304 53.888 166.574 53.9348 166.574 53.9348C166.378 53.9681 166.088 54.0488 165.788 54.1416C165.019 54.2057 164.246 54.3854 163.889 54.8176C163.889 54.8176 164.031 54.7718 164.235 54.9676C164.235 54.9676 162.768 55.1091 161.697 56.5211C161.697 56.5211 162.067 56.3731 162.288 56.5285C162.288 56.5285 160.959 57.0633 160.643 58.0408C160.643 58.0408 160.895 57.8781 161.189 57.9143C161.189 57.9143 160.376 58.477 160.073 59.4459C160.073 59.4459 160.322 59.3122 160.519 59.3917C160.519 59.3917 159.583 60.0605 159.709 61.0616C159.709 61.0616 159.856 60.8344 160.164 60.9138C160.164 60.9138 159.185 61.9863 159.598 62.9953C159.598 62.9953 160.324 63.0896 160.981 62.4637C160.981 62.4637 160.983 62.6372 160.898 62.7529C160.898 62.7529 161.596 63.0979 162.838 61.8589C162.838 61.8589 162.915 62.0304 162.84 62.2555C162.84 62.2555 163.904 62.2204 164.878 60.9342C164.878 60.9342 164.947 61.1236 164.911 61.218C164.911 61.218 165.861 60.7186 166.369 59.4194C166.439 59.5545 166.475 59.7046 166.475 59.8568C166.475 59.8568 167.622 58.8878 167.522 57.2043C167.522 57.2043 167.624 57.2929 167.688 57.4731C167.688 57.4731 168.034 56.9618 167.983 55.6696C168.053 55.9378 168.125 56.1963 168.192 56.4239C168.268 57.1367 168.451 57.827 168.849 58.159C168.849 58.159 168.804 58.016 168.999 57.8116C168.999 57.8116 169.14 59.2851 170.546 60.3602C170.546 60.3602 170.399 59.9885 170.553 59.7668C170.553 59.7668 171.086 61.1012 172.06 61.4184C172.06 61.4184 171.898 61.1654 171.932 60.8708C171.932 60.8708 172.493 61.6863 173.458 61.9914C173.458 61.9914 173.325 61.7407 173.404 61.5435C173.404 61.5435 174.07 62.4823 175.067 62.3569C175.067 62.3569 174.841 62.2088 174.92 61.9003C174.92 61.9003 175.988 62.8826 176.992 62.4682C176.995 62.4668 177.089 61.7374 176.466 61.0777ZM167.992 54.3568C165.861 55.7141 161.604 60.4496 161.604 60.4496C162.216 58.9218 165.529 55.2385 167.77 53.9744C166.397 51.8255 161.718 47.585 161.718 47.585C163.238 48.1995 166.894 51.5146 168.16 53.7642C170.439 52.4628 174.526 47.5877 174.526 47.5877C174.336 48.7917 170.407 52.9739 168.361 54.1419C169.634 56.4248 174.528 60.5626 174.528 60.5626C173.326 60.3701 169.143 56.4065 167.992 54.3568Z" fill="url(#paint0_linear_283_24258)"/>
</g>
<rect x="0.5" y="38.5001" width="31" height="31" rx="4.5" fill="#E9EDF5" stroke="#2D3442"/>
<g clip-path="url(#clip3_283_24258)">
<path d="M26.0029 48.1748C26.0105 48.2032 26.0145 48.2324 26.0145 48.2619V52.8335C26.0145 52.8921 25.999 52.9498 25.9696 53.0005C25.9401 53.0513 25.8977 53.0934 25.8467 53.1226L22.0023 55.3318V59.7104C22.0023 59.8296 21.9388 59.9396 21.8353 59.9996L13.8103 64.6104C13.792 64.6208 13.7719 64.6274 13.7519 64.6345C13.7444 64.637 13.7373 64.6416 13.7293 64.6437C13.6732 64.6584 13.6143 64.6584 13.5582 64.6437C13.549 64.6412 13.5406 64.6362 13.5319 64.6329C13.5135 64.6262 13.4943 64.6204 13.4768 64.6104L5.45347 59.9996C5.4025 59.9704 5.36015 59.9283 5.33068 59.8775C5.30122 59.8267 5.28568 59.7691 5.28564 59.7104V45.9956C5.28564 45.9656 5.28982 45.9365 5.29733 45.9081C5.29984 45.8986 5.30568 45.8898 5.30902 45.8802C5.31528 45.8627 5.32113 45.8448 5.33031 45.8286C5.33658 45.8177 5.34576 45.809 5.35327 45.799C5.36288 45.7856 5.37164 45.7719 5.38291 45.7602C5.39252 45.7506 5.40504 45.7436 5.41589 45.7352C5.428 45.7252 5.43885 45.7144 5.45263 45.7065L9.46491 43.4011C9.5157 43.3719 9.57329 43.3566 9.63189 43.3566C9.6905 43.3566 9.74808 43.3719 9.79888 43.4011L13.8107 45.7065H13.8116C13.8249 45.7148 13.8362 45.7252 13.8483 45.7348C13.8592 45.7431 13.8713 45.7506 13.8809 45.7598C13.8926 45.7719 13.9009 45.7856 13.9109 45.799C13.918 45.809 13.9276 45.8177 13.9335 45.8286C13.9431 45.8452 13.9485 45.8627 13.9552 45.8802C13.9585 45.8898 13.9644 45.8986 13.9669 45.9086C13.9746 45.937 13.9785 45.9662 13.9786 45.9956V54.5618L17.3216 52.6405V48.2614C17.3216 48.2323 17.3258 48.2027 17.3333 48.1748C17.3362 48.1648 17.3417 48.156 17.345 48.1464C17.3517 48.1289 17.3575 48.111 17.3667 48.0948C17.373 48.0839 17.3822 48.0752 17.3893 48.0652C17.3993 48.0519 17.4076 48.0381 17.4193 48.0264C17.4289 48.0169 17.441 48.0098 17.4519 48.0014C17.4644 47.9914 17.4753 47.9806 17.4886 47.9727L21.5013 45.6673C21.5521 45.6381 21.6097 45.6227 21.6683 45.6227C21.7269 45.6227 21.7845 45.6381 21.8353 45.6673L25.8471 47.9727C25.8613 47.981 25.8722 47.9914 25.8847 48.001C25.8952 48.0094 25.9073 48.0169 25.9169 48.026C25.9285 48.0381 25.9369 48.0519 25.9469 48.0652C25.9544 48.0752 25.9636 48.0839 25.9695 48.0948C25.9791 48.111 25.9845 48.1289 25.9912 48.1464C25.9949 48.156 26.0004 48.1648 26.0029 48.1748ZM25.3458 52.6405V48.8389L23.9418 49.6456L22.0023 50.7602V54.5618L25.3462 52.6405H25.3458ZM21.3339 59.5175V55.7134L19.4261 56.8009L13.9781 59.9042V63.7441L21.3339 59.5175ZM5.95443 46.5727V59.5175L13.3094 63.7437V59.9046L9.46699 57.7342L9.46574 57.7334L9.46407 57.7325C9.45113 57.725 9.44028 57.7142 9.42817 57.7051C9.41773 57.6967 9.40563 57.6901 9.39644 57.6809L9.39561 57.6796C9.38475 57.6692 9.37724 57.6563 9.36805 57.6446C9.3597 57.6334 9.34969 57.6238 9.34301 57.6121L9.34259 57.6109C9.33507 57.5984 9.33048 57.5834 9.32505 57.5692C9.31963 57.5567 9.31253 57.5451 9.30919 57.5317C9.30502 57.5159 9.30418 57.4988 9.30251 57.4826C9.30084 57.4701 9.2975 57.4576 9.2975 57.4451V48.4939L7.35837 47.379L5.95443 46.5727ZM9.63231 44.0753L6.28965 45.9956L9.63148 47.916L12.9737 45.9952L9.63148 44.0753H9.63231ZM11.3706 56.0601L13.3098 54.9459V46.5727L11.9058 47.3794L9.96628 48.4939V56.8671L11.3706 56.0601ZM21.6683 46.3415L18.3261 48.2619L21.6683 50.1822L25.0101 48.2614L21.6683 46.3415ZM21.3339 50.7602L19.3944 49.6456L17.9904 48.8389V52.6405L19.9295 53.7547L21.3339 54.5618V50.7602ZM13.6433 59.3271L18.5456 56.5338L20.9962 55.138L17.6564 53.2189L13.8112 55.4284L10.3065 57.4421L13.6433 59.3271Z" fill="#FF2D20"/>
</g>
<rect x="38.5" y="0.500061" width="31" height="31" rx="4.5" fill="#E9EDF5" stroke="#2D3442"/>
<path d="M59.1514 18.9927L48.4465 25.349L62.3081 24.4115L63.3749 10.432L59.1514 18.9927Z" fill="url(#paint1_linear_283_24258)"/>
<path d="M62.3303 24.3988L61.139 16.1762L57.8939 20.4619L62.3303 24.3988Z" fill="url(#paint2_linear_283_24258)"/>
<path d="M62.3464 24.3987L53.6182 23.7137L48.4928 25.3309L62.3464 24.3987Z" fill="url(#paint3_linear_283_24258)"/>
<path d="M48.5048 25.3329L50.6852 18.1898L45.8872 19.2144L48.5048 25.3329Z" fill="url(#paint4_linear_283_24258)"/>
<path d="M57.8925 20.4867L55.8836 12.6284L50.1448 18.009L57.8925 20.4867Z" fill="url(#paint5_linear_283_24258)"/>
<path d="M62.9196 12.7369L57.4955 8.30453L55.9841 13.1929L62.9196 12.7369Z" fill="url(#paint6_linear_283_24258)"/>
<path d="M60.3816 6.72418L57.1894 8.48802L55.1758 6.70007L60.3816 6.72418Z" fill="url(#paint7_linear_283_24258)"/>
<path d="M44.6249 21.6117L45.9642 19.1729L44.8807 16.2679L44.6249 21.6117Z" fill="url(#paint8_linear_283_24258)"/>
<path d="M44.8085 16.1762L45.8973 19.2632L50.6263 18.2025L56.025 13.1876L57.5491 8.34538L55.1498 6.65118L51.071 8.17797C49.7853 9.3706 47.2915 11.7378 47.2018 11.7813C47.112 11.8248 45.5551 14.7706 44.8085 16.1755V16.1762Z" fill="white"/>
<path d="M48.6301 10.6302C51.4152 7.86927 55.0044 6.23735 56.3832 7.62953C57.762 9.02172 56.3002 12.3981 53.5152 15.159C50.7301 17.9199 47.1837 19.6389 45.8069 18.2487C44.4301 16.8586 45.8451 13.3885 48.6301 10.6302Z" fill="url(#paint9_linear_283_24258)"/>
<path d="M48.5049 25.3302L50.6685 18.165L57.8531 20.4733C55.2556 22.9095 52.366 24.9679 48.5049 25.3302Z" fill="url(#paint10_linear_283_24258)"/>
<path d="M56.0344 13.1702L57.8786 20.476C60.0482 18.1945 61.9962 15.7416 62.9498 12.7081L56.0337 13.1709L56.0344 13.1702Z" fill="url(#paint11_linear_283_24258)"/>
<path d="M62.9309 12.745C63.6675 10.517 63.8396 7.32084 60.3588 6.72821L57.5028 8.30522L62.9309 12.7443V12.745Z" fill="url(#paint12_linear_283_24258)"/>
<path d="M44.6249 21.5795C44.7273 25.2559 47.3798 25.3108 48.5088 25.3429L45.8972 19.2492L44.6249 21.5795Z" fill="#9E1209"/>
<path d="M56.0443 13.1816C57.7117 14.2068 61.0727 16.2619 61.1403 16.3028C61.9243 15.2186 62.5174 14.0086 62.8941 12.7249L56.0443 13.1816Z" fill="url(#paint13_radial_283_24258)"/>
<path d="M50.6658 18.1644L53.558 23.7438C55.1333 22.8664 56.5734 21.7657 57.8336 20.476L50.6684 18.1644H50.6658Z" fill="url(#paint14_radial_283_24258)"/>
<path d="M45.8886 19.2552L45.4788 24.1349C46.2522 25.1909 47.3156 25.2827 48.4312 25.2003C47.6243 23.1914 46.0111 19.1735 45.8866 19.2552H45.8886Z" fill="url(#paint15_linear_283_24258)"/>
<path d="M57.4861 8.31793L63.2316 9.1215C62.9249 7.82239 61.9834 6.984 60.3783 6.7215L57.4861 8.31525V8.31793Z" fill="url(#paint16_linear_283_24258)"/>
<rect x="76.5" y="38.5001" width="31" height="31" rx="4.5" fill="#FFE01B" stroke="#2D3442"/>
<path d="M101.492 56.9298L101.141 55.9337C101.141 55.9337 102.605 53.7072 98.9725 52.9454C98.9725 52.9454 99.2069 50.1915 97.9178 48.9025C100.73 46.1486 100.086 41.9884 93.6991 44.6837C90.4178 38.4142 77.7616 53.1212 83.035 55.465C82.5077 56.1681 82.5077 59.6837 86.1405 60.0353C88.6014 65.3087 94.578 65.6603 98.035 64.0782C101.492 62.4962 103.484 57.4572 101.492 56.9298ZM86.0819 59.2736C83.0936 58.9806 82.8007 54.879 85.3788 54.4689C87.9569 54.0587 88.6014 59.5079 86.0819 59.2736ZM85.203 53.7072C84.3827 53.7072 83.3866 54.8204 83.3866 54.8204C79.4022 52.8868 90.5936 40.0548 92.996 45.0353C92.996 45.0353 87.1366 47.8478 85.203 53.7072ZM96.9218 58.6876C96.9218 58.4532 95.6913 59.0392 93.4647 58.2775C93.6405 57.047 96.2772 59.3322 100.672 56.3439L101.023 57.5743C102.664 57.2814 101.023 62.8478 95.7499 62.7892C91.4725 62.7306 90.1249 58.3361 92.4686 55.9337C92.9374 55.465 90.7694 54.5275 91.1796 52.4767C91.3553 51.5978 92.1171 50.3087 94.0507 50.6603C95.9843 51.0118 96.3944 49.254 97.6835 49.8986C98.9725 50.5431 98.2108 53.004 98.3866 53.3556C98.5624 53.7072 100.437 53.7657 100.789 54.7618C101.141 55.7579 98.3866 57.9259 94.1093 57.34C93.1132 57.2228 92.5272 58.5118 93.1718 59.3322C94.4608 61.2072 99.7343 59.9767 100.613 58.1603C98.3866 59.8595 93.8163 60.504 93.4647 58.6876C94.7538 59.2736 96.9218 58.922 96.9218 58.6876ZM89.246 49.4298C90.535 47.8478 92.2343 46.9103 92.2343 46.9103L91.8827 47.7892C91.8827 47.7892 93.1132 46.8517 94.4608 46.8517L93.9921 47.3204C95.5155 47.379 96.16 47.965 96.16 47.965C96.16 47.965 92.5858 46.9103 89.246 49.4298ZM97.1561 51.715C97.9178 51.6564 97.6835 53.4142 97.6835 53.4142H97.2147C97.2147 53.4142 96.3944 51.7736 97.1561 51.715ZM93.6991 53.6486C93.1718 53.7072 92.5858 54.0001 92.6444 53.7657C92.8788 52.8282 95.0468 53.0626 94.9882 53.8829C94.9296 54.7032 94.4608 53.5314 93.6991 53.6486ZM94.9296 54.3517C94.9882 54.4689 94.5194 54.3517 94.1678 54.4103C93.8163 54.4689 93.4647 54.6447 93.4647 54.5275C93.4647 54.4103 94.8124 53.8829 94.9296 54.3517ZM96.1014 54.5275C96.2772 54.1759 96.9803 54.5275 96.8046 54.879C96.6288 55.2306 95.9257 54.879 96.1014 54.5275ZM97.5663 54.6447C97.2147 54.6447 97.2147 53.8829 97.5663 53.8829C97.9178 53.8829 97.9178 54.7032 97.5663 54.7032V54.6447ZM87.0194 57.7501C87.1952 57.9259 86.6678 58.2775 86.2577 57.9845C85.8475 57.6915 86.7264 56.2853 85.6717 55.9337C84.6171 55.5822 84.91 56.9298 84.6171 56.754C84.3241 56.5782 85.0272 54.7032 86.2577 55.465C87.4882 56.2267 85.9061 57.3986 86.6092 57.7501C87.3124 58.1017 86.9022 57.6329 87.0194 57.7501Z" fill="#1E1E1E"/>
<rect x="114.5" y="38.5" width="31" height="31" rx="4.5" fill="#CDFADA" stroke="#2D3442"/>
<g clip-path="url(#clip4_283_24258)">
<rect x="119" y="43" width="22" height="22" rx="11" fill="#62CA9F"/>
<path d="M128.87 48.0167V51.4763H131.313V52.8536H128.87V56.9854C128.87 57.8708 129.345 58.3627 130.148 58.3627H131.313V59.74H130.017C128.345 59.74 127.279 58.7234 127.279 57.0346V52.8536H125.59V51.4763H127.279V48.0167H128.87Z" fill="white"/>
<path d="M134.889 52.3984V54.1856H133.134V52.3984H134.889ZM134.889 57.9731V59.7398H133.134V57.969L134.889 57.9731Z" fill="white"/>
</g>
<rect x="152.5" y="0.500031" width="31" height="31" rx="4.5" fill="#CDFADA" stroke="#2D3442"/>
<g clip-path="url(#clip5_283_24258)">
<path d="M174.89 9.61325C174.876 9.50834 174.784 9.45014 174.708 9.4438C174.633 9.43746 173.154 9.41499 173.154 9.41499C173.154 9.41499 171.917 8.2139 171.795 8.09172C171.672 7.96953 171.434 8.00642 171.341 8.03408C171.34 8.03466 171.109 8.10613 170.72 8.22658C170.655 8.01564 170.559 7.75629 170.422 7.49578C169.982 6.65548 169.337 6.21113 168.558 6.20998C168.557 6.20998 168.556 6.20998 168.555 6.20998C168.501 6.20998 168.447 6.21516 168.393 6.21977C168.37 6.19211 168.347 6.16502 168.323 6.13851C167.983 5.77542 167.548 5.59848 167.027 5.61404C166.02 5.64286 165.018 6.36962 164.205 7.66062C163.634 8.56892 163.199 9.71009 163.075 10.5936C161.92 10.9515 161.112 11.2016 161.094 11.2074C160.511 11.3907 160.492 11.4085 160.416 11.9584C160.36 12.3739 158.833 24.175 158.833 24.175L171.623 26.387L177.166 25.0089C177.166 25.0089 174.905 9.71815 174.89 9.61325ZM170.079 8.42484C169.785 8.5159 169.45 8.61964 169.087 8.73203C169.08 8.22255 169.019 7.51365 168.782 6.901C169.545 7.04566 169.921 7.90959 170.079 8.42484ZM168.418 8.93951C167.748 9.14698 167.016 9.37348 166.283 9.60057C166.489 8.81041 166.88 8.02371 167.361 7.50789C167.54 7.31597 167.79 7.10215 168.086 6.97996C168.364 7.56091 168.425 8.38334 168.418 8.93951ZM167.047 6.28374C167.283 6.27856 167.482 6.33043 167.652 6.44224C167.38 6.58344 167.117 6.78631 166.87 7.05085C166.231 7.73669 165.741 8.80119 165.546 9.82822C164.937 10.0167 164.341 10.2017 163.792 10.3711C164.139 8.75451 165.494 6.3287 167.047 6.28374Z" fill="#95BF47"/>
<path d="M174.709 9.44432C174.633 9.43798 173.154 9.41551 173.154 9.41551C173.154 9.41551 171.917 8.21441 171.795 8.09223C171.75 8.0467 171.688 8.02307 171.624 8.01328L171.624 26.3863L177.167 25.0089C177.167 25.0089 174.905 9.71867 174.891 9.61376C174.876 9.50886 174.784 9.45065 174.709 9.44432Z" fill="#5E8E3E"/>
<path d="M168.551 12.2943L167.907 14.7028C167.907 14.7028 167.189 14.3761 166.338 14.4297C165.09 14.5086 165.076 15.2959 165.089 15.4936C165.157 16.5708 167.991 16.8059 168.15 19.3291C168.275 21.314 167.097 22.6719 165.4 22.7791C163.362 22.9076 162.241 21.7059 162.241 21.7059L162.672 19.8697C162.672 19.8697 163.801 20.7215 164.705 20.6645C165.295 20.627 165.506 20.1469 165.485 19.8075C165.396 18.4024 163.089 18.4853 162.943 16.1765C162.82 14.2337 164.096 12.265 166.911 12.0874C167.996 12.0177 168.551 12.2943 168.551 12.2943Z" fill="white"/>
</g>
<rect x="0.5" y="0.500061" width="31" height="31" rx="4.5" fill="#CDFADA" stroke="#2D3442"/>
<g clip-path="url(#clip6_283_24258)">
<path d="M15.0999 5.57173C15.6356 5.26838 16.3186 5.26705 16.8409 5.57173L24.8392 10.0804C25.3394 10.3617 25.6742 10.9195 25.6695 11.4961V20.5362C25.6729 21.1369 25.3052 21.7068 24.7776 21.9827L16.8222 26.4706C16.5501 26.621 16.2427 26.6958 15.9319 26.6872C15.6212 26.6786 15.3184 26.5869 15.055 26.4217L12.6677 25.0423C12.505 24.9452 12.3222 24.8682 12.207 24.7108C12.3088 24.5742 12.4896 24.5568 12.6369 24.4965C12.9691 24.3907 13.2731 24.2287 13.5784 24.0572C13.6555 24.0037 13.7499 24.0237 13.8235 24.072L15.8593 25.2492C16.0046 25.3329 16.1519 25.2224 16.2764 25.1521L24.0878 20.7438C24.1842 20.697 24.2378 20.5952 24.2298 20.4894V11.5362C24.2405 11.4157 24.1715 11.3059 24.0624 11.257L16.1271 6.78847C16.0814 6.75684 16.0271 6.73985 15.9715 6.73973C15.9159 6.73961 15.8616 6.75637 15.8157 6.7878L7.89184 11.2657C7.7847 11.3146 7.71104 11.4231 7.72443 11.5436V20.4967C7.71506 20.6025 7.77131 20.7023 7.8684 20.7478L9.98581 21.9432C10.3836 22.1574 10.8718 22.278 11.3097 22.1206C11.5013 22.0484 11.6663 21.9193 11.7825 21.7507C11.8988 21.582 11.9607 21.3819 11.9599 21.1771L11.9619 12.2775C11.9526 12.1456 12.0771 12.0365 12.205 12.0499H13.2229C13.3568 12.0465 13.4619 12.1885 13.4438 12.3211L13.4418 21.2769C13.4425 22.0724 13.1157 22.9376 12.3798 23.328C11.4731 23.7967 10.3521 23.6983 9.45613 23.2476L7.17934 21.9887C6.64363 21.7208 6.28403 21.1423 6.28738 20.5423V11.5021C6.2896 11.2083 6.37038 10.9204 6.52133 10.6683C6.67228 10.4162 6.8879 10.2091 7.14586 10.0684L15.0999 5.57173ZM17.4061 11.8383C18.5626 11.7713 19.8008 11.7941 20.8414 12.3639C21.647 12.8005 22.0936 13.7166 22.1084 14.6126C22.0856 14.7331 21.9597 14.8001 21.8445 14.7914C21.5097 14.7907 21.1735 14.7961 20.8374 14.7894C20.6947 14.7947 20.6124 14.6635 20.5943 14.5376C20.4979 14.109 20.2642 13.6851 19.861 13.4782C19.2423 13.1682 18.5244 13.1836 17.8494 13.1903C17.3566 13.217 16.8269 13.2592 16.4097 13.5485C16.0883 13.7682 15.9918 14.2182 16.1063 14.5677C16.2135 14.8242 16.5101 14.9066 16.7519 14.9829C18.1461 15.3472 19.6226 15.3177 20.9907 15.7912C21.5566 15.9867 22.1104 16.367 22.3046 16.9597C22.5577 17.7539 22.4472 18.7034 21.8827 19.3409C21.4247 19.8659 20.7577 20.1445 20.0914 20.3066C19.2055 20.5041 18.2867 20.5088 17.3874 20.4204C16.5416 20.324 15.6617 20.1016 15.0088 19.5257C14.4503 19.0409 14.1784 18.2856 14.2052 17.557C14.2119 17.4338 14.3345 17.3481 14.453 17.3581H15.4575C15.5927 17.3487 15.6918 17.4653 15.6985 17.5925C15.7608 17.9943 15.9142 18.4295 16.2704 18.6639C16.9575 19.1072 17.8193 19.0764 18.6055 19.0891C19.257 19.0603 19.9883 19.0516 20.5206 18.6204C20.8019 18.3746 20.8842 17.9641 20.8086 17.6106C20.7262 17.3119 20.4068 17.1733 20.1389 17.0749C18.7628 16.6396 17.2695 16.7976 15.9068 16.3048C15.3537 16.1092 14.8186 15.7396 14.6063 15.1711C14.3097 14.3675 14.4456 13.3717 15.0704 12.7557C15.6731 12.1429 16.557 11.9066 17.3941 11.8222L17.4061 11.8383Z" fill="#8CC84B"/>
</g>
<defs>
<linearGradient id="paint0_linear_283_24258" x1="159.251" y1="45.2049" x2="176.791" y2="62.6721" gradientUnits="userSpaceOnUse">
<stop offset="0.2" stop-color="#00FF85"/>
<stop offset="1" stop-color="#00E0FF"/>
</linearGradient>
<linearGradient id="paint1_linear_283_24258" x1="61.0493" y1="27.0422" x2="57.113" y2="19.9786" gradientUnits="userSpaceOnUse">
<stop stop-color="#FB7655"/>
<stop offset="0.41" stop-color="#E42B1E"/>
<stop offset="0.99" stop-color="#990000"/>
<stop offset="1" stop-color="#990000"/>
</linearGradient>
<linearGradient id="paint2_linear_283_24258" x1="63.0637" y1="21.1776" x2="57.5123" y2="20.0841" gradientUnits="userSpaceOnUse">
<stop stop-color="#871101"/>
<stop offset="0.99" stop-color="#911209"/>
<stop offset="1" stop-color="#911209"/>
</linearGradient>
<linearGradient id="paint3_linear_283_24258" x1="58.9334" y1="27.1797" x2="58.8608" y2="23.6446" gradientUnits="userSpaceOnUse">
<stop stop-color="#871101"/>
<stop offset="0.99" stop-color="#911209"/>
<stop offset="1" stop-color="#911209"/>
</linearGradient>
<linearGradient id="paint4_linear_283_24258" x1="48.299" y1="18.7109" x2="49.9428" y2="23.5568" gradientUnits="userSpaceOnUse">
<stop stop-color="white"/>
<stop offset="0.23" stop-color="#E57252"/>
<stop offset="0.46" stop-color="#DE3B20"/>
<stop offset="0.99" stop-color="#A60003"/>
<stop offset="1" stop-color="#A60003"/>
</linearGradient>
<linearGradient id="paint5_linear_283_24258" x1="53.7686" y1="13.869" x2="54.0588" y2="19.0905" gradientUnits="userSpaceOnUse">
<stop stop-color="white"/>
<stop offset="0.23" stop-color="#E4714E"/>
<stop offset="0.56" stop-color="#BE1A0D"/>
<stop offset="0.99" stop-color="#A80D00"/>
<stop offset="1" stop-color="#A80D00"/>
</linearGradient>
<linearGradient id="paint6_linear_283_24258" x1="58.6024" y1="8.97935" x2="59.0144" y2="12.7599" gradientUnits="userSpaceOnUse">
<stop stop-color="white"/>
<stop offset="0.18" stop-color="#E46342"/>
<stop offset="0.4" stop-color="#C82410"/>
<stop offset="0.99" stop-color="#A80D00"/>
<stop offset="1" stop-color="#A80D00"/>
</linearGradient>
<linearGradient id="paint7_linear_283_24258" x1="55.818" y1="7.81186" x2="56.4307" y2="5.19197" gradientUnits="userSpaceOnUse">
<stop stop-color="white"/>
<stop offset="0.54" stop-color="#C81F11"/>
<stop offset="0.99" stop-color="#BF0905"/>
<stop offset="1" stop-color="#BF0905"/>
</linearGradient>
<linearGradient id="paint8_linear_283_24258" x1="45.0419" y1="17.4357" x2="46.6717" y2="18.4797" gradientUnits="userSpaceOnUse">
<stop stop-color="white"/>
<stop offset="0.31" stop-color="#DE4024"/>
<stop offset="0.99" stop-color="#BF190B"/>
<stop offset="1" stop-color="#BF190B"/>
</linearGradient>
<linearGradient id="paint9_linear_283_24258" x1="42.9603" y1="21.2894" x2="57.4489" y2="6.25068" gradientUnits="userSpaceOnUse">
<stop stop-color="#BD0012"/>
<stop offset="0.07" stop-color="white"/>
<stop offset="0.17" stop-color="white"/>
<stop offset="0.27" stop-color="#C82F1C"/>
<stop offset="0.33" stop-color="#820C01"/>
<stop offset="0.46" stop-color="#A31601"/>
<stop offset="0.72" stop-color="#B31301"/>
<stop offset="0.99" stop-color="#E82609"/>
<stop offset="1" stop-color="#E82609"/>
</linearGradient>
<linearGradient id="paint10_linear_283_24258" x1="53.9729" y1="22.9399" x2="49.8289" y2="21.1725" gradientUnits="userSpaceOnUse">
<stop stop-color="#8C0C01"/>
<stop offset="0.54" stop-color="#990C00"/>
<stop offset="0.99" stop-color="#A80D0E"/>
<stop offset="1" stop-color="#A80D0E"/>
</linearGradient>
<linearGradient id="paint11_linear_283_24258" x1="61.5554" y1="17.5103" x2="57.3139" y2="14.5261" gradientUnits="userSpaceOnUse">
<stop stop-color="#7E110B"/>
<stop offset="0.99" stop-color="#9E0C00"/>
<stop offset="1" stop-color="#9E0C00"/>
</linearGradient>
<linearGradient id="paint12_linear_283_24258" x1="62.9473" y1="11.129" x2="60.9201" y2="9.10014" gradientUnits="userSpaceOnUse">
<stop stop-color="#79130D"/>
<stop offset="0.99" stop-color="#9E120B"/>
<stop offset="1" stop-color="#9E120B"/>
</linearGradient>
<radialGradient id="paint13_radial_283_24258" cx="0" cy="0" r="1" gradientUnits="userSpaceOnUse" gradientTransform="translate(58.2805 14.1048) scale(4.73879 2.47619)">
<stop stop-color="#A80D00"/>
<stop offset="0.99" stop-color="#7E0E08"/>
<stop offset="1" stop-color="#7E0E08"/>
</radialGradient>
<radialGradient id="paint14_radial_283_24258" cx="0" cy="0" r="1" gradientUnits="userSpaceOnUse" gradientTransform="translate(51.7169 20.4124) scale(6.32886 4.92673)">
<stop stop-color="#A30C00"/>
<stop offset="0.99" stop-color="#800E08"/>
<stop offset="1" stop-color="#800E08"/>
</radialGradient>
<linearGradient id="paint15_linear_283_24258" x1="47.0879" y1="25.3049" x2="43.5499" y2="22.3479" gradientUnits="userSpaceOnUse">
<stop stop-color="#8B2114"/>
<stop offset="0.43" stop-color="#9E100A"/>
<stop offset="0.99" stop-color="#B3100C"/>
<stop offset="1" stop-color="#B3100C"/>
</linearGradient>
<linearGradient id="paint16_linear_283_24258" x1="59.3324" y1="7.60126" x2="60.3328" y2="10.1392" gradientUnits="userSpaceOnUse">
<stop stop-color="#B31000"/>
<stop offset="0.44" stop-color="#910F08"/>
<stop offset="0.99" stop-color="#791C12"/>
<stop offset="1" stop-color="#791C12"/>
</linearGradient>
<clipPath id="clip0_283_24258">
<rect width="22" height="22" fill="white" transform="translate(81 5.00003)"/>
</clipPath>
<clipPath id="clip1_283_24258">
<rect width="18" height="18" fill="white" transform="translate(121 7)"/>
</clipPath>
<clipPath id="clip2_283_24258">
<rect width="18" height="18" fill="white" transform="translate(159 45.0001)"/>
</clipPath>
<clipPath id="clip3_283_24258">
<rect width="20.7658" height="21.4286" fill="white" transform="translate(5.28564 43.2858)"/>
</clipPath>
<clipPath id="clip4_283_24258">
<rect width="22" height="22" fill="white" transform="translate(119 43)"/>
</clipPath>
<clipPath id="clip5_283_24258">
<rect width="22" height="22" fill="white" transform="translate(157 5.00003)"/>
</clipPath>
<clipPath id="clip6_283_24258">
<rect width="21.4286" height="21.4286" fill="white" transform="translate(5.28564 5.2858)"/>
</clipPath>
</defs>
</svg>
