<svg width="128" height="14" viewBox="0 0 128 14" fill="none" xmlns="http://www.w3.org/2000/svg">
<g clip-path="url(#clip0_740_8734)">
<path d="M127.836 0.435298C127.824 0.667012 127.812 0.898726 127.799 1.13044C127.793 1.24376 127.766 1.36042 127.785 1.46974C127.83 1.72559 127.688 1.87998 127.512 2.03783C126.909 2.57899 126.313 3.12654 125.717 3.67408C124.667 4.63801 123.619 5.60352 122.57 6.56865C122.534 6.60225 122.5 6.63865 122.452 6.68702C122.641 6.89593 122.828 7.1038 123.017 7.30963C124.078 8.46327 125.138 9.61652 126.199 10.7697C126.557 11.1596 126.918 11.5475 127.274 11.9398C127.315 11.9851 127.353 12.0515 127.354 12.1084C127.358 12.6942 127.356 13.2801 127.354 13.8659C127.354 13.8754 127.346 13.8848 127.338 13.902C126.409 13.902 125.477 13.902 124.525 13.902C124.525 13.6838 124.514 13.4731 124.528 13.2641C124.539 13.1146 124.48 13.0086 124.381 12.9029C123.77 12.2436 123.161 11.5816 122.552 10.9197C121.648 9.93729 120.746 8.95351 119.839 7.97358C119.798 7.92864 119.719 7.89599 119.656 7.892C119.481 7.88094 119.305 7.88811 119.108 7.88811C119.108 9.9298 119.108 11.9607 119.108 13.9998C118.157 13.9998 117.229 13.9998 116.287 13.9998C116.287 9.34226 116.287 4.68148 116.287 0.0108042C117.218 0.0108042 118.145 0.0108042 119.106 0.0108042C119.106 0.0786652 119.106 0.14599 119.106 0.213318C119.106 1.80278 119.108 3.39225 119.102 4.98171C119.102 5.13823 119.145 5.18237 119.309 5.18076C120.002 5.17411 119.996 5.1733 120.496 4.70906C121.523 3.75447 122.558 2.80643 123.591 1.85691C124.031 1.45161 124.483 1.05645 124.91 0.639016C124.988 0.563556 124.98 0.402503 124.998 0.279181C125.011 0.195588 125.001 0.108927 125.001 0.0162684C125.058 0.00973565 125.096 0.00173923 125.134 0.00173923C126.001 0.00107262 126.868 0.00107168 127.735 0.00160496C127.769 0.00160496 127.802 0.00867018 127.836 0.0124032C127.836 0.153191 127.836 0.294245 127.836 0.435298Z" fill="black"/>
<path d="M0 11.7759C0.101201 11.6858 0.20453 11.5977 0.303463 11.5053C0.866445 10.9796 1.42829 10.4528 2.00035 9.91713C2.19056 10.0887 2.38346 10.2588 2.57169 10.4333C2.83816 10.6804 3.09767 10.934 3.36839 11.1766C3.4224 11.225 3.51282 11.2618 3.58667 11.2624C4.39713 11.2683 5.20774 11.2639 6.0182 11.2688C6.12915 11.2694 6.17537 11.2317 6.21265 11.1389C6.33228 10.8403 6.46013 10.5444 6.58925 10.2494C6.62608 10.1652 6.61321 10.1099 6.54233 10.0417C5.73611 9.26347 4.93403 8.48154 4.13139 7.69985C3.52176 7.10618 2.91257 6.51209 2.30437 5.91733C1.5825 5.21142 0.861767 4.50452 0.137204 3.79458C0.606921 3.04893 1.07381 2.30819 1.54012 1.56705C1.82813 1.10936 2.11756 0.652333 2.4009 0.191973C2.46085 0.0946483 2.52634 0.0505158 2.65291 0.0507825C4.3987 0.0550486 6.14448 0.0522504 7.89023 0.0578497C7.97403 0.0581164 8.07721 0.100645 8.13801 0.155974C8.77752 0.737257 9.41008 1.32547 10.0454 1.91102C10.1246 1.98408 10.2081 2.05301 10.3121 2.14327C9.6173 2.76495 8.93756 3.37303 8.2093 4.02443C7.90683 3.72234 7.5488 3.3737 7.20238 3.01533C6.9939 2.79961 6.76826 2.69615 6.43885 2.70922C5.71457 2.73815 4.98817 2.72055 4.26277 2.71562C4.15077 2.71482 4.09042 2.74788 4.03784 2.84014C3.92867 3.03172 3.80439 3.21558 3.6839 3.40663C3.85894 3.57888 4.02579 3.74474 4.19472 3.90886C4.91546 4.60879 5.63762 5.30739 6.35766 6.00812C7.29012 6.91567 8.22136 7.82438 9.15256 8.73312C9.38415 8.95922 9.60867 9.192 9.84651 9.41198C9.93042 9.48957 9.93693 9.55236 9.89611 9.64847C9.34772 10.9418 8.80275 12.2364 8.25708 13.5308C8.08841 13.9308 8.08867 13.9309 7.63073 13.9309C5.91896 13.9309 4.20718 13.9295 2.49543 13.9336C2.34902 13.934 2.24413 13.8975 2.13882 13.7977C1.46826 13.1621 0.790471 12.5333 0.114526 11.9027C0.0785247 11.8691 0.038269 11.8394 0 11.8079C0 11.7972 0 11.7866 0 11.7759Z" fill="black"/>
<path d="M102.023 0.000854492C102.027 0.473746 102.033 0.946774 102.031 1.41967C102.03 1.47473 101.987 1.53699 101.946 1.58325C101.158 2.48891 100.366 3.39256 99.5754 4.29702C98.7494 5.24188 97.9222 6.18593 97.1014 7.13478C97.0482 7.19624 97.0236 7.29582 97.0233 7.37768C97.0192 9.50243 97.0199 11.6272 97.0199 13.752C97.0199 13.8142 97.0199 13.8766 97.0199 13.9506C96.0752 13.9506 95.1442 13.9506 94.1872 13.9506C94.1872 13.8746 94.1872 13.803 94.1872 13.7316C94.1872 11.6225 94.1886 9.51363 94.1827 7.40463C94.1823 7.3101 94.1403 7.19743 94.0766 7.12397C92.8926 5.75928 91.7027 4.39929 90.5142 3.0382C90.08 2.54117 89.6458 2.04428 89.2138 1.54552C89.1836 1.51086 89.1561 1.46193 89.1561 1.41967C89.1557 0.946774 89.1609 0.473746 89.1646 0.000854492C90.1057 0.000854492 91.0467 0.000854492 91.9881 0.000854492C91.9873 0.116445 91.9937 0.232569 91.9836 0.347492C91.9725 0.47628 92.0171 0.574672 92.1057 0.675199C93.0084 1.70271 93.9059 2.73408 94.8056 3.76414C95.0642 4.06025 95.3246 4.35501 95.5926 4.65966C95.6305 4.6214 95.6584 4.59672 95.6822 4.56939C96.7457 3.35217 97.7983 2.12681 98.8793 0.923174C99.1345 0.638932 99.2558 0.35749 99.1996 0.000988756C100.141 0.000855434 101.082 0.000854492 102.023 0.000854492Z" fill="black"/>
<path d="M113.513 13.9996C112.562 13.9996 111.63 13.9996 110.679 13.9996C110.679 13.9219 110.679 13.8533 110.679 13.7846C110.679 12.7234 110.675 11.662 110.684 10.6009C110.685 10.4308 110.63 10.3982 110.464 10.3988C108.593 10.4041 106.722 10.4041 104.852 10.3986C104.687 10.3981 104.644 10.4414 104.645 10.5965C104.652 11.6577 104.649 12.719 104.649 13.7803C104.649 13.8495 104.649 13.9187 104.649 13.9984C103.701 13.9984 102.769 13.9984 101.824 13.9984C101.821 13.9454 101.816 13.8934 101.816 13.8414C101.815 12.3491 101.815 10.8568 101.818 9.36469C101.818 9.27579 101.837 9.1822 101.869 9.09887C102.862 6.57974 103.858 4.06156 104.853 1.54338C105.04 1.07049 105.232 0.59906 105.415 0.124966C105.45 0.0360407 105.494 0.000844615 105.597 0.000977937C106.986 0.00417767 108.374 0.00417767 109.763 0.000977937C109.867 0.000711293 109.909 0.0392394 109.943 0.126565C111.056 2.97632 112.164 5.82728 113.291 8.67197C113.45 9.07328 113.522 9.46791 113.518 9.89372C113.504 11.1919 113.513 12.4903 113.513 13.7886C113.513 13.853 113.513 13.9175 113.513 13.9996ZM109.871 7.70324C109.853 7.64952 109.841 7.60339 109.823 7.55887C109.235 6.06087 108.648 4.56297 108.06 3.06511C107.911 2.68608 107.91 2.68621 107.487 2.69595C107.47 2.69634 107.453 2.70101 107.429 2.70501C106.772 4.36582 106.115 6.02898 105.453 7.70324C106.942 7.70324 108.402 7.70324 109.871 7.70324Z" fill="black"/>
<path d="M33.5121 13.9997C33.5121 12.8035 33.5121 11.6152 33.5121 10.4104C33.4388 10.4073 33.3785 10.4025 33.3182 10.4025C31.442 10.4021 29.5657 10.4042 27.6895 10.3986C27.5265 10.3981 27.4942 10.4494 27.4949 10.5914C27.5004 11.6524 27.4979 12.7134 27.4979 13.7743C27.4979 13.844 27.4979 13.9136 27.4979 13.9958C26.5545 13.9958 25.6225 13.9958 24.665 13.9958C24.665 13.9386 24.665 13.8766 24.665 13.8145C24.665 12.3388 24.6633 10.8631 24.6681 9.38748C24.6685 9.26218 24.6941 9.13016 24.7405 9.01284C25.8842 6.11242 27.0323 3.21349 28.1794 0.314269C28.3017 0.00509606 28.3009 0.0048275 28.6523 0.0048275C29.9447 0.0048275 31.237 0.00763023 32.5294 0.00123079C32.6869 0.000430855 32.7519 0.0470931 32.8066 0.187348C33.9642 3.15709 35.1284 6.12443 36.2889 9.09324C36.3215 9.17685 36.3399 9.27058 36.34 9.35962C36.3431 10.8515 36.3423 12.3432 36.3418 13.8351C36.3418 13.8875 36.3365 13.9398 36.3331 14C35.3898 13.9997 34.4579 13.9997 33.5121 13.9997ZM32.7174 7.70524C32.6367 7.49846 32.5647 7.31313 32.4923 7.12795C31.9318 5.69459 31.3707 4.26152 30.8127 2.82739C30.7734 2.72633 30.7186 2.67673 30.6019 2.69486C30.5523 2.7026 30.4989 2.70313 30.4494 2.69486C30.3118 2.67193 30.2537 2.73206 30.2067 2.85165C29.5936 4.41524 28.9749 5.97697 28.3578 7.53923C28.3374 7.59096 28.3191 7.64336 28.2963 7.70538C29.7769 7.70524 31.2315 7.70524 32.7174 7.70524Z" fill="black"/>
<path d="M89.4225 13.9996C88.473 13.9996 87.545 13.9996 86.5954 13.9996C86.5954 13.9237 86.5954 13.8554 86.5954 13.7873C86.5954 12.7156 86.5931 11.6439 86.5983 10.5722C86.5987 10.4394 86.5608 10.3986 86.4179 10.399C84.5306 10.4033 82.643 10.4018 80.7554 10.4022C80.7051 10.4022 80.6553 10.4074 80.5916 10.4109C80.5916 11.606 80.5916 12.7939 80.5916 13.9947C79.6413 13.9947 78.7051 13.9947 77.7511 13.9947C77.7511 13.9207 77.7511 13.8521 77.7511 13.7833C77.7511 12.3239 77.7466 10.8644 77.7563 9.40512C77.7574 9.22872 77.8114 9.045 77.8776 8.8777C79.0184 5.98208 80.166 3.08872 81.3079 0.193505C81.3634 0.0532509 81.4341 5.53554e-05 81.5989 0.000988609C82.9425 0.00832132 84.2858 0.00725417 85.6294 0.0020546C85.7704 0.00152131 85.833 0.0417828 85.8828 0.169639C86.7464 2.39051 87.6156 4.60952 88.4849 6.82852C88.7822 7.5882 89.0828 8.34682 89.379 9.10688C89.4062 9.17594 89.4263 9.2522 89.4263 9.32525C89.4289 10.8439 89.4285 12.3626 89.4281 13.8813C89.4281 13.9175 89.4248 13.9541 89.4225 13.9996ZM81.379 7.69806C82.8677 7.69806 84.3249 7.69806 85.7931 7.69806C85.7675 7.62355 85.7485 7.56223 85.725 7.50248C85.1282 5.97914 84.5314 4.4558 83.9334 2.93273C83.84 2.69502 83.8374 2.70342 83.5327 2.69289C83.3972 2.68822 83.3396 2.72875 83.2923 2.85047C82.8086 4.08785 82.3167 5.3224 81.8277 6.5579C81.6789 6.93387 81.5316 7.31023 81.379 7.69806Z" fill="black"/>
<path d="M51.2945 0.000854492C54.7032 0.000854492 58.0956 0.000854492 61.5017 0.000854492C61.5017 0.884646 61.5017 1.76044 61.5017 2.6513C59.0452 2.6513 56.5931 2.6513 54.1298 2.6513C54.1298 3.63828 54.1298 4.6102 54.1298 5.59489C55.7168 5.59489 57.3019 5.59489 58.9008 5.59489C58.9008 6.48764 58.9008 7.36781 58.9008 8.26469C57.3109 8.26469 55.7265 8.26469 54.1302 8.26469C54.1302 9.29579 54.1302 10.3104 54.1302 11.3439C56.5853 11.3439 59.0366 11.3439 61.5014 11.3439C61.5014 12.2386 61.5014 13.1144 61.5014 13.9997C58.0993 13.9997 54.7014 13.9997 51.2945 13.9997C51.2945 9.33418 51.2945 4.67778 51.2945 0.000854492Z" fill="black"/>
<path d="M75.3879 13.9069C74.4313 13.9069 73.5036 13.9069 72.5548 13.9069C72.5548 13.6646 72.5604 13.428 72.5514 13.1917C72.5488 13.1228 72.5235 13.0399 72.4774 12.9893C71.3399 11.7439 70.1987 10.5016 69.0567 9.25952C68.6612 8.8293 68.2638 8.40041 67.8634 7.97418C67.8273 7.93578 67.7641 7.90166 67.712 7.89952C67.4973 7.89126 67.2819 7.89606 67.0474 7.89606C67.0474 9.93134 67.0474 11.96 67.0474 13.9995C66.0967 13.9995 65.165 13.9995 64.2199 13.9995C64.2199 9.34618 64.2199 4.69471 64.2199 0.0297891C65.1542 0.0297891 66.086 0.0297891 67.0337 0.0297891C67.0337 1.74098 67.0337 3.45122 67.0337 5.18387C67.3589 5.18387 67.6681 5.18681 67.9773 5.18055C68.0201 5.1796 68.0681 5.13907 68.1031 5.1067C68.6009 4.64872 69.0958 4.18784 69.594 3.73001C70.4342 2.95714 71.2767 2.18574 72.118 1.41394C72.3792 1.17422 72.6385 0.932376 72.9042 0.697197C72.9913 0.62027 73.0236 0.537478 73.0195 0.426153C73.0147 0.297632 73.0296 0.168442 73.0367 0.0283203C73.9769 0.0283203 74.9079 0.0283203 75.8489 0.0283203C75.8489 0.314296 75.8534 0.593737 75.8478 0.873047C75.8426 1.12702 75.8363 1.38181 75.811 1.63432C75.8017 1.72751 75.7607 1.83976 75.693 1.90243C74.6594 2.85754 73.6179 3.80519 72.5797 4.75617C71.9587 5.32562 71.3399 5.8977 70.72 6.46858C70.6467 6.53589 70.5734 6.6027 70.4785 6.68936C70.6192 6.8456 70.7624 7.0072 70.9087 7.16624C71.9304 8.27896 72.9529 9.3914 73.9758 10.5036C74.4086 10.9743 74.8458 11.4416 75.2722 11.9175C75.3354 11.9876 75.3812 12.0961 75.3831 12.1878C75.3935 12.7024 75.3883 13.2175 75.3883 13.7322C75.3879 13.7857 75.3879 13.839 75.3879 13.9069Z" fill="black"/>
<path d="M12.4135 0.00319925C12.4964 0.00319925 12.558 0.00319925 12.6197 0.00319925C15.3745 0.00319925 18.1293 0.00426758 20.8841 1.2773e-06C21.0186 -0.000265366 21.0962 0.0411974 21.1716 0.141322C21.8878 1.09204 22.6105 2.03849 23.326 2.98974C23.3772 3.05787 23.4112 3.15359 23.4117 3.23679C23.4181 4.03112 23.4184 4.82573 23.4114 5.62006C23.4107 5.70843 23.3725 5.80762 23.3207 5.88308C22.7001 6.7858 22.0719 7.684 21.4507 8.58634C21.3842 8.68297 21.3122 8.71819 21.1901 8.71791C19.2856 8.71434 17.3809 8.71538 15.4764 8.71538C15.4037 8.71538 15.331 8.71538 15.2448 8.71538C15.2448 10.4516 15.2448 12.1715 15.2448 13.9044C14.2947 13.9044 13.3587 13.9044 12.4133 13.9044C12.4135 9.2736 12.4135 4.64814 12.4135 0.00319925ZM15.2438 6.05069C15.3297 6.05069 15.397 6.05069 15.4644 6.05069C16.7562 6.05069 18.0482 6.03495 19.3393 6.06067C19.7035 6.06788 19.9227 5.97453 20.0861 5.6735C20.2242 5.41901 20.4759 5.20636 20.5596 4.9421C20.6433 4.67733 20.5862 4.37174 20.5792 4.08418C20.5775 4.01086 20.5485 3.92766 20.5039 3.86725C20.236 3.50504 19.9564 3.1504 19.6893 2.78776C19.6231 2.69791 19.5529 2.66537 19.4387 2.66564C18.096 2.66897 16.7532 2.66764 15.4105 2.66817C15.3561 2.66817 15.3016 2.67297 15.2438 2.67564C15.2438 3.80569 15.2438 4.91799 15.2438 6.05069Z" fill="black"/>
<path d="M49.1055 1.91881C48.4863 2.58715 47.8742 3.24697 47.2499 3.9209C46.9671 3.69053 46.6917 3.46588 46.416 3.24163C46.2065 3.07151 46 2.8982 45.7846 2.73528C45.7295 2.69368 45.6461 2.66542 45.5754 2.66515C44.6512 2.66062 43.7273 2.65981 42.803 2.66608C42.7245 2.66662 42.6273 2.70555 42.5704 2.75741C42.16 3.13204 41.7555 3.51255 41.3559 3.89731C41.3042 3.94732 41.2644 4.03276 41.2644 4.10195C41.2595 6.08684 41.2595 8.0719 41.264 10.0568C41.264 10.1263 41.3027 10.2122 41.354 10.2622C41.6975 10.5947 42.0458 10.9224 42.4007 11.2439C42.458 11.2957 42.5555 11.334 42.6348 11.3345C43.5929 11.3407 44.5511 11.3409 45.5092 11.3343C45.5933 11.3337 45.6964 11.2925 45.7581 11.2379C46.1206 10.9165 46.4726 10.585 46.829 10.2577C46.8644 10.225 46.9046 10.1965 46.9559 10.1554C47.6156 10.7879 48.2683 11.4136 48.9436 12.061C48.7472 12.2399 48.5574 12.4126 48.368 12.586C47.8895 13.0241 47.4136 13.465 46.9299 13.8979C46.8688 13.9525 46.7661 13.9935 46.6828 13.9938C44.9481 13.9993 43.213 13.997 41.4783 13.9999C41.3682 14.0001 41.2904 13.9711 41.2119 13.897C40.3245 13.059 39.4348 12.2235 38.5421 11.3908C38.4584 11.3128 38.4249 11.2353 38.4249 11.1259C38.4279 8.42253 38.4279 5.71916 38.4249 3.01579C38.4249 2.90633 38.4588 2.82887 38.5421 2.75101C39.4832 1.87321 40.4212 0.992758 41.3563 0.109367C41.4396 0.0307076 41.523 0.000711679 41.6391 0.000978323C43.3001 0.00391142 44.9611 0.00177721 46.6221 0.00657681C46.7092 0.00684344 46.8156 0.0372412 46.8804 0.0893699C47.6011 0.669452 48.3159 1.25661 49.0318 1.84215C49.0526 1.85908 49.0694 1.88081 49.1055 1.91881Z" fill="black"/>
</g>
<defs>
<clipPath id="clip0_740_8734">
<rect width="128" height="14" fill="white"/>
</clipPath>
</defs>
</svg>
