<svg width="291" height="174" viewBox="0 0 291 174" fill="none" xmlns="http://www.w3.org/2000/svg">
<g clip-path="url(#clip0_264_9011)">
<g opacity="0.5">
<g clip-path="url(#clip1_264_9011)">
<mask id="path-2-inside-1_264_9011" fill="white">
<path d="M62.7341 27.9648H164.911V68.1845H62.7341V27.9648Z"/>
</mask>
<path d="M62.7341 27.9648H164.911V68.1845H62.7341V27.9648Z" fill="white"/>
<g clip-path="url(#clip2_264_9011)">
<path fill-rule="evenodd" clip-rule="evenodd" d="M74.844 48.0747C74.844 43.8947 78.2326 40.5061 82.4126 40.5061C86.5926 40.5061 89.9812 43.8947 89.9812 48.0747C89.9812 52.2548 86.5926 55.6434 82.4126 55.6434C78.2326 55.6434 74.844 52.2548 74.844 48.0747Z" fill="#50AF95"/>
<path d="M89.666 48.0747C89.666 52.0806 86.4186 55.3279 82.4127 55.3279C78.4068 55.3279 75.1594 52.0806 75.1594 48.0747C75.1594 44.0688 78.4068 40.8214 82.4127 40.8214C86.4186 40.8214 89.666 44.0688 89.666 48.0747Z" stroke="black" stroke-opacity="0.097" stroke-width="0.756863"/>
<path fill-rule="evenodd" clip-rule="evenodd" d="M83.3109 48.6719C83.2607 48.6757 83.0015 48.6912 82.4232 48.6912C81.9633 48.6912 81.6368 48.6774 81.5222 48.6719C79.7448 48.5935 78.4182 48.2835 78.4182 47.9122C78.4182 47.541 79.7448 47.2314 81.5222 47.1518V48.3631C81.6384 48.3715 81.9713 48.3912 82.4312 48.3912C82.9831 48.3912 83.2595 48.3681 83.3092 48.3635V47.1526C85.0829 47.2318 86.4066 47.5418 86.4066 47.9122C86.4066 48.2827 85.0832 48.5927 83.3092 48.6715L83.3109 48.6719ZM83.3109 47.0273V45.9434H85.7861V44.2904H79.047V45.9434H81.5218V47.0269C79.5103 47.1195 77.9976 47.5188 77.9976 47.9973C77.9976 48.4758 79.5103 48.8747 81.5218 48.9677V52.4412H83.3105V48.9664C85.3174 48.8738 86.8276 48.475 86.8276 47.9969C86.8276 47.5188 85.3187 47.1199 83.3105 47.0269L83.3109 47.0273Z" fill="white"/>
</g>
<path d="M98.6955 51.0747H99.6268V43.6088H98.7007L96.7139 45.0368V46.0198L98.6127 44.6436H98.6955V51.0747ZM101.784 51.0747H106.617V50.2365H102.85L103.078 50.3918V49.9623L102.845 50.3918L104.775 48.3998C105.227 47.9342 105.577 47.5427 105.825 47.2254C106.073 46.9046 106.246 46.6131 106.342 46.351C106.443 46.0888 106.493 45.8163 106.493 45.5335V45.5231C106.493 45.1196 106.391 44.7609 106.187 44.447C105.987 44.1331 105.713 43.8865 105.365 43.7071C105.016 43.5243 104.625 43.4329 104.19 43.4329C103.714 43.4329 103.292 43.5312 102.923 43.7278C102.553 43.921 102.264 44.19 102.053 44.5349C101.843 44.8764 101.736 45.2679 101.733 45.7094L101.743 45.7146L102.633 45.7198L102.638 45.7094C102.638 45.4162 102.7 45.161 102.824 44.9437C102.948 44.7229 103.123 44.5522 103.347 44.4315C103.571 44.3073 103.831 44.2452 104.128 44.2452C104.421 44.2452 104.673 44.3056 104.883 44.4263C105.094 44.547 105.256 44.7109 105.37 44.9178C105.484 45.1248 105.541 45.3593 105.541 45.6215V45.6318C105.541 45.8491 105.504 46.0492 105.432 46.232C105.359 46.4148 105.234 46.62 105.054 46.8477C104.875 47.0719 104.626 47.3564 104.309 47.7013L101.784 50.4331V51.0747ZM110.678 51.2506C111.23 51.2506 111.703 51.092 112.096 50.7746C112.489 50.4573 112.791 50.0072 113.001 49.4242C113.215 48.8379 113.322 48.1446 113.322 47.3443V47.334C113.322 46.5338 113.215 45.8422 113.001 45.2593C112.791 44.6764 112.489 44.2262 112.096 43.9089C111.703 43.5916 111.23 43.4329 110.678 43.4329C110.126 43.4329 109.654 43.5916 109.261 43.9089C108.871 44.2262 108.571 44.6764 108.36 45.2593C108.15 45.8422 108.045 46.5338 108.045 47.334V47.3443C108.045 48.1446 108.15 48.8379 108.36 49.4242C108.571 50.0072 108.871 50.4573 109.261 50.7746C109.654 51.092 110.126 51.2506 110.678 51.2506ZM110.678 50.4383C110.323 50.4383 110.018 50.3124 109.762 50.0606C109.511 49.8088 109.317 49.4518 109.183 48.9896C109.048 48.5274 108.981 47.979 108.981 47.3443V47.334C108.981 46.6993 109.048 46.1526 109.183 45.6939C109.317 45.2317 109.511 44.8764 109.762 44.6281C110.018 44.3763 110.323 44.2504 110.678 44.2504C111.037 44.2504 111.342 44.3763 111.594 44.6281C111.849 44.8764 112.044 45.2317 112.179 45.6939C112.317 46.1526 112.386 46.6993 112.386 47.334V47.3443C112.386 47.979 112.317 48.5274 112.179 48.9896C112.044 49.4518 111.849 49.8088 111.594 50.0606C111.342 50.3124 111.037 50.4383 110.678 50.4383ZM117.352 51.2506C117.904 51.2506 118.377 51.092 118.77 50.7746C119.163 50.4573 119.465 50.0072 119.676 49.4242C119.889 48.8379 119.996 48.1446 119.996 47.3443V47.334C119.996 46.5338 119.889 45.8422 119.676 45.2593C119.465 44.6764 119.163 44.2262 118.77 43.9089C118.377 43.5916 117.904 43.4329 117.352 43.4329C116.801 43.4329 116.328 43.5916 115.935 43.9089C115.545 44.2262 115.245 44.6764 115.035 45.2593C114.824 45.8422 114.719 46.5338 114.719 47.334V47.3443C114.719 48.1446 114.824 48.8379 115.035 49.4242C115.245 50.0072 115.545 50.4573 115.935 50.7746C116.328 51.092 116.801 51.2506 117.352 51.2506ZM117.352 50.4383C116.997 50.4383 116.692 50.3124 116.437 50.0606C116.185 49.8088 115.992 49.4518 115.857 48.9896C115.723 48.5274 115.655 47.979 115.655 47.3443V47.334C115.655 46.6993 115.723 46.1526 115.857 45.6939C115.992 45.2317 116.185 44.8764 116.437 44.6281C116.692 44.3763 116.997 44.2504 117.352 44.2504C117.711 44.2504 118.016 44.3763 118.268 44.6281C118.523 44.8764 118.718 45.2317 118.853 45.6939C118.991 46.1526 119.06 46.6993 119.06 47.334V47.3443C119.06 47.979 118.991 48.5274 118.853 48.9896C118.718 49.4518 118.523 49.8088 118.268 50.0606C118.016 50.3124 117.711 50.4383 117.352 50.4383ZM124.027 51.2506C124.579 51.2506 125.051 51.092 125.444 50.7746C125.838 50.4573 126.139 50.0072 126.35 49.4242C126.564 48.8379 126.671 48.1446 126.671 47.3443V47.334C126.671 46.5338 126.564 45.8422 126.35 45.2593C126.139 44.6764 125.838 44.2262 125.444 43.9089C125.051 43.5916 124.579 43.4329 124.027 43.4329C123.475 43.4329 123.002 43.5916 122.609 43.9089C122.219 44.2262 121.919 44.6764 121.709 45.2593C121.498 45.8422 121.393 46.5338 121.393 47.334V47.3443C121.393 48.1446 121.498 48.8379 121.709 49.4242C121.919 50.0072 122.219 50.4573 122.609 50.7746C123.002 51.092 123.475 51.2506 124.027 51.2506ZM124.027 50.4383C123.671 50.4383 123.366 50.3124 123.111 50.0606C122.859 49.8088 122.666 49.4518 122.532 48.9896C122.397 48.5274 122.33 47.979 122.33 47.3443V47.334C122.33 46.6993 122.397 46.1526 122.532 45.6939C122.666 45.2317 122.859 44.8764 123.111 44.6281C123.366 44.3763 123.671 44.2504 124.027 44.2504C124.385 44.2504 124.691 44.3763 124.943 44.6281C125.198 44.8764 125.393 45.2317 125.527 45.6939C125.665 46.1526 125.734 46.6993 125.734 47.334V47.3443C125.734 47.979 125.665 48.5274 125.527 48.9896C125.393 49.4518 125.198 49.8088 124.943 50.0606C124.691 50.3124 124.385 50.4383 124.027 50.4383ZM134.261 51.2506C134.878 51.2506 135.408 51.1351 135.849 50.904C136.291 50.6729 136.629 50.3521 136.863 49.9416C137.101 49.5277 137.22 49.05 137.22 48.5085V43.6088H136.289V48.4464C136.289 48.8292 136.209 49.1673 136.051 49.4605C135.892 49.7502 135.661 49.9778 135.358 50.1434C135.057 50.309 134.692 50.3918 134.261 50.3918C133.83 50.3918 133.462 50.309 133.159 50.1434C132.855 49.9778 132.622 49.7502 132.46 49.4605C132.301 49.1673 132.222 48.8292 132.222 48.4464V43.6088H131.291V48.5085C131.291 49.05 131.41 49.5277 131.648 49.9416C131.886 50.3521 132.226 50.6729 132.667 50.904C133.112 51.1351 133.643 51.2506 134.261 51.2506ZM141.561 51.2506C142.116 51.2506 142.601 51.1592 143.015 50.9764C143.429 50.7901 143.75 50.528 143.977 50.19C144.205 49.8519 144.319 49.4501 144.319 48.9845V48.9793C144.319 48.6206 144.244 48.3101 144.096 48.048C143.951 47.7824 143.72 47.5582 143.403 47.3754C143.086 47.1926 142.666 47.0443 142.146 46.9304L141.318 46.7442C140.811 46.6338 140.447 46.4769 140.226 46.2734C140.005 46.0699 139.895 45.8198 139.895 45.5231V45.518C139.895 45.2558 139.967 45.0351 140.112 44.8557C140.261 44.6729 140.459 44.5332 140.707 44.4366C140.956 44.3401 141.235 44.2918 141.545 44.2918C141.87 44.2883 142.153 44.3366 142.394 44.4366C142.635 44.5367 142.829 44.6729 142.973 44.8454C143.118 45.0144 143.208 45.2093 143.242 45.43L143.253 45.4973H144.184L144.179 45.4248C144.155 45.0523 144.029 44.716 143.801 44.4159C143.577 44.1159 143.274 43.8779 142.891 43.7019C142.508 43.5226 142.068 43.4329 141.571 43.4329C141.057 43.4329 140.602 43.5226 140.205 43.7019C139.812 43.8813 139.504 44.1297 139.279 44.447C139.059 44.7643 138.946 45.1299 138.943 45.5438V45.549C138.943 46.0905 139.112 46.5355 139.45 46.8839C139.792 47.2288 140.337 47.484 141.085 47.6496L141.913 47.8307C142.427 47.9445 142.798 48.1084 143.025 48.3222C143.253 48.5326 143.367 48.793 143.367 49.1035V49.1086C143.367 49.3604 143.291 49.5829 143.139 49.7761C142.987 49.9692 142.779 50.121 142.513 50.2314C142.251 50.3383 141.951 50.3918 141.613 50.3918C141.254 50.3918 140.933 50.3417 140.65 50.2417C140.371 50.1417 140.147 50.002 139.978 49.8226C139.812 49.6398 139.717 49.4242 139.693 49.1759L139.688 49.119H138.757L138.762 49.1759C138.8 49.5795 138.936 49.9382 139.171 50.2521C139.409 50.5625 139.729 50.8074 140.133 50.9868C140.54 51.1627 141.016 51.2506 141.561 51.2506ZM145.871 51.0747H148.432C149.173 51.0747 149.806 50.9281 150.331 50.6349C150.855 50.3383 151.257 49.9123 151.536 49.357C151.816 48.7982 151.955 48.1273 151.955 47.3443V47.334C151.955 46.551 151.816 45.8819 151.536 45.3265C151.257 44.7712 150.853 44.347 150.326 44.0538C149.801 43.7571 149.17 43.6088 148.432 43.6088H145.871V51.0747ZM146.802 50.2365V44.447H148.37C148.922 44.447 149.394 44.5625 149.787 44.7936C150.181 45.0213 150.481 45.3524 150.688 45.787C150.898 46.2182 151.003 46.7373 151.003 47.3443V47.3547C151.003 47.9583 150.9 48.4757 150.693 48.9069C150.486 49.338 150.186 49.6674 149.793 49.8951C149.399 50.1227 148.925 50.2365 148.37 50.2365H146.802ZM155.199 51.0747H156.131V44.447H158.536V43.6088H152.793V44.447H155.199V51.0747Z" fill="#121926"/>
<path d="M164.911 67.4276H62.7341V68.9413H164.911V67.4276Z" fill="#121926" fill-opacity="0.04" mask="url(#path-2-inside-1_264_9011)"/>
<mask id="path-8-inside-2_264_9011" fill="white">
<path d="M164.911 27.9648H225.46V68.1845H164.911V27.9648Z"/>
</mask>
<path d="M164.911 27.9648H225.46V68.1845H164.911V27.9648Z" fill="white"/>
<rect x="177.021" y="40.0747" width="38.0549" height="16" rx="3.02745" fill="#121926" fill-opacity="0.08"/>
<path d="M180.851 51.0747H181.844V48.6134H183.192C183.201 48.6134 183.21 48.6134 183.219 48.6134C183.228 48.6134 183.236 48.6134 183.245 48.6134L184.549 51.0747H185.698L184.265 48.4626C184.656 48.3296 184.96 48.1005 185.179 47.7753C185.398 47.4471 185.507 47.0672 185.507 46.6355V46.6267C185.507 46.2305 185.42 45.8875 185.245 45.5978C185.074 45.3051 184.829 45.0789 184.509 44.9193C184.19 44.7567 183.811 44.6754 183.374 44.6754H180.851V51.0747ZM181.844 47.8063V45.5091H183.245C183.633 45.5091 183.934 45.6111 184.15 45.8151C184.369 46.0191 184.478 46.2985 184.478 46.6533V46.6621C184.478 47.0258 184.373 47.3081 184.163 47.5092C183.953 47.7073 183.658 47.8063 183.276 47.8063H181.844ZM188.696 51.1678C189.006 51.1678 189.28 51.1279 189.516 51.0481C189.756 50.9683 189.96 50.8633 190.128 50.7332C190.299 50.6031 190.437 50.4598 190.54 50.3031C190.644 50.1434 190.716 49.9838 190.758 49.8241L190.767 49.7842H189.835L189.818 49.8197C189.782 49.9025 189.716 49.9867 189.618 50.0725C189.523 50.1582 189.401 50.2306 189.25 50.2898C189.102 50.3459 188.925 50.374 188.718 50.374C188.449 50.374 188.215 50.3149 188.017 50.1966C187.822 50.0784 187.671 49.9069 187.565 49.6822C187.458 49.4575 187.405 49.187 187.405 48.8706V48.4848C187.405 48.1537 187.458 47.8743 187.565 47.6467C187.674 47.419 187.822 47.2475 188.008 47.1322C188.197 47.014 188.412 46.9548 188.651 46.9548C188.891 46.9548 189.102 47.011 189.285 47.1234C189.469 47.2357 189.612 47.4057 189.716 47.6333C189.822 47.858 189.875 48.1419 189.875 48.4848V48.8706L190.336 48.232H186.922V48.9194H190.815V48.5824C190.815 48.0975 190.728 47.6747 190.554 47.314C190.379 46.9504 190.13 46.6681 189.804 46.467C189.482 46.266 189.096 46.1654 188.647 46.1654C188.2 46.1654 187.81 46.2704 187.476 46.4803C187.145 46.6902 186.888 46.9829 186.704 47.3584C186.524 47.7339 186.434 48.1729 186.434 48.6755V48.6799C186.434 49.1885 186.524 49.629 186.704 50.0015C186.888 50.374 187.148 50.6623 187.485 50.8663C187.822 51.0673 188.226 51.1678 188.696 51.1678ZM192.301 51.0747H193.263V47.0169H194.319V46.2586H193.255V45.7974C193.255 45.5549 193.311 45.3701 193.423 45.243C193.538 45.1159 193.729 45.0523 193.995 45.0523C194.069 45.0523 194.137 45.0553 194.199 45.0612C194.264 45.0642 194.319 45.0701 194.363 45.0789V44.3694C194.277 44.3546 194.187 44.3442 194.093 44.3383C194.001 44.3295 193.902 44.325 193.796 44.325C193.459 44.325 193.179 44.3768 192.957 44.4802C192.736 44.5837 192.57 44.7419 192.461 44.9548C192.354 45.1647 192.301 45.4308 192.301 45.753V46.2586H191.507V47.0169H192.301V51.0747ZM197.006 51.1678C197.24 51.1678 197.448 51.1353 197.632 51.0703C197.818 51.0052 197.978 50.9121 198.111 50.7909C198.244 50.6667 198.349 50.5189 198.425 50.3474H198.496V51.0747H199.463V46.2586H198.496V49.0835C198.496 49.2786 198.471 49.4531 198.421 49.6068C198.374 49.7605 198.3 49.8921 198.199 50.0015C198.099 50.1109 197.975 50.1951 197.827 50.2543C197.679 50.3105 197.51 50.3385 197.321 50.3385C196.966 50.3385 196.711 50.2395 196.554 50.0414C196.397 49.8433 196.319 49.5462 196.319 49.15V46.2586H195.357V49.3762C195.357 49.7546 195.417 50.0784 195.538 50.3474C195.663 50.6135 195.847 50.8175 196.093 50.9594C196.341 51.0984 196.646 51.1678 197.006 51.1678ZM200.847 51.0747H201.809V48.2498C201.809 47.9896 201.855 47.7664 201.947 47.5801C202.041 47.3909 202.174 47.246 202.346 47.1455C202.517 47.042 202.72 46.9903 202.953 46.9903C203.308 46.9903 203.568 47.0894 203.734 47.2874C203.902 47.4826 203.987 47.7812 203.987 48.1833V51.0747H204.953V47.9571C204.953 47.3835 204.81 46.9415 204.523 46.6311C204.236 46.3207 203.823 46.1654 203.281 46.1654C202.93 46.1654 202.638 46.2379 202.408 46.3827C202.177 46.5276 202.003 46.7287 201.885 46.9859H201.809V46.2586H200.847V51.0747ZM208.049 51.1545C208.274 51.1545 208.48 51.122 208.67 51.057C208.859 50.989 209.026 50.8929 209.171 50.7687C209.316 50.6416 209.435 50.4908 209.53 50.3164H209.601V51.0747H210.568V44.3694H209.601V47.0214H209.53C209.444 46.8469 209.328 46.6976 209.18 46.5734C209.032 46.4463 208.862 46.3487 208.67 46.2807C208.478 46.2098 208.271 46.1743 208.049 46.1743C207.641 46.1743 207.288 46.2763 206.989 46.4803C206.69 46.6814 206.46 46.9681 206.297 47.3407C206.134 47.7132 206.053 48.1537 206.053 48.6622V48.6711C206.053 49.1766 206.134 49.6157 206.297 49.9882C206.463 50.3607 206.695 50.649 206.993 50.853C207.295 51.054 207.647 51.1545 208.049 51.1545ZM208.324 50.3297C208.058 50.3297 207.827 50.2631 207.632 50.1301C207.44 49.9971 207.292 49.8064 207.188 49.558C207.088 49.3097 207.038 49.014 207.038 48.6711V48.6622C207.038 48.3163 207.088 48.0206 207.188 47.7753C207.292 47.5269 207.44 47.3362 207.632 47.2032C207.827 47.0672 208.058 46.9992 208.324 46.9992C208.59 46.9992 208.819 47.0672 209.011 47.2032C209.206 47.3362 209.356 47.5269 209.459 47.7753C209.565 48.0236 209.619 48.3193 209.619 48.6622V48.6711C209.619 49.0111 209.567 49.3067 209.464 49.558C209.36 49.8064 209.211 49.9971 209.016 50.1301C208.82 50.2631 208.59 50.3297 208.324 50.3297Z" fill="#121926"/>
<path d="M225.46 67.4276H164.911V68.9413H225.46V67.4276Z" fill="#121926" fill-opacity="0.04" mask="url(#path-8-inside-2_264_9011)"/>
<mask id="path-12-inside-3_264_9011" fill="white">
<path d="M225.46 27.9648H397.268V68.1845H225.46V27.9648Z"/>
</mask>
<path d="M225.46 27.9648H397.268V68.1845H225.46V27.9648Z" fill="white"/>
<path d="M241.616 51.2506C242.092 51.2506 242.524 51.1782 242.914 51.0333C243.304 50.8884 243.639 50.6815 243.918 50.4125C244.197 50.14 244.411 49.8157 244.559 49.4398C244.711 49.0638 244.787 48.6464 244.787 48.1877V47.2771H241.76V48.0946H243.856V48.2756C243.856 48.6965 243.763 49.0655 243.576 49.3829C243.39 49.7002 243.128 49.9485 242.79 50.1279C242.455 50.3038 242.066 50.3918 241.621 50.3918C241.245 50.3918 240.907 50.321 240.607 50.1796C240.307 50.0382 240.05 49.8364 239.836 49.5743C239.625 49.3087 239.463 48.9879 239.349 48.6119C239.239 48.236 239.184 47.8134 239.184 47.3443V47.334C239.184 46.7166 239.284 46.1802 239.484 45.7249C239.684 45.2696 239.965 44.9178 240.327 44.6695C240.693 44.4177 241.122 44.2918 241.616 44.2918C242.171 44.2918 242.633 44.4194 243.002 44.6746C243.371 44.9299 243.632 45.2989 243.783 45.7818L243.799 45.8336H244.741L244.73 45.7818C244.634 45.3093 244.444 44.8971 244.161 44.5453C243.882 44.1935 243.525 43.921 243.09 43.7278C242.659 43.5312 242.167 43.4329 241.616 43.4329C240.936 43.4329 240.341 43.595 239.831 43.9192C239.324 44.24 238.93 44.6936 238.651 45.28C238.372 45.8629 238.232 46.5476 238.232 47.334V47.3443C238.232 47.9411 238.311 48.4792 238.47 48.9586C238.628 49.438 238.854 49.8485 239.148 50.19C239.444 50.5315 239.8 50.7936 240.213 50.9764C240.631 51.1592 241.098 51.2506 241.616 51.2506ZM248.616 51.173C249.147 51.173 249.604 51.0575 249.987 50.8264C250.37 50.5918 250.665 50.259 250.872 49.8278C251.082 49.3966 251.187 48.8844 251.187 48.2912V48.2808C251.187 47.6841 251.082 47.1702 250.872 46.739C250.665 46.3079 250.37 45.9767 249.987 45.7456C249.604 45.5145 249.147 45.399 248.616 45.399C248.088 45.399 247.631 45.5145 247.245 45.7456C246.862 45.9767 246.565 46.3079 246.355 46.739C246.148 47.1702 246.044 47.6841 246.044 48.2808V48.2912C246.044 48.8844 246.148 49.3966 246.355 49.8278C246.565 50.259 246.862 50.5918 247.245 50.8264C247.631 51.0575 248.088 51.173 248.616 51.173ZM248.616 50.3762C248.264 50.3762 247.966 50.2935 247.721 50.1279C247.476 49.9623 247.288 49.7243 247.157 49.4139C247.029 49.1035 246.965 48.7292 246.965 48.2912V48.2808C246.965 47.8393 247.029 47.4633 247.157 47.1529C247.288 46.8425 247.476 46.6062 247.721 46.4441C247.966 46.2785 248.264 46.1958 248.616 46.1958C248.968 46.1958 249.266 46.2785 249.511 46.4441C249.756 46.6062 249.942 46.8425 250.07 47.1529C250.201 47.4633 250.266 47.8393 250.266 48.2808V48.2912C250.266 48.7292 250.201 49.1035 250.07 49.4139C249.942 49.7243 249.756 49.9623 249.511 50.1279C249.266 50.2935 248.968 50.3762 248.616 50.3762ZM253.955 51.0747H254.866L256.93 45.4973H255.978L254.452 50.0917H254.369L252.843 45.4973H251.891L253.955 51.0747ZM262.228 52.2854C262.556 52.2854 262.87 52.263 263.17 52.2181C263.473 52.1733 263.741 52.1112 263.972 52.0319V51.38C263.865 51.4283 263.72 51.4714 263.537 51.5093C263.354 51.5473 263.151 51.5766 262.927 51.5973C262.706 51.618 262.477 51.6283 262.239 51.6283C261.5 51.6283 260.859 51.4783 260.314 51.1782C259.769 50.8815 259.346 50.4625 259.046 49.9209C258.746 49.376 258.596 48.7361 258.596 48.0014V47.9911C258.596 47.453 258.681 46.9598 258.85 46.5114C259.022 46.063 259.264 45.6732 259.574 45.3421C259.888 45.0109 260.255 44.7557 260.676 44.5763C261.1 44.3935 261.566 44.3021 262.073 44.3021C262.763 44.3021 263.37 44.4349 263.894 44.7005C264.418 44.9626 264.827 45.33 265.12 45.8025C265.414 46.2751 265.56 46.8218 265.56 47.4427V47.453C265.56 47.8738 265.515 48.2412 265.426 48.555C265.339 48.8689 265.215 49.1121 265.053 49.2845C264.894 49.457 264.707 49.5432 264.489 49.5432C264.303 49.5432 264.158 49.4932 264.055 49.3932C263.955 49.2897 263.905 49.1483 263.905 48.9689V45.9319H263.123V46.5631H263.041C262.94 46.3389 262.782 46.1613 262.565 46.0302C262.347 45.8991 262.102 45.8336 261.83 45.8336C261.478 45.8336 261.166 45.925 260.893 46.1078C260.624 46.2872 260.412 46.5372 260.257 46.858C260.105 47.1788 260.029 47.5479 260.029 47.9652V47.9756C260.029 48.4136 260.103 48.7965 260.252 49.1242C260.404 49.4518 260.614 49.7088 260.883 49.8951C261.156 50.0779 261.471 50.1693 261.83 50.1693C262.133 50.1693 262.397 50.0986 262.621 49.9572C262.846 49.8123 263.013 49.6088 263.123 49.3466H263.206L263.211 49.3777C263.253 49.6295 263.377 49.833 263.584 49.9882C263.794 50.14 264.048 50.2158 264.344 50.2158C264.741 50.2158 265.084 50.1037 265.374 49.8795C265.667 49.6519 265.893 49.3328 266.052 48.9224C266.21 48.5085 266.29 48.0221 266.29 47.4633V47.453C266.29 46.7045 266.114 46.0457 265.762 45.4766C265.41 44.904 264.922 44.4573 264.298 44.1366C263.677 43.8123 262.958 43.6502 262.14 43.6502C261.506 43.6502 260.926 43.7537 260.402 43.9606C259.881 44.1676 259.431 44.4625 259.051 44.8454C258.672 45.2282 258.379 45.6835 258.172 46.2113C257.968 46.739 257.867 47.3219 257.867 47.96V47.9704C257.867 48.6292 257.968 49.2242 258.172 49.7554C258.375 50.2866 258.667 50.7401 259.046 51.1161C259.426 51.4955 259.884 51.7853 260.423 51.9853C260.961 52.1854 261.563 52.2854 262.228 52.2854ZM261.949 49.4398C261.725 49.4398 261.53 49.3829 261.364 49.269C261.202 49.1518 261.076 48.9845 260.987 48.7672C260.9 48.5499 260.857 48.2929 260.857 47.9963V47.9859C260.857 47.6858 260.9 47.4289 260.987 47.215C261.076 46.9977 261.202 46.8321 261.364 46.7183C261.53 46.6045 261.728 46.5476 261.959 46.5476C262.311 46.5476 262.59 46.6769 262.797 46.9356C263.008 47.1943 263.113 47.5444 263.113 47.9859V47.9963C263.113 48.4343 263.008 48.7844 262.797 49.0466C262.587 49.3087 262.304 49.4398 261.949 49.4398ZM270.253 51.2506C270.808 51.2506 271.293 51.1592 271.707 50.9764C272.121 50.7901 272.441 50.528 272.669 50.19C272.897 49.8519 273.011 49.4501 273.011 48.9845V48.9793C273.011 48.6206 272.936 48.3101 272.788 48.048C272.643 47.7824 272.412 47.5582 272.095 47.3754C271.777 47.1926 271.358 47.0443 270.838 46.9304L270.01 46.7442C269.503 46.6338 269.139 46.4769 268.918 46.2734C268.697 46.0699 268.587 45.8198 268.587 45.5231V45.518C268.587 45.2558 268.659 45.0351 268.804 44.8557C268.953 44.6729 269.151 44.5332 269.399 44.4366C269.648 44.3401 269.927 44.2918 270.237 44.2918C270.562 44.2883 270.844 44.3366 271.086 44.4366C271.327 44.5367 271.52 44.6729 271.665 44.8454C271.81 45.0144 271.9 45.2093 271.934 45.43L271.945 45.4973H272.876L272.871 45.4248C272.847 45.0523 272.721 44.716 272.493 44.4159C272.269 44.1159 271.965 43.8779 271.583 43.7019C271.2 43.5226 270.76 43.4329 270.263 43.4329C269.749 43.4329 269.294 43.5226 268.897 43.7019C268.504 43.8813 268.195 44.1297 267.971 44.447C267.75 44.7643 267.638 45.1299 267.635 45.5438V45.549C267.635 46.0905 267.804 46.5355 268.142 46.8839C268.483 47.2288 269.028 47.484 269.777 47.6496L270.605 47.8307C271.119 47.9445 271.489 48.1084 271.717 48.3222C271.945 48.5326 272.059 48.793 272.059 49.1035V49.1086C272.059 49.3604 271.983 49.5829 271.831 49.7761C271.679 49.9692 271.47 50.121 271.205 50.2314C270.943 50.3383 270.643 50.3918 270.305 50.3918C269.946 50.3918 269.625 50.3417 269.342 50.2417C269.063 50.1417 268.839 50.002 268.67 49.8226C268.504 49.6398 268.409 49.4242 268.385 49.1759L268.38 49.119H267.449L267.454 49.1759C267.492 49.5795 267.628 49.9382 267.863 50.2521C268.101 50.5625 268.421 50.8074 268.825 50.9868C269.232 51.1627 269.708 51.2506 270.253 51.2506ZM276.741 51.173C277.272 51.173 277.729 51.0575 278.112 50.8264C278.495 50.5918 278.79 50.259 278.997 49.8278C279.207 49.3966 279.312 48.8844 279.312 48.2912V48.2808C279.312 47.6841 279.207 47.1702 278.997 46.739C278.79 46.3079 278.495 45.9767 278.112 45.7456C277.729 45.5145 277.272 45.399 276.741 45.399C276.213 45.399 275.756 45.5145 275.37 45.7456C274.987 45.9767 274.69 46.3079 274.48 46.739C274.273 47.1702 274.17 47.6841 274.17 48.2808V48.2912C274.17 48.8844 274.273 49.3966 274.48 49.8278C274.69 50.259 274.987 50.5918 275.37 50.8264C275.756 51.0575 276.213 51.173 276.741 51.173ZM276.741 50.3762C276.389 50.3762 276.091 50.2935 275.846 50.1279C275.601 49.9623 275.413 49.7243 275.282 49.4139C275.154 49.1035 275.09 48.7292 275.09 48.2912V48.2808C275.09 47.8393 275.154 47.4633 275.282 47.1529C275.413 46.8425 275.601 46.6062 275.846 46.4441C276.091 46.2785 276.389 46.1958 276.741 46.1958C277.093 46.1958 277.391 46.2785 277.636 46.4441C277.881 46.6062 278.067 46.8425 278.195 47.1529C278.326 47.4633 278.391 47.8393 278.391 48.2808V48.2912C278.391 48.7292 278.326 49.1035 278.195 49.4139C278.067 49.7243 277.881 49.9623 277.636 50.1279C277.391 50.2935 277.093 50.3762 276.741 50.3762ZM280.761 51.0747H281.661V43.2829H280.761V51.0747ZM284.921 51.173C285.173 51.173 285.404 51.1385 285.614 51.0695C285.825 50.9971 286.012 50.8919 286.178 50.7539C286.347 50.616 286.49 50.4487 286.607 50.2521H286.69V51.0747H287.591V47.2564C287.591 46.8701 287.508 46.539 287.342 46.263C287.18 45.9836 286.94 45.7698 286.623 45.6215C286.309 45.4731 285.925 45.399 285.469 45.399C285.073 45.399 284.719 45.4611 284.409 45.5852C284.098 45.706 283.845 45.8767 283.648 46.0974C283.455 46.3147 283.334 46.57 283.286 46.8632L283.281 46.8942H284.181L284.186 46.8787C284.259 46.6614 284.402 46.4941 284.616 46.3768C284.829 46.2561 285.104 46.1958 285.438 46.1958C285.856 46.1958 286.168 46.2872 286.375 46.47C286.585 46.6493 286.69 46.9115 286.69 47.2564V48.9948C286.69 49.2604 286.621 49.4984 286.483 49.7088C286.349 49.9192 286.163 50.0865 285.925 50.2107C285.687 50.3314 285.414 50.3918 285.107 50.3918C284.783 50.3918 284.514 50.3141 284.3 50.1589C284.086 50.0003 283.979 49.7795 283.979 49.4967V49.4863C283.979 49.2104 284.076 48.9965 284.269 48.8448C284.466 48.693 284.776 48.605 285.2 48.5809L287.14 48.4567V47.7376L285.092 47.8617C284.66 47.8859 284.293 47.9652 283.99 48.0997C283.686 48.2343 283.455 48.4205 283.296 48.6585C283.138 48.8931 283.058 49.1759 283.058 49.507V49.5174C283.058 49.8554 283.139 50.1486 283.301 50.3969C283.467 50.6453 283.689 50.8367 283.969 50.9712C284.252 51.1058 284.569 51.173 284.921 51.173ZM289.236 51.0747H290.136V47.7738C290.136 47.4461 290.195 47.165 290.312 46.9304C290.433 46.6959 290.602 46.5148 290.819 46.3872C291.036 46.2596 291.293 46.1958 291.59 46.1958C292.035 46.1958 292.363 46.3182 292.573 46.5631C292.787 46.8045 292.894 47.1771 292.894 47.6807V51.0747H293.794V47.4633C293.794 46.8011 293.625 46.2923 293.287 45.9371C292.952 45.5783 292.471 45.399 291.843 45.399C291.433 45.399 291.095 45.4818 290.829 45.6473C290.564 45.8094 290.36 46.0388 290.219 46.3354H290.136V45.4973H289.236V51.0747ZM296.955 51.173C297.207 51.173 297.438 51.1385 297.649 51.0695C297.859 50.9971 298.047 50.8919 298.212 50.7539C298.381 50.616 298.525 50.4487 298.642 50.2521H298.725V51.0747H299.625V47.2564C299.625 46.8701 299.542 46.539 299.377 46.263C299.214 45.9836 298.975 45.7698 298.657 45.6215C298.344 45.4731 297.959 45.399 297.504 45.399C297.107 45.399 296.753 45.4611 296.443 45.5852C296.133 45.706 295.879 45.8767 295.682 46.0974C295.489 46.3147 295.369 46.57 295.32 46.8632L295.315 46.8942H296.215L296.221 46.8787C296.293 46.6614 296.436 46.4941 296.65 46.3768C296.864 46.2561 297.138 46.1958 297.473 46.1958C297.89 46.1958 298.202 46.2872 298.409 46.47C298.619 46.6493 298.725 46.9115 298.725 47.2564V48.9948C298.725 49.2604 298.656 49.4984 298.518 49.7088C298.383 49.9192 298.197 50.0865 297.959 50.2107C297.721 50.3314 297.448 50.3918 297.141 50.3918C296.817 50.3918 296.548 50.3141 296.334 50.1589C296.121 50.0003 296.014 49.7795 296.014 49.4967V49.4863C296.014 49.2104 296.11 48.9965 296.303 48.8448C296.5 48.693 296.81 48.605 297.235 48.5809L299.175 48.4567V47.7376L297.126 47.8617C296.695 47.8859 296.327 47.9652 296.024 48.0997C295.72 48.2343 295.489 48.4205 295.331 48.6585C295.172 48.8931 295.093 49.1759 295.093 49.507V49.5174C295.093 49.8554 295.174 50.1486 295.336 50.3969C295.501 50.6453 295.724 50.8367 296.003 50.9712C296.286 51.1058 296.603 51.173 296.955 51.173ZM302.005 51.1264C302.191 51.1264 302.35 51.0609 302.481 50.9298C302.612 50.7953 302.678 50.6367 302.678 50.4538C302.678 50.2676 302.612 50.1089 302.481 49.9778C302.35 49.8468 302.191 49.7812 302.005 49.7812C301.822 49.7812 301.663 49.8468 301.529 49.9778C301.398 50.1089 301.332 50.2676 301.332 50.4538C301.332 50.6367 301.398 50.7953 301.529 50.9298C301.663 51.0609 301.822 51.1264 302.005 51.1264ZM306.491 51.173C306.939 51.173 307.322 51.0989 307.639 50.9505C307.957 50.8022 308.212 50.5987 308.405 50.34C308.598 50.0779 308.733 49.7795 308.809 49.4449L308.819 49.388L307.929 49.3932L307.919 49.4242C307.815 49.7347 307.644 49.9709 307.406 50.1331C307.168 50.2952 306.861 50.3762 306.485 50.3762C306.154 50.3762 305.866 50.29 305.621 50.1175C305.377 49.9451 305.187 49.7019 305.052 49.388C304.918 49.0707 304.851 48.6982 304.851 48.2705V48.2601C304.851 47.8393 304.916 47.4754 305.047 47.1684C305.182 46.858 305.371 46.6183 305.616 46.4493C305.861 46.2803 306.151 46.1958 306.485 46.1958C306.886 46.1958 307.208 46.2923 307.453 46.4855C307.698 46.6786 307.855 46.9132 307.924 47.1891L307.929 47.2047H308.824L308.819 47.1736C308.764 46.8425 308.638 46.5441 308.441 46.2785C308.245 46.0095 307.982 45.7956 307.655 45.637C307.327 45.4783 306.937 45.399 306.485 45.399C305.965 45.399 305.513 45.518 305.13 45.756C304.747 45.9905 304.45 46.3216 304.24 46.7494C304.033 47.1771 303.93 47.6807 303.93 48.2601V48.2705C303.93 48.8603 304.035 49.3725 304.245 49.8071C304.456 50.2417 304.752 50.578 305.135 50.816C305.518 51.054 305.97 51.173 306.491 51.173ZM312.43 51.173C312.961 51.173 313.418 51.0575 313.801 50.8264C314.184 50.5918 314.479 50.259 314.686 49.8278C314.896 49.3966 315.002 48.8844 315.002 48.2912V48.2808C315.002 47.6841 314.896 47.1702 314.686 46.739C314.479 46.3079 314.184 45.9767 313.801 45.7456C313.418 45.5145 312.961 45.399 312.43 45.399C311.903 45.399 311.446 45.5145 311.059 45.7456C310.676 45.9767 310.38 46.3079 310.169 46.739C309.962 47.1702 309.859 47.6841 309.859 48.2808V48.2912C309.859 48.8844 309.962 49.3966 310.169 49.8278C310.38 50.259 310.676 50.5918 311.059 50.8264C311.446 51.0575 311.903 51.173 312.43 51.173ZM312.43 50.3762C312.078 50.3762 311.78 50.2935 311.535 50.1279C311.29 49.9623 311.102 49.7243 310.971 49.4139C310.844 49.1035 310.78 48.7292 310.78 48.2912V48.2808C310.78 47.8393 310.844 47.4633 310.971 47.1529C311.102 46.8425 311.29 46.6062 311.535 46.4441C311.78 46.2785 312.078 46.1958 312.43 46.1958C312.782 46.1958 313.08 46.2785 313.325 46.4441C313.57 46.6062 313.756 46.8425 313.884 47.1529C314.015 47.4633 314.081 47.8393 314.081 48.2808V48.2912C314.081 48.7292 314.015 49.1035 313.884 49.4139C313.756 49.7243 313.57 49.9623 313.325 50.1279C313.08 50.2935 312.782 50.3762 312.43 50.3762ZM316.399 51.0747H317.299V47.6186C317.299 47.3564 317.354 47.1184 317.464 46.9046C317.578 46.6873 317.732 46.5148 317.925 46.3872C318.122 46.2596 318.341 46.1958 318.582 46.1958C318.817 46.1958 319.02 46.2406 319.193 46.3303C319.368 46.42 319.503 46.5476 319.596 46.7131C319.693 46.8753 319.741 47.0667 319.741 47.2874V51.0747H320.641V47.4892C320.641 47.2512 320.695 47.0356 320.802 46.8425C320.909 46.6459 321.059 46.4889 321.252 46.3717C321.445 46.2544 321.671 46.1958 321.929 46.1958C322.192 46.1958 322.409 46.2423 322.581 46.3354C322.754 46.4251 322.881 46.5614 322.964 46.7442C323.05 46.9235 323.094 47.1512 323.094 47.4271V51.0747H323.994V47.2202C323.994 46.8304 323.925 46.501 323.787 46.232C323.649 45.9595 323.447 45.7525 323.182 45.6111C322.919 45.4697 322.599 45.399 322.219 45.399C321.964 45.399 321.724 45.4404 321.5 45.5231C321.279 45.6025 321.084 45.7163 320.915 45.8646C320.746 46.0095 320.612 46.1802 320.512 46.3768H320.429C320.343 46.1837 320.227 46.0147 320.082 45.8698C319.938 45.7215 319.765 45.6059 319.565 45.5231C319.365 45.4404 319.139 45.399 318.887 45.399C318.522 45.399 318.209 45.4818 317.951 45.6473C317.696 45.8129 317.506 46.0457 317.382 46.3458H317.299V45.4973H316.399V51.0747Z" fill="#121926"/>
<path d="M397.268 67.4276H225.46V68.9413H397.268V67.4276Z" fill="#121926" fill-opacity="0.04" mask="url(#path-12-inside-3_264_9011)"/>
</g>
<g clip-path="url(#clip3_264_9011)">
<mask id="path-16-inside-4_264_9011" fill="white">
<path d="M62.7341 106.679H164.911V146.898H62.7341V106.679Z"/>
</mask>
<path d="M62.7341 106.679H164.911V146.898H62.7341V106.679Z" fill="white"/>
<g clip-path="url(#clip4_264_9011)">
<path fill-rule="evenodd" clip-rule="evenodd" d="M74.844 126.788C74.844 122.608 78.2326 119.22 82.4126 119.22C86.5926 119.22 89.9812 122.608 89.9812 126.788C89.9812 130.969 86.5926 134.357 82.4126 134.357C78.2326 134.357 74.844 130.969 74.844 126.788Z" fill="#50AF95"/>
<path d="M89.666 126.788C89.666 130.794 86.4186 134.042 82.4127 134.042C78.4068 134.042 75.1594 130.794 75.1594 126.788C75.1594 122.783 78.4068 119.535 82.4127 119.535C86.4186 119.535 89.666 122.783 89.666 126.788Z" stroke="black" stroke-opacity="0.097" stroke-width="0.756863"/>
<path fill-rule="evenodd" clip-rule="evenodd" d="M83.3109 127.386C83.2607 127.389 83.0015 127.405 82.4232 127.405C81.9633 127.405 81.6368 127.391 81.5222 127.386C79.7448 127.307 78.4182 126.997 78.4182 126.626C78.4182 126.255 79.7448 125.945 81.5222 125.866V127.077C81.6384 127.085 81.9713 127.105 82.4312 127.105C82.9831 127.105 83.2595 127.082 83.3092 127.077V125.866C85.0829 125.946 86.4066 126.256 86.4066 126.626C86.4066 126.996 85.0832 127.306 83.3092 127.385L83.3109 127.386ZM83.3109 125.741V124.657H85.7861V123.004H79.047V124.657H81.5218V125.741C79.5103 125.833 77.9976 126.233 77.9976 126.711C77.9976 127.19 79.5103 127.588 81.5218 127.681V131.155H83.3105V127.68C85.3174 127.588 86.8276 127.189 86.8276 126.711C86.8276 126.233 85.3187 125.834 83.3105 125.741L83.3109 125.741Z" fill="white"/>
</g>
<path d="M100.279 129.788H101.189V128.241H102.25V127.408H101.189V122.323H99.8389C99.6285 122.633 99.4147 122.954 99.1974 123.285C98.9835 123.616 98.7679 123.952 98.5506 124.294C98.3333 124.635 98.116 124.98 97.8987 125.329C97.6849 125.674 97.4727 126.02 97.2623 126.369C97.0519 126.713 96.845 127.055 96.6415 127.393V128.241H100.279V129.788ZM97.5935 127.414V127.352C97.7556 127.076 97.9229 126.796 98.0953 126.513C98.2712 126.227 98.4489 125.941 98.6282 125.655C98.8076 125.368 98.987 125.084 99.1663 124.801C99.3491 124.518 99.5285 124.242 99.7044 123.973C99.8803 123.701 100.053 123.438 100.222 123.187H100.284V127.414H97.5935ZM106.13 122.147C105.63 122.147 105.182 122.257 104.785 122.478C104.392 122.699 104.081 123.004 103.854 123.394C103.63 123.78 103.518 124.221 103.518 124.718V124.728C103.518 125.204 103.624 125.632 103.838 126.012C104.052 126.387 104.344 126.684 104.713 126.901C105.082 127.119 105.499 127.227 105.965 127.227C106.303 127.227 106.603 127.174 106.865 127.067C107.131 126.96 107.355 126.819 107.538 126.643C107.724 126.467 107.862 126.277 107.952 126.074H108.133V124.728H107.827V124.734C107.827 125.058 107.751 125.348 107.6 125.603C107.451 125.855 107.25 126.053 106.994 126.198C106.739 126.343 106.449 126.415 106.125 126.415C105.804 126.415 105.518 126.343 105.266 126.198C105.015 126.049 104.816 125.848 104.671 125.592C104.526 125.334 104.454 125.039 104.454 124.708V124.697C104.454 124.373 104.53 124.082 104.682 123.823C104.833 123.561 105.037 123.354 105.292 123.202C105.547 123.047 105.83 122.969 106.141 122.969C106.458 122.969 106.743 123.049 106.994 123.207C107.25 123.363 107.451 123.573 107.6 123.839C107.751 124.104 107.827 124.401 107.827 124.728L108.05 125.97C108.05 126.015 108.05 126.062 108.05 126.11C108.05 126.155 108.048 126.201 108.045 126.25C108.027 126.767 107.95 127.245 107.812 127.683C107.674 128.121 107.463 128.473 107.181 128.738C106.898 129 106.53 129.131 106.079 129.131C105.827 129.131 105.601 129.09 105.401 129.007C105.204 128.924 105.035 128.807 104.894 128.655C104.756 128.504 104.649 128.324 104.573 128.117L104.552 128.06H103.616L103.631 128.128C103.718 128.493 103.873 128.814 104.097 129.09C104.321 129.366 104.601 129.581 104.935 129.737C105.273 129.888 105.651 129.964 106.068 129.964C106.672 129.964 107.188 129.806 107.615 129.488C108.043 129.168 108.371 128.707 108.598 128.107C108.826 127.503 108.94 126.777 108.94 125.929V125.918C108.94 125.215 108.859 124.623 108.697 124.144C108.534 123.661 108.317 123.273 108.045 122.98C107.776 122.686 107.474 122.474 107.139 122.343C106.808 122.212 106.472 122.147 106.13 122.147ZM112.934 129.964C113.486 129.964 113.958 129.806 114.352 129.488C114.745 129.171 115.047 128.721 115.257 128.138C115.471 127.552 115.578 126.858 115.578 126.058V126.048C115.578 125.248 115.471 124.556 115.257 123.973C115.047 123.39 114.745 122.94 114.352 122.623C113.958 122.305 113.486 122.147 112.934 122.147C112.382 122.147 111.91 122.305 111.516 122.623C111.127 122.94 110.826 123.39 110.616 123.973C110.406 124.556 110.3 125.248 110.3 126.048V126.058C110.3 126.858 110.406 127.552 110.616 128.138C110.826 128.721 111.127 129.171 111.516 129.488C111.91 129.806 112.382 129.964 112.934 129.964ZM112.934 129.152C112.579 129.152 112.273 129.026 112.018 128.774C111.766 128.523 111.573 128.166 111.439 127.703C111.304 127.241 111.237 126.693 111.237 126.058V126.048C111.237 125.413 111.304 124.866 111.439 124.408C111.573 123.945 111.766 123.59 112.018 123.342C112.273 123.09 112.579 122.964 112.934 122.964C113.293 122.964 113.598 123.09 113.85 123.342C114.105 123.59 114.3 123.945 114.434 124.408C114.572 124.866 114.641 125.413 114.641 126.048V126.058C114.641 126.693 114.572 127.241 114.434 127.703C114.3 128.166 114.105 128.523 113.85 128.774C113.598 129.026 113.293 129.152 112.934 129.152ZM119.608 129.964C120.16 129.964 120.633 129.806 121.026 129.488C121.419 129.171 121.721 128.721 121.931 128.138C122.145 127.552 122.252 126.858 122.252 126.058V126.048C122.252 125.248 122.145 124.556 121.931 123.973C121.721 123.39 121.419 122.94 121.026 122.623C120.633 122.305 120.16 122.147 119.608 122.147C119.056 122.147 118.584 122.305 118.191 122.623C117.801 122.94 117.501 123.39 117.29 123.973C117.08 124.556 116.975 125.248 116.975 126.048V126.058C116.975 126.858 117.08 127.552 117.29 128.138C117.501 128.721 117.801 129.171 118.191 129.488C118.584 129.806 119.056 129.964 119.608 129.964ZM119.608 129.152C119.253 129.152 118.948 129.026 118.692 128.774C118.441 128.523 118.248 128.166 118.113 127.703C117.979 127.241 117.911 126.693 117.911 126.058V126.048C117.911 125.413 117.979 124.866 118.113 124.408C118.248 123.945 118.441 123.59 118.692 123.342C118.948 123.09 119.253 122.964 119.608 122.964C119.967 122.964 120.272 123.09 120.524 123.342C120.779 123.59 120.974 123.945 121.109 124.408C121.247 124.866 121.316 125.413 121.316 126.048V126.058C121.316 126.693 121.247 127.241 121.109 127.703C120.974 128.166 120.779 128.523 120.524 128.774C120.272 129.026 119.967 129.152 119.608 129.152ZM126.283 129.964C126.834 129.964 127.307 129.806 127.7 129.488C128.093 129.171 128.395 128.721 128.606 128.138C128.819 127.552 128.926 126.858 128.926 126.058V126.048C128.926 125.248 128.819 124.556 128.606 123.973C128.395 123.39 128.093 122.94 127.7 122.623C127.307 122.305 126.834 122.147 126.283 122.147C125.731 122.147 125.258 122.305 124.865 122.623C124.475 122.94 124.175 123.39 123.965 123.973C123.754 124.556 123.649 125.248 123.649 126.048V126.058C123.649 126.858 123.754 127.552 123.965 128.138C124.175 128.721 124.475 129.171 124.865 129.488C125.258 129.806 125.731 129.964 126.283 129.964ZM126.283 129.152C125.927 129.152 125.622 129.026 125.367 128.774C125.115 128.523 124.922 128.166 124.787 127.703C124.653 127.241 124.586 126.693 124.586 126.058V126.048C124.586 125.413 124.653 124.866 124.787 124.408C124.922 123.945 125.115 123.59 125.367 123.342C125.622 123.09 125.927 122.964 126.283 122.964C126.641 122.964 126.947 123.09 127.198 123.342C127.454 123.59 127.648 123.945 127.783 124.408C127.921 124.866 127.99 125.413 127.99 126.048V126.058C127.99 126.693 127.921 127.241 127.783 127.703C127.648 128.166 127.454 128.523 127.198 128.774C126.947 129.026 126.641 129.152 126.283 129.152ZM136.516 129.964C137.134 129.964 137.663 129.849 138.105 129.618C138.546 129.387 138.884 129.066 139.119 128.655C139.357 128.241 139.476 127.764 139.476 127.222V122.323H138.545V127.16C138.545 127.543 138.465 127.881 138.307 128.174C138.148 128.464 137.917 128.692 137.613 128.857C137.313 129.023 136.948 129.106 136.516 129.106C136.085 129.106 135.718 129.023 135.414 128.857C135.111 128.692 134.878 128.464 134.716 128.174C134.557 127.881 134.478 127.543 134.478 127.16V122.323H133.547V127.222C133.547 127.764 133.666 128.241 133.904 128.655C134.142 129.066 134.481 129.387 134.923 129.618C135.368 129.849 135.899 129.964 136.516 129.964ZM143.817 129.964C144.372 129.964 144.857 129.873 145.271 129.69C145.685 129.504 146.005 129.242 146.233 128.904C146.461 128.566 146.574 128.164 146.574 127.698V127.693C146.574 127.334 146.5 127.024 146.352 126.762C146.207 126.496 145.976 126.272 145.659 126.089C145.341 125.906 144.922 125.758 144.401 125.644L143.574 125.458C143.067 125.348 142.703 125.191 142.482 124.987C142.261 124.784 142.151 124.534 142.151 124.237V124.232C142.151 123.97 142.223 123.749 142.368 123.569C142.516 123.387 142.715 123.247 142.963 123.15C143.211 123.054 143.491 123.006 143.801 123.006C144.125 123.002 144.408 123.05 144.65 123.15C144.891 123.25 145.084 123.387 145.229 123.559C145.374 123.728 145.464 123.923 145.498 124.144L145.509 124.211H146.44L146.435 124.139C146.411 123.766 146.285 123.43 146.057 123.13C145.833 122.83 145.529 122.592 145.146 122.416C144.764 122.236 144.324 122.147 143.827 122.147C143.313 122.147 142.858 122.236 142.461 122.416C142.068 122.595 141.759 122.843 141.535 123.161C141.314 123.478 141.202 123.844 141.199 124.258V124.263C141.199 124.804 141.368 125.249 141.706 125.598C142.047 125.943 142.592 126.198 143.341 126.363L144.169 126.544C144.683 126.658 145.053 126.822 145.281 127.036C145.509 127.246 145.622 127.507 145.622 127.817V127.822C145.622 128.074 145.547 128.297 145.395 128.49C145.243 128.683 145.034 128.835 144.769 128.945C144.507 129.052 144.207 129.106 143.869 129.106C143.51 129.106 143.189 129.055 142.906 128.955C142.627 128.855 142.403 128.716 142.234 128.536C142.068 128.354 141.973 128.138 141.949 127.89L141.944 127.833H141.013L141.018 127.89C141.056 128.293 141.192 128.652 141.426 128.966C141.664 129.276 141.985 129.521 142.389 129.7C142.796 129.876 143.272 129.964 143.817 129.964ZM148.127 129.788H150.688C151.429 129.788 152.062 129.642 152.586 129.349C153.111 129.052 153.513 128.626 153.792 128.071C154.071 127.512 154.211 126.841 154.211 126.058V126.048C154.211 125.265 154.071 124.596 153.792 124.04C153.513 123.485 153.109 123.061 152.581 122.768C152.057 122.471 151.426 122.323 150.688 122.323H148.127V129.788ZM149.058 128.95V123.161H150.626C151.177 123.161 151.65 123.276 152.043 123.507C152.436 123.735 152.737 124.066 152.943 124.501C153.154 124.932 153.259 125.451 153.259 126.058V126.068C153.259 126.672 153.156 127.189 152.949 127.621C152.742 128.052 152.442 128.381 152.048 128.609C151.655 128.836 151.181 128.95 150.626 128.95H149.058ZM157.455 129.788H158.386V123.161H160.792V122.323H155.049V123.161H157.455V129.788Z" fill="#121926"/>
<path d="M164.911 146.141H62.7341V147.655H164.911V146.141Z" fill="#121926" fill-opacity="0.04" mask="url(#path-16-inside-4_264_9011)"/>
<mask id="path-22-inside-5_264_9011" fill="white">
<path d="M164.911 106.679H225.46V146.898H164.911V106.679Z"/>
</mask>
<path d="M164.911 106.679H225.46V146.898H164.911V106.679Z" fill="white"/>
<rect x="177.021" y="118.788" width="38.0549" height="16" rx="3.02745" fill="#121926" fill-opacity="0.08"/>
<path d="M180.851 129.788H181.844V127.327H183.192C183.201 127.327 183.21 127.327 183.219 127.327C183.228 127.327 183.236 127.327 183.245 127.327L184.549 129.788H185.698L184.265 127.176C184.656 127.043 184.96 126.814 185.179 126.489C185.398 126.161 185.507 125.781 185.507 125.349V125.34C185.507 124.944 185.42 124.601 185.245 124.312C185.074 124.019 184.829 123.793 184.509 123.633C184.19 123.47 183.811 123.389 183.374 123.389H180.851V129.788ZM181.844 126.52V124.223H183.245C183.633 124.223 183.934 124.325 184.15 124.529C184.369 124.733 184.478 125.012 184.478 125.367V125.376C184.478 125.74 184.373 126.022 184.163 126.223C183.953 126.421 183.658 126.52 183.276 126.52H181.844ZM188.696 129.882C189.006 129.882 189.28 129.842 189.516 129.762C189.756 129.682 189.96 129.577 190.128 129.447C190.299 129.317 190.437 129.174 190.54 129.017C190.644 128.857 190.716 128.698 190.758 128.538L190.767 128.498H189.835L189.818 128.533C189.782 128.616 189.716 128.7 189.618 128.786C189.523 128.872 189.401 128.944 189.25 129.004C189.102 129.06 188.925 129.088 188.718 129.088C188.449 129.088 188.215 129.029 188.017 128.91C187.822 128.792 187.671 128.621 187.565 128.396C187.458 128.171 187.405 127.901 187.405 127.584V127.199C187.405 126.867 187.458 126.588 187.565 126.36C187.674 126.133 187.822 125.961 188.008 125.846C188.197 125.728 188.412 125.669 188.651 125.669C188.891 125.669 189.102 125.725 189.285 125.837C189.469 125.949 189.612 126.119 189.716 126.347C189.822 126.572 189.875 126.856 189.875 127.199V127.584L190.336 126.946H186.922V127.633H190.815V127.296C190.815 126.811 190.728 126.388 190.554 126.028C190.379 125.664 190.13 125.382 189.804 125.181C189.482 124.98 189.096 124.879 188.647 124.879C188.2 124.879 187.81 124.984 187.476 125.194C187.145 125.404 186.888 125.697 186.704 126.072C186.524 126.448 186.434 126.887 186.434 127.389V127.394C186.434 127.902 186.524 128.343 186.704 128.715C186.888 129.088 187.148 129.376 187.485 129.58C187.822 129.781 188.226 129.882 188.696 129.882ZM192.301 129.788H193.263V125.731H194.319V124.972H193.255V124.511C193.255 124.269 193.311 124.084 193.423 123.957C193.538 123.83 193.729 123.766 193.995 123.766C194.069 123.766 194.137 123.769 194.199 123.775C194.264 123.778 194.319 123.784 194.363 123.793V123.083C194.277 123.068 194.187 123.058 194.093 123.052C194.001 123.043 193.902 123.039 193.796 123.039C193.459 123.039 193.179 123.091 192.957 123.194C192.736 123.297 192.57 123.456 192.461 123.669C192.354 123.878 192.301 124.145 192.301 124.467V124.972H191.507V125.731H192.301V129.788ZM197.006 129.882C197.24 129.882 197.448 129.849 197.632 129.784C197.818 129.719 197.978 129.626 198.111 129.505C198.244 129.38 198.349 129.233 198.425 129.061H198.496V129.788H199.463V124.972H198.496V127.797C198.496 127.992 198.471 128.167 198.421 128.321C198.374 128.474 198.3 128.606 198.199 128.715C198.099 128.825 197.975 128.909 197.827 128.968C197.679 129.024 197.51 129.052 197.321 129.052C196.966 129.052 196.711 128.953 196.554 128.755C196.397 128.557 196.319 128.26 196.319 127.864V124.972H195.357V128.09C195.357 128.468 195.417 128.792 195.538 129.061C195.663 129.327 195.847 129.531 196.093 129.673C196.341 129.812 196.646 129.882 197.006 129.882ZM200.847 129.788H201.809V126.964C201.809 126.703 201.855 126.48 201.947 126.294C202.041 126.105 202.174 125.96 202.346 125.859C202.517 125.756 202.72 125.704 202.953 125.704C203.308 125.704 203.568 125.803 203.734 126.001C203.902 126.196 203.987 126.495 203.987 126.897V129.788H204.953V126.671C204.953 126.097 204.81 125.655 204.523 125.345C204.236 125.034 203.823 124.879 203.281 124.879C202.93 124.879 202.638 124.952 202.408 125.096C202.177 125.241 202.003 125.442 201.885 125.7H201.809V124.972H200.847V129.788ZM208.049 129.868C208.274 129.868 208.48 129.836 208.67 129.771C208.859 129.703 209.026 129.607 209.171 129.482C209.316 129.355 209.435 129.205 209.53 129.03H209.601V129.788H210.568V123.083H209.601V125.735H209.53C209.444 125.561 209.328 125.411 209.18 125.287C209.032 125.16 208.862 125.062 208.67 124.994C208.478 124.924 208.271 124.888 208.049 124.888C207.641 124.888 207.288 124.99 206.989 125.194C206.69 125.395 206.46 125.682 206.297 126.054C206.134 126.427 206.053 126.867 206.053 127.376V127.385C206.053 127.89 206.134 128.329 206.297 128.702C206.463 129.074 206.695 129.363 206.993 129.567C207.295 129.768 207.647 129.868 208.049 129.868ZM208.324 129.043C208.058 129.043 207.827 128.977 207.632 128.844C207.44 128.711 207.292 128.52 207.188 128.272C207.088 128.023 207.038 127.728 207.038 127.385V127.376C207.038 127.03 207.088 126.734 207.188 126.489C207.292 126.241 207.44 126.05 207.632 125.917C207.827 125.781 208.058 125.713 208.324 125.713C208.59 125.713 208.819 125.781 209.011 125.917C209.206 126.05 209.356 126.241 209.459 126.489C209.565 126.737 209.619 127.033 209.619 127.376V127.385C209.619 127.725 209.567 128.02 209.464 128.272C209.36 128.52 209.211 128.711 209.016 128.844C208.82 128.977 208.59 129.043 208.324 129.043Z" fill="#121926"/>
<path d="M225.46 146.141H164.911V147.655H225.46V146.141Z" fill="#121926" fill-opacity="0.04" mask="url(#path-22-inside-5_264_9011)"/>
<mask id="path-26-inside-6_264_9011" fill="white">
<path d="M225.46 106.679H397.268V146.898H225.46V106.679Z"/>
</mask>
<path d="M225.46 106.679H397.268V146.898H225.46V106.679Z" fill="white"/>
<path d="M238.522 129.788H239.453V126.389H243.551V129.788H244.482V122.323H243.551V125.551H239.453V122.323H238.522V129.788ZM248.549 129.887C248.876 129.887 249.171 129.845 249.433 129.763C249.699 129.676 249.928 129.563 250.121 129.421C250.315 129.276 250.471 129.116 250.592 128.94C250.716 128.761 250.803 128.576 250.851 128.386L250.861 128.345H249.961L249.94 128.392C249.892 128.502 249.807 128.611 249.687 128.717C249.566 128.824 249.413 128.912 249.226 128.981C249.04 129.05 248.821 129.085 248.569 129.085C248.231 129.085 247.938 129.011 247.69 128.862C247.441 128.711 247.25 128.495 247.115 128.216C246.981 127.933 246.914 127.593 246.914 127.196V126.839C246.914 126.422 246.983 126.07 247.121 125.784C247.259 125.498 247.445 125.282 247.679 125.137C247.917 124.989 248.186 124.915 248.486 124.915C248.787 124.915 249.052 124.985 249.283 125.127C249.514 125.265 249.695 125.475 249.826 125.758C249.958 126.041 250.023 126.401 250.023 126.839V127.196L250.468 126.539H246.458V127.258H250.929V126.907C250.929 126.351 250.83 125.865 250.634 125.448C250.44 125.027 250.161 124.699 249.795 124.465C249.433 124.23 248.999 124.113 248.492 124.113C247.988 124.113 247.548 124.235 247.172 124.48C246.796 124.725 246.505 125.065 246.298 125.499C246.094 125.934 245.993 126.439 245.993 127.015V127.02C245.993 127.603 246.094 128.11 246.298 128.542C246.505 128.969 246.798 129.3 247.177 129.535C247.56 129.769 248.017 129.887 248.549 129.887ZM252.377 129.788H253.277V121.997H252.377V129.788ZM255.057 129.788H255.958V121.997H255.057V129.788ZM259.978 129.887C260.509 129.887 260.966 129.771 261.349 129.54C261.732 129.306 262.026 128.973 262.233 128.542C262.444 128.11 262.549 127.598 262.549 127.005V126.995C262.549 126.398 262.444 125.884 262.233 125.453C262.026 125.022 261.732 124.69 261.349 124.459C260.966 124.228 260.509 124.113 259.978 124.113C259.45 124.113 258.993 124.228 258.607 124.459C258.224 124.69 257.927 125.022 257.717 125.453C257.51 125.884 257.406 126.398 257.406 126.995V127.005C257.406 127.598 257.51 128.11 257.717 128.542C257.927 128.973 258.224 129.306 258.607 129.54C258.993 129.771 259.45 129.887 259.978 129.887ZM259.978 129.09C259.626 129.09 259.327 129.007 259.083 128.842C258.838 128.676 258.65 128.438 258.519 128.128C258.391 127.817 258.327 127.443 258.327 127.005V126.995C258.327 126.553 258.391 126.177 258.519 125.867C258.65 125.556 258.838 125.32 259.083 125.158C259.327 124.992 259.626 124.909 259.978 124.909C260.329 124.909 260.628 124.992 260.873 125.158C261.118 125.32 261.304 125.556 261.431 125.867C261.563 126.177 261.628 126.553 261.628 126.995V127.005C261.628 127.443 261.563 127.817 261.431 128.128C261.304 128.438 261.118 128.676 260.873 128.842C260.628 129.007 260.329 129.09 259.978 129.09ZM268.209 130.999C268.537 130.999 268.851 130.977 269.151 130.932C269.454 130.887 269.722 130.825 269.953 130.746V130.094C269.846 130.142 269.701 130.185 269.518 130.223C269.335 130.261 269.132 130.29 268.908 130.311C268.687 130.332 268.458 130.342 268.22 130.342C267.481 130.342 266.84 130.192 266.295 129.892C265.75 129.595 265.327 129.176 265.027 128.635C264.727 128.09 264.577 127.45 264.577 126.715V126.705C264.577 126.167 264.662 125.674 264.831 125.225C265.003 124.777 265.245 124.387 265.555 124.056C265.869 123.725 266.236 123.469 266.657 123.29C267.081 123.107 267.547 123.016 268.054 123.016C268.744 123.016 269.351 123.149 269.875 123.414C270.399 123.676 270.808 124.044 271.101 124.516C271.395 124.989 271.541 125.536 271.541 126.156V126.167C271.541 126.588 271.496 126.955 271.407 127.269C271.32 127.583 271.196 127.826 271.034 127.998C270.875 128.171 270.688 128.257 270.47 128.257C270.284 128.257 270.139 128.207 270.036 128.107C269.936 128.003 269.886 127.862 269.886 127.683V124.646H269.104V125.277H269.022C268.921 125.053 268.763 124.875 268.546 124.744C268.328 124.613 268.083 124.547 267.811 124.547C267.459 124.547 267.147 124.639 266.874 124.822C266.605 125.001 266.393 125.251 266.238 125.572C266.086 125.893 266.01 126.262 266.01 126.679V126.689C266.01 127.127 266.084 127.51 266.233 127.838C266.385 128.166 266.595 128.423 266.864 128.609C267.137 128.792 267.452 128.883 267.811 128.883C268.114 128.883 268.378 128.812 268.602 128.671C268.827 128.526 268.994 128.323 269.104 128.06H269.187L269.192 128.091C269.234 128.343 269.358 128.547 269.565 128.702C269.775 128.854 270.029 128.93 270.325 128.93C270.722 128.93 271.065 128.817 271.355 128.593C271.648 128.366 271.874 128.047 272.033 127.636C272.191 127.222 272.271 126.736 272.271 126.177V126.167C272.271 125.418 272.095 124.759 271.743 124.19C271.391 123.618 270.903 123.171 270.279 122.85C269.658 122.526 268.939 122.364 268.121 122.364C267.487 122.364 266.907 122.467 266.383 122.674C265.862 122.881 265.412 123.176 265.032 123.559C264.653 123.942 264.36 124.397 264.153 124.925C263.949 125.453 263.848 126.036 263.848 126.674V126.684C263.848 127.343 263.949 127.938 264.153 128.469C264.356 129 264.648 129.454 265.027 129.83C265.407 130.209 265.865 130.499 266.404 130.699C266.942 130.899 267.544 130.999 268.209 130.999ZM267.93 128.154C267.706 128.154 267.511 128.097 267.345 127.983C267.183 127.865 267.057 127.698 266.967 127.481C266.881 127.264 266.838 127.007 266.838 126.71V126.7C266.838 126.4 266.881 126.143 266.967 125.929C267.057 125.711 267.183 125.546 267.345 125.432C267.511 125.318 267.709 125.261 267.94 125.261C268.292 125.261 268.571 125.391 268.778 125.649C268.989 125.908 269.094 126.258 269.094 126.7V126.71C269.094 127.148 268.989 127.498 268.778 127.76C268.568 128.022 268.285 128.154 267.93 128.154ZM273.725 129.788H274.625V126.488C274.625 126.16 274.683 125.879 274.801 125.644C274.921 125.41 275.09 125.229 275.308 125.101C275.525 124.973 275.782 124.909 276.079 124.909C276.524 124.909 276.851 125.032 277.062 125.277C277.276 125.518 277.382 125.891 277.382 126.394V129.788H278.283V126.177C278.283 125.736 278.207 125.361 278.055 125.054C277.903 124.747 277.683 124.515 277.393 124.356C277.103 124.194 276.75 124.113 276.332 124.113C275.922 124.113 275.584 124.196 275.318 124.361C275.053 124.523 274.849 124.753 274.708 125.049H274.625V121.997H273.725V129.788ZM281.444 129.887C281.696 129.887 281.927 129.852 282.137 129.783C282.348 129.711 282.536 129.606 282.701 129.468C282.87 129.33 283.013 129.162 283.131 128.966H283.213V129.788H284.114V125.97C284.114 125.584 284.031 125.253 283.865 124.977C283.703 124.697 283.464 124.484 283.146 124.335C282.832 124.187 282.448 124.113 281.992 124.113C281.596 124.113 281.242 124.175 280.932 124.299C280.621 124.42 280.368 124.59 280.171 124.811C279.978 125.028 279.857 125.284 279.809 125.577L279.804 125.608H280.704L280.709 125.592C280.782 125.375 280.925 125.208 281.139 125.091C281.353 124.97 281.627 124.909 281.961 124.909C282.379 124.909 282.691 125.001 282.898 125.184C283.108 125.363 283.213 125.625 283.213 125.97V127.709C283.213 127.974 283.144 128.212 283.006 128.423C282.872 128.633 282.686 128.8 282.448 128.924C282.21 129.045 281.937 129.106 281.63 129.106C281.306 129.106 281.037 129.028 280.823 128.873C280.609 128.714 280.502 128.493 280.502 128.21V128.2C280.502 127.924 280.599 127.71 280.792 127.559C280.989 127.407 281.299 127.319 281.723 127.295L283.664 127.17V126.451L281.615 126.575C281.184 126.6 280.816 126.679 280.513 126.813C280.209 126.948 279.978 127.134 279.819 127.372C279.661 127.607 279.581 127.89 279.581 128.221V128.231C279.581 128.569 279.662 128.862 279.825 129.111C279.99 129.359 280.213 129.55 280.492 129.685C280.775 129.819 281.092 129.887 281.444 129.887ZM287.673 129.887C288.098 129.887 288.477 129.816 288.812 129.675C289.15 129.533 289.417 129.337 289.614 129.085C289.81 128.83 289.908 128.536 289.908 128.205V128.195C289.908 127.795 289.779 127.476 289.52 127.238C289.265 127 288.875 126.817 288.351 126.689L287.492 126.482C287.275 126.427 287.097 126.363 286.959 126.291C286.821 126.218 286.72 126.134 286.654 126.037C286.589 125.941 286.556 125.83 286.556 125.706V125.696C286.556 125.53 286.606 125.385 286.706 125.261C286.806 125.137 286.942 125.041 287.115 124.972C287.287 124.899 287.484 124.863 287.704 124.863C288.042 124.863 288.317 124.932 288.527 125.07C288.737 125.208 288.872 125.387 288.931 125.608H289.815C289.774 125.304 289.66 125.041 289.474 124.816C289.291 124.592 289.048 124.42 288.744 124.299C288.444 124.175 288.099 124.113 287.71 124.113C287.316 124.113 286.963 124.183 286.649 124.325C286.335 124.466 286.087 124.659 285.904 124.904C285.724 125.149 285.635 125.427 285.635 125.737V125.742C285.635 126.008 285.688 126.239 285.795 126.436C285.902 126.629 286.068 126.793 286.292 126.927C286.516 127.058 286.802 127.165 287.151 127.248L288.015 127.455C288.36 127.538 288.608 127.646 288.76 127.781C288.912 127.912 288.987 128.072 288.987 128.262V128.273C288.987 128.442 288.932 128.592 288.822 128.723C288.712 128.85 288.56 128.952 288.367 129.028C288.177 129.1 287.956 129.137 287.704 129.137C287.349 129.137 287.061 129.066 286.84 128.924C286.62 128.783 286.471 128.597 286.395 128.366H285.474C285.509 128.673 285.621 128.94 285.811 129.168C286.004 129.395 286.259 129.573 286.576 129.7C286.894 129.825 287.259 129.887 287.673 129.887ZM291.357 129.788H292.257V126.488C292.257 126.16 292.316 125.879 292.433 125.644C292.554 125.41 292.723 125.229 292.94 125.101C293.158 124.973 293.415 124.909 293.711 124.909C294.156 124.909 294.484 125.032 294.694 125.277C294.908 125.518 295.015 125.891 295.015 126.394V129.788H295.915V126.177C295.915 125.736 295.839 125.361 295.688 125.054C295.536 124.747 295.315 124.515 295.025 124.356C294.736 124.194 294.382 124.113 293.965 124.113C293.554 124.113 293.216 124.196 292.951 124.361C292.685 124.523 292.482 124.753 292.34 125.049H292.257V121.997H291.357V129.788ZM297.918 129.788H298.818V124.956H300.085V124.211H298.818V123.616C298.818 123.309 298.887 123.078 299.025 122.923C299.166 122.768 299.397 122.69 299.718 122.69C299.797 122.69 299.873 122.692 299.946 122.695C300.018 122.699 300.082 122.705 300.137 122.716V121.997C300.044 121.979 299.947 121.967 299.847 121.96C299.751 121.95 299.647 121.945 299.537 121.945C299.185 121.945 298.889 122.005 298.647 122.126C298.406 122.243 298.223 122.424 298.099 122.669C297.978 122.911 297.918 123.218 297.918 123.59V124.211H296.991V124.956H297.918V129.788ZM301.436 129.788H302.336V121.997H301.436V129.788ZM306.356 129.887C306.887 129.887 307.344 129.771 307.727 129.54C308.11 129.306 308.405 128.973 308.612 128.542C308.822 128.11 308.928 127.598 308.928 127.005V126.995C308.928 126.398 308.822 125.884 308.612 125.453C308.405 125.022 308.11 124.69 307.727 124.459C307.344 124.228 306.887 124.113 306.356 124.113C305.828 124.113 305.371 124.228 304.985 124.459C304.602 124.69 304.306 125.022 304.095 125.453C303.888 125.884 303.785 126.398 303.785 126.995V127.005C303.785 127.598 303.888 128.11 304.095 128.542C304.306 128.973 304.602 129.306 304.985 129.54C305.371 129.771 305.828 129.887 306.356 129.887ZM306.356 129.09C306.004 129.09 305.706 129.007 305.461 128.842C305.216 128.676 305.028 128.438 304.897 128.128C304.769 127.817 304.706 127.443 304.706 127.005V126.995C304.706 126.553 304.769 126.177 304.897 125.867C305.028 125.556 305.216 125.32 305.461 125.158C305.706 124.992 306.004 124.909 306.356 124.909C306.708 124.909 307.006 124.992 307.251 125.158C307.496 125.32 307.682 125.556 307.81 125.867C307.941 126.177 308.007 126.553 308.007 126.995V127.005C308.007 127.443 307.941 127.817 307.81 128.128C307.682 128.438 307.496 128.676 307.251 128.842C307.006 129.007 306.708 129.09 306.356 129.09ZM311.194 129.788H312.094L313.336 125.473H313.418L314.665 129.788H315.571L317.133 124.211H316.238L315.141 128.671H315.059L313.812 124.211H312.958L311.711 128.671H311.628L310.531 124.211H309.631L311.194 129.788ZM318.282 129.84C318.468 129.84 318.627 129.775 318.758 129.644C318.889 129.509 318.955 129.35 318.955 129.168C318.955 128.981 318.889 128.823 318.758 128.692C318.627 128.561 318.468 128.495 318.282 128.495C318.099 128.495 317.94 128.561 317.806 128.692C317.675 128.823 317.609 128.981 317.609 129.168C317.609 129.35 317.675 129.509 317.806 129.644C317.94 129.775 318.099 129.84 318.282 129.84ZM320.714 129.788H321.614V124.211H320.714V129.788ZM321.169 123.135C321.341 123.135 321.488 123.074 321.609 122.954C321.729 122.83 321.79 122.683 321.79 122.514C321.79 122.342 321.729 122.195 321.609 122.074C321.488 121.953 321.341 121.893 321.169 121.893C321 121.893 320.853 121.953 320.729 122.074C320.608 122.195 320.548 122.342 320.548 122.514C320.548 122.683 320.608 122.83 320.729 122.954C320.853 123.074 321 123.135 321.169 123.135ZM325.603 129.887C326.134 129.887 326.591 129.771 326.974 129.54C327.357 129.306 327.652 128.973 327.859 128.542C328.069 128.11 328.174 127.598 328.174 127.005V126.995C328.174 126.398 328.069 125.884 327.859 125.453C327.652 125.022 327.357 124.69 326.974 124.459C326.591 124.228 326.134 124.113 325.603 124.113C325.075 124.113 324.618 124.228 324.232 124.459C323.849 124.69 323.552 125.022 323.342 125.453C323.135 125.884 323.032 126.398 323.032 126.995V127.005C323.032 127.598 323.135 128.11 323.342 128.542C323.552 128.973 323.849 129.306 324.232 129.54C324.618 129.771 325.075 129.887 325.603 129.887ZM325.603 129.09C325.251 129.09 324.953 129.007 324.708 128.842C324.463 128.676 324.275 128.438 324.144 128.128C324.016 127.817 323.952 127.443 323.952 127.005V126.995C323.952 126.553 324.016 126.177 324.144 125.867C324.275 125.556 324.463 125.32 324.708 125.158C324.953 124.992 325.251 124.909 325.603 124.909C325.955 124.909 326.253 124.992 326.498 125.158C326.743 125.32 326.929 125.556 327.057 125.867C327.188 126.177 327.253 126.553 327.253 126.995V127.005C327.253 127.443 327.188 127.817 327.057 128.128C326.929 128.438 326.743 128.676 326.498 128.842C326.253 129.007 325.955 129.09 325.603 129.09Z" fill="#121926"/>
<path d="M397.268 146.141H225.46V147.655H397.268V146.141Z" fill="#121926" fill-opacity="0.04" mask="url(#path-26-inside-6_264_9011)"/>
</g>
</g>
<g clip-path="url(#clip5_264_9011)">
<mask id="path-30-inside-7_264_9011" fill="white">
<path d="M37 64.2941H154.896V110.24H37V64.2941Z"/>
</mask>
<path d="M37 64.2941H154.896V110.24H37V64.2941Z" fill="white"/>
<g clip-path="url(#clip6_264_9011)">
<path fill-rule="evenodd" clip-rule="evenodd" d="M50.9729 87.267C50.9729 82.4439 54.8828 78.5339 59.7059 78.5339C64.529 78.5339 68.439 82.4439 68.439 87.267C68.439 92.0901 64.529 96 59.7059 96C54.8828 96 50.9729 92.0901 50.9729 87.267Z" fill="#50AF95"/>
<path d="M68.0752 87.2669C68.0752 91.889 64.3282 95.636 59.7061 95.636C55.0839 95.636 51.3369 91.889 51.3369 87.2669C51.3369 82.6447 55.0839 78.8977 59.7061 78.8977C64.3282 78.8977 68.0752 82.6447 68.0752 87.2669Z" stroke="black" stroke-opacity="0.097" stroke-width="0.873303"/>
<path fill-rule="evenodd" clip-rule="evenodd" d="M60.7424 87.9559C60.6844 87.9603 60.3853 87.9782 59.7181 87.9782C59.1875 87.9782 58.8107 87.9623 58.6785 87.9559C56.6277 87.8656 55.0969 87.5078 55.0969 87.0794C55.0969 86.6511 56.6277 86.2938 58.6785 86.202V87.5996C58.8126 87.6093 59.1966 87.632 59.7273 87.632C60.3641 87.632 60.683 87.6055 60.7404 87.6001V86.2029C62.7869 86.2943 64.3143 86.652 64.3143 87.0794C64.3143 87.5068 62.7874 87.8646 60.7404 87.9555L60.7424 87.9559ZM60.7424 86.0584V84.8076H63.5984V82.9004H55.8225V84.8076H58.678V86.0579C56.357 86.1647 54.6116 86.6255 54.6116 87.1776C54.6116 87.7297 56.357 88.19 58.678 88.2973V92.3052H60.7419V88.2958C63.0576 88.189 64.8001 87.7287 64.8001 87.1771C64.8001 86.6255 63.059 86.1652 60.7419 86.0579L60.7424 86.0584Z" fill="white"/>
</g>
<path d="M79.2161 91.4699C79.8012 91.4699 80.3186 91.3446 80.7683 91.0938C81.218 90.8431 81.5703 90.4969 81.825 90.0551C82.0837 89.6093 82.213 89.0979 82.213 88.5208V88.5089C82.213 87.9517 82.0936 87.4582 81.8548 87.0284C81.616 86.5946 81.2877 86.2543 80.8698 86.0075C80.4519 85.7568 79.9723 85.6314 79.4311 85.6314C79.1724 85.6314 78.9256 85.6673 78.6908 85.7389C78.46 85.8065 78.251 85.906 78.064 86.0374C77.8769 86.1687 77.7197 86.3319 77.5923 86.5269H77.4968L77.7894 83.6136H81.7354V82.6525H76.9416L76.4879 87.6015H77.4192C77.4749 87.498 77.5346 87.4045 77.5983 87.3209C77.666 87.2373 77.7376 87.1597 77.8132 87.0881C78.0003 86.913 78.2132 86.7816 78.452 86.6941C78.6948 86.6065 78.9594 86.5627 79.246 86.5627C79.6201 86.5627 79.9504 86.6463 80.237 86.8135C80.5235 86.9806 80.7484 87.2134 80.9116 87.5119C81.0787 87.8064 81.1623 88.1447 81.1623 88.5268V88.5387C81.1623 88.9248 81.0807 89.2671 80.9176 89.5656C80.7544 89.8641 80.5275 90.0989 80.237 90.27C79.9465 90.4372 79.6102 90.5207 79.2281 90.5207C78.8938 90.5207 78.5913 90.4551 78.3207 90.3237C78.054 90.1924 77.8371 90.0153 77.67 89.7924C77.5068 89.5656 77.4073 89.3148 77.3715 89.0402L77.3655 88.9925H76.3327L76.3387 89.0581C76.3825 89.5158 76.5297 89.9277 76.7804 90.2939C77.0352 90.6561 77.3715 90.9426 77.7894 91.1535C78.2072 91.3645 78.6828 91.4699 79.2161 91.4699ZM86.8277 91.4699C87.4645 91.4699 88.0097 91.2869 88.4634 90.9207C88.9171 90.5546 89.2654 90.0352 89.5082 89.3626C89.7549 88.686 89.8783 87.886 89.8783 86.9627V86.9508C89.8783 86.0274 89.7549 85.2295 89.5082 84.5569C89.2654 83.8843 88.9171 83.3649 88.4634 82.9987C88.0097 82.6326 87.4645 82.4495 86.8277 82.4495C86.1909 82.4495 85.6457 82.6326 85.192 82.9987C84.7422 83.3649 84.396 83.8843 84.1532 84.5569C83.9104 85.2295 83.789 86.0274 83.789 86.9508V86.9627C83.789 87.886 83.9104 88.686 84.1532 89.3626C84.396 90.0352 84.7422 90.5546 85.192 90.9207C85.6457 91.2869 86.1909 91.4699 86.8277 91.4699ZM86.8277 90.5327C86.4178 90.5327 86.0655 90.3874 85.771 90.0969C85.4805 89.8063 85.2576 89.3944 85.1024 88.8611C84.9472 88.3278 84.8696 87.695 84.8696 86.9627V86.9508C84.8696 86.2185 84.9472 85.5877 85.1024 85.0583C85.2576 84.525 85.4805 84.1151 85.771 83.8285C86.0655 83.538 86.4178 83.3927 86.8277 83.3927C87.2416 83.3927 87.5938 83.538 87.8844 83.8285C88.1789 84.1151 88.4037 84.525 88.559 85.0583C88.7181 85.5877 88.7977 86.2185 88.7977 86.9508V86.9627C88.7977 87.695 88.7181 88.3278 88.559 88.8611C88.4037 89.3944 88.1789 89.8063 87.8844 90.0969C87.5938 90.3874 87.2416 90.5327 86.8277 90.5327ZM94.5288 91.4699C95.1656 91.4699 95.7108 91.2869 96.1645 90.9207C96.6182 90.5546 96.9665 90.0352 97.2093 89.3626C97.456 88.686 97.5794 87.886 97.5794 86.9627V86.9508C97.5794 86.0274 97.456 85.2295 97.2093 84.5569C96.9665 83.8843 96.6182 83.3649 96.1645 82.9987C95.7108 82.6326 95.1656 82.4495 94.5288 82.4495C93.892 82.4495 93.3468 82.6326 92.8931 82.9987C92.4433 83.3649 92.0971 83.8843 91.8543 84.5569C91.6115 85.2295 91.4901 86.0274 91.4901 86.9508V86.9627C91.4901 87.886 91.6115 88.686 91.8543 89.3626C92.0971 90.0352 92.4433 90.5546 92.8931 90.9207C93.3468 91.2869 93.892 91.4699 94.5288 91.4699ZM94.5288 90.5327C94.1189 90.5327 93.7666 90.3874 93.4721 90.0969C93.1816 89.8063 92.9587 89.3944 92.8035 88.8611C92.6483 88.3278 92.5707 87.695 92.5707 86.9627V86.9508C92.5707 86.2185 92.6483 85.5877 92.8035 85.0583C92.9587 84.525 93.1816 84.1151 93.4721 83.8285C93.7666 83.538 94.1189 83.3927 94.5288 83.3927C94.9427 83.3927 95.2949 83.538 95.5855 83.8285C95.88 84.1151 96.1048 84.525 96.2601 85.0583C96.4193 85.5877 96.4988 86.2185 96.4988 86.9508V86.9627C96.4988 87.695 96.4193 88.3278 96.2601 88.8611C96.1048 89.3944 95.88 89.8063 95.5855 90.0969C95.2949 90.3874 94.9427 90.5327 94.5288 90.5327ZM102.23 91.4699C102.867 91.4699 103.412 91.2869 103.866 90.9207C104.319 90.5546 104.668 90.0352 104.91 89.3626C105.157 88.686 105.28 87.886 105.28 86.9627V86.9508C105.28 86.0274 105.157 85.2295 104.91 84.5569C104.668 83.8843 104.319 83.3649 103.866 82.9987C103.412 82.6326 102.867 82.4495 102.23 82.4495C101.593 82.4495 101.048 82.6326 100.594 82.9987C100.144 83.3649 99.7982 83.8843 99.5554 84.5569C99.3126 85.2295 99.1912 86.0274 99.1912 86.9508V86.9627C99.1912 87.886 99.3126 88.686 99.5554 89.3626C99.7982 90.0352 100.144 90.5546 100.594 90.9207C101.048 91.2869 101.593 91.4699 102.23 91.4699ZM102.23 90.5327C101.82 90.5327 101.468 90.3874 101.173 90.0969C100.883 89.8063 100.66 89.3944 100.505 88.8611C100.349 88.3278 100.272 87.695 100.272 86.9627V86.9508C100.272 86.2185 100.349 85.5877 100.505 85.0583C100.66 84.525 100.883 84.1151 101.173 83.8285C101.468 83.538 101.82 83.3927 102.23 83.3927C102.644 83.3927 102.996 83.538 103.287 83.8285C103.581 84.1151 103.806 84.525 103.961 85.0583C104.12 85.5877 104.2 86.2185 104.2 86.9508V86.9627C104.2 87.695 104.12 88.3278 103.961 88.8611C103.806 89.3944 103.581 89.8063 103.287 90.0969C102.996 90.3874 102.644 90.5327 102.23 90.5327ZM114.038 91.4699C114.751 91.4699 115.362 91.3366 115.871 91.07C116.38 90.8033 116.77 90.4332 117.041 89.9596C117.316 89.482 117.453 88.9308 117.453 88.3059V82.6525H116.378V88.2343C116.378 88.6761 116.287 89.0661 116.104 89.4044C115.921 89.7387 115.654 90.0014 115.304 90.1924C114.958 90.3834 114.536 90.4789 114.038 90.4789C113.541 90.4789 113.117 90.3834 112.767 90.1924C112.416 90.0014 112.148 89.7387 111.961 89.4044C111.778 89.0661 111.686 88.6761 111.686 88.2343V82.6525H110.612V88.3059C110.612 88.9308 110.749 89.482 111.023 89.9596C111.298 90.4332 111.69 90.8033 112.2 91.07C112.713 91.3366 113.326 91.4699 114.038 91.4699ZM122.462 91.4699C123.102 91.4699 123.662 91.3645 124.139 91.1535C124.617 90.9386 124.987 90.6362 125.25 90.2461C125.512 89.8561 125.644 89.3924 125.644 88.8552V88.8492C125.644 88.4353 125.558 88.0771 125.387 87.7746C125.22 87.4682 124.953 87.2095 124.587 86.9985C124.221 86.7876 123.737 86.6165 123.136 86.4851L122.181 86.2702C121.596 86.1429 121.176 85.9618 120.921 85.727C120.667 85.4921 120.539 85.2036 120.539 84.8613V84.8554C120.539 84.5529 120.623 84.2982 120.79 84.0912C120.961 83.8803 121.19 83.7191 121.477 83.6077C121.763 83.4962 122.086 83.4405 122.444 83.4405C122.818 83.4365 123.144 83.4922 123.423 83.6077C123.701 83.7231 123.924 83.8803 124.091 84.0793C124.259 84.2743 124.362 84.4992 124.402 84.7539L124.414 84.8315H125.488L125.482 84.7479C125.455 84.3181 125.309 83.93 125.047 83.5838C124.788 83.2375 124.438 82.9629 123.996 82.7599C123.554 82.553 123.047 82.4495 122.474 82.4495C121.881 82.4495 121.355 82.553 120.898 82.7599C120.444 82.9669 120.088 83.2534 119.829 83.6196C119.574 83.9857 119.445 84.4076 119.441 84.8852V84.8912C119.441 85.516 119.636 86.0294 120.026 86.4314C120.42 86.8294 121.049 87.1239 121.912 87.3149L122.868 87.5239C123.461 87.6552 123.889 87.8443 124.151 88.091C124.414 88.3338 124.545 88.6343 124.545 88.9925V88.9984C124.545 89.289 124.458 89.5457 124.283 89.7685C124.107 89.9914 123.867 90.1665 123.56 90.2939C123.258 90.4173 122.911 90.4789 122.521 90.4789C122.107 90.4789 121.737 90.4212 121.411 90.3058C121.089 90.1904 120.83 90.0292 120.635 89.8223C120.444 89.6113 120.334 89.3626 120.307 89.076L120.301 89.0104H119.226L119.232 89.076C119.276 89.5417 119.433 89.9556 119.704 90.3178C119.978 90.676 120.348 90.9585 120.814 91.1655C121.284 91.3685 121.833 91.4699 122.462 91.4699ZM127.435 91.267H130.39C131.245 91.267 131.976 91.0978 132.581 90.7595C133.186 90.4173 133.649 89.9257 133.972 89.285C134.294 88.6402 134.455 87.8661 134.455 86.9627V86.9508C134.455 86.0473 134.294 85.2752 133.972 84.6345C133.649 83.9937 133.184 83.5042 132.575 83.1659C131.97 82.8236 131.241 82.6525 130.39 82.6525H127.435V91.267ZM128.509 90.2999V83.6196H130.318C130.955 83.6196 131.5 83.7529 131.954 84.0196C132.407 84.2822 132.754 84.6643 132.993 85.1658C133.235 85.6633 133.357 86.2622 133.357 86.9627V86.9746C133.357 87.6711 133.237 88.2681 132.998 88.7656C132.76 89.2631 132.413 89.6432 131.96 89.9058C131.506 90.1685 130.959 90.2999 130.318 90.2999H128.509ZM138.198 91.267H139.273V83.6196H142.049V82.6525H135.422V83.6196H138.198V91.267Z" fill="#121926"/>
<path d="M154.896 109.366H37V111.113H154.896V109.366Z" fill="#121926" fill-opacity="0.04" mask="url(#path-30-inside-7_264_9011)"/>
<mask id="path-36-inside-8_264_9011" fill="white">
<path d="M154.896 64.2941H224.76V110.24H154.896V64.2941Z"/>
</mask>
<path d="M154.896 64.2941H224.76V110.24H154.896V64.2941Z" fill="white"/>
<rect x="168.869" y="78.267" width="43.9864" height="18" rx="3.49321" fill="#121926" fill-opacity="0.08"/>
<path d="M173.288 90.267H174.434V87.427H175.99C176 87.427 176.01 87.427 176.021 87.427C176.031 87.427 176.041 87.427 176.051 87.427L177.556 90.267H178.881L177.228 87.253C177.679 87.0995 178.03 86.8352 178.282 86.4599C178.535 86.0813 178.661 85.6429 178.661 85.1448V85.1346C178.661 84.6775 178.56 84.2818 178.359 83.9475C178.161 83.6097 177.878 83.3488 177.51 83.1646C177.141 82.9769 176.705 82.8831 176.2 82.8831H173.288V90.267ZM174.434 86.4957V83.8451H176.051C176.498 83.8451 176.846 83.9628 177.095 84.1982C177.348 84.4336 177.474 84.7559 177.474 85.1653V85.1755C177.474 85.5951 177.353 85.9209 177.111 86.1529C176.868 86.3815 176.527 86.4957 176.087 86.4957H174.434ZM182.34 90.3744C182.698 90.3744 183.014 90.3284 183.287 90.2363C183.563 90.1442 183.799 90.0231 183.993 89.873C184.191 89.7229 184.35 89.5574 184.469 89.3766C184.588 89.1924 184.672 89.0082 184.72 88.824L184.73 88.7779H183.655L183.635 88.8189C183.594 88.9144 183.517 89.0116 183.405 89.1105C183.295 89.2095 183.154 89.293 182.98 89.3613C182.809 89.4261 182.605 89.4585 182.366 89.4585C182.055 89.4585 181.786 89.3903 181.557 89.2538C181.332 89.1173 181.158 88.9195 181.035 88.6602C180.913 88.401 180.851 88.0888 180.851 87.7238V87.2786C180.851 86.8966 180.913 86.5742 181.035 86.3115C181.162 86.0488 181.332 85.851 181.547 85.7179C181.765 85.5815 182.013 85.5133 182.289 85.5133C182.565 85.5133 182.809 85.5781 183.021 85.7077C183.232 85.8373 183.398 86.0335 183.517 86.2962C183.64 86.5554 183.701 86.8829 183.701 87.2786V87.7238L184.234 86.987H180.293V87.7801H184.786V87.3912C184.786 86.8317 184.686 86.3439 184.484 85.9277C184.283 85.5081 183.995 85.1824 183.619 84.9504C183.248 84.7184 182.802 84.6024 182.284 84.6024C181.769 84.6024 181.319 84.7235 180.933 84.9657C180.551 85.2079 180.254 85.5457 180.043 85.9789C179.835 86.4122 179.731 86.9187 179.731 87.4987V87.5038C179.731 88.0905 179.835 88.5988 180.043 89.0287C180.254 89.4585 180.554 89.7911 180.943 90.0265C181.332 90.2584 181.798 90.3744 182.34 90.3744ZM186.5 90.267H187.611V85.5849H188.829V84.7099H187.601V84.1777C187.601 83.898 187.665 83.6848 187.795 83.5381C187.928 83.3914 188.148 83.3181 188.455 83.3181C188.54 83.3181 188.619 83.3215 188.69 83.3283C188.765 83.3317 188.829 83.3385 188.88 83.3488V82.53C188.781 82.513 188.677 82.5011 188.568 82.4942C188.462 82.484 188.348 82.4789 188.225 82.4789C187.836 82.4789 187.514 82.5386 187.258 82.658C187.002 82.7774 186.811 82.9599 186.685 83.2055C186.562 83.4477 186.5 83.7547 186.5 84.1266V84.7099H185.584V85.5849H186.5V90.267ZM191.93 90.3744C192.199 90.3744 192.44 90.3369 192.651 90.2619C192.866 90.1868 193.05 90.0793 193.204 89.9395C193.357 89.7962 193.478 89.6256 193.567 89.4278H193.649V90.267H194.764V84.7099H193.649V87.9694C193.649 88.1946 193.62 88.3958 193.562 88.5732C193.507 88.7506 193.422 88.9024 193.306 89.0287C193.19 89.1549 193.047 89.2521 192.876 89.3203C192.706 89.3851 192.511 89.4175 192.293 89.4175C191.883 89.4175 191.588 89.3033 191.408 89.0747C191.227 88.8461 191.136 88.5033 191.136 88.0462V84.7099H190.026V88.3072C190.026 88.7438 190.096 89.1173 190.236 89.4278C190.379 89.7348 190.592 89.9702 190.875 90.1339C191.162 90.2943 191.513 90.3744 191.93 90.3744ZM196.361 90.267H197.471V87.0074C197.471 86.7072 197.524 86.4497 197.63 86.2348C197.739 86.0164 197.893 85.8493 198.09 85.7333C198.288 85.6139 198.522 85.5542 198.791 85.5542C199.201 85.5542 199.501 85.6685 199.692 85.897C199.886 86.1222 199.984 86.4667 199.984 86.9307V90.267H201.099V86.6697C201.099 86.0079 200.934 85.4979 200.603 85.1397C200.272 84.7815 199.794 84.6024 199.17 84.6024C198.764 84.6024 198.428 84.686 198.162 84.8532C197.896 85.0203 197.695 85.2523 197.558 85.5491H197.471V84.7099H196.361V90.267ZM204.671 90.3591C204.93 90.3591 205.169 90.3215 205.387 90.2465C205.606 90.168 205.798 90.0572 205.965 89.9139C206.133 89.7672 206.271 89.5932 206.38 89.392H206.462V90.267H207.577V82.53H206.462V85.59H206.38C206.281 85.3888 206.146 85.2165 205.976 85.0732C205.805 84.9265 205.609 84.8139 205.387 84.7355C205.166 84.6536 204.927 84.6127 204.671 84.6127C204.2 84.6127 203.792 84.7304 203.448 84.9657C203.103 85.1977 202.837 85.5286 202.65 85.9584C202.462 86.3883 202.368 86.8966 202.368 87.4833V87.4935C202.368 88.0769 202.462 88.5835 202.65 89.0133C202.841 89.4431 203.108 89.7757 203.453 90.0111C203.801 90.2431 204.207 90.3591 204.671 90.3591ZM204.988 89.4073C204.681 89.4073 204.415 89.3306 204.19 89.177C203.968 89.0235 203.798 88.8035 203.678 88.517C203.562 88.2304 203.504 87.8893 203.504 87.4935V87.4833C203.504 87.0842 203.562 86.7431 203.678 86.4599C203.798 86.1734 203.968 85.9533 204.19 85.7998C204.415 85.6429 204.681 85.5644 204.988 85.5644C205.295 85.5644 205.56 85.6429 205.781 85.7998C206.006 85.9533 206.179 86.1734 206.298 86.4599C206.421 86.7465 206.482 87.0876 206.482 87.4833V87.4935C206.482 87.8859 206.423 88.227 206.303 88.517C206.184 88.8035 206.012 89.0235 205.786 89.177C205.561 89.3306 205.295 89.4073 204.988 89.4073Z" fill="#121926"/>
<path d="M224.76 109.366H154.896V111.113H224.76V109.366Z" fill="#121926" fill-opacity="0.04" mask="url(#path-36-inside-8_264_9011)"/>
<mask id="path-40-inside-9_264_9011" fill="white">
<path d="M224.76 64.2941H423V110.24H224.76V64.2941Z"/>
</mask>
<path d="M224.76 64.2941H423V110.24H224.76V64.2941Z" fill="white"/>
<path d="M242.655 91.4699C243.296 91.4699 243.855 91.3645 244.333 91.1535C244.81 90.9386 245.181 90.6362 245.443 90.2461C245.706 89.8561 245.837 89.3924 245.837 88.8552V88.8492C245.837 88.4353 245.752 88.0771 245.581 87.7746C245.413 87.4682 245.147 87.2095 244.781 86.9985C244.414 86.7876 243.931 86.6165 243.33 86.4851L242.375 86.2702C241.79 86.1429 241.37 85.9618 241.115 85.727C240.86 85.4921 240.733 85.2036 240.733 84.8613V84.8554C240.733 84.5529 240.817 84.2982 240.984 84.0912C241.155 83.8803 241.384 83.7191 241.67 83.6077C241.957 83.4962 242.279 83.4405 242.637 83.4405C243.012 83.4365 243.338 83.4922 243.616 83.6077C243.895 83.7231 244.118 83.8803 244.285 84.0793C244.452 84.2743 244.556 84.4992 244.596 84.7539L244.607 84.8315H245.682L245.676 84.7479C245.648 84.3181 245.503 83.93 245.24 83.5838C244.982 83.2375 244.631 82.9629 244.19 82.7599C243.748 82.553 243.24 82.4495 242.667 82.4495C242.074 82.4495 241.549 82.553 241.091 82.7599C240.638 82.9669 240.281 83.2534 240.023 83.6196C239.768 83.9857 239.639 84.4076 239.635 84.8852V84.8912C239.635 85.516 239.83 86.0294 240.22 86.4314C240.614 86.8294 241.242 87.1239 242.106 87.3149L243.061 87.5239C243.654 87.6552 244.082 87.8443 244.345 88.091C244.607 88.3338 244.739 88.6343 244.739 88.9925V88.9984C244.739 89.289 244.651 89.5457 244.476 89.7685C244.301 89.9914 244.06 90.1665 243.754 90.2939C243.451 90.4173 243.105 90.4789 242.715 90.4789C242.301 90.4789 241.931 90.4212 241.605 90.3058C241.282 90.1904 241.024 90.0292 240.829 89.8223C240.638 89.6113 240.528 89.3626 240.5 89.076L240.494 89.0104H239.42L239.426 89.076C239.469 89.5417 239.627 89.9556 239.897 90.3178C240.172 90.676 240.542 90.9585 241.008 91.1655C241.477 91.3685 242.027 91.4699 242.655 91.4699ZM249.264 91.3804C249.554 91.3804 249.821 91.3406 250.064 91.261C250.307 91.1774 250.524 91.056 250.715 90.8968C250.91 90.7376 251.075 90.5446 251.21 90.3178H251.306V91.267H252.344V86.8612C252.344 86.4155 252.249 86.0334 252.058 85.715C251.871 85.3926 251.594 85.1459 251.228 84.9748C250.866 84.8036 250.422 84.718 249.897 84.718C249.439 84.718 249.031 84.7897 248.673 84.933C248.315 85.0723 248.022 85.2693 247.795 85.524C247.573 85.7747 247.433 86.0692 247.377 86.4075L247.372 86.4433H248.41L248.416 86.4254C248.5 86.1747 248.665 85.9817 248.912 85.8463C249.158 85.7071 249.475 85.6374 249.861 85.6374C250.343 85.6374 250.703 85.7429 250.941 85.9538C251.184 86.1608 251.306 86.4632 251.306 86.8612V88.8671C251.306 89.1735 251.226 89.4482 251.067 89.6909C250.912 89.9337 250.697 90.1267 250.422 90.27C250.147 90.4093 249.833 90.4789 249.479 90.4789C249.105 90.4789 248.794 90.3894 248.548 90.2103C248.301 90.0272 248.177 89.7725 248.177 89.4462V89.4342C248.177 89.1158 248.289 88.8691 248.512 88.694C248.739 88.5188 249.097 88.4174 249.586 88.3895L251.825 88.2462V87.4164L249.461 87.5597C248.963 87.5876 248.54 87.6791 248.189 87.8343C247.839 87.9895 247.573 88.2044 247.389 88.479C247.206 88.7497 247.115 89.076 247.115 89.4581V89.47C247.115 89.8601 247.208 90.1984 247.395 90.4849C247.586 90.7715 247.843 90.9924 248.166 91.1476C248.492 91.3028 248.858 91.3804 249.264 91.3804ZM254.303 91.267H255.341V87.4582C255.341 87.0801 255.409 86.7558 255.544 86.4851C255.684 86.2145 255.879 86.0055 256.129 85.8583C256.38 85.711 256.677 85.6374 257.019 85.6374C257.532 85.6374 257.91 85.7787 258.153 86.0613C258.4 86.3399 258.523 86.7697 258.523 87.3507V91.267H259.562V87.1C259.562 86.5906 259.474 86.1588 259.299 85.8046C259.124 85.4503 258.869 85.1817 258.535 84.9986C258.201 84.8116 257.793 84.718 257.311 84.718C256.838 84.718 256.448 84.8136 256.141 85.0046C255.835 85.1917 255.6 85.4563 255.437 85.7986H255.341V82.2764H254.303V91.267ZM261.466 91.267H262.505V84.8315H261.466V91.267ZM261.992 83.5897C262.191 83.5897 262.36 83.5201 262.499 83.3808C262.638 83.2375 262.708 83.0684 262.708 82.8734C262.708 82.6744 262.638 82.5052 262.499 82.3659C262.36 82.2266 262.191 82.157 261.992 82.157C261.797 82.157 261.628 82.2266 261.484 82.3659C261.345 82.5052 261.275 82.6744 261.275 82.8734C261.275 83.0684 261.345 83.2375 261.484 83.3808C261.628 83.5201 261.797 83.5897 261.992 83.5897ZM264.523 91.267H265.562V82.2764H264.523V91.267ZM272.475 92.6639C272.853 92.6639 273.215 92.638 273.561 92.5863C273.911 92.5346 274.22 92.4629 274.487 92.3714V91.6192C274.363 91.6749 274.196 91.7247 273.985 91.7684C273.774 91.8122 273.539 91.846 273.281 91.8699C273.026 91.8938 272.761 91.9057 272.487 91.9057C271.635 91.9057 270.895 91.7326 270.266 91.3864C269.637 91.0441 269.15 90.5605 268.803 89.9357C268.457 89.3069 268.284 88.5686 268.284 87.7209V87.7089C268.284 87.0881 268.381 86.519 268.576 86.0016C268.775 85.4842 269.054 85.0344 269.412 84.6524C269.774 84.2703 270.198 83.9758 270.684 83.7688C271.173 83.5579 271.711 83.4524 272.296 83.4524C273.092 83.4524 273.792 83.6057 274.397 83.9121C275.002 84.2146 275.474 84.6384 275.812 85.1837C276.15 85.7289 276.319 86.3598 276.319 87.0761V87.0881C276.319 87.5736 276.268 87.9975 276.164 88.3597C276.065 88.7218 275.921 89.0024 275.734 89.2014C275.551 89.4004 275.334 89.4999 275.084 89.4999C274.869 89.4999 274.701 89.4422 274.582 89.3268C274.467 89.2074 274.409 89.0442 274.409 88.8372V85.3329H273.508V86.0613H273.412C273.297 85.8026 273.113 85.5976 272.863 85.4464C272.612 85.2951 272.329 85.2195 272.015 85.2195C271.609 85.2195 271.249 85.325 270.935 85.5359C270.624 85.7429 270.379 86.0314 270.2 86.4015C270.025 86.7717 269.938 87.1975 269.938 87.6791V87.691C269.938 88.1965 270.023 88.6382 270.194 89.0163C270.369 89.3944 270.612 89.6909 270.923 89.9058C271.237 90.1168 271.601 90.2222 272.015 90.2222C272.365 90.2222 272.67 90.1407 272.928 89.9775C273.187 89.8103 273.38 89.5755 273.508 89.273H273.603L273.609 89.3089C273.657 89.5994 273.8 89.8342 274.039 90.0133C274.282 90.1884 274.574 90.276 274.916 90.276C275.374 90.276 275.77 90.1466 276.104 89.8879C276.443 89.6253 276.703 89.2571 276.886 88.7835C277.07 88.3059 277.161 87.7448 277.161 87.1V87.0881C277.161 86.2244 276.958 85.4643 276.552 84.8076C276.146 84.1469 275.583 83.6315 274.863 83.2614C274.146 82.8873 273.316 82.7002 272.373 82.7002C271.641 82.7002 270.972 82.8196 270.367 83.0584C269.766 83.2972 269.247 83.6375 268.809 84.0793C268.371 84.521 268.033 85.0464 267.794 85.6553C267.56 86.2642 267.442 86.9368 267.442 87.6731V87.6851C267.442 88.4452 267.56 89.1318 267.794 89.7447C268.029 90.3576 268.365 90.8809 268.803 91.3147C269.241 91.7525 269.77 92.0868 270.391 92.3177C271.012 92.5485 271.707 92.6639 272.475 92.6639ZM272.152 89.3805C271.894 89.3805 271.669 89.3148 271.478 89.1835C271.291 89.0482 271.145 88.8552 271.042 88.6044C270.942 88.3537 270.893 88.0572 270.893 87.7149V87.703C270.893 87.3567 270.942 87.0602 271.042 86.8135C271.145 86.5627 271.291 86.3717 271.478 86.2404C271.669 86.109 271.898 86.0434 272.164 86.0434C272.57 86.0434 272.893 86.1926 273.131 86.4911C273.374 86.7896 273.496 87.1935 273.496 87.703V87.7149C273.496 88.2204 273.374 88.6243 273.131 88.9268C272.889 89.2293 272.562 89.3805 272.152 89.3805ZM280.546 91.3804C280.836 91.3804 281.103 91.3406 281.346 91.261C281.589 91.1774 281.806 91.056 281.997 90.8968C282.192 90.7376 282.357 90.5446 282.492 90.3178H282.588V91.267H283.626V86.8612C283.626 86.4155 283.531 86.0334 283.34 85.715C283.153 85.3926 282.876 85.1459 282.51 84.9748C282.148 84.8036 281.704 84.718 281.179 84.718C280.721 84.718 280.313 84.7897 279.955 84.933C279.597 85.0723 279.304 85.2693 279.077 85.524C278.854 85.7747 278.715 86.0692 278.659 86.4075L278.654 86.4433H279.692L279.698 86.4254C279.782 86.1747 279.947 85.9817 280.194 85.8463C280.44 85.7071 280.757 85.6374 281.143 85.6374C281.625 85.6374 281.985 85.7429 282.223 85.9538C282.466 86.1608 282.588 86.4632 282.588 86.8612V88.8671C282.588 89.1735 282.508 89.4482 282.349 89.6909C282.194 89.9337 281.979 90.1267 281.704 90.27C281.429 90.4093 281.115 90.4789 280.761 90.4789C280.387 90.4789 280.076 90.3894 279.83 90.2103C279.583 90.0272 279.459 89.7725 279.459 89.4462V89.4342C279.459 89.1158 279.571 88.8691 279.794 88.694C280.021 88.5188 280.379 88.4174 280.868 88.3895L283.107 88.2462V87.4164L280.743 87.5597C280.245 87.5876 279.822 87.6791 279.471 87.8343C279.121 87.9895 278.854 88.2044 278.671 88.479C278.488 88.7497 278.397 89.076 278.397 89.4581V89.47C278.397 89.8601 278.49 90.1984 278.677 90.4849C278.868 90.7715 279.125 90.9924 279.448 91.1476C279.774 91.3028 280.14 91.3804 280.546 91.3804ZM285.525 91.267H286.564V87.4582C286.564 87.0801 286.631 86.7558 286.767 86.4851C286.906 86.2145 287.101 86.0055 287.352 85.8583C287.602 85.711 287.899 85.6374 288.241 85.6374C288.754 85.6374 289.133 85.7787 289.375 86.0613C289.622 86.3399 289.745 86.7697 289.745 87.3507V91.267H290.784V87.1C290.784 86.3359 290.589 85.7488 290.199 85.3389C289.813 84.925 289.258 84.718 288.534 84.718C288.06 84.718 287.67 84.8136 287.364 85.0046C287.057 85.1917 286.822 85.4563 286.659 85.7986H286.564V84.8315H285.525V91.267ZM292.724 91.267H293.763V82.2764H292.724V91.267ZM296.778 91.267H298.085L295.029 87.4522L294.265 88.1149L296.778 91.267ZM293.632 88.9507L294.593 88.0253L294.844 87.7806L297.9 84.8315H296.641L293.859 87.6433H293.584L293.632 88.9507ZM299.303 91.267H300.342V87.2791C300.342 86.9647 300.414 86.6901 300.557 86.4553C300.704 86.2205 300.905 86.0374 301.16 85.906C301.415 85.7747 301.707 85.709 302.037 85.709C302.153 85.709 302.26 85.715 302.36 85.727C302.463 85.7349 302.569 85.7488 302.676 85.7687V84.7598C302.624 84.7519 302.549 84.7439 302.449 84.736C302.354 84.724 302.256 84.718 302.157 84.718C301.723 84.718 301.359 84.8116 301.064 84.9986C300.77 85.1857 300.561 85.4484 300.437 85.7866H300.342V84.8315H299.303V91.267ZM304.031 91.3267C304.246 91.3267 304.429 91.251 304.581 91.0998C304.732 90.9446 304.807 90.7615 304.807 90.5506C304.807 90.3357 304.732 90.1526 304.581 90.0014C304.429 89.8501 304.246 89.7745 304.031 89.7745C303.82 89.7745 303.637 89.8501 303.482 90.0014C303.331 90.1526 303.255 90.3357 303.255 90.5506C303.255 90.7615 303.331 90.9446 303.482 91.0998C303.637 91.251 303.82 91.3267 304.031 91.3267ZM306.885 91.267H307.924V85.6911H309.386V84.8315H307.924V84.1449C307.924 83.7907 308.003 83.5241 308.162 83.345C308.326 83.1659 308.592 83.0763 308.962 83.0763C309.054 83.0763 309.142 83.0783 309.225 83.0823C309.309 83.0863 309.382 83.0942 309.446 83.1062V82.2764C309.339 82.2565 309.227 82.2426 309.112 82.2346C309 82.2227 308.881 82.2167 308.753 82.2167C308.348 82.2167 308.005 82.2863 307.727 82.4256C307.448 82.5609 307.237 82.7699 307.094 83.0525C306.955 83.3311 306.885 83.6853 306.885 84.1151V84.8315H305.816V85.6911H306.885V91.267ZM310.909 91.267H311.947V84.8315H310.909V91.267ZM311.434 83.5897C311.633 83.5897 311.802 83.5201 311.941 83.3808C312.081 83.2375 312.15 83.0684 312.15 82.8734C312.15 82.6744 312.081 82.5052 311.941 82.3659C311.802 82.2266 311.633 82.157 311.434 82.157C311.239 82.157 311.07 82.2266 310.926 82.3659C310.787 82.5052 310.718 82.6744 310.718 82.8734C310.718 83.0684 310.787 83.2375 310.926 83.3808C311.07 83.5201 311.239 83.5897 311.434 83.5897ZM313.905 91.267H314.944V87.4582C314.944 87.0801 315.012 86.7558 315.147 86.4851C315.286 86.2145 315.481 86.0055 315.732 85.8583C315.983 85.711 316.279 85.6374 316.622 85.6374C317.135 85.6374 317.513 85.7787 317.756 86.0613C318.003 86.3399 318.126 86.7697 318.126 87.3507V91.267H319.165V87.1C319.165 86.3359 318.97 85.7488 318.58 85.3389C318.194 84.925 317.639 84.718 316.914 84.718C316.441 84.718 316.051 84.8136 315.744 85.0046C315.438 85.1917 315.203 85.4563 315.04 85.7986H314.944V84.8315H313.905V91.267ZM322.812 91.3804C323.103 91.3804 323.37 91.3406 323.612 91.261C323.855 91.1774 324.072 91.056 324.263 90.8968C324.458 90.7376 324.623 90.5446 324.759 90.3178H324.854V91.267H325.893V86.8612C325.893 86.4155 325.797 86.0334 325.606 85.715C325.419 85.3926 325.143 85.1459 324.777 84.9748C324.414 84.8036 323.971 84.718 323.445 84.718C322.988 84.718 322.58 84.7897 322.221 84.933C321.863 85.0723 321.571 85.2693 321.344 85.524C321.121 85.7747 320.982 86.0692 320.926 86.4075L320.92 86.4433H321.959L321.965 86.4254C322.048 86.1747 322.213 85.9817 322.46 85.8463C322.707 85.7071 323.023 85.6374 323.409 85.6374C323.891 85.6374 324.251 85.7429 324.49 85.9538C324.733 86.1608 324.854 86.4632 324.854 86.8612V88.8671C324.854 89.1735 324.775 89.4482 324.615 89.6909C324.46 89.9337 324.245 90.1267 323.971 90.27C323.696 90.4093 323.382 90.4789 323.027 90.4789C322.653 90.4789 322.343 90.3894 322.096 90.2103C321.849 90.0272 321.726 89.7725 321.726 89.4462V89.4342C321.726 89.1158 321.837 88.8691 322.06 88.694C322.287 88.5188 322.645 88.4174 323.135 88.3895L325.374 88.2462V87.4164L323.009 87.5597C322.512 87.5876 322.088 87.6791 321.738 87.8343C321.388 87.9895 321.121 88.2044 320.938 88.479C320.755 88.7497 320.663 89.076 320.663 89.4581V89.47C320.663 89.8601 320.757 90.1984 320.944 90.4849C321.135 90.7715 321.392 90.9924 321.714 91.1476C322.04 91.3028 322.407 91.3804 322.812 91.3804ZM327.791 91.267H328.83V87.4582C328.83 87.0801 328.898 86.7558 329.033 86.4851C329.172 86.2145 329.367 86.0055 329.618 85.8583C329.869 85.711 330.165 85.6374 330.508 85.6374C331.021 85.6374 331.399 85.7787 331.642 86.0613C331.889 86.3399 332.012 86.7697 332.012 87.3507V91.267H333.051V87.1C333.051 86.3359 332.856 85.7488 332.466 85.3389C332.08 84.925 331.524 84.718 330.8 84.718C330.327 84.718 329.936 84.8136 329.63 85.0046C329.324 85.1917 329.089 85.4563 328.926 85.7986H328.83V84.8315H327.791V91.267ZM337.564 91.3804C338.081 91.3804 338.523 91.2948 338.889 91.1237C339.255 90.9526 339.55 90.7177 339.773 90.4192C339.996 90.1168 340.151 89.7725 340.238 89.3865L340.25 89.3208L339.224 89.3268L339.212 89.3626C339.092 89.7208 338.895 89.9934 338.621 90.1805C338.346 90.3675 337.992 90.461 337.558 90.461C337.176 90.461 336.844 90.3615 336.561 90.1625C336.278 89.9636 336.06 89.683 335.904 89.3208C335.749 88.9546 335.672 88.5248 335.672 88.0313V88.0194C335.672 87.5338 335.747 87.1139 335.898 86.7597C336.054 86.4015 336.272 86.1249 336.555 85.9299C336.838 85.7349 337.172 85.6374 337.558 85.6374C338.02 85.6374 338.392 85.7488 338.674 85.9717C338.957 86.1946 339.138 86.4652 339.218 86.7836L339.224 86.8015H340.256L340.25 86.7657C340.187 86.3836 340.041 86.0394 339.815 85.7329C339.588 85.4225 339.285 85.1757 338.907 84.9927C338.529 84.8096 338.079 84.718 337.558 84.718C336.957 84.718 336.436 84.8554 335.994 85.13C335.552 85.4006 335.21 85.7827 334.967 86.2762C334.728 86.7697 334.609 87.3507 334.609 88.0194V88.0313C334.609 88.7119 334.73 89.3029 334.973 89.8044C335.216 90.3058 335.558 90.6939 336 90.9685C336.442 91.2431 336.963 91.3804 337.564 91.3804ZM344.399 91.3804C344.778 91.3804 345.118 91.3326 345.42 91.2371C345.727 91.1376 345.991 91.0063 346.214 90.8431C346.437 90.676 346.618 90.4909 346.758 90.2879C346.901 90.081 347 89.868 347.056 89.6491L347.068 89.6014H346.029L346.005 89.6551C345.95 89.7825 345.852 89.9078 345.713 90.0312C345.573 90.1546 345.396 90.2561 345.181 90.3357C344.967 90.4153 344.714 90.4551 344.423 90.4551C344.033 90.4551 343.695 90.3695 343.408 90.1984C343.122 90.0232 342.901 89.7745 342.746 89.4521C342.591 89.1258 342.513 88.7338 342.513 88.2761V87.8642C342.513 87.3826 342.593 86.9766 342.752 86.6463C342.911 86.316 343.126 86.0672 343.396 85.9001C343.671 85.7289 343.982 85.6434 344.328 85.6434C344.674 85.6434 344.98 85.725 345.247 85.8881C345.514 86.0473 345.723 86.2901 345.874 86.6165C346.025 86.9428 346.101 87.3587 346.101 87.8642V88.2761L346.614 87.5179H341.988V88.3477H347.146V87.9418C347.146 87.301 347.032 86.7398 346.805 86.2583C346.582 85.7727 346.26 85.3946 345.838 85.124C345.42 84.8534 344.919 84.718 344.334 84.718C343.753 84.718 343.245 84.8593 342.811 85.1419C342.378 85.4245 342.041 85.8165 341.803 86.318C341.568 86.8194 341.45 87.4025 341.45 88.0671V88.0731C341.45 88.7457 341.568 89.3307 341.803 89.8282C342.041 90.3217 342.38 90.7038 342.817 90.9744C343.259 91.2451 343.787 91.3804 344.399 91.3804Z" fill="#121926"/>
<path d="M423 109.366H224.76V111.113H423V109.366Z" fill="#121926" fill-opacity="0.04" mask="url(#path-40-inside-9_264_9011)"/>
</g>
</g>
<defs>
<clipPath id="clip0_264_9011">
<rect width="254" height="119" fill="white" transform="translate(37 28)"/>
</clipPath>
<clipPath id="clip1_264_9011">
<rect x="62.7341" y="27.9648" width="334.533" height="40.2196" rx="9.08235" fill="white"/>
</clipPath>
<clipPath id="clip2_264_9011">
<rect width="15.1373" height="15.1373" fill="white" transform="translate(74.844 40.5061)"/>
</clipPath>
<clipPath id="clip3_264_9011">
<rect x="62.7341" y="106.679" width="334.533" height="40.2196" rx="9.08235" fill="white"/>
</clipPath>
<clipPath id="clip4_264_9011">
<rect width="15.1373" height="15.1373" fill="white" transform="translate(74.844 119.22)"/>
</clipPath>
<clipPath id="clip5_264_9011">
<rect x="37" y="64.2941" width="386" height="46.1104" rx="9.08235" fill="white"/>
</clipPath>
<clipPath id="clip6_264_9011">
<rect width="17.4661" height="17.4661" fill="white" transform="translate(50.9729 78.5339)"/>
</clipPath>
</defs>
</svg>
